<?xml version="1.0" encoding="utf-8"?>
<!-- Generator: Adobe Illustrator 19.0.0, SVG Export Plug-In . SVG Version: 6.00 Build 0)  -->
<svg version="1.1" id="Layer_1" xmlns="http://www.w3.org/2000/svg" xmlns:xlink="http://www.w3.org/1999/xlink" x="0px" y="0px"
	 viewBox="0 0 800 800" style="enable-background:new 0 0 800 800;" xml:space="preserve">
<style type="text/css">
	.st0{fill:url(#XMLID_55_);}
	.st1{fill:none;stroke:#FFFFFF;stroke-width:6;stroke-miterlimit:10;}
	.st2{fill:none;stroke:#FFFFFF;stroke-width:2;stroke-miterlimit:10;}
	.st3{fill:none;stroke:#FFFFFF;stroke-width:4;stroke-miterlimit:10;}
	.st4{fill:none;stroke:#B1DED4;stroke-width:8;stroke-miterlimit:10;}
	.st5{fill:#FFFFFF;stroke:#FFFFFF;stroke-width:4;stroke-miterlimit:10;}
	.st6{fill:#FFFFFF;}
	.st7{fill:url(#XMLID_56_);stroke:#FFFFFF;stroke-width:9;stroke-miterlimit:10;}
	.st8{fill:#FFFFFF;stroke:#FFFFFF;stroke-miterlimit:10;}
	.st9{fill:none;stroke:#FFFFFF;stroke-width:8;stroke-miterlimit:10;}
</style>
<linearGradient id="XMLID_55_" gradientUnits="userSpaceOnUse" x1="58.7689" y1="399.676" x2="751.7689" y2="399.676">
	<stop  offset="0" style="stop-color:#D2D2D2"/>
	<stop  offset="1" style="stop-color:#C3DCCA"/>
</linearGradient>
<ellipse id="XMLID_3_" class="st0" cx="405.3" cy="399.7" rx="346.5" ry="329.5"/>
<path id="XMLID_6_" class="st1" d="M525,163.4"/>
<path id="XMLID_1_" class="st1" d="M347.3,483.4"/>
<path id="XMLID_7_" class="st1" d="M558.8,181.1"/>
<path id="XMLID_2_" class="st1" d="M378.5,499.7"/>
<path id="XMLID_9_" class="st2" d="M334.3,561.2"/>
<path id="XMLID_8_" class="st2" d="M326.6,555"/>
<path id="XMLID_16_" class="st3" d="M515.3,228.2"/>
<path id="XMLID_15_" class="st3" d="M408.3,340.2"/>
<path id="XMLID_20_" class="st4" d="M568.4,507.2"/>
<path id="XMLID_21_" class="st4" d="M673.4,446.2"/>
<path id="XMLID_18_" class="st4" d="M568.4,507.2"/>
<g id="XMLID_36_">
	<path id="XMLID_64_" class="st5" d="M447.4,509.2c4.5,0,8.1-2.8,8.1-6.3c0-3.5-3.6-6.3-8.1-6.3h-105c-4.5,0-8,2.8-8,6.3
		c0,3.5,3.6,6.3,8,6.3H447.4z M435.2,509.2"/>
	<path id="XMLID_61_" class="st5" d="M467.8,521.8H318c-3.6,0-6.5,2.8-6.5,6.3c0,3.5,2.9,6.3,6.5,6.3h149.7c3.6,0,6.5-2.8,6.5-6.3
		C474.3,524.6,471.3,521.8,467.8,521.8L467.8,521.8z M467.8,521.8"/>
	<path id="XMLID_57_" class="st5" d="M251.5,226.2c-10.7,0-19.4,8.5-19.4,18.9c0,10.4,8.7,18.9,19.4,18.9c10.6,0,19.3-8.5,19.3-18.9
		C270.9,234.6,262.2,226.2,251.5,226.2L251.5,226.2z M251.5,254.5"/>
	<path id="XMLID_53_" class="st5" d="M305,257.6"/>
	<path id="XMLID_44_" class="st5" d="M200.8,201v377.4h390.6V201H200.8z M213.9,213.6h364.5v62.9H213.9V213.6z M578.4,565.8H213.9
		V289.1h364.5V565.8z M578.4,565.8"/>
	<path id="XMLID_40_" class="st5" d="M396.1,477.8c46.7,0,84.6-36.7,84.6-81.8c0-45.1-38-81.8-84.6-81.8
		c-46.7,0-84.6,36.7-84.6,81.8C311.5,441.1,349.5,477.8,396.1,477.8L396.1,477.8z M396.1,326.8c39.5,0,71.6,31.1,71.6,69.2
		c0,38.1-32.1,69.2-71.6,69.2c-39.5,0-71.6-31.1-71.6-69.2C324.5,357.9,356.7,326.8,396.1,326.8L396.1,326.8z M396.1,326.8"/>
	<path id="XMLID_37_" class="st5" d="M385,425.6"/>
</g>
<ellipse id="XMLID_5_" class="st6" cx="307.2" cy="245" rx="19.7" ry="18.9"/>
<ellipse id="XMLID_4_" class="st6" cx="362.7" cy="245.1" rx="19.7" ry="18.9"/>
<ellipse id="XMLID_23_" class="st6" cx="394.1" cy="388.7" rx="31.4" ry="30.5"/>
<g id="XMLID_24_">
	<path id="XMLID_52_" class="st6" d="M345.1,444.1c9.1-20.8,30.9-24.1,49.4-24.9c15.4-0.7,32.4-0.7,44.2,12.1c1.7,1.9,3.3,4.1,4,6.8
		c1.5,5.8-1.5,12-4.9,16.3c-12.6,16.3-31.7,22.1-49.4,19.5c-17.7-2.6-34.2-12.7-49.5-24.5"/>
	<g id="XMLID_47_">
		<path id="XMLID_51_" class="st6" d="M347.2,445.4c5.7-12.6,16.7-19.1,29.9-21.8c12.6-2.6,27.5-3.5,40.1-1
			c7.5,1.5,14.5,4.7,19.6,10.4c7.5,8.2,1.4,17.8-5,24.4c-10.4,10.6-25.2,15.6-39.9,14.4c-19.4-1.6-36.7-13-51.7-24.6
			c-2.5-2-5,2.4-2.5,4.3c15.5,11.9,33,23,52.9,25.1c16.4,1.8,33.2-3.9,44.9-15.7c5.6-5.7,11.3-13.5,10-22c-1.2-8-9-14.2-15.9-17.6
			c-14.2-6.9-32.2-5.7-47.5-3.7c-16.6,2.2-31.9,9.2-39.2,25.1C341.6,445.8,345.9,448.3,347.2,445.4L347.2,445.4z"/>
	</g>
</g>
<linearGradient id="XMLID_56_" gradientUnits="userSpaceOnUse" x1="515.2736" y1="541.3514" x2="649.4406" y2="541.3514">
	<stop  offset="0" style="stop-color:#D2D2D2"/>
	<stop  offset="1" style="stop-color:#C3DCCA"/>
</linearGradient>
<ellipse id="XMLID_26_" class="st7" cx="582.4" cy="541.4" rx="67.1" ry="66.8"/>
<g id="XMLID_27_">
	<path id="XMLID_46_" class="st8" d="M629.4,529.1c-1.4-15.2-12-26.2-25.2-26.2c-8.3,0-15.3,5.4-19.7,11.9
		c-4.4-6.5-11.4-11.9-19.7-11.9c-13.2,0-23.8,11-25.2,26.2c-0.2,1-0.5,4.5,0.8,10.1c1.9,8.2,6.2,15.6,12.6,21.4l28.9,26.4
		c0.8,0.7,1.7,1.1,2.7,1.1c0.9,0,1.9-0.4,2.7-1l28.9-26.5c6.3-5.9,10.7-13.3,12.6-21.4C629.9,533.7,629.6,530.1,629.4,529.1
		L629.4,529.1z M621.9,537.4c-1.5,6.7-5.1,12.7-10.4,17.6l-27.1,24.8l-27-24.8c-5.3-4.8-8.8-10.9-10.4-17.6c-1-4.5-0.7-7-0.7-7
		l0.1-0.4c0.8-9.7,7.4-19.6,18.3-19.6c7.6,0,13.8,6.7,16.6,13.4l3.2,7.7l3.2-7.7c2.8-6.7,9-13.4,16.5-13.4
		c10.9,0,17.5,9.8,18.4,19.9C622.6,530.3,623,532.9,621.9,537.4L621.9,537.4z M621.9,537.4"/>
	<path id="XMLID_43_" class="st8" d="M527.2,569.8"/>
</g>
<g id="XMLID_29_">
	<path id="XMLID_63_" class="st6" d="M583.6,526.7c0.2-10.4-11.3-18.6-21.5-16.6c-10.2,2-17.5,12.3-17.9,22.7
		c-0.4,10.4,5.2,20.3,13.1,27.1c4.7,4,10.1,7.1,14.3,11.6c3.2,3.4,6.2,7.8,10.8,7.9c3.5,0.1,6.4-2.3,9-4.6
		c4.9-4.4,9.9-8.7,14.8-13.1c7.1-6.3,14.6-13.2,16.5-22.5c1.3-6.3-0.2-12.9-1.8-19.2c-0.5-2.2-1.1-4.4-2.6-6
		c-1.2-1.3-2.9-2.2-4.6-2.7c-6.1-2-13.1-1.2-18.6,2.3s-9.3,9.4-10.1,15.8c-1.4-0.2-2.8-1.2-3.2-2.6"/>
</g>
<ellipse id="XMLID_45_" class="st9" cx="405.5" cy="399" rx="390.5" ry="374"/>
</svg>
