<?xml version="1.0" encoding="utf-8"?>
<!-- Generator: Adobe Illustrator 23.0.3, SVG Export Plug-In . SVG Version: 6.00 Build 0)  -->
<svg version="1.1" id="Layer_1" xmlns="http://www.w3.org/2000/svg" xmlns:xlink="http://www.w3.org/1999/xlink" x="0px" y="0px"
	 viewBox="0 0 682.3 493.5" style="enable-background:new 0 0 682.3 493.5;" xml:space="preserve">
<style type="text/css">
	.st0{fill:#F3F2F4;}
	.st1{fill:#FFFFFF;}
	.st2{fill:#181818;}
	.st3{fill:#EF9531;stroke:#16152B;stroke-width:2;stroke-miterlimit:10;}
	.st4{fill:#4257A7;}
	.st5{fill:#F9B41A;}
	.st6{fill:#FFEFAE;}
	.st7{fill:#C49893;}
	.st8{fill:#EF9531;}
	.st9{opacity:0.6;fill:#808285;enable-background:new    ;}
	.st10{fill:none;}
	.st11{fill:#DAEEE7;}
	.st12{fill:#16152B;}
	.st13{opacity:0.6;fill:#A7A9AC;enable-background:new    ;}
	.st14{fill:#DB8127;}
	.st15{fill:#F2C9C9;}
	.st16{fill:#F8F8F9;}
	.st17{fill:#F5971E;}
	.st18{fill:none;stroke:#FFFFFF;stroke-width:4;stroke-miterlimit:10;}
	.st19{fill:#EF952F;stroke:#FFFFFF;stroke-width:6;stroke-miterlimit:10;}
	.st20{fill:#A97C50;}
	.st21{opacity:0.7;fill:#FFFFFF;enable-background:new    ;}
	.st22{fill-rule:evenodd;clip-rule:evenodd;fill:#16152B;}
	.st23{fill-rule:evenodd;clip-rule:evenodd;fill:#F2C9C9;}
	.st24{fill:none;stroke:#CAC8C8;stroke-miterlimit:10;}
	.st25{fill:#F49A38;}
	.st26{fill:#F6AA5D;}
	.st27{fill:#F6B87E;}
	.st28{fill:#1A1A34;}
	.st29{fill:#2E2E54;}
	.st30{fill:#51506D;}
	.st31{fill-rule:evenodd;clip-rule:evenodd;fill:#EF9531;}
	.st32{fill-rule:evenodd;clip-rule:evenodd;fill:#FFFFFF;}
	.st33{fill-rule:evenodd;clip-rule:evenodd;fill:#C49893;}
	.st34{fill-rule:evenodd;clip-rule:evenodd;fill:#C1D2E2;}
	.st35{fill:#5C6161;}
	.st36{fill:#EED7BD;}
	.st37{fill:#F5FAF7;}
	.st38{fill:#B2BFBA;}
	.st39{opacity:0.35;fill:#FBFBFB;enable-background:new    ;}
	.st40{opacity:0.28;fill:#FBFBFB;enable-background:new    ;}
	.st41{fill:#16142A;}
	.st42{fill:#F3F2F4;stroke:#16152B;stroke-miterlimit:10;}
	.st43{fill:#3C286A;}
	.st44{fill:none;stroke:#000000;stroke-width:2;stroke-miterlimit:10;}
	.st45{opacity:0.25;fill:#FBFBFB;}
</style>
<path id="XMLID_8_" class="st0" d="M422.2,471.5H51.4c-3.6,0-6.4-2.9-6.4-6.4V144c0-3.6,2.9-6.4,6.4-6.4h370.8
	c3.6,0,6.4,2.9,6.4,6.4v321C428.7,468.5,425.7,471.5,422.2,471.5z"/>
<g>
	
		<image style="overflow:visible;opacity:0.25;" width="111" height="128" xlink:href="670E000C.png"  transform="matrix(1 0 0 1 7.709 68.6316)">
	</image>
	<g>
		<path class="st1" d="M98.2,188.6H23.8c-6.5,0-11.8-5.3-11.8-11.8V84.9c0-6.5,5.3-11.8,11.8-11.8h74.4c6.5,0,11.8,5.3,11.8,11.8
			v91.9C110,183.3,104.7,188.6,98.2,188.6z"/>
	</g>
</g>
<g>
	<path class="st2" d="M100.3,131.1H90.2v-11.4l-20.1-0.1l-7.9-3.3v-4.2h-2.5v4.2l-7.9,3.3l-20.1,0.1v11.4H21.6v15.2h22.9v-15.2H34.3
		v-8.9l17.5-0.1l7.9,3.5v5.5H49.5v15.2h22.9v-15.2H62.2v-5.5l7.9-3.5l17.5,0.1v8.9H77.5v15.2h10.2v3.8H59.7v6.3h-5.1
		c-2.8,0-5.1,2.3-5.1,5.1c0,2.8,2.3,5.1,5.1,5.1h12.7c2.8,0,5.1-2.3,5.1-5.1c0-2.8-2.3-5.1-5.1-5.1h-5.1v-3.8h27.9v-6.3h10.2V131.1z
		 M41.9,143.8H24.1v-10.2h17.8V143.8z M69.9,143.8H52.1v-10.2h17.8V143.8z M61,123.4l-5.7-2.5l5.7-2.3l5.7,2.3L61,123.4z
		 M69.9,161.6c0,1.4-1.1,2.5-2.5,2.5H54.6c-1.4,0-2.5-1.1-2.5-2.5c0-1.4,1.1-2.5,2.5-2.5h12.7C68.7,159.1,69.9,160.2,69.9,161.6
		L69.9,161.6z M97.8,143.8H80v-10.2h17.8V143.8z M97.8,143.8"/>
	<path class="st2" d="M73.4,104.6"/>
</g>
<rect x="46.7" y="97.6" class="st3" width="30.4" height="14.5"/>
<circle class="st0" cx="487.7" cy="234" r="173.7"/>
<g id="XMLID_160_">
	<g id="XMLID_183_">
		<g id="XMLID_386_">
			<path id="XMLID_397_" class="st4" d="M113.5,101.7c-3.9-2.2-5.5-7.1-3.3-11.1c2.2-3.9,7.1-5.5,11.1-3.3c3.9,2.2,5.5,7.1,3.3,11.1
				C122.4,102.4,117.5,103.9,113.5,101.7z"/>
			<path id="XMLID_394_" class="st5" d="M100.9,125.1C97,123,95.5,118,97.6,114c2.2-3.9,7.1-5.5,11.1-3.3c3.9,2.2,5.5,7.1,3.3,11.1
				C109.8,125.8,105,127.3,100.9,125.1z"/>
		</g>
		<g id="XMLID_190_">
			<path id="XMLID_385_" class="st6" d="M91.5,90c-3.9-2.2-5.5-7.1-3.3-11.1c2.2-3.9,7.1-5.5,11.1-3.3s5.5,7.1,3.3,11.1
				C100.4,90.6,95.5,92,91.5,90z"/>
		</g>
	</g>
</g>
<g id="XMLID_177_">
	<g id="XMLID_181_">
		
			<image style="overflow:visible;opacity:0.25;enable-background:new    ;" width="467" height="313" id="XMLID_381_" xlink:href="670E000B.png"  transform="matrix(0.222 0 0 0.222 252.1545 409.6056)">
		</image>
		<g id="XMLID_274_">
			<path id="XMLID_379_" class="st1" d="M260.6,443.9c-3.9-1.4-5.8-5.8-4.5-9.9l5.2-15.5c1.3-4,5.5-6.2,9.4-4.7l72.8,27.1
				c3.9,1.4,5.8,5.8,4.5,9.9l-5.2,15.5c-1.3,4-5.5,6.2-9.4,4.7L260.6,443.9z"/>
		</g>
	</g>
</g>
<g id="XMLID_683_">
	
		<image style="overflow:visible;opacity:0.25;enable-background:new    ;" width="496" height="646" xlink:href="670E0016.png"  transform="matrix(0.2234 0 0 0.2234 520.1771 190.4738)">
	</image>
	<g>
		<g>
			<path class="st1" d="M524,220.3l32.2,107.5l67-26.3L591,193.9L524,220.3z M560.6,322.4c-0.9,0.4-1.9-0.3-2.3-1.4
				c-0.4-1.1,0.1-2.4,1-2.7c0.9-0.4,1.9,0.3,2.3,1.4C561.9,320.8,561.5,322,560.6,322.4z M558.3,314.9c-0.9,0.4-1.9-0.3-2.3-1.4
				c-0.4-1.1,0.1-2.4,1-2.7c0.9-0.4,1.9,0.3,2.3,1.4C559.7,313.3,559.2,314.6,558.3,314.9z M556.1,307.5c-0.9,0.4-1.9-0.3-2.3-1.4
				c-0.4-1.1,0.1-2.4,1-2.7c0.9-0.4,1.9,0.3,2.3,1.4C557.4,305.9,557,307.1,556.1,307.5z M553.9,300c-0.9,0.4-1.9-0.3-2.3-1.4
				s0.1-2.4,1-2.7c0.9-0.4,1.9,0.3,2.3,1.4C555.2,298.5,554.7,299.7,553.9,300z M551.6,292.6c-0.9,0.4-1.9-0.3-2.3-1.4
				c-0.4-1.1,0.1-2.4,1-2.7c0.9-0.4,1.9,0.3,2.3,1.4C552.9,291,552.6,292.3,551.6,292.6z M549.4,285.1c-0.9,0.4-1.9-0.3-2.3-1.4
				c-0.4-1.1,0.1-2.4,1-2.7c0.9-0.4,1.9,0.3,2.3,1.4C550.8,283.5,550.3,284.7,549.4,285.1z M547.1,277.7c-0.9,0.4-1.9-0.3-2.3-1.4
				c-0.4-1.1,0.1-2.4,1-2.7c0.9-0.4,1.9,0.3,2.3,1.4C548.5,276.1,548,277.3,547.1,277.7z M544.9,270.3c-0.9,0.4-1.9-0.3-2.3-1.4
				c-0.4-1.1,0.1-2.4,1-2.7c0.9-0.4,1.9,0.3,2.3,1.4C546.3,268.7,545.8,269.9,544.9,270.3z M542.7,262.8c-0.9,0.4-1.9-0.3-2.3-1.4
				c-0.4-1.1,0.1-2.4,1-2.7c0.9-0.4,1.9,0.3,2.3,1.4C544,261.2,543.6,262.5,542.7,262.8z M540.4,255.4c-0.9,0.4-1.9-0.3-2.3-1.4
				c-0.4-1.1,0.1-2.4,1-2.7c0.9-0.4,1.9,0.3,2.3,1.4C541.8,253.8,541.4,255,540.4,255.4z M538.2,247.9c-0.9,0.4-1.9-0.3-2.3-1.4
				c-0.4-1.1,0.1-2.4,1-2.7c0.9-0.4,1.9,0.3,2.3,1.4C539.6,246.4,539.1,247.6,538.2,247.9z M536,240.5c-0.9,0.4-1.9-0.3-2.3-1.4
				s0.1-2.4,1-2.7s1.9,0.3,2.3,1.4C537.3,239,536.9,240.1,536,240.5z M533.8,233c-0.9,0.4-1.9-0.3-2.3-1.4c-0.4-1.1,0.1-2.4,1-2.7
				s1.9,0.3,2.3,1.4C535.1,231.4,534.6,232.7,533.8,233z M531.5,225.6c-0.9,0.4-1.9-0.3-2.3-1.4c-0.4-1.1,0.1-2.4,1-2.7
				c0.9-0.4,1.9,0.3,2.3,1.4C532.8,224,532.4,225.2,531.5,225.6z"/>
		</g>
	</g>
</g>
<path id="XMLID_133_" class="st7" d="M540.8,253.7"/>
<path id="XMLID_128_" class="st7" d="M590.3,230.5"/>
<path id="XMLID_135_" class="st7" d="M542.7,259.8"/>
<path id="XMLID_134_" class="st7" d="M592.2,236.6"/>
<path id="XMLID_137_" class="st7" d="M544.6,265.9"/>
<path id="XMLID_136_" class="st7" d="M594.1,242.6"/>
<path id="XMLID_144_" class="st7" d="M546.4,272"/>
<path id="XMLID_143_" class="st7" d="M596,248.7"/>
<path id="XMLID_156_" class="st7" d="M548.3,278"/>
<path id="XMLID_154_" class="st7" d="M597.9,254.8"/>
<path id="XMLID_157_" class="st7" d="M550.2,284.1"/>
<path id="XMLID_147_" class="st7" d="M599.8,260.8"/>
<path id="XMLID_159_" class="st7" d="M552.1,290.1"/>
<path id="XMLID_146_" class="st7" d="M601.6,266.9"/>
<path id="XMLID_265_" class="st7" d="M554,296.2"/>
<path id="XMLID_142_" class="st7" d="M603.5,272.9"/>
<path id="XMLID_319_" class="st7" d="M555.2,300.7"/>
<path id="XMLID_141_" class="st7" d="M604.6,277.5"/>
<path id="XMLID_327_" class="st7" d="M557.1,306.8"/>
<path id="XMLID_209_" class="st7" d="M606.5,283.5"/>
<path id="XMLID_330_" class="st7" d="M559,312.9"/>
<path id="XMLID_208_" class="st7" d="M608.4,289.6"/>
<path id="XMLID_331_" class="st7" d="M560.8,319"/>
<path id="XMLID_207_" class="st7" d="M610.3,295.7"/>
<path id="XMLID_332_" class="st7" d="M562.7,325"/>
<path id="XMLID_200_" class="st7" d="M612.3,301.8"/>
<path id="XMLID_333_" class="st7" d="M564.6,331.1"/>
<path id="XMLID_199_" class="st7" d="M614.1,307.8"/>
<path id="XMLID_338_" class="st7" d="M566.5,337.1"/>
<path id="XMLID_189_" class="st7" d="M616,313.9"/>
<path id="XMLID_339_" class="st7" d="M568.4,343.1"/>
<path id="XMLID_188_" class="st7" d="M617.9,319.9"/>
<g id="XMLID_70_">
	
		<image style="overflow:visible;opacity:0.45;enable-background:new    ;" width="1625" height="900" xlink:href="670E0019.png"  transform="matrix(0.2239 0 0 0.2239 120.5401 184.0983)">
	</image>
	<g>
		<path class="st8" d="M470.9,377H128.4c-3.1,0-5.6-2.5-5.6-5.6V192.7c0-3.1,2.5-5.6,5.6-5.6H471c3.1,0,5.6,2.5,5.6,5.6v178.6
			C476.5,374.4,474,377,470.9,377z"/>
	</g>
</g>
<path id="XMLID_86_" class="st8" d="M534.4,289.3c-2.5-0.2-4.8,1.8-5,4.4l0,0c-0.2,2.6,1.7,5,4.2,5.2l12.9,1c2.5,0.2,4.8-1.8,5-4.4
	l0,0c0.2-2.6-1.7-5-4.2-5.2"/>
<path id="XMLID_139_" class="st9" d="M533,289.2l-15.1-1.2c-2.5-0.2-4.8,1.8-5,4.4l0,0c-0.2,2.6,1.7,5,4.2,5.2l15.1,1.2
	c2.5,0.2,4.8-1.8,5-4.4l0,0C537.5,291.7,535.5,289.4,533,289.2z"/>
<line id="XMLID_130_" class="st10" x1="509.4" y1="294.9" x2="553" y2="350.7"/>
<line id="XMLID_129_" class="st10" x1="553" y1="350.7" x2="503" y2="381.6"/>
<path id="XMLID_127_" class="st11" d="M533.4,288.5l-12.9-1c-2.5-0.2-4.8,1.8-5,4.4l0,0c-0.2,2.6,1.7,5,4.2,5.2l12.9,1
	c2.5,0.2,4.8-1.8,5-4.4l0,0C537.8,291,535.9,288.7,533.4,288.5z"/>
<path id="XMLID_126_" class="st12" d="M531.3,287.4l-15.1-1.2c-2.5-0.2-4.8,1.8-5,4.4l0,0c-0.2,2.6,1.7,5,4.2,5.2l15.1,1.2
	c2.5,0.2,4.8-1.8,5-4.4l0,0C535.7,289.9,533.9,287.6,531.3,287.4z"/>
<path id="XMLID_122_" class="st8" d="M504.3,286.3l-12.9-1c-2.5-0.2-4.8,1.8-5,4.4l0,0c-0.2,2.6,1.7,5,4.2,5.2l12.9,1
	c2.5,0.2,4.8-1.8,5-4.4l0,0C508.7,288.8,506.9,286.4,504.3,286.3z"/>
<ellipse id="XMLID_120_" class="st13" cx="82.8" cy="258.6" rx="21.8" ry="20.7"/>
<path id="XMLID_117_" class="st13" d="M70.8,273.7"/>
<ellipse id="XMLID_116_" class="st13" cx="87.7" cy="255.3" rx="10.4" ry="10.5"/>
<polygon id="XMLID_85_" class="st14" points="519,75.7 79.7,75.7 70.3,82 526.6,82 "/>
<rect id="XMLID_69_" x="152.2" y="184.3" class="st14" width="298.3" height="11.7"/>
<rect id="XMLID_66_" x="149.1" y="203.7" class="st15" width="20.6" height="10.4"/>
<rect id="XMLID_20_" x="152.2" y="222.9" class="st1" width="13" height="7.9"/>
<g id="XMLID_67_">
	<g>
		<path class="st8" d="M474.2,185H122.7L70.3,83.4c-0.8-1.4,1.3-2.8,4.1-2.8h448.4c2.8,0,4.8,1.4,4.1,2.8L474.2,185z"/>
	</g>
</g>
<path id="XMLID_68_" class="st15" d="M464.6,180.6H138.1L89.4,95.9c-0.7-1.2,1.2-2.4,3.9-2.4h416.5c2.6,0,4.5,1.1,3.9,2.4
	L464.6,180.6z"/>
<g id="XMLID_93_">
	
		<image style="overflow:visible;opacity:0.25;enable-background:new    ;" width="292" height="271" xlink:href="670E001A.png"  transform="matrix(0.2223 0 0 0.2223 367.3456 386.0399)">
	</image>
	<g>
		<polygon class="st8" points="407.5,437.6 370,423 386.3,388.8 423.8,403.5 		"/>
	</g>
</g>
<polygon id="XMLID_92_" class="st1" points="406.5,404.8 385.3,396.5 386.4,394.2 407.6,402.5 "/>
<polygon id="XMLID_91_" class="st1" points="412.1,411.7 383.2,400.5 384.4,398.1 413.1,409.3 "/>
<polygon id="XMLID_90_" class="st1" points="414.5,417.4 381.3,404.4 382.4,402.1 415.7,415.1 "/>
<polygon id="XMLID_89_" class="st12" points="388.2,426.4 384.2,424.8 390,412.5 394.1,414.1 "/>
<polygon id="XMLID_88_" class="st16" points="392.2,427.9 388.1,426.3 392,418.2 396,419.8 "/>
<polygon id="XMLID_87_" class="st15" points="396.2,429.5 392.2,427.9 397.7,416.3 401.8,417.9 "/>
<g id="XMLID_102_">
	
		<image style="overflow:visible;opacity:0.25;enable-background:new    ;" width="267" height="250" id="XMLID_300_" xlink:href="670E001B.png"  transform="matrix(0.2202 0 0 0.2202 390.983 405.6181)">
	</image>
	<g id="XMLID_282_">
		<polygon id="XMLID_298_" class="st1" points="433.5,452.1 393.5,444.9 401.5,408.5 441.5,415.6 		"/>
	</g>
</g>
<polygon id="XMLID_100_" class="st1" points="436.8,426.7 401.3,420.3 401.8,417.9 437.3,424.3 "/>
<polygon id="XMLID_95_" class="st1" points="420.8,437.3 416.4,436.6 417.4,432.4 421.7,433.1 "/>
<polygon id="XMLID_96_" class="st17" points="419.6,419.8 404.1,417.2 404.3,415.9 419.9,418.5 "/>
<polygon id="XMLID_98_" class="st17" points="435.7,427.9 402.6,422 402.9,420.8 436,426.7 "/>
<polygon id="XMLID_104_" class="st8" points="433.7,433.7 400.6,427.7 400.9,426.5 433.9,432.4 "/>
<polygon id="XMLID_101_" class="st17" points="434.7,431.2 401.6,425.3 401.9,424.1 434.9,430 "/>
<polygon id="XMLID_99_" class="st17" points="433.3,436.5 400.2,430.6 400.4,429.2 433.5,435.2 "/>
<polygon id="XMLID_107_" class="st17" points="419.5,440.4 397.9,436.6 398.2,435.4 419.8,439.2 "/>
<polygon id="XMLID_106_" class="st17" points="431.8,440.1 398.8,434.1 399.1,432.9 432.1,438.8 "/>
<g id="XMLID_113_">
	
		<image style="overflow:visible;opacity:0.25;enable-background:new    ;" width="371" height="346" xlink:href="670E001E.png"  transform="matrix(0.223 0 0 0.223 41.8675 219.5227)">
	</image>
	<g>
		<ellipse class="st12" cx="80.5" cy="255.3" rx="33.8" ry="31"/>
		<ellipse class="st18" cx="80.5" cy="255.3" rx="33.8" ry="31"/>
	</g>
</g>
<ellipse id="XMLID_112_" class="st19" cx="79.8" cy="255" rx="21.8" ry="20.7"/>
<path id="XMLID_111_" class="st20" d="M67.8,270.1"/>
<path id="XMLID_110_" class="st1" d="M114.5,258.4h-10.5c-1.8,0-3.3-1.5-3.3-3.3l0,0c0-1.8,1.5-3.3,3.3-3.3h10.5
	c1.8,0,3.3,1.5,3.3,3.3l0,0C117.7,257,116.3,258.4,114.5,258.4z"/>
<ellipse id="XMLID_108_" class="st21" cx="84.7" cy="251.7" rx="10.4" ry="10.5"/>
<g id="XMLID_114_">
	
		<image style="overflow:visible;opacity:0.25;enable-background:new    ;" width="429" height="713" xlink:href="670E0018.png"  transform="matrix(0.2247 0 0 0.2247 471.5312 286.7614)">
	</image>
	<g>
		<path class="st1" d="M534.3,438.4l-59.9-4.7l10.6-144l63.4,5c6.5,0.5,11.4,6.8,10.8,13.9l-8.5,114.2
			C550.2,432.1,542.8,439,534.3,438.4z"/>
	</g>
</g>
<polygon id="XMLID_118_" class="st12" points="477.1,434.3 468.1,433.7 478.8,289.6 487.7,290.3 "/>
<line id="XMLID_123_" class="st10" x1="507.7" y1="293.1" x2="551.3" y2="349"/>
<line id="XMLID_124_" class="st10" x1="551.3" y1="349" x2="501.2" y2="379.8"/>
<line id="XMLID_167_" class="st10" x1="462.9" y1="275.9" x2="559.4" y2="277.9"/>
<rect id="XMLID_9_" x="167.2" y="222.7" class="st1" width="13" height="7.9"/>
<rect id="XMLID_11_" x="182.4" y="222.7" class="st1" width="13" height="7.7"/>
<rect id="XMLID_10_" x="197.6" y="222.7" class="st1" width="13" height="7.7"/>
<rect id="XMLID_15_" x="212.6" y="222.9" class="st1" width="13" height="7.9"/>
<rect id="XMLID_14_" x="227.7" y="222.7" class="st1" width="13" height="7.9"/>
<rect id="XMLID_13_" x="243" y="222.7" class="st1" width="13" height="7.7"/>
<rect id="XMLID_12_" x="258.1" y="222.7" class="st1" width="13" height="7.7"/>
<rect id="XMLID_22_" x="273.7" y="222.9" class="st1" width="13" height="7.9"/>
<rect id="XMLID_21_" x="288.8" y="222.7" class="st1" width="13" height="7.9"/>
<rect id="XMLID_19_" x="304.1" y="222.7" class="st1" width="13" height="7.7"/>
<rect id="XMLID_17_" x="319.1" y="222.7" class="st1" width="13" height="7.7"/>
<rect id="XMLID_26_" x="334.4" y="222.9" class="st1" width="13" height="7.9"/>
<rect id="XMLID_25_" x="349.5" y="222.7" class="st1" width="13" height="7.9"/>
<rect id="XMLID_24_" x="364.8" y="222.7" class="st1" width="13" height="7.7"/>
<rect id="XMLID_23_" x="384.4" y="222.7" class="st1" width="13" height="7.7"/>
<rect id="XMLID_30_" x="399.7" y="222.9" class="st1" width="13" height="7.9"/>
<rect id="XMLID_29_" x="414.7" y="222.7" class="st1" width="13" height="7.9"/>
<rect id="XMLID_28_" x="430" y="222.7" class="st1" width="14.9" height="8.5"/>
<rect id="XMLID_33_" x="152" y="233.8" class="st1" width="13" height="10.2"/>
<rect id="XMLID_32_" x="167" y="233.7" class="st1" width="13" height="10.2"/>
<rect id="XMLID_31_" x="182.3" y="233.7" class="st1" width="13" height="10"/>
<rect id="XMLID_27_" x="197.4" y="233.7" class="st1" width="13" height="10"/>
<rect id="XMLID_37_" x="212.6" y="234.2" class="st1" width="13" height="10.2"/>
<rect id="XMLID_36_" x="227.7" y="234" class="st1" width="13" height="10.2"/>
<rect id="XMLID_35_" x="243" y="234" class="st1" width="13" height="10"/>
<rect id="XMLID_34_" x="258.1" y="234" class="st1" width="13" height="10"/>
<rect id="XMLID_41_" x="273.3" y="234.2" class="st1" width="13" height="10.2"/>
<rect id="XMLID_40_" x="288.5" y="234" class="st1" width="13" height="10.2"/>
<rect id="XMLID_39_" x="303.7" y="234" class="st1" width="13" height="10"/>
<rect id="XMLID_38_" x="318.7" y="234" class="st1" width="13" height="10"/>
<rect id="XMLID_45_" x="333.7" y="233.7" class="st1" width="28.3" height="10.7"/>
<rect id="XMLID_44_" x="348.7" y="234" class="st1" width="13" height="10.2"/>
<rect id="XMLID_43_" x="364.1" y="234" class="st1" width="13" height="10"/>
<rect id="XMLID_42_" x="384.6" y="234" class="st1" width="12" height="10"/>
<rect id="XMLID_49_" x="400.1" y="233.6" class="st1" width="13" height="10.2"/>
<rect id="XMLID_48_" x="415.1" y="233.5" class="st1" width="13" height="10.2"/>
<rect id="XMLID_47_" x="430.4" y="233.5" class="st1" width="14.5" height="10.3"/>
<rect id="XMLID_52_" x="152" y="246.1" class="st1" width="28.3" height="10.2"/>
<rect id="XMLID_51_" x="167" y="245.9" class="st1" width="13" height="10.2"/>
<rect id="XMLID_50_" x="182.3" y="245.9" class="st1" width="13" height="10"/>
<rect id="XMLID_46_" x="197.4" y="245.9" class="st1" width="13" height="10"/>
<rect id="XMLID_53_" x="151.9" y="258.3" class="st1" width="37.4" height="10.2"/>
<rect id="XMLID_54_" x="151.7" y="270.5" class="st1" width="22.5" height="10.2"/>
<rect id="XMLID_56_" x="151.9" y="295.7" class="st1" width="13" height="10.2"/>
<rect id="XMLID_61_" x="191.7" y="258.1" class="st1" width="13" height="10.2"/>
<rect id="XMLID_60_" x="206.8" y="258" class="st1" width="13" height="10.2"/>
<rect id="XMLID_59_" x="222.1" y="258" class="st1" width="13" height="10"/>
<rect id="XMLID_58_" x="237.1" y="258" class="st1" width="13" height="10"/>
<rect id="XMLID_138_" x="212.8" y="245.9" class="st1" width="13" height="10.2"/>
<rect id="XMLID_65_" x="227.9" y="245.8" class="st1" width="13" height="10.2"/>
<rect id="XMLID_64_" x="243.2" y="245.8" class="st1" width="13" height="10"/>
<rect id="XMLID_63_" x="258.3" y="245.8" class="st1" width="13" height="10"/>
<rect id="XMLID_62_" x="273.5" y="246.3" class="st1" width="13" height="9.6"/>
<rect id="XMLID_184_" x="176.4" y="270.7" class="st1" width="13" height="10.2"/>
<rect id="XMLID_174_" x="191.5" y="270.6" class="st1" width="13" height="10.2"/>
<rect id="XMLID_172_" x="206.8" y="270.6" class="st1" width="13" height="10"/>
<rect id="XMLID_161_" x="221.9" y="270.6" class="st1" width="13" height="10"/>
<rect id="XMLID_203_" x="167.4" y="296.1" class="st1" width="13" height="10.2"/>
<rect id="XMLID_202_" x="182.4" y="295.9" class="st1" width="13" height="10.2"/>
<rect id="XMLID_201_" x="197.8" y="295.9" class="st1" width="13" height="10"/>
<rect id="XMLID_198_" x="212.8" y="295.9" class="st1" width="13" height="10"/>
<rect id="XMLID_241_" x="288.8" y="246.1" class="st1" width="13" height="10.2"/>
<rect id="XMLID_240_" x="303.9" y="245.9" class="st1" width="13" height="10.2"/>
<rect id="XMLID_239_" x="319.1" y="245.9" class="st1" width="13" height="10"/>
<rect id="XMLID_57_" x="228.5" y="295.7" class="st1" width="90.5" height="10.2"/>
<rect id="XMLID_197_" x="306.2" y="295.9" class="st1" width="13" height="10.2"/>
<rect id="XMLID_185_" x="321.4" y="295.9" class="st1" width="13" height="10"/>
<rect id="XMLID_140_" x="336.5" y="295.9" class="st1" width="13" height="10"/>
<rect id="XMLID_227_" x="252.6" y="258.1" class="st1" width="13" height="10.2"/>
<rect id="XMLID_119_" x="267.7" y="258" class="st1" width="13" height="10.2"/>
<rect id="XMLID_18_" x="282.9" y="258" class="st1" width="13" height="10"/>
<rect id="XMLID_16_" x="298.1" y="258" class="st1" width="13" height="10"/>
<rect id="XMLID_231_" x="313.7" y="258.1" class="st1" width="13" height="10.2"/>
<rect id="XMLID_230_" x="328.8" y="258" class="st1" width="13" height="10.2"/>
<rect id="XMLID_237_" x="344.6" y="245.8" class="st1" width="33.4" height="33.9"/>
<rect id="XMLID_228_" x="334.4" y="245.9" class="st1" width="13" height="10"/>
<rect id="XMLID_236_" x="365" y="246.3" class="st1" width="13" height="9.6"/>
<rect id="XMLID_235_" x="384.7" y="246.1" class="st1" width="13" height="10.2"/>
<rect id="XMLID_233_" x="399.9" y="245.9" class="st1" width="13" height="10.2"/>
<rect id="XMLID_229_" x="415.1" y="245.9" class="st1" width="13" height="10"/>
<rect id="XMLID_243_" x="384.7" y="257.6" class="st1" width="13" height="10.2"/>
<rect id="XMLID_242_" x="399.9" y="257.4" class="st1" width="13" height="10.2"/>
<rect id="XMLID_238_" x="415.1" y="257.4" class="st1" width="13" height="10"/>
<rect id="XMLID_301_" x="430.9" y="246.6" class="st1" width="13" height="33.3"/>
<rect id="XMLID_245_" x="430.9" y="257.2" class="st1" width="13" height="10"/>
<rect id="XMLID_305_" x="236.8" y="270.5" class="st1" width="13" height="10.2"/>
<rect id="XMLID_304_" x="251.8" y="270.3" class="st1" width="13" height="10.2"/>
<rect id="XMLID_303_" x="267.1" y="270.3" class="st1" width="13" height="10"/>
<rect id="XMLID_302_" x="282.2" y="270.3" class="st1" width="13" height="10"/>
<rect id="XMLID_309_" x="297.5" y="270.1" class="st1" width="13" height="10.2"/>
<rect id="XMLID_308_" x="312.5" y="269.9" class="st1" width="13" height="10.2"/>
<rect id="XMLID_310_" x="400.4" y="269.9" class="st1" width="20.7" height="10"/>
<rect id="XMLID_55_" x="423" y="269.9" class="st1" width="13" height="10"/>
<rect id="XMLID_374_" x="151.2" y="283" class="st1" width="13" height="10.2"/>
<rect id="XMLID_373_" x="166.3" y="282.8" class="st1" width="13" height="10.2"/>
<rect id="XMLID_372_" x="181.5" y="282.8" class="st1" width="13" height="10"/>
<rect id="XMLID_371_" x="196.6" y="282.8" class="st1" width="13" height="10"/>
<rect id="XMLID_370_" x="211.9" y="283.2" class="st1" width="13" height="10.2"/>
<rect id="XMLID_369_" x="227" y="283.1" class="st1" width="13" height="10.2"/>
<rect id="XMLID_368_" x="242.2" y="283.1" class="st1" width="13" height="10"/>
<rect id="XMLID_367_" x="257.4" y="283.1" class="st1" width="13" height="10"/>
<rect id="XMLID_366_" x="272.6" y="283.2" class="st1" width="13" height="10.2"/>
<rect id="XMLID_365_" x="287.7" y="283.1" class="st1" width="13" height="10.2"/>
<rect id="XMLID_364_" x="303" y="283.1" class="st1" width="13" height="10"/>
<rect id="XMLID_363_" x="318" y="283.1" class="st1" width="13" height="10"/>
<rect id="XMLID_315_" x="332.9" y="283.2" class="st1" width="28.3" height="10.2"/>
<rect id="XMLID_314_" x="363.3" y="283.1" class="st1" width="13" height="10"/>
<rect id="XMLID_194_" x="384.6" y="283.1" class="st1" width="12.2" height="10"/>
<rect id="XMLID_193_" x="399.3" y="282.8" class="st1" width="13" height="10.2"/>
<rect id="XMLID_191_" x="414.4" y="282.6" class="st1" width="13" height="10.2"/>
<rect id="XMLID_186_" x="429.7" y="282.6" class="st1" width="14.5" height="10.3"/>
<rect id="XMLID_306_" x="328.1" y="269.9" class="st1" width="13" height="10.2"/>
<rect id="XMLID_307_" x="384.8" y="269.7" class="st1" width="13" height="10.2"/>
<rect id="XMLID_204_" x="351.2" y="295.9" class="st1" width="13" height="10"/>
<rect id="XMLID_311_" x="366.5" y="295.8" class="st1" width="13" height="10"/>
<rect id="XMLID_226_" x="384.6" y="295.8" class="st1" width="12.2" height="10"/>
<rect id="XMLID_225_" x="399.3" y="295.6" class="st1" width="13" height="10.2"/>
<rect id="XMLID_206_" x="414.4" y="295.4" class="st1" width="13" height="10.2"/>
<rect id="XMLID_205_" x="429.7" y="295.4" class="st1" width="14.5" height="10.3"/>
<g id="XMLID_537_">
	<g id="XMLID_549_">
		<g id="XMLID_115_">
			
				<image style="overflow:visible;opacity:0.35;enable-background:new    ;" width="325" height="358" xlink:href="670E0006.png"  transform="matrix(0.2231 0 0 0.2231 105.0834 297.3661)">
			</image>
			<g>
				<path class="st12" d="M161.1,368.2c0.7,0.8,2.1,0.8,3.1-0.1l3.9-3.4c1-0.8,1.3-2.3,0.6-3l-53.1-61.4l-7.5,6.6L161.1,368.2z"/>
			</g>
		</g>
		<path id="XMLID_105_" class="st8" d="M115.5,300.4l-1.8-2.1c-0.7-0.8-2.1-0.8-3.1,0.1l-3.9,3.4c-1,0.8-1.3,2.3-0.6,3.1l1.8,2.1
			L115.5,300.4z"/>
	</g>
	<g id="XMLID_73_">
		
			<image style="overflow:visible;opacity:0.35;enable-background:new    ;" width="192" height="200" xlink:href="E506023D.png"  transform="matrix(0.2209 0 0 0.2209 150.1388 349.8446)">
		</image>
		<g>
			<path class="st1" d="M153.5,361.8c-0.7-0.8-0.5-2.2,0.6-3.1l6.2-5.4c1-0.8,2.4-0.9,3.1-0.1l20.1,23.2c0.7,0.8,0.5,2.2-0.6,3.1
				l-6.2,5.4c-1,0.8-2.4,0.9-3.1,0.1L153.5,361.8z"/>
		</g>
	</g>
</g>
<g id="XMLID_669_">
	
		<image style="overflow:visible;opacity:0.25;enable-background:new    ;" width="304" height="517" xlink:href="E506023A.png"  transform="matrix(0.2213 -1.720158e-02 1.720158e-02 0.2213 588.517 291.9255)">
	</image>
	<g>
		<polyline class="st22" points="598.5,394.4 639.6,289 652.8,296.9 611.7,402.2 598.5,394.4 		"/>
	</g>
</g>
<g id="XMLID_646_">
	<polygon id="XMLID_668_" class="st23" points="637.4,294.7 640.3,296.4 603.6,390.5 600.7,388.8 	"/>
	<polygon id="XMLID_667_" class="st23" points="636.1,298 642.7,301.9 641.9,303.9 635.3,300 	"/>
	<polygon id="XMLID_666_" class="st23" points="633.6,304.6 640.2,308.4 639.4,310.5 632.8,306.6 	"/>
	<polygon id="XMLID_665_" class="st23" points="631,311.1 637.6,315 636.8,317.1 630.2,313.2 	"/>
	<polygon id="XMLID_664_" class="st23" points="628.5,317.7 635,321.7 634.3,323.6 627.7,319.8 	"/>
	<polygon id="XMLID_663_" class="st23" points="625.9,324.3 632.5,328.2 631.7,330.2 625.1,326.3 	"/>
	<polygon id="XMLID_662_" class="st23" points="623.3,330.9 629.9,334.8 629.1,336.7 622.5,332.9 	"/>
	<polygon id="XMLID_661_" class="st23" points="620.7,337.5 627.4,341.3 626.6,343.3 620,339.4 	"/>
	<polygon id="XMLID_660_" class="st23" points="618.1,344 624.8,347.9 624,350 617.4,346 	"/>
	<polygon id="XMLID_659_" class="st23" points="615.6,350.6 622.2,354.5 621.5,356.5 614.9,352.6 	"/>
	<polygon id="XMLID_656_" class="st23" points="613,357.2 619.7,361 618.9,363.1 612.3,359.2 	"/>
	<polygon id="XMLID_655_" class="st23" points="610.4,363.7 617.1,367.7 616.3,369.7 609.7,365.8 	"/>
	<polygon id="XMLID_652_" class="st23" points="607.9,370.3 614.6,374.3 613.8,376.2 607.1,372.3 	"/>
	<polygon id="XMLID_651_" class="st23" points="605.3,376.9 612,380.8 611.2,382.8 604.5,378.9 	"/>
	<polygon id="XMLID_648_" class="st23" points="602.8,383.5 609.4,387.4 608.7,389.3 602,385.5 	"/>
</g>
<path id="XMLID_125_" class="st15" d="M337.6,364.3h-94c-3.5,0-6.4-2.9-6.4-6.4v-35.5c0-3.5,2.9-6.4,6.4-6.4h94
	c3.5,0,6.4,2.9,6.4,6.4v35.5C344,361.4,341.1,364.3,337.6,364.3z"/>
<g id="XMLID_348_">
	<path id="XMLID_346_" class="st8" d="M561.4,225.7l10.2,14.8l3.1-17.7C570,222,565.3,223.3,561.4,225.7z"/>
	<path id="XMLID_345_" class="st15" d="M552.7,238.2l17.7,3.1l-10.2-14.8C556.4,229.5,553.7,233.4,552.7,238.2z"/>
	<path id="XMLID_344_" class="st15" d="M588.9,231.8l-14.8,10.2l17.7,3.1C592.6,240.4,591.5,235.7,588.9,231.8z"/>
	<path id="XMLID_343_" class="st12" d="M588,230.4c-2.8-3.7-6.8-6.4-11.6-7.4l-3.1,17.7L588,230.4z"/>
	<path id="XMLID_342_" class="st8" d="M567.8,262.1l3.1-17.7l-14.8,10.2C559,258.3,563.1,261,567.8,262.1z"/>
	<path id="XMLID_341_" class="st12" d="M555.3,253.3L570,243l-17.7-3.1C551.7,244.7,552.8,249.4,555.3,253.3z"/>
	<path id="XMLID_340_" class="st15" d="M582.9,259.4l-10.2-14.8l-3.1,17.7C574.3,263,579,261.8,582.9,259.4z"/>
	<path id="XMLID_170_" class="st8" d="M591.7,246.9l-17.7-3.1l10.2,14.8C587.9,255.7,590.6,251.7,591.7,246.9z"/>
</g>
<line id="XMLID_347_" class="st24" x1="558.2" y1="280.9" x2="601.6" y2="265.1"/>
<line id="XMLID_349_" class="st24" x1="562.1" y1="287.5" x2="605.5" y2="271.7"/>
<line id="XMLID_350_" class="st24" x1="566.4" y1="294.3" x2="609.8" y2="278.5"/>
<line id="XMLID_380_" class="st10" x1="335.7" y1="471.8" x2="262.9" y2="444.8"/>
<polygon id="XMLID_377_" class="st17" points="306.5,461 316.6,430.8 328.6,435.4 318.5,465.4 "/>
<polygon id="XMLID_360_" class="st25" points="291.1,455.3 301.2,425.1 313.1,429.5 303,459.7 "/>
<polygon id="XMLID_351_" class="st26" points="276.4,449.8 286.5,419.7 298.4,424.1 288.4,454.3 "/>
<polygon id="XMLID_281_" class="st27" points="261.1,444.1 271.3,414 283.2,418.4 273.2,448.6 "/>
<g id="XMLID_280_">
	
		<image style="overflow:visible;opacity:0.25;enable-background:new    ;" width="408" height="433" id="XMLID_378_" xlink:href="E5060236.png"  transform="matrix(0.222 0 0 0.222 273.0347 384.4229)">
	</image>
	<g id="XMLID_273_">
		<path id="XMLID_362_" class="st1" d="M278.4,413c-2.9-3-2.8-8,0-11l11-11.6c2.9-3,7.5-3,10.4,0l54.5,57.6c2.9,3,2.8,8,0,11
			l-11,11.6c-2.9,3-7.5,3-10.4,0L278.4,413z"/>
	</g>
</g>
<path id="XMLID_271_" class="st12" d="M343.4,470.7l11-11.6c2.9-3,2.9-8,0-11l-6-6.3l-21.4,22.6l6,6.3
	C335.8,473.7,340.5,473.7,343.4,470.7z"/>
<polygon id="XMLID_267_" class="st28" points="311.1,447.6 332.6,425 341.5,434.5 320.1,457.1 "/>
<polygon id="XMLID_262_" class="st28" points="299.6,435.4 321,412.8 329.9,422.3 308.5,444.9 "/>
<polygon id="XMLID_182_" class="st29" points="289.3,424.4 310.8,401.8 319.8,411.3 298.3,433.9 "/>
<polygon id="XMLID_165_" class="st30" points="277.1,411.7 298.6,389.1 307.6,398.6 286.1,421.2 "/>
<g id="XMLID_724_">
	
		<image style="overflow:visible;opacity:0.25;enable-background:new    ;" width="304" height="279" xlink:href="E5060229.png"  transform="matrix(0.2216 0 0 0.2216 532.4118 407.3622)">
	</image>
	<g>
		<polyline class="st31" points="534.1,459.1 540.1,409.3 596.4,415.5 590.4,465.3 534.1,459.1 		"/>
	</g>
</g>
<polyline id="XMLID_723_" class="st32" points="535.7,457.3 541.7,407.6 596.4,415.5 590.4,465.3 535.7,457.3 "/>
<path id="XMLID_722_" class="st33" d="M536,454.7l54.7,8v0.1c0,0.1,0,0.2,0,0.3l-54.6-8"/>
<polygon id="XMLID_721_" class="st33" points="591,460.2 536.3,452.3 536.3,451.9 591,459.9 "/>
<polygon id="XMLID_720_" class="st33" points="591.3,457.4 536.7,449.5 536.7,449.1 591.4,457.1 "/>
<polygon id="XMLID_719_" class="st33" points="591.7,454.6 537,446.6 537,446.3 591.7,454.3 "/>
<polygon id="XMLID_718_" class="st33" points="592,451.8 537.3,443.8 537.3,443.5 592,451.4 "/>
<polygon id="XMLID_717_" class="st33" points="592.3,449 537.6,441 537.7,440.7 592.3,448.6 "/>
<polygon id="XMLID_716_" class="st33" points="592.7,446.2 538,438.2 538,437.9 592.7,445.9 "/>
<polygon id="XMLID_715_" class="st33" points="593,443.4 538.3,435.4 538.4,435.1 593.1,443.1 "/>
<polygon id="XMLID_714_" class="st33" points="593.4,440.5 538.6,432.6 538.6,432.3 593.4,440.2 "/>
<polygon id="XMLID_713_" class="st33" points="593.6,437.7 539,429.8 539,429.4 593.7,437.4 "/>
<polygon id="XMLID_712_" class="st33" points="594,435 539.3,427 539.4,426.6 594,434.6 "/>
<polygon id="XMLID_711_" class="st33" points="594.3,432.2 539.7,424.2 539.7,423.9 594.4,431.8 "/>
<polygon id="XMLID_710_" class="st33" points="594.7,429.3 540,421.4 540.1,421.1 594.7,429 "/>
<polygon id="XMLID_709_" class="st33" points="595.1,426.5 540.3,418.5 540.3,418.2 595.1,426.2 "/>
<polygon id="XMLID_708_" class="st33" points="595.3,423.7 540.7,415.7 540.7,415.4 595.4,423.4 "/>
<polygon id="XMLID_707_" class="st33" points="595.7,420.9 541,413 541.1,412.6 595.7,420.6 "/>
<path id="XMLID_706_" class="st33" d="M596,418.1l-54.7-8V410c0-0.1,0-0.2,0-0.3l54.6,8C596.1,417.9,596.1,418,596,418.1L596,418.1z
	"/>
<polygon id="XMLID_211_" class="st34" points="588.9,414.5 582.9,464.1 582.6,464.1 588.6,414.5 "/>
<g id="XMLID_187_">
	
		<image style="overflow:visible;opacity:0.25;enable-background:new    ;" width="88" height="258" xlink:href="E506022A.png"  transform="matrix(0.2195 0 0 0.2195 580.8033 412.5518)">
	</image>
	<g>
		<polygon class="st31" points="596.4,415.5 590.4,465.3 582.6,464.1 588.6,414.5 		"/>
	</g>
</g>
<g id="XMLID_354_">
	<g id="XMLID_355_">
		
			<image style="overflow:visible;opacity:0.2;enable-background:new    ;" width="745" height="102" id="XMLID_218_" xlink:href="E5060228.png"  transform="matrix(5.291349e-02 -0.1402 0.1634 6.208176e-02 537.4888 451.5983)">
		</image>
		<g id="XMLID_356_">
			<g id="XMLID_357_">
				<path id="XMLID_217_" class="st35" d="M541.8,448.8l-1.2,2.6c0,0-0.8,1-1.1,0.8c-0.3-0.1,0-1.4,0-1.4l1.2-2.6L541.8,448.8z"/>
				<polygon id="XMLID_216_" class="st36" points="541.6,449.6 546.7,444 547.1,443 541.8,440.6 541.3,441.6 540.3,449.1 				"/>
				<g id="XMLID_522_">
					<path id="XMLID_215_" class="st8" d="M587.1,355.4c0.6,0.3,0.8,0.8,0.6,1.3l-3.2,6.8c-0.2,0.5-0.8,0.7-1.4,0.4l-3.5-1.6
						c-0.6-0.3-0.8-0.8-0.6-1.3l3.2-6.8c0.2-0.5,0.8-0.7,1.4-0.4L587.1,355.4z"/>
				</g>
				<path id="XMLID_214_" class="st12" d="M586.3,359.6l-39.6,84.5c0,0,0-0.6-0.6-0.8c-0.5-0.2-0.9,0.1-0.9,0.1s0-0.8-0.9-1.3
					c-0.8-0.4-1.6,0.2-1.6,0.2s-0.1-0.6-0.6-0.8c-0.5-0.2-0.9,0.1-0.9,0.1l39.6-84.5L586.3,359.6z"/>
				<g id="XMLID_519_">
					<polygon id="XMLID_213_" class="st37" points="586.4,359.6 582.9,367.1 577.2,364.6 580.8,357 					"/>
				</g>
				<g id="XMLID_358_">
					<polygon id="XMLID_196_" class="st38" points="586.2,360 586,360.4 580.4,357.9 580.6,357.4 					"/>
				</g>
			</g>
		</g>
	</g>
</g>
<path id="XMLID_1_" class="st12" d="M582,366.8l-35.7,76.5c0,0,0.1-0.5-0.1-0.5c-0.2-0.1-0.5,0.3-0.5,0.3s0.2-0.7-0.1-0.8
	c-0.3-0.1-0.8,0.5-0.8,0.5s0.1-0.5-0.1-0.6c-0.2-0.1-0.5,0.3-0.5,0.3L580,366L582,366.8z"/>
<circle class="st15" cx="525.7" cy="337.1" r="18.5"/>
<circle class="st8" cx="510.8" cy="348.7" r="15.8"/>
<circle class="st12" cx="523.7" cy="358.1" r="9.7"/>
<polygon id="XMLID_72_" class="st39" points="227.4,180.6 182.1,180.6 266.4,93.5 312.1,93.5 "/>
<polygon id="XMLID_71_" class="st40" points="367.4,180.6 247.5,180.6 329.4,93.5 444.5,93.5 "/>
<g id="XMLID_84_">
	
		<image style="overflow:visible;opacity:0.25;" width="102" height="119" xlink:href="E506022D.png"  transform="matrix(1 0 0 1 23.709 357.6316)">
	</image>
	<g>
		<path class="st1" d="M63.7,466.2l-31.7-13.8c-4.1-1.8-5.6-6.5-3.5-10.5l40.5-75.9c2.2-4,7.2-5.9,11.3-4.1l31.7,13.8
			c4.1,1.8,5.6,6.5,3.5,10.5L75,462.1C72.9,466.1,67.8,468,63.7,466.2z"/>
	</g>
</g>
<polygon id="XMLID_83_" class="st12" points="75.5,457.2 33.5,438.9 71.5,367.6 113.5,385.9 "/>
<path id="XMLID_82_" class="st41" d="M54.3,458.4l-9.1-4c-1.2-0.5-1.6-1.9-1-3h0c0.6-1.2,2.1-1.7,3.3-1.2l9.1,4c1.2,0.5,1.6,1.9,1,3
	l0,0C57,458.3,55.5,458.9,54.3,458.4z"/>
<polygon id="XMLID_80_" class="st42" points="106.9,394.8 68.1,377.9 70.8,372.8 109.6,389.7 "/>
<polygon id="XMLID_79_" class="st42" points="103,402.1 64.1,385.2 66.8,380.1 105.7,397.1 "/>
<polygon id="XMLID_78_" class="st42" points="99,409.5 60.2,392.6 62.9,387.5 101.7,404.4 "/>
<polygon id="XMLID_77_" class="st15" points="82.1,441.3 43.3,424.4 59,394.8 97.8,411.8 "/>
<polygon id="XMLID_76_" class="st42" points="76.5,451.7 37.7,434.8 42.1,426.6 80.9,443.5 "/>
<path id="XMLID_81_" class="st43" d="M103.2,377.1l-15.3-6.8c-0.5-0.2-0.7-0.7-0.5-1.2h0c0.2-0.4,0.8-0.6,1.3-0.4l15.3,6.8
	c0.5,0.2,0.7,0.7,0.5,1.2l0,0C104.3,377.2,103.7,377.4,103.2,377.1z"/>
<line class="st44" x1="59" y1="394.8" x2="82.1" y2="441.3"/>
<line class="st44" x1="43.3" y1="424.4" x2="98.4" y2="411.8"/>
<polygon id="XMLID_74_" class="st45" points="32.2,440.6 114.2,384.1 74.2,458.9 "/>
<g>
	
		<image style="overflow:visible;opacity:0.25;" width="136" height="159" xlink:href="E506022E.png"  transform="matrix(1 0 0 1 411 13.5)">
	</image>
	<g>
		<path class="st1" d="M526.8,164.1h-99.9c-6.5,0-11.8-5.3-11.8-11.8V30.3c0-6.5,5.3-11.8,11.8-11.8h99.9c6.5,0,11.8,5.3,11.8,11.8
			v121.9C538.6,158.8,533.4,164.1,526.8,164.1z"/>
	</g>
</g>
<g>
	<path d="M437.9,57.5c-2.3,17.1,9.8,32.8,26.8,35c7,0.9,13.8-0.6,19.5-3.8l5.4,7.1c0,0,0.1,0.1,0.1,0.1c-0.2,0.5-0.3,1-0.4,1.6
		c-0.3,2,0.3,4.1,1.5,5.7l16.1,21.1c1.3,1.6,3.1,2.7,5.1,3c2,0.3,4.1-0.3,5.7-1.5c1.6-1.3,2.7-3.1,3-5.1c0.3-2-0.3-4.1-1.5-5.7
		l-16.1-21.1c-1.3-1.6-3.1-2.7-5.1-3c-0.5-0.1-1.1-0.1-1.6,0c0,0-0.1-0.1-0.1-0.1l-5.4-7.1c4.6-4.7,7.8-10.8,8.8-17.9
		c2.3-17.1-9.8-32.8-26.8-35C455.9,28.4,440.2,40.4,437.9,57.5L437.9,57.5z M517.1,116.6c0.8,1,1.1,2.3,0.9,3.5
		c-0.2,1.3-0.8,2.4-1.8,3.2c-1,0.8-2.3,1.1-3.5,0.9c-1.3-0.2-2.4-0.8-3.2-1.8l-14.6-19l7.6-5.8L517.1,116.6z M500.7,95.3l-7.6,5.8
		c-0.6-1-0.9-2.1-0.7-3.2c0.2-1.2,0.8-2.4,1.8-3.2c1-0.8,2.3-1.1,3.5-0.9C498.9,93.9,499.9,94.4,500.7,95.3L500.7,95.3z M493.5,91.6
		c-0.4,0.2-0.7,0.4-1.1,0.7c-0.3,0.3-0.7,0.6-1,0.9l-4.7-6.1c0.7-0.5,1.4-1,2.1-1.6L493.5,91.6z M496.9,65.3
		c-2,15.4-16.3,26.3-31.7,24.3c-15.4-2-26.3-16.3-24.3-31.7c2-15.4,16.3-26.3,31.7-24.3C488,35.6,498.9,49.8,496.9,65.3L496.9,65.3z
		 M496.9,65.3"/>
	<path d="M444.2,58.3c-1.8,13.6,7.8,26.2,21.4,28c13.6,1.8,26.2-7.8,28-21.4s-7.8-26.2-21.4-28C458.5,35,446,44.7,444.2,58.3
		L444.2,58.3z M490.7,64.5C489.1,76.5,478,85,466,83.4c-12-1.6-20.5-12.7-18.9-24.7s12.7-20.5,24.7-18.9
		C483.8,41.3,492.3,52.4,490.7,64.5L490.7,64.5z M490.7,64.5"/>
	<path d="M454.7,49.4c-0.5,0.6-0.5,1.5,0.2,2.1c0.6,0.5,1.5,0.5,2.1-0.2c3.5-4.1,8.7-6.1,14-5.4c3.6,0.5,7,2.2,9.5,4.9
		c0.6,0.6,1.5,0.6,2.1,0.1c0.3-0.2,0.4-0.6,0.5-0.9c0.1-0.4-0.1-0.9-0.4-1.2c-2.9-3.2-6.9-5.2-11.2-5.8
		C465,42.2,458.8,44.6,454.7,49.4L454.7,49.4z M454.7,49.4"/>
	<path d="M451.1,55.8c-0.3,1.1-0.6,2.2-0.8,3.3c-0.1,0.8,0.5,1.5,1.3,1.6c0.8,0.1,1.5-0.5,1.6-1.3c0.1-1,0.3-1.9,0.6-2.8
		c0-0.1,0-0.2,0.1-0.3c0.1-0.7-0.3-1.4-1-1.6C452.2,54.6,451.4,55,451.1,55.8L451.1,55.8z M451.1,55.8"/>
</g>
</svg>
