<svg id="Layer_1" data-name="Layer 1" xmlns="http://www.w3.org/2000/svg" viewBox="0 0 789 756"><defs><style>.cls-1,.cls-2,.cls-4,.cls-5{fill:none;stroke:#fff;stroke-miterlimit:10;}.cls-1{stroke-width:10px;}.cls-2{stroke-width:12px;}.cls-3{fill:#fff;}.cls-4{stroke-width:4px;}.cls-5{stroke-width:8px;}</style></defs><title>whiteiconwebsitedesign</title><path class="cls-1" d="M191.39,296" transform="translate(-8 -18.5)"/><path class="cls-2" d="M542.39,268" transform="translate(-8 -18.5)"/><path class="cls-2" d="M336,268" transform="translate(-8 -18.5)"/><path class="cls-2" d="M601.92,268" transform="translate(-8 -18.5)"/><path class="cls-2" d="M555.65,268" transform="translate(-8 -18.5)"/><path class="cls-3" d="M605,493a2.55,2.55,0,0,1-2.38,2.68L409.74,493V608H517.42c8.3,0,15-7.57,15-16.9s-6.71-16.91-15-16.91H501.48V529.5H602.61C620.48,529.5,635,513.13,635,493V262.38c0-20.12-14.52-36.49-32.39-36.49H301c-17.87,0-32.4,16.37-32.4,36.49v82.35l29.77.45.25-82.8A2.55,2.55,0,0,1,301,259.7H602.61a2.55,2.55,0,0,1,2.38,2.68V493Zm0,0" transform="translate(-8 -18.5)"/><path class="cls-3" d="M248.93,363.75c-15.4,0-27.93,14.11-27.93,31.46V570.54c0,17.35,12.53,31.46,27.93,31.46H353.07c15.4,0,27.93-14.11,27.93-31.46V395.21c0-17.35-12.53-31.46-27.93-31.46ZM357.14,558H244.85V395.21a4.36,4.36,0,0,1,4.08-4.59H353.07a4.36,4.36,0,0,1,4.07,4.59ZM301,590c-3.76,0-6.93-2.49-8.54-6a11.84,11.84,0,0,1-1.15-4.9c0-6,4.34-10.92,9.69-10.92s9.69,4.89,9.69,10.92a11.7,11.7,0,0,1-1.16,4.9c-1.59,3.53-4.77,6-8.53,6Zm0,0" transform="translate(-8 -18.5)"/><path class="cls-4" d="M128.92,981.32" transform="translate(-8 -18.5)"/><ellipse class="cls-5" cx="394.5" cy="378" rx="390.5" ry="374"/></svg>