<svg id="Layer_1" data-name="Layer 1" xmlns="http://www.w3.org/2000/svg" viewBox="0 0 789 756"><defs><style>.cls-1,.cls-2,.cls-3,.cls-4,.cls-7{fill:none;}.cls-1,.cls-2,.cls-3,.cls-4{stroke:#fff;stroke-miterlimit:10;}.cls-1{stroke-width:10px;}.cls-2{stroke-width:12px;}.cls-3{stroke-width:4px;}.cls-4{stroke-width:8px;}.cls-5{fill:#fff;}.cls-6{fill:#fcd7ce;}</style></defs><title>whiteicongraphicdesign</title><path class="cls-1" d="M191.39,296" transform="translate(-8 -18.5)"/><path class="cls-2" d="M542.39,268" transform="translate(-8 -18.5)"/><path class="cls-2" d="M336,268" transform="translate(-8 -18.5)"/><path class="cls-2" d="M601.92,268" transform="translate(-8 -18.5)"/><path class="cls-2" d="M555.65,268" transform="translate(-8 -18.5)"/><path class="cls-3" d="M128.92,981.32" transform="translate(-8 -18.5)"/><ellipse class="cls-4" cx="394.5" cy="378" rx="390.5" ry="374"/><path class="cls-5" d="M237.36,219.64A6.06,6.06,0,0,0,227,223.93V587.66a6.06,6.06,0,0,0,6.06,6.06H596.8a6.06,6.06,0,0,0,4.29-10.35Zm292.76,362V557.35H518V581.6H493.75V557.35H481.62V581.6H457.37V557.35H445.25V581.6H421V557.35H408.87V581.6H384.62V557.35H372.5V581.6H348.25V557.35H336.13V581.6H311.88V557.35H299.76V581.6H275.51V557.35H263.38V581.6H239.13V533.1h24.25V521H239.13V496.73h24.25V484.6H239.13V460.36h24.25V448.23H239.13V424h24.25V411.86H239.13V387.61h24.25V375.48H239.13V351.23h24.25V339.11H239.13V314.86h24.25V302.74H239.13V238.56l343,343Zm0,0" transform="translate(-8 -18.5)"/><path class="cls-5" d="M299.76,527H421a6.06,6.06,0,0,0,4.28-10.35L304,395.45a6.06,6.06,0,0,0-10.35,4.28V521a6.06,6.06,0,0,0,6.07,6.06Zm6.06-112.67L406.36,514.92H305.82Zm0,0" transform="translate(-8 -18.5)"/><path class="cls-6" d="M590.74,457.85" transform="translate(-8 -18.5)"/><path class="cls-5" d="M649.34,462.5a42.68,42.68,0,0,0-1.71-60.34l-174-164.39a9.64,9.64,0,0,0-4.25-2.32l-80.95-20a9.49,9.49,0,0,0-11.34,12l24.53,79.69a9.42,9.42,0,0,0,2.56,4.11l174,164.38A42.74,42.74,0,0,0,638.53,474ZM468.07,258.61,610.46,393.14l-43.38,45.92L424.68,304.52Zm-18.15-8.42-34.67,36.69-15.07-49ZM591.21,461.87l-10.35-9.77,43.4-45.93L634.6,416a23.71,23.71,0,0,1,.95,33.52l-10.81,11.45a23.75,23.75,0,0,1-33.53.95Zm0,0" transform="translate(-8 -18.5)"/><polyline class="cls-7" points="638.7 101.54 276.31 111.81 286.61 475.11 649 464.83 638.7 101.54"/></svg>