<svg id="Layer_1" data-name="Layer 1" xmlns="http://www.w3.org/2000/svg" viewBox="0 0 789 756"><defs><style>.cls-1,.cls-2,.cls-3,.cls-5{fill:none;stroke:#fff;stroke-miterlimit:10;}.cls-1{stroke-width:6px;}.cls-2{stroke-width:2px;}.cls-3{stroke-width:4px;}.cls-4{fill:#fff;}.cls-5{stroke-width:8px;}</style></defs><title>whiteiconvector</title><path class="cls-1" d="M504.52,174" transform="translate(-10 -16)"/><path class="cls-1" d="M326.88,494" transform="translate(-10 -16)"/><path class="cls-1" d="M538.41,191.68" transform="translate(-10 -16)"/><path class="cls-1" d="M358.1,510.25" transform="translate(-10 -16)"/><path class="cls-2" d="M313.83,571.76" transform="translate(-10 -16)"/><path class="cls-2" d="M306.17,565.59" transform="translate(-10 -16)"/><path class="cls-3" d="M494.83,238.83" transform="translate(-10 -16)"/><path class="cls-3" d="M387.83,350.83" transform="translate(-10 -16)"/><path class="cls-4" d="M611.3,369.16l-16,3.2c-1.6-7.2-3.2-15.2-5.6-22.4l15.2-4.8A210.16,210.16,0,0,1,611.3,369.16Z" transform="translate(-10 -16)"/><path class="cls-4" d="M596.1,321.16l-14.4,6.4c-3.2-7.2-7.2-13.6-11.2-20.8l13.6-8A152.81,152.81,0,0,1,596.1,321.16Z" transform="translate(-10 -16)"/><path class="cls-4" d="M606.5,438.76a16,16,0,1,0-16-16A16,16,0,0,0,606.5,438.76Zm0-48a32,32,0,1,1-32,32A32.09,32.09,0,0,1,606.5,390.76Z" transform="translate(-10 -16)"/><path class="cls-4" d="M570.5,278l-12.8,9.6A160,160,0,0,0,542.5,270l11.2-11.2Z" transform="translate(-10 -16)"/><path class="cls-4" d="M524.9,255.56c-6.4-4.8-12.8-9.6-19.2-13.6l8-13.6" transform="translate(-10 -16)"/><path class="cls-4" d="M278.5,242.76c6.4-4.8,12.8-9.6,20-13.6l8,13.6" transform="translate(-10 -16)"/><path class="cls-4" d="M259.3,259.56l11.2,11.2a160,160,0,0,0-15.2,17.6l-12.8-9.6C248.1,271.56,253.7,266,259.3,259.56Z" transform="translate(-10 -16)"/><path class="cls-4" d="M228.1,298.76l13.6,8c-4,6.4-7.2,13.6-10.4,20.8l-14.4-6.4C220.1,314,224.1,306.76,228.1,298.76Z" transform="translate(-10 -16)"/><path class="cls-4" d="M208.1,345.16l15.2,4.8c-2.4,7.2-4,15.2-5.6,22.4l-16-3.2C203.3,361.16,205.7,353.16,208.1,345.16Z" transform="translate(-10 -16)"/><path class="cls-4" d="M606.5,214.76v-16h-16v16Zm-368-16H384.1a23.68,23.68,0,0,1,44.8,0H574.5v-8c0-4,4-8,8-8h32c4,0,8,4,8,8v32a8,8,0,0,1-8,8h-32a8,8,0,0,1-8-8v-8h-88c1.6.8,4,1.6,5.6,2.4l-6.4,14.4c-7.2-3.2-14.4-5.6-21.6-8l2.4-8.8H441.7l-.8,3.2a61.75,61.75,0,0,0-12-1.6c-4,8-12.8,14.4-22.4,14.4s-18.4-6.4-22.4-14.4c-4,.8-8,.8-12.8,1.6v-3.2H346.5l2.4,8.8c-7.2,2.4-14.4,4.8-21.6,8l-6.4-14.4c1.6-.8,4-1.6,5.6-2.4h-88v8a7.56,7.56,0,0,1-8,8h-32a7.56,7.56,0,0,1-8-8v-32a8,8,0,0,1,8-8h32a8,8,0,0,1,8,8Zm-32,16h16v-16h-16Z" transform="translate(-10 -16)"/><path class="cls-4" d="M174.5,422.76a32,32,0,1,1,32,32A32.09,32.09,0,0,1,174.5,422.76Zm48,0a16,16,0,1,0-16,16A16,16,0,0,0,222.5,422.76Z" transform="translate(-10 -16)"/><path class="cls-4" d="M455.15,578.66H356.44v-6.49c0-37.8-32.39-68.54-72.2-68.54H273.18l132.62-252,132.6,252H527.34c-39.8,0-72.19,30.74-72.19,68.53v6.5Zm-85.31-13h71.91c3.22-38.55,34.79-69.63,74.87-74.4L405.8,280.7,295,491.27C335.05,496,366.63,527.12,369.84,565.67Z" transform="translate(-10 -16)"/><rect class="cls-4" x="316.82" y="549.67" width="157.98" height="12.99"/><path class="cls-4" d="M467.32,648h-123V565.67H467.32ZM358,635h95.7v-56.3H358Z" transform="translate(-10 -16)"/><rect class="cls-4" x="374.27" y="523.69" width="43.04" height="12.99"/><path class="cls-4" d="M405.8,480.19c-17.18,0-31.15-13.27-31.15-29.58S388.62,421,405.8,421s31.14,13.27,31.14,29.59S423,480.19,405.8,480.19Zm0-46.18c-9.64,0-17.48,7.45-17.48,16.6s7.84,16.59,17.48,16.59,17.47-7.44,17.47-16.59S415.43,434,405.8,434Z" transform="translate(-10 -16)"/><rect class="cls-4" x="388.96" y="250.18" width="13.67" height="161.34"/><ellipse class="cls-5" cx="394.5" cy="378" rx="390.5" ry="374"/></svg>