<svg id="Layer_1" data-name="Layer 1" xmlns="http://www.w3.org/2000/svg" viewBox="0 0 789 756"><defs><style>.cls-1,.cls-2,.cls-3,.cls-4,.cls-9{fill:none;}.cls-1,.cls-2,.cls-3,.cls-5,.cls-7,.cls-8,.cls-9{stroke:#fff;}.cls-1,.cls-2,.cls-3,.cls-4,.cls-5,.cls-7,.cls-8,.cls-9{stroke-miterlimit:10;}.cls-1{stroke-width:6px;}.cls-2{stroke-width:2px;}.cls-3,.cls-5{stroke-width:4px;}.cls-4{stroke:#b1ded4;}.cls-4,.cls-9{stroke-width:8px;}.cls-5,.cls-6,.cls-8{fill:#fff;}.cls-7{fill:#fcd7ce;stroke-width:9px;}</style></defs><title>whiteiconuiux</title><path class="cls-1" d="M525,163.39" transform="translate(-11 -21)"/><path class="cls-1" d="M347.32,483.4" transform="translate(-11 -21)"/><path class="cls-1" d="M558.85,181.1" transform="translate(-11 -21)"/><path class="cls-1" d="M378.54,499.67" transform="translate(-11 -21)"/><path class="cls-2" d="M334.27,561.18" transform="translate(-11 -21)"/><path class="cls-2" d="M326.61,555" transform="translate(-11 -21)"/><path class="cls-3" d="M515.27,228.24" transform="translate(-11 -21)"/><path class="cls-3" d="M408.27,340.24" transform="translate(-11 -21)"/><path class="cls-4" d="M568.44,507.18" transform="translate(-11 -21)"/><path class="cls-4" d="M673.44,446.18" transform="translate(-11 -21)"/><path class="cls-4" d="M568.44,507.18" transform="translate(-11 -21)"/><path class="cls-5" d="M447.35,509.23c4.46,0,8.09-2.79,8.09-6.3s-3.63-6.26-8.09-6.26h-105c-4.45,0-8,2.79-8,6.26s3.59,6.3,8,6.3Zm-12.14,0" transform="translate(-11 -21)"/><path class="cls-5" d="M467.76,521.83H318a6.28,6.28,0,1,0,0,12.55H467.76a6.28,6.28,0,1,0,0-12.55Zm0,0" transform="translate(-11 -21)"/><path class="cls-5" d="M251.54,226.17a18.88,18.88,0,1,0,19.32,18.89,19.14,19.14,0,0,0-19.32-18.89Zm0,28.3" transform="translate(-11 -21)"/><path class="cls-5" d="M305,257.62" transform="translate(-11 -21)"/><path class="cls-5" d="M200.85,201V578.43H591.44V201Zm13,12.6H578.4v62.9H213.89ZM578.4,565.83H213.89V289.07H578.4Zm0,0" transform="translate(-11 -21)"/><path class="cls-5" d="M396.14,477.78c46.66,0,84.61-36.67,84.61-81.76s-37.95-81.8-84.61-81.8-84.61,36.71-84.61,81.8,38,81.76,84.61,81.76Zm0-151c39.48,0,71.62,31.05,71.62,69.2s-32.14,69.2-71.62,69.2-71.61-31.06-71.61-69.2,32.13-69.2,71.61-69.2Zm0,0" transform="translate(-11 -21)"/><path class="cls-5" d="M385,425.62" transform="translate(-11 -21)"/><ellipse class="cls-6" cx="296.24" cy="224.04" rx="19.7" ry="18.87"/><ellipse class="cls-6" cx="351.74" cy="224.06" rx="19.7" ry="18.87"/><ellipse class="cls-6" cx="383.09" cy="367.68" rx="31.35" ry="30.5"/><path class="cls-6" d="M345.09,444.13c9.09-20.83,30.9-24.08,49.42-24.9,15.42-.68,32.39-.71,44.21,12.08a16,16,0,0,1,4,6.8c1.5,5.84-1.52,12-4.89,16.34-12.58,16.26-31.68,22.07-49.38,19.49S354.25,461.27,339,449.43" transform="translate(-11 -21)"/><path class="cls-6" d="M347.25,445.39C353,432.84,364,426.3,377.18,423.61c12.6-2.57,27.48-3.49,40.12-1,7.46,1.48,14.47,4.74,19.65,10.44,7.46,8.22,1.44,17.82-5,24.4A50.06,50.06,0,0,1,392,471.83c-19.4-1.6-36.73-13-51.74-24.56-2.54-2-5,2.38-2.52,4.32,15.49,11.93,33,23,52.85,25.11A55,55,0,0,0,435.45,461c5.58-5.68,11.29-13.53,10-22-1.22-8-9-14.24-15.87-17.59-14.2-6.9-32.21-5.71-47.46-3.69-16.61,2.2-31.91,9.18-39.2,25.11-1.33,2.9,3,5.45,4.32,2.52Z" transform="translate(-11 -21)"/><ellipse class="cls-7" cx="571.36" cy="520.35" rx="67.08" ry="66.82"/><path class="cls-8" d="M629.4,529.12C628,514,617.43,503,604.18,503c-8.3,0-15.27,5.38-19.71,11.93-4.42-6.55-11.4-11.93-19.72-11.93-13.24,0-23.83,11-25.22,26.17a27.82,27.82,0,0,0,.78,10.06,42.13,42.13,0,0,0,12.6,21.43l28.9,26.44a3.89,3.89,0,0,0,2.66,1.07,4,4,0,0,0,2.67-1L616,560.61a42.17,42.17,0,0,0,12.59-21.43,27.46,27.46,0,0,0,.77-10.06Zm-7.51,8.27A34.43,34.43,0,0,1,611.52,555l-27,24.78-27-24.76a34.45,34.45,0,0,1-10.38-17.58,21,21,0,0,1-.68-7l.07-.39c.85-9.74,7.4-19.58,18.31-19.58,7.59,0,13.79,6.71,16.55,13.38l3.17,7.65,3.17-7.65c2.75-6.67,9-13.38,16.54-13.38,10.91,0,17.48,9.84,18.38,19.92a20.72,20.72,0,0,1-.67,7.09Zm0,0" transform="translate(-11 -21)"/><path class="cls-8" d="M527.23,569.76" transform="translate(-11 -21)"/><path class="cls-6" d="M583.64,526.7c.2-10.38-11.3-18.63-21.49-16.62s-17.49,12.28-17.87,22.66,5.21,20.34,13.06,27.12c4.66,4,10.11,7.11,14.33,11.59,3.16,3.36,6.22,7.79,10.83,7.95,3.47.12,6.43-2.32,9-4.61l14.84-13.11c7.09-6.26,14.58-13.19,16.52-22.46,1.33-6.34-.18-12.9-1.77-19.19-.54-2.15-1.14-4.4-2.63-6a10.53,10.53,0,0,0-4.64-2.72,22,22,0,0,0-28.68,18,3.88,3.88,0,0,1-3.2-2.62" transform="translate(-11 -21)"/><ellipse class="cls-9" cx="394.5" cy="378" rx="390.5" ry="374"/></svg>