<svg id="Layer_1" data-name="Layer 1" xmlns="http://www.w3.org/2000/svg" viewBox="0 0 789 756"><defs><style>.cls-1,.cls-2,.cls-3,.cls-4{fill:none;stroke:#fff;stroke-miterlimit:10;}.cls-1{stroke-width:10px;}.cls-2{stroke-width:12px;}.cls-3{stroke-width:4px;}.cls-4{stroke-width:8px;}.cls-5{fill:#fff;}</style></defs><title>whiteiconmarketing</title><path class="cls-1" d="M191.39,296" transform="translate(-8 -18.5)"/><path class="cls-2" d="M542.39,268" transform="translate(-8 -18.5)"/><path class="cls-2" d="M336,268" transform="translate(-8 -18.5)"/><path class="cls-2" d="M601.92,268" transform="translate(-8 -18.5)"/><path class="cls-2" d="M555.65,268" transform="translate(-8 -18.5)"/><path class="cls-3" d="M128.92,981.32" transform="translate(-8 -18.5)"/><ellipse class="cls-4" cx="394.5" cy="378" rx="390.5" ry="374"/><path class="cls-5" d="M323.35,501.89l212.28,3.31a9,9,0,0,0,8.58-12.28L511.6,408.05A51.21,51.21,0,0,0,475.44,314l-32.6-84.87a9,9,0,0,0-14.6-3.37L264.32,378.31l-62.84,24.15a66.08,66.08,0,1,0,47.4,123.36l10.21-3.92L284.85,589a9,9,0,0,0,11.67,5.19l45.83-17.6a9,9,0,0,0,5.2-11.68ZM498.56,334A33.13,33.13,0,0,1,505,390.76l-22.86-59.52A32.88,32.88,0,0,1,498.56,334Zm-67.79-85.92,91.77,238.87-38.47-.6q-.1-.36-.24-.72L425.77,334.47A9,9,0,0,0,408.89,341L464.63,486l-148.26-2.31-36.55-95.13ZM242.4,509A48,48,0,0,1,208,419.33l56-21.53.66,1.71,33.77,87.91ZM298.48,574,276,515.42l29-11.12,22.52,58.62Z" transform="translate(-8 -18.5)"/><path class="cls-5" d="M547.57,273.5a11.83,11.83,0,0,0,15.62-6l17.68-39.73a11.83,11.83,0,1,0-21.62-9.62l-17.68,39.73A11.83,11.83,0,0,0,547.57,273.5Z" transform="translate(-8 -18.5)"/><path class="cls-5" d="M668,437.26,626.91,419a11.84,11.84,0,0,0-9.62,21.63l41.06,18.27A11.84,11.84,0,1,0,668,437.26Z" transform="translate(-8 -18.5)"/><path class="cls-5" d="M598.27,351A11.84,11.84,0,0,0,615,352.1l32.76-28.59a11.83,11.83,0,1,0-15.56-17.83L599.4,334.27A11.84,11.84,0,0,0,598.27,351Z" transform="translate(-8 -18.5)"/></svg>