<svg id="Layer_1" data-name="Layer 1" xmlns="http://www.w3.org/2000/svg" viewBox="0 0 789 756"><defs><style>.cls-1,.cls-2,.cls-3,.cls-4{fill:none;stroke:#fff;stroke-miterlimit:10;}.cls-1{stroke-width:10px;}.cls-2{stroke-width:12px;}.cls-3{stroke-width:4px;}.cls-4{stroke-width:8px;}.cls-5{fill:#fff;}</style></defs><title>whiteiconappdesign</title><path class="cls-1" d="M191.39,296" transform="translate(-8 -18.5)"/><path class="cls-2" d="M542.39,268" transform="translate(-8 -18.5)"/><path class="cls-2" d="M336,268" transform="translate(-8 -18.5)"/><path class="cls-2" d="M601.92,268" transform="translate(-8 -18.5)"/><path class="cls-2" d="M555.65,268" transform="translate(-8 -18.5)"/><path class="cls-3" d="M128.92,981.32" transform="translate(-8 -18.5)"/><ellipse class="cls-4" cx="394.5" cy="378" rx="390.5" ry="374"/><path class="cls-5" d="M506.35,164H301.69a31.12,31.12,0,0,0-31,31V592a31.12,31.12,0,0,0,31,31H506.35a31.12,31.12,0,0,0,31-31V195a31.12,31.12,0,0,0-31-31Zm-135,22.35h65.44a3.75,3.75,0,1,1,0,7.49H371.3a3.75,3.75,0,1,1,0-7.49ZM404,607.51A15.5,15.5,0,1,1,419.51,592,15.46,15.46,0,0,1,404,607.51Zm111.74-41.89H292.27V213.16H515.76Zm0,0" transform="translate(-8 -18.5)"/><path class="cls-5" d="M403.11,341.09c7.8-18.44,25.58-31.34,46.27-31.34,27.86,0,47.92,23.84,50.45,52.25,0,0,1.37,7.05-1.62,19.75a87.35,87.35,0,0,1-26.62,44.38l-68.48,61.1-67.31-61.1a87.28,87.28,0,0,1-26.62-44.38c-3-12.7-1.64-19.75-1.64-19.75,2.52-28.43,22.61-52.25,50.47-52.25,20.68,0,37.32,12.9,45.1,31.34Zm0,0" transform="translate(-8 -18.5)"/></svg>