<?xml version="1.0" encoding="utf-8"?>
<!-- Generator: Adobe Illustrator 23.0.3, SVG Export Plug-In . SVG Version: 6.00 Build 0)  -->
<svg version="1.1" id="Layer_1" xmlns="http://www.w3.org/2000/svg" xmlns:xlink="http://www.w3.org/1999/xlink" x="0px" y="0px"
	 viewBox="0 0 1000 1000" style="enable-background:new 0 0 1000 1000;" xml:space="preserve">
<style type="text/css">
	.st0{fill:#F8B4A4;}
	.st1{fill:#D1D5C3;}
	.st2{opacity:0.5;}
	.st3{fill:#E0F0E6;}
	.st4{fill:#D1D7C5;}
	.st5{fill:#795030;}
	.st6{fill:#D1D5C3;stroke:#5A4A42;stroke-width:0.25;stroke-miterlimit:10;}
	.st7{fill:#404041;}
	.st8{opacity:0.4;fill:#D1D5C3;}
	.st9{fill-rule:evenodd;clip-rule:evenodd;fill:#585859;}
	.st10{fill:#F7BDD6;}
	.st11{fill:#D1D5C3;stroke:#404041;stroke-miterlimit:10;}
	.st12{fill:#F7F8F5;}
	.st13{fill:#58595B;}
	.st14{fill:#D1D5C3;stroke:#58595B;stroke-width:3;stroke-miterlimit:10;}
	.st15{fill:#434345;}
	.st16{fill:#F7AAA3;}
	.st17{fill:#D1D5C3;stroke:#F7AAA3;stroke-width:5;stroke-miterlimit:10;}
	.st18{fill:#E5A57C;}
	.st19{fill:#383638;}
	.st20{fill:#383638;stroke:#58595B;stroke-width:5;stroke-miterlimit:10;}
	.st21{fill:#D28C5E;}
	.st22{fill:#D28C5E;stroke:#D28C5E;stroke-width:4;stroke-miterlimit:10;}
	.st23{fill:#F0B961;}
	.st24{fill:#F6E972;}
	.st25{fill:#EBEADF;}
	.st26{fill:#E5A57C;stroke:#404041;stroke-width:4;stroke-miterlimit:10;}
	.st27{fill:#D19574;}
	.st28{fill:#FFFFFF;}
	.st29{fill:#231F20;stroke:#5A4A42;stroke-width:0.25;stroke-miterlimit:10;}
	.st30{fill:#F0AD75;}
	.st31{opacity:0.4;fill:#E48887;}
	.st32{fill:#A6DDF0;}
	.st33{fill:#B7E3F2;}
	.st34{fill:#F9B5A5;}
	.st35{opacity:0.8;fill:#E28388;}
	.st36{fill:#F7F6F6;}
	.st37{fill:#404041;stroke:#404041;stroke-miterlimit:10;}
	.st38{opacity:0.5;fill:#F8B6B6;}
	.st39{fill:#F9F9F9;}
	.st40{fill-rule:evenodd;clip-rule:evenodd;fill:#5B5B5D;}
	.st41{fill:none;stroke:#757576;stroke-width:0.1;stroke-miterlimit:10;}
	.st42{font-family:'MyriadPro-Regular';}
	.st43{font-size:18.0722px;}
</style>
<ellipse id="XMLID_131_" class="st0" cx="531.1" cy="656.9" rx="295.6" ry="290.9"/>
<path id="XMLID_847_" class="st1" d="M373,598.8c2.3-10.2-1.5-21.4-1.8-21.9c-1.1-2.1-3-3.3-4.4-2.5c-1.4,0.8-1.6,3.1-0.6,5.3
	c0,0,0.2,0.6,0.4,1.4s0.4,2.1,0.6,3.5c0.4,2.8-1.3,6.7-2.1,10.1c-0.4,1.9,2.4,4.2,4,5.4C370.8,601.2,372.5,600.7,373,598.8z"/>
<path id="XMLID_841_" class="st1" d="M378.8,585.2l-3.1-53.8l-25.1-20.1l-12.4,72.2c0.6,10.6,4.7,12.7,15.4,12.4
	C364.2,595.7,379.5,595.8,378.8,585.2z"/>
<g id="XMLID_832_" class="st2">
	<path id="XMLID_838_" class="st3" d="M464.6,736.3"/>
	<g id="XMLID_833_">
		<g>
			<path id="XMLID_133_" class="st3" d="M452.8,583.7c0,0,9.7,21.1,28.5,25.1c0,0,5.1-1,6.4,1.2c1.3,2.2,24.9-11.2,27.4-17.1
				c0,0-23.3,11.5-27.9,10.2C475.2,599.4,458.9,592.4,452.8,583.7z"/>
		</g>
	</g>
</g>
<g id="XMLID_831_">
	<path class="st1" d="M461,106.8c-21.2,36.7-31.6,80.7-29.3,124c0.5,10.5,10.8,17.6,17.1,25.4c4.5,5.6,6.1,8.4,10.5,14.1
		c6.7,8.7,3.6,25.6,3.8,37c0.1,2.5,0,5.2-1.4,7.2c-2,2.8-5.8,2.6-9,2.5c-15.6-0.5-31.3,6.1-42.8,17.8c13.3-23.1,13.4-52.6,9.3-79.6
		s-11.8-53.5-12.6-80.8c-0.8-27.4,7.1-57.1,27.5-72.7c4.5-3.4,9.7-6.1,15.1-5.6s10.8,4.8,11.3,10.8"/>
</g>
<path id="XMLID_825_" class="st1" d="M518.2,572.5l-63.3,23.2v-241h55c4.6,0,8.3,4.1,8.3,9.1V572.5z"/>
<g id="XMLID_821_">
	<path id="XMLID_822_" class="st4" d="M409.1,312.7c0,0-19.9,4.2-26.3,42.9c-9.3,56-54.5,149.9-54.5,149.9s42.2,77.6,52.3,71.3
		C390.6,570.5,409.1,312.7,409.1,312.7z"/>
</g>
<g id="XMLID_814_">
	<g id="XMLID_815_">
		<g id="XMLID_816_">
			<g id="XMLID_817_">
				<path id="XMLID_818_" class="st1" d="M533.7,187.5"/>
			</g>
		</g>
	</g>
</g>
<g id="XMLID_813_">
	<path class="st1" d="M479,197c-2.4-3.6,0.7,0.7-3.6-4.5c-2-2.4-8.9-4.6-12.6-4.7c-3,0-7.2-0.2-10.9-1.1c3.5,5.1,9.8,8.6,15,9.7
		C472.1,197.5,473.8,197.6,479,197"/>
</g>
<path id="XMLID_810_" class="st1" d="M473.9,190.8c2,1.7-0.7,6.2-4.4,6.2s-9.3-1.9-9.3-5.5c0-2.8,1.3-4.6,4.9-3.8
	C469.9,188.8,472.2,189.4,473.9,190.8z"/>
<g id="XMLID_809_">
	<path class="st1" d="M515.8,197.8c2.5-3.6-0.7,0.7,3.8-4.5c2.1-2.4,9.3-4.6,13.2-4.7c3.2,0,7.5-0.2,11.4-1.1
		c-3.7,5.1-10.3,8.6-15.7,9.7C523,198.3,521.2,198.3,515.8,197.8"/>
</g>
<path id="XMLID_806_" class="st1" d="M521.1,191.6c-2,1.7,0.7,6.2,4.6,6.2c3.9,0,9.7-1.9,9.7-5.5c0-2.8-1.4-4.6-5.1-3.8
	C525.3,189.6,522.8,190.2,521.1,191.6z"/>
<ellipse id="XMLID_803_" class="st1" cx="526.1" cy="192.7" rx="1.3" ry="3.2"/>
<ellipse id="XMLID_800_" class="st1" cx="464.2" cy="190.7" rx="1.2" ry="3.3"/>
<path id="XMLID_797_" class="st1" d="M479.7,184.7c-5-4.8-10.7-8-16.7-9.5c-3.6-0.9-7.3-1.2-10.9-2.1c-3.6-1-7.2-2.8-9.9-6.3
	c9,1,18,2,27,3c2.9,0.3,6,0.7,8.5,3c2.5,2.2,4.1,6.9,2.8,10.7"/>
<path id="XMLID_794_" class="st1" d="M514.2,183.9c5.3-4.6,11.3-7.7,17.6-9.1c3.8-0.9,7.7-1.1,11.5-2.1c3.8-0.9,7.6-2.7,10.5-6.1
	c-9.5,1-19,1.9-28.5,2.9c-3.1,0.3-6.3,0.7-8.9,2.8s-4.3,6.7-3,10.2"/>
<path id="XMLID_791_" class="st1" d="M501.2,225.3c-1.3,2.1-4.2,3.6-7.2,3.8c-3,0.1-5.9-1.2-7.1-3.2"/>
<path id="XMLID_788_" class="st1" d="M467.8,242.7c2.9,1.1,45.7,4.5,48.5,4c-0.1,4.8-1,9.6-4.6,13.3s-10.5,5.9-17.1,4.2
	c-6-1.5-12.7-6.4-16-10.3C475.3,249.9,473.4,245,467.8,242.7"/>
<ellipse id="XMLID_785_" class="st1" cx="454.6" cy="194.9" rx="0.7" ry="0.5"/>
<path id="XMLID_782_" class="st1" d="M479,197c-3-5.5-8.7-9.2-14.7-9.7c-2.5-0.2-5,0.2-7.4,0.1s-5.1-0.5-7-2.2"/>
<path id="XMLID_779_" class="st1" d="M514.7,198.7c3.2-5.5,9.1-9.2,15.4-9.7c2.6-0.2,5.2,0.2,7.8,0.1c2.6,0,5.3-0.5,7.4-2.2"/>
<polyline id="XMLID_776_" class="st1" points="436.4,164.3 429.1,181.9 428.4,163.7 428.5,146.7 "/>
<path id="XMLID_773_" class="st1" d="M428.5,146.7l0.6,35.2L428.5,146.7z"/>
<polygon id="XMLID_770_" class="st1" points="439,150.5 429,181.9 428.5,146.7 "/>
<polyline id="XMLID_1_" class="st1" points="510.2,272.5 459.7,273.7 459.7,305.4 "/>
<polyline id="XMLID_764_" class="st1" points="511.1,303.4 459.7,288.2 459.7,273.7 510.9,270.8 511.1,303.4 "/>
<g id="XMLID_754_">
	<g id="XMLID_755_">
		<path id="XMLID_761_" class="st1" d="M550.5,186l-0.6-33.5c-8.5-33.4-27.6-62.5-62.5-63.7c-34.9-1.3-68.1,26.9-69.4,63.7v28.6
			c-2,0.4-3.8,1.3-5.3,2.6c-2.8,2.4-4.7,5.9-4.8,10l-0.5,13.9c-0.2,7.3,6.9,9.2,13.8,9.5c19.5,36.4,34.1,62.4,60.9,67.1
			c24.2,4.2,47-33.5,63.4-65.4c6.9,0.2,13.3,1.8,13.6-5.6l0.5-13.9C559.9,193,556,187.6,550.5,186z"/>
		<g id="XMLID_756_">
			<g id="XMLID_757_">
				<path id="XMLID_758_" class="st1" d="M519.2,186.7"/>
			</g>
		</g>
	</g>
</g>
<g id="XMLID_750_" class="st2">
	<path class="st1" d="M490.2,224.5c-1.3,2.1-4.2,3.6-7.2,3.8s-5.9-1.2-7.1-3.2"/>
	<path class="st5" d="M490.2,224.5c-0.4,1.4-1.5,2.6-2.7,3.4c-1.3,0.8-2.7,1.3-4.3,1.4c-1.5,0.1-3.1-0.2-4.4-0.9
		c-1.3-0.7-2.5-1.8-2.9-3.2c1.1,0.9,2.3,1.4,3.5,1.8c1.2,0.3,2.5,0.5,3.7,0.4c1.2-0.1,2.5-0.3,3.7-0.8
		C488,226,489.1,225.4,490.2,224.5z"/>
</g>
<ellipse id="XMLID_746_" class="st6" cx="443.6" cy="194.1" rx="0.7" ry="0.5"/>
<path id="XMLID_743_" class="st1" d="M417.5,145.9l0.6,35.2L417.5,145.9z"/>
<g id="XMLID_737_">
	<path class="st1" d="M502.4,198.5c5.2,7.9,17.4,9.4,23.6,6.3c6.3-3.1,8.6-8.1,11.5-16.4l0,0c-6-4.5-13.5-7.4-19.5-5.7
		C512.1,184.5,505.4,191.4,502.4,198.5L502.4,198.5z"/>
	<path class="st7" d="M502.4,198.5c2.5,3,6,4.9,9.7,5.8c1.8,0.5,3.7,0.7,5.5,0.7c1.8,0,3.7-0.2,5.4-0.7c0.8-0.2,1.6-0.6,2.4-1
		c0.8-0.4,1.6-0.9,2.2-1.4c1.4-1.1,2.6-2.3,3.5-3.8c2-2.9,3.3-6.6,4.5-10.2l0.7,2.3c-2.7-2.1-5.8-3.8-9-5c-3.2-1.1-6.6-1.5-9.6-0.6
		c-3.1,1-6.1,3.1-8.6,5.5C506.5,192.5,504.3,195.3,502.4,198.5z M502.4,198.5c1-3.5,2.9-6.8,5.3-9.8c2.4-2.9,5.2-5.6,9-7.1
		c1.9-0.8,4-1.1,6-1.1c2,0,4,0.4,5.9,1c3.8,1.1,7.1,3.1,10.2,5.3l1.2,0.9l-0.5,1.4c-1.4,3.7-2.7,7.5-5.2,11.1
		c-1.2,1.7-2.8,3.3-4.6,4.5c-0.9,0.6-1.8,1.1-2.8,1.6c-1,0.5-2.1,0.8-3.1,1c-4.2,0.9-8.4,0.3-12.3-1.1
		C507.7,204.7,504.2,202,502.4,198.5z"/>
</g>
<path id="XMLID_734_" class="st8" d="M470.8,197.1c-6.5,10.3-20.9,13-28.1,9.5c-7.2-3.4-9.6-9.6-12.5-19.7l0,0
	c7.3-6.1,16.3-10.3,23.1-8.5C460.3,180.2,467.7,188.3,470.8,197.1L470.8,197.1z"/>
<path id="XMLID_731_" class="st1" d="M534.9,189.3c5,9.6-4.5,15-10.1,15.8s-16.8,1-16-10c0.7-9.1,8.3-11.2,13.4-11.6
	C528.4,183,532.5,184.7,534.9,189.3z"/>
<g id="XMLID_725_">
	<path class="st1" d="M470,198.5c-5.2,7.9-17.4,9.4-23.6,6.3c-6.3-3.1-8.6-8.1-11.5-16.4l0,0c6-4.5,13.5-7.4,19.5-5.7
		C460.3,184.5,467,191.4,470,198.5L470,198.5z"/>
	<path class="st7" d="M470,198.5c-1.8,3.6-5.2,6.2-9,7.7c-3.8,1.4-8.1,2-12.3,1.1c-1-0.2-2.1-0.5-3.1-1c-1-0.5-1.9-1-2.8-1.6
		c-1.8-1.2-3.4-2.8-4.6-4.5c-2.5-3.5-3.8-7.4-5.2-11.1l-0.5-1.4l1.2-0.9c3.1-2.2,6.5-4.2,10.2-5.3c1.9-0.6,3.8-0.9,5.9-1
		c2-0.1,4.1,0.3,6,1.1c3.7,1.6,6.6,4.2,9,7.1C467,191.7,468.9,195,470,198.5z M470,198.5c-1.8-3.2-4.1-6-6.7-8.4
		c-2.6-2.4-5.5-4.5-8.6-5.5c-3.1-1-6.4-0.6-9.6,0.6c-3.2,1.1-6.3,2.8-9,5l0.7-2.3c1.3,3.6,2.6,7.3,4.5,10.2c1,1.5,2.1,2.8,3.5,3.8
		c0.7,0.5,1.5,1,2.2,1.4c0.7,0.4,1.5,0.7,2.4,1c1.7,0.5,3.5,0.7,5.4,0.7c1.8,0,3.7-0.2,5.5-0.7C464,203.4,467.4,201.5,470,198.5z"/>
</g>
<path id="XMLID_722_" class="st1" d="M442.3,189.1c-4.4,9.5,3.8,14.8,8.7,15.6s14.5,0.8,14.1-10.1c-0.4-9.9-7.1-11-11.6-11.4
	C448,182.8,444.4,184.6,442.3,189.1z"/>
<path id="XMLID_719_" class="st1" d="M446,192.6c-0.7,6.2,3.2,12,8.8,12.8s12-3.5,11.4-9.7c-0.5-5.8-3.5-11.3-9.5-13.5
	C452,180.5,446.7,186.4,446,192.6z"/>
<ellipse id="XMLID_716_" transform="matrix(0.9998 -1.944205e-02 1.944205e-02 0.9998 -3.5973 8.7858)" class="st1" cx="450.1" cy="189.4" rx="5.4" ry="6.1"/>
<ellipse id="XMLID_713_" transform="matrix(4.020777e-02 -0.9992 0.9992 4.020777e-02 230.3941 635.7914)" class="st1" cx="446.1" cy="198" rx="1.6" ry="1.3"/>
<ellipse id="XMLID_710_" transform="matrix(1.753739e-02 -0.9998 0.9998 1.753739e-02 315.2945 711.0169)" class="st1" cx="519.4" cy="195.1" rx="12" ry="10.8"/>
<ellipse id="XMLID_707_" transform="matrix(0.9995 -3.168136e-02 3.168136e-02 0.9995 -5.7601 16.6884)" class="st1" cx="523.7" cy="190.1" rx="5.7" ry="6.1"/>
<ellipse id="XMLID_704_" transform="matrix(0.6293 -0.7771 0.7771 0.6293 40.4194 485.6482)" class="st1" cx="529.3" cy="200.5" rx="1.9" ry="1.8"/>
<g id="XMLID_703_">
	<path class="st1" d="M501.5,173.1c6.3-2.2,12.6-4.4,19-6.6c3.7-1.3,7.5-2.6,11.4-2.5c3.9,0.1,8,2,9.2,5.4"/>
	<g>
		<path class="st9" d="M520.5,169c-2.2,1-4.5,1.7-6.7,2.2c-2.2,0.5-4.3,0.8-6.2,1c-1.8,0.2-3.4,0.3-4.5,0.5
			c-1.1,0.1-1.6,0.3-1.6,0.3s0.6-0.2,1.5-0.8c0.9-0.5,2.2-1.4,3.8-2.4c1.6-1,3.4-2.1,5.5-3c2.1-1,4.3-1.8,6.6-2.4
			c4.8-1.2,8.6-1.7,12.2-1.3c1.8,0.2,3.6,0.7,5.4,1.6c0.9,0.5,1.8,1,2.6,1.8c0.8,0.7,1.5,1.7,2,2.9c-0.5-1.2-1.2-2.1-2.1-2.8
			c-0.9-0.7-1.8-1.1-2.7-1.4c-1.8-0.6-3.5-0.6-5.1-0.3C527.8,165.4,525,166.9,520.5,169z"/>
	</g>
</g>
<g id="XMLID_702_">
	<path class="st1" d="M471.3,173c-6.4-2-12.8-4-19.1-5.9c-3.7-1.2-7.6-2.3-11.5-2.1c-3.9,0.2-7.9,2.3-9,5.7"/>
	<g>
		<path class="st9" d="M453.6,165c2.4,0.5,4.6,1.3,6.7,2.2c2.1,0.9,4,1.9,5.6,2.8c1.6,0.9,2.9,1.7,3.9,2.2c0.9,0.5,1.5,0.7,1.5,0.7
			s-0.6-0.2-1.7-0.3c-1.1-0.1-2.6-0.2-4.5-0.3c-1.8-0.1-4-0.4-6.2-0.8c-2.2-0.4-4.5-1.1-6.8-2c-4.6-1.9-7.4-3.3-10.7-3.7
			c-1.6-0.2-3.3-0.1-5.1,0.5c-0.9,0.3-1.8,0.8-2.6,1.5c-0.8,0.7-1.6,1.6-2,2.9c0.4-1.2,1.1-2.2,1.9-3c0.8-0.8,1.7-1.4,2.5-1.9
			c1.7-1,3.5-1.5,5.3-1.8C445,163.5,448.8,163.9,453.6,165z"/>
	</g>
</g>
<ellipse id="XMLID_699_" class="st1" cx="417.7" cy="211.9" rx="1.9" ry="2.5"/>
<ellipse id="XMLID_696_" class="st1" cx="553.1" cy="214.4" rx="2" ry="2.5"/>
<g id="XMLID_692_">
	<path class="st1" d="M459.1,287.8c3.3,1.9,6.7,3.8,10.2,5.2c13.6,5.5,29.9,3.1,41.6-6"/>
	<path class="st10" d="M459.1,287.8c4.4,1.5,8.6,3.5,12.9,4.5c4.3,1.1,8.7,1.6,13.1,1.6c4.4-0.1,8.8-0.7,13.1-1.8
		c4.3-1.2,8.5-2.9,12.7-5c-3.2,3.5-7.2,6.1-11.6,8c-4.4,1.8-9.2,2.8-14.1,2.9c-4.8,0-9.7-0.8-14.1-2.6
		C466.6,293.4,462.7,290.7,459.1,287.8z"/>
</g>
<g id="XMLID_685_">
	<path id="XMLID_689_" class="st1" d="M483.7,244.5c-2.1,0-4.9-5.2-12.5-0.7c-3.9,2.4-12.4,2.2-12.4,2.2s9.9,18.1,24.9,18.1
		c15,0,26.2-18.4,26.2-18.4s-8.1,0.6-14.2-2.4C487.3,239.3,485.7,244.5,483.7,244.5z"/>
	<path id="XMLID_686_" class="st1" d="M467.1,248.3c0,0,6.7,12.2,16.8,12.2c10.1,0,17.7-12.4,17.7-12.4L467.1,248.3z"/>
</g>
<ellipse id="XMLID_682_" class="st8" cx="448.2" cy="226.4" rx="12.8" ry="4.6"/>
<ellipse id="XMLID_679_" class="st8" cx="528.3" cy="225.6" rx="13.4" ry="4.6"/>
<path id="XMLID_675_" class="st11" d="M447.5,182.1c-2.2-0.7-4.2-2.1-5.6-4c1.2,1.5,2.4,2.9,3.6,4.4c-3.5-0.3-6.8-2.1-9.1-4.9
	c0.5,3,2.8,5.5,5.5,6.1c-2.6,0.5-5.5-0.5-7.4-2.6c1.3,1.2,2.6,2.5,3.9,3.7c-3.7-0.3-7.3-1.8-10.3-4.2c2.8,2.1,5.6,4.3,8.4,6.4
	c-2.9,1.4-6.5,1-9.1-1.1c1.1,2.4,3.8,3.8,6.2,3.2"/>
<g id="XMLID_671_">
	<path class="st12" d="M465.6,92.4c36.6,4.8,69.9,32.7,83.8,70.2c13.9,37.5,7.8,83-15.3,114.5"/>
	<path class="st13" d="M465.6,92.4c9.8,0.9,19.3,3.7,28.3,7.7c9,4.1,17.3,9.5,24.8,15.9c7.5,6.4,14.1,13.9,19.7,22.1
		c5.6,8.2,10,17.1,13.3,26.5c6.4,18.8,7.9,39.1,4.9,58.6c-1.5,9.8-4.1,19.3-7.9,28.4c-3.8,9.1-8.6,17.7-14.7,25.4
		c5.5-8.1,10-16.8,13.3-26c3.4-9.1,5.6-18.6,6.9-28.2c1.2-9.6,1.5-19.4,0.5-29c-0.9-9.6-2.8-19.2-6-28.3
		c-6.2-18.3-17.3-34.9-31.7-47.8c-7.2-6.5-15.2-12-23.9-16.4C484.6,97.1,475.3,94.1,465.6,92.4z"/>
</g>
<g id="XMLID_667_">
	<path class="st1" d="M447.7,102.1c-35.8,48.4-49.2,115.7-35.2,176c6.9,29.9,20.1,57.8,26.3,88c6.2,30.1,4,65.1-15.8,87"/>
	<path class="st13" d="M447.7,102.1c-8.8,12.6-16.3,26.1-22.1,40.2c-5.9,14.1-10.3,28.9-13.1,43.9c-2.8,15-4.3,30.3-4.1,45.5
		c0.2,15.3,1.9,30.5,5.4,45.3c3.3,14.9,8.3,29.4,13.2,43.9c4.9,14.5,9.8,29.2,12.8,44.4c3,15.2,3.9,30.8,1.7,46.1
		c-1.1,7.6-3.1,15.2-6.1,22.3c-0.3,0.9-0.8,1.8-1.2,2.6L433,439c-0.9,1.7-1.9,3.3-2.9,5c-1.1,1.6-2.2,3.1-3.3,4.7
		c-1.2,1.5-2.5,2.9-3.7,4.4c5-5.8,8.9-12.5,11.7-19.6c2.8-7.1,4.5-14.6,5.4-22.2c1.9-15.1,0.7-30.6-2.5-45.5
		c-3.3-14.9-8.1-29.5-13.1-44c-5-14.5-10.1-29.1-13.5-44.2c-3.4-15.1-5.1-30.5-5.2-46c-0.1-15.4,1.4-30.9,4.6-46
		c3.1-15.1,7.8-29.9,14-44C430.6,127.6,438.3,114.2,447.7,102.1z"/>
</g>
<g id="XMLID_663_">
	<path class="st1" d="M458.7,95.1c-14.7-1.2-28.9,6.7-40,17.2c-29.8,28.1-41.7,74.3-39.2,117.4c2.5,43.1,17.5,84.1,33.8,123.4
		s34.1,78.4,43,120.5c0-49.1-7.1-98.1-20.9-144.8c-8.3-28-19-55.1-26-83.5c-7-28.4-10.3-58.7-3.5-87.2c6.8-28.4,25.1-54.7,50.6-63.8
		"/>
	<path class="st13" d="M458.7,95.1c-4.5-0.3-9,0.2-13.3,1.4c-4.3,1.2-8.4,3-12.3,5.3c-3.9,2.2-7.5,4.9-10.9,7.8
		c-0.8,0.7-1.7,1.5-2.5,2.2c-0.8,0.7-1.6,1.5-2.4,2.3l-2.3,2.4c-0.8,0.8-1.6,1.6-2.3,2.5c-5.9,6.6-10.9,14.1-15,22
		c-4.2,7.9-7.5,16.1-10.1,24.6c-2.6,8.5-4.5,17.2-5.7,26c-0.3,2.2-0.6,4.4-0.8,6.6l-0.6,6.6c-0.2,4.4-0.5,8.9-0.4,13.3
		c0,8.9,0.6,17.8,1.8,26.6c1.2,8.8,2.8,17.6,4.8,26.3c2,8.7,4.4,17.3,7,25.8c2.6,8.5,5.5,16.9,8.7,25.3
		c6.2,16.7,13.2,33.2,20.1,49.7c6.9,16.5,13.8,33,20,49.9c6.2,16.8,11.4,34,15.2,51.6l-2.9,0.3c0-33.8-3.3-67.6-9.9-100.8
		c-1.7-8.3-3.5-16.5-5.6-24.7c-2.1-8.2-4.3-16.3-6.8-24.4c-5-16.2-10.6-32.2-15.7-48.4c-5.1-16.2-9.7-32.6-12.5-49.4
		c-2.8-16.8-3.9-33.9-2-50.9c1.9-16.9,7-33.6,16.1-48.1c4.5-7.2,9.9-13.9,16.3-19.5c6.4-5.6,13.8-10.1,21.8-12.9
		c-7.9,3-15.2,7.6-21.5,13.3c-6.2,5.7-11.5,12.4-15.9,19.6c-4.4,7.2-7.8,15-10.3,23c-2.5,8-4.1,16.4-5,24.8
		c-1.7,16.8-0.5,33.8,2.4,50.4c2.9,16.7,7.6,32.9,12.8,49c5.2,16.1,11,32.1,16,48.3c2.5,8.1,4.8,16.3,6.9,24.5
		c2.1,8.2,4,16.5,5.7,24.9c6.7,33.3,10.2,67.3,10.3,101.3l0,14.1l-3-13.8c-3.7-17.4-8.9-34.5-15-51.3c-6-16.8-12.9-33.3-19.8-49.8
		c-6.9-16.5-13.8-33-20-49.8c-6.2-16.8-11.7-33.9-15.5-51.5c-3.9-17.5-6.3-35.4-6.2-53.4c0-4.5,0.2-9,0.5-13.5l0.6-6.7
		c0.2-2.2,0.6-4.5,0.9-6.7c1.3-8.9,3.3-17.7,6-26.2c2.8-8.5,6.3-16.9,10.6-24.7c4.3-7.9,9.4-15.4,15.4-22c0.7-0.9,1.5-1.6,2.3-2.4
		l2.4-2.4c0.8-0.8,1.6-1.6,2.4-2.3c0.8-0.8,1.7-1.5,2.5-2.2c3.4-2.9,7.1-5.5,11-7.7c3.9-2.2,8.1-4,12.4-5.1
		C449.7,95.1,454.3,94.7,458.7,95.1z"/>
</g>
<path id="XMLID_660_" class="st1" d="M480.4,584.8c0,0-81.5-30.3-63.6-108.4c17.9-78.1,28-154.9,28-154.9L480.4,584.8z"/>
<path id="XMLID_656_" class="st14" d="M456.4,103c-11.2,25-17.3,36.8-24.1,58.8S419.5,205,422,228.1c3.3,29.7,11.8,58.3,18.2,87.4
	c6.4,29.1,10.5,59.5,4.9,88.8s-22.7,57.3-48.1,67.8c6.4-2.1,11.3-7.9,15.1-13.9c17.3-27.2,20.1-62.8,15.8-95.6
	c-4.3-32.8-15.1-64.2-22.8-96.2s-12.4-77.5-4.4-109.5s27.2-55,57.1-59.6"/>
<g id="XMLID_652_">
	<path class="st1" d="M456.9,97.1c-28.3,32.6-42.3,79.4-37.3,124.1c3.1,27.9,13.2,54.3,19.9,81.5c6.6,27.2,9.6,57.2-1.1,82.7"/>
	<path class="st13" d="M456.9,97.1c-7.7,10-14.2,20.7-19.4,32c-2.7,5.6-4.9,11.4-6.9,17.3c-0.5,1.5-0.9,3-1.4,4.4l-1.4,4.4
		c-0.7,3-1.6,6-2.2,9c-2.6,12.1-4.1,24.4-4.1,36.8c-0.1,6.2,0.3,12.3,0.9,18.5c0.6,6.1,1.7,12.2,2.9,18.3
		c2.4,12.2,5.8,24.2,9.2,36.3c1.7,6,3.4,12.1,4.9,18.2c1.6,6.1,3,12.3,4.2,18.5c2.3,12.4,3.7,25.2,3.2,37.9
		c-0.6,12.7-3.1,25.4-8.5,36.7c4.2-11.9,5.8-24.4,5.6-36.8c-0.1-6.2-0.6-12.4-1.5-18.6c-0.9-6.1-2-12.3-3.4-18.3
		c-2.8-12.1-6.4-24.1-10-36.1c-3.6-12-7.1-24.2-9.7-36.6c-2.5-12.4-3.9-25.3-3.6-38c0.3-12.8,2-25.5,5.2-37.8
		c3.1-12.3,7.9-24.2,13.8-35.4C440.9,116.6,448.2,106.2,456.9,97.1z"/>
</g>
<g id="XMLID_648_">
	<path class="st1" d="M433.7,447.3c11.7-40.6,13.2-84.6,4.3-126c-5.7-26.7-15.6-52-23-78.2c-7.4-26.2-12.2-54-7.5-80.9
		c4.7-26.9,20.6-52.7,44.2-61.6"/>
	<path class="st13" d="M433.7,447.3c2-7.4,3.7-15,5.1-22.5c1.3-7.6,2.4-15.2,3.1-22.9c1.4-15.3,1.6-30.8,0.3-46.1
		c-0.6-7.7-1.6-15.3-2.9-22.9c-0.6-3.8-1.4-7.5-2.2-11.3c-0.8-3.8-1.7-7.5-2.7-11.2c-3.9-14.9-8.8-29.5-13.5-44.2
		c-4.7-14.7-9.2-29.5-12.2-44.7c-3-15.1-4.8-30.7-3.6-46.2c0.6-7.7,1.8-15.4,3.9-22.9c2.1-7.5,5.1-14.7,8.9-21.4
		c3.9-6.7,8.5-13,14.2-18.3c5.7-5.3,12.3-9.6,19.5-12.2c-7.2,2.9-13.6,7.3-19.1,12.6c-5.5,5.3-10,11.7-13.7,18.4
		c-3.7,6.7-6.6,13.9-8.6,21.3c-2,7.4-3.1,15-3.6,22.7c-0.9,15.3,0.8,30.7,3.9,45.7c3.1,15.1,7.6,29.8,12.3,44.4
		c4.7,14.7,9.5,29.3,13.3,44.3c1,3.7,1.8,7.5,2.7,11.3c0.7,3.8,1.5,7.6,2.1,11.4c0.7,3.8,1.1,7.6,1.6,11.5c0.2,1.9,0.4,3.8,0.6,5.8
		l0.3,2.9l0.2,2.9c1.1,15.4,0.8,30.9-0.8,46.3c-0.8,7.7-2.1,15.3-3.6,22.9C437.8,432.4,435.9,439.9,433.7,447.3z"/>
</g>
<g id="XMLID_644_">
	<path class="st1" d="M456.9,97.1c-27.9,4.1-42.1,30.6-48.7,57.3c-6.6,26.7-8,53.2,0.6,79.4s20.3,51.5,26.3,78.3
		c11,48.9,2.6,100.1-11.7,148.2"/>
	<path class="st13" d="M456.9,97.1c-4,0.7-8,2-11.6,3.7c-3.7,1.7-7.1,4-10.2,6.5c-3.1,2.6-5.9,5.6-8.3,8.8
		c-2.5,3.2-4.6,6.6-6.5,10.2c-3.8,7.1-6.6,14.8-8.8,22.6c-2.1,7.8-3.7,15.8-4.8,23.8c-1.1,8-1.7,16.1-1.5,24.2c0,4,0.4,8,0.8,12.1
		c0.5,4,1.1,8,2,11.9c0.2,1,0.4,2,0.6,2.9l0.8,2.9c0.5,2,1.1,3.8,1.7,5.8c1.3,3.9,2.6,7.7,4,11.5c2.8,7.7,5.7,15.3,8.6,23
		c5.6,15.4,11.2,31,14.5,47.3c3.3,16.3,4.5,32.9,4.1,49.4c-0.5,16.5-2.6,32.9-5.8,49c-3.3,16.1-7.6,32-12.8,47.5
		c4.2-15.9,7.9-31.8,10.5-48c2.7-16.1,4.2-32.4,4.3-48.7c0-16.3-1.3-32.5-4.8-48.4c-3.4-15.8-8.8-31.2-14.6-46.6
		c-2.9-7.7-5.7-15.4-8.5-23.1c-1.4-3.9-2.7-7.8-4-11.7c-0.6-2-1.3-4-1.7-6l-0.8-3c-0.2-1-0.4-2-0.7-3.1c-0.9-4.1-1.4-8.2-1.9-12.4
		c-0.4-4.2-0.6-8.3-0.6-12.5c-0.1-4.2,0.2-8.3,0.5-12.5c0.4-4.1,0.9-8.3,1.6-12.3l0.5-3.1l0.6-3c0.4-2,0.8-4,1.3-6.1
		c0.9-4,1.9-8,3.2-12c2.5-7.9,5.6-15.7,9.8-22.9c2.1-3.6,4.5-7,7.2-10.2c2.7-3.2,5.7-6.1,9-8.6c3.3-2.5,6.9-4.6,10.8-6.1
		C448.8,98.6,452.8,97.6,456.9,97.1z"/>
</g>
<g id="XMLID_640_">
	<path class="st1" d="M459.3,96.4c-10.7,20.3-26.1,39.9-32.7,62.1c-6.7,22.2-9.1,50.6,1.8,69.7c8.4,14.7,13.6,31.1,19.6,47.1
		c16.7,44.9,5.9,99.9-26.3,134"/>
	<path class="st13" d="M459.3,96.4c-6.2,12.6-14,24.3-20.6,36.6c-3.3,6.1-6.4,12.4-8.9,18.9c-2.4,6.5-4.2,13.3-5.4,20.1
		c-1.3,6.8-2,13.8-2.2,20.7c-0.1,6.9,0.4,13.9,2,20.5c0.8,3.3,1.8,6.6,3.2,9.7c0.7,1.6,1.5,3.1,2.3,4.6c0.9,1.5,1.7,3.1,2.5,4.7
		c3.3,6.3,6,12.8,8.6,19.3c2.5,6.6,4.8,13.2,7.2,19.8c0.6,1.7,1.2,3.3,1.8,5c0.6,1.7,1.2,3.3,1.7,5.1c1.1,3.4,1.9,6.8,2.7,10.3
		c1.5,6.9,2.3,14,2.7,21c0.3,7.1,0.1,14.2-0.7,21.2c-1.6,14-5.2,27.8-11,40.7c-5.8,12.8-13.7,24.8-23.5,34.8
		c4.7-5.2,8.9-10.8,12.6-16.8c3.7-5.9,6.9-12.2,9.5-18.6c5.4-12.8,8.7-26.5,10-40.4c1.2-13.8,0.5-27.9-2.5-41.4
		c-0.8-3.4-1.6-6.7-2.7-10c-0.5-1.7-1.1-3.3-1.6-4.9c-0.6-1.6-1.2-3.3-1.8-4.9c-2.4-6.6-4.8-13.2-7.3-19.7
		c-2.5-6.5-5.2-12.9-8.4-19.1c-0.8-1.5-1.6-3.1-2.5-4.6c-0.9-1.6-1.7-3.2-2.4-4.8c-1.4-3.3-2.5-6.7-3.3-10.2c-1.6-7-2-14.1-1.9-21.2
		c0.2-7.1,1.1-14.1,2.5-21.1c1.4-6.9,3.3-13.7,5.9-20.3c2.6-6.6,5.8-12.9,9.3-18.9C444.5,120.1,452.5,108.6,459.3,96.4z"/>
</g>
<g id="XMLID_636_">
	<path class="st1" d="M458.2,96.8c-9,21.9,4.8,34.7,16.2,44.9c11.4,10.3,24.6,18.1,35.7,28.9c22.1,21.5,34.1,54.8,31.6,87
		c14-27.6,9.6-65.1-10.4-87.9c-11.8-13.5-27.7-21.5-42.4-30.9s-24.3-21.6-30.3-39.1"/>
	<path class="st15" d="M458.2,96.8c-0.7,1.9-1.3,3.8-1.7,5.8c-0.4,2-0.7,3.9-0.8,5.9c-0.2,4,0.5,8,2,11.6c1.5,3.7,3.7,7,6.3,10
		c2.6,3,5.5,5.8,8.5,8.4c3,2.7,6.1,5.2,9.2,7.7c3.2,2.4,6.4,4.8,9.7,7.2c6.5,4.7,13.1,9.5,19.1,15.1c12.1,11.2,21.1,25.5,26.8,40.9
		c5.7,15.4,8.1,32.1,6.9,48.5l-4.7-1.3c7.1-14.1,9.3-30.6,7.1-46.4c-1.1-7.9-3.2-15.7-6.6-22.9c-3.3-7.2-7.8-13.9-13.4-19.6
		c-5.6-5.7-12.1-10.6-18.8-15.1c-6.8-4.5-13.8-8.7-20.6-13.4c-6.8-4.7-13-10.5-17.8-17.3c-2.4-3.4-4.5-7-6.2-10.7
		c-1.8-3.7-3.2-7.6-4.4-11.5c2.9,7.7,6.8,15,11.8,21.3c5,6.4,11.2,11.7,18.1,16c6.9,4.3,14.1,8.3,21.1,12.7
		c7,4.4,13.8,9.2,19.8,15.1c6.1,5.8,11,12.9,14.6,20.5c3.6,7.6,6.1,15.8,7.3,24.1c1.2,8.3,1.2,16.8,0.1,25.2
		c-1.2,8.3-3.6,16.6-7.5,24.1l-5.7,11.1l1-12.5c1.3-15.7-1-31.7-6.3-46.5c-5.3-14.9-13.7-28.7-25-39.8c-11.3-11-25.3-19.6-37-31
		c-2.9-2.8-5.8-5.7-8.3-8.9c-2.5-3.2-4.7-6.8-6.1-10.7c-1.4-3.9-1.9-8-1.5-12.1c0.2-2,0.6-4,1.1-6
		C456.7,100.5,457.4,98.6,458.2,96.8z"/>
</g>
<path id="XMLID_633_" class="st1" d="M497.3,129.1c-2.4-1.6-4.9-3.2-6.4-5.9s-1.8-6.5,0.3-8.7c1.6-1.7,4.3-1.8,6.2-0.5
	c1.9,1.3,3,3.8,3.1,6.3c-0.1-2.5,1.8-4.8,4-5.2c2.2-0.4,4.5,0.8,5.8,2.9c1.2,1.9,1.7,4.5,0.8,6.6s-3.4,3.2-5.2,2.1
	c2.4,0.9,4.4,3.4,4.5,6.3c0.1,2.9-1.8,5.8-4.3,6.2c-2.5,0.4-5.2-2.1-5-5c-1.3,4.7-7.2,6.7-10.5,3.6c-3.3-3.1-2.7-10.1,1.1-12.3"/>
<path id="XMLID_630_" class="st1" d="M422,122.5c-1.5-1.1-3.1-2.3-4.1-4.2c-1-1.9-1.1-4.7,0.2-6.2c1-1.2,2.7-1.3,4-0.4
	c1.2,0.9,1.9,2.7,2,4.5c-0.1-1.8,1.1-3.4,2.5-3.7c1.4-0.3,2.9,0.6,3.7,2c0.8,1.3,1.1,3.2,0.5,4.7c-0.6,1.5-2.2,2.3-3.3,1.5
	c1.5,0.6,2.8,2.5,2.9,4.5s-1.1,4.1-2.7,4.4c-1.6,0.3-3.3-1.5-3.2-3.5c-0.8,3.3-4.6,4.8-6.7,2.5c-2.1-2.2-1.7-7.2,0.7-8.8"/>
<path id="XMLID_627_" class="st1" d="M509.1,140.1c-1.5-1.1-3.1-2.3-4.1-4.2c-1-1.9-1.1-4.7,0.2-6.2c1-1.2,2.7-1.3,4-0.4
	s1.9,2.7,2,4.5c-0.1-1.8,1.1-3.4,2.5-3.7c1.4-0.3,2.9,0.6,3.7,2c0.8,1.3,1.1,3.2,0.5,4.7s-2.2,2.3-3.3,1.5c1.5,0.6,2.8,2.5,2.9,4.5
	c0.1,2.1-1.1,4.1-2.7,4.4s-3.3-1.5-3.2-3.5c-0.8,3.3-4.6,4.8-6.7,2.5c-2.1-2.2-1.7-7.2,0.7-8.8"/>
<g id="XMLID_623_">
	<path class="st1" d="M390.9,599.6c15-1.2,29.7-6.5,42.2-15.2"/>
	<path class="st16" d="M390.9,599.6c3.7-1.5,7.2-2.7,10.7-4c3.5-1.2,6.9-2.4,10.4-3.7l10.3-3.8c3.5-1.3,7-2.6,10.8-3.7
		c-2.4,3.2-5.4,5.7-8.6,7.9c-3.2,2.2-6.8,3.9-10.4,5.3c-3.7,1.3-7.5,2.2-11.4,2.6C398.7,600.6,394.8,600.6,390.9,599.6z"/>
</g>
<path id="XMLID_619_" class="st17" d="M493.3,582.9c0,0,87-33.8,65.1-112.1s-35.3-155.4-35.3-155.4L493.3,582.9z"/>
<g id="XMLID_615_">
	<path class="st1" d="M459.3,96.4c-19.2,3.2-35.4,19.1-43.6,38.4s-9.2,41.6-6.2,62.6s9.6,41.2,16.3,61.3
		c12.3,37,24.6,74.1,36.9,111.1"/>
	<path class="st13" d="M459.3,96.4l-2.3,0.5l-1.2,0.3l-1.1,0.3l-2.3,0.7c-0.7,0.3-1.5,0.6-2.2,0.9c-1.5,0.5-2.9,1.3-4.3,2
		c-0.7,0.4-1.4,0.8-2.1,1.2c-0.7,0.4-1.4,0.8-2,1.2c-5.3,3.5-10.1,7.7-14,12.6c-4,4.9-7.5,10.2-10.1,15.9
		c-2.7,5.7-4.6,11.7-6.1,17.9c-2.7,12.3-3.3,25-2.3,37.6c1,12.6,3.6,25,6.9,37.2c3.3,12.2,7.3,24.3,11.3,36.3
		c4,12.1,8,24.1,11.9,36.2l11.7,36.2c3.8,12.1,7.8,24.2,11.5,36.3c-4.2-12-8.3-24-12.5-36L438,297.7c-4.1-12-8.1-24.1-12.1-36.1
		c-4-12-8.1-24.1-11.5-36.4c-3.3-12.3-5.9-24.9-6.8-37.6c-1-12.7-0.4-25.7,2.6-38.1c1.5-6.2,3.6-12.3,6.4-18.1
		c2.8-5.8,6.3-11.1,10.5-16c4.2-4.9,9.1-9,14.5-12.4C447,99.7,453.1,97.4,459.3,96.4z"/>
</g>
<path id="XMLID_612_" class="st1" d="M437.1,115.6c-2.7-1.7-5.6-3.6-7.3-6.4c-1.7-2.9-2-7.2,0.3-9.5c1.8-1.9,4.8-2,7-0.6
	s3.4,4.2,3.5,6.9c-0.1-2.8,2-5.3,4.5-5.7c2.5-0.5,5.1,0.9,6.6,3.1c1.4,2,1.9,4.9,0.9,7.2c-1,2.3-3.9,3.5-5.9,2.3
	c2.7,1,4.9,3.8,5.1,6.9c0.2,3.1-2,6.3-4.8,6.8c-2.8,0.4-5.8-2.3-5.7-5.4c-1.4,5.1-8.1,7.3-11.8,3.9s-3-11,1.3-13.5"/>
<path id="XMLID_609_" class="st12" d="M481.1,909.4l10.1,58.5l-50.6,7.4c-7.7,1.1-11.5-8-5.2-12.5l14.1-17.8"/>
<path id="XMLID_606_" class="st12" d="M434.3,918.1"/>
<path id="XMLID_605_" class="st18" d="M473.6,951.8l3.4-39.7l18.3-15.4l7.2,52.8c-0.7,7.8-3.6,9.4-11.2,9.5
	C483.8,959.1,472.9,959.6,473.6,951.8z"/>
<path id="XMLID_604_" class="st18" d="M470.9,950.5l-3.5-37.5L450,898.4l-6.5,49.8c0.7,7.4,3.5,8.9,10.7,9.1
	C461.3,957.4,471.6,958,470.9,950.5z"/>
<path id="XMLID_603_" class="st18" d="M361.2,599.1c2.3-10.2-1.5-21.4-1.8-21.9c-1.1-2.1-3-3.3-4.4-2.5c-1.4,0.8-1.6,3.1-0.6,5.3
	c0,0,0.2,0.6,0.4,1.4s0.4,2.1,0.6,3.5c0.4,2.8-1.3,6.7-2.1,10.1c-0.4,1.9,2.4,4.2,4,5.4C359,601.6,360.7,601.1,361.2,599.1z"/>
<path id="XMLID_600_" class="st18" d="M370.9,585.6l-3-53.8l-24-20.1L332,583.9c0.6,10.6,4.5,12.7,14.7,12.4
	C356.9,596.1,371.4,596.2,370.9,585.6z"/>
<path id="XMLID_599_" class="st18" d="M549.5,342.3c-0.1-1.3,0.5-0.6-0.5-1.2l-50.5-37.3h-3.9l-45.4-0.8c-1.6,0-1.7,2.2-3.5,2.8l0,0
	c-0.3,1-0.9,1.8-1.7,2.3l-41,26.3c-9.5,6.1-15.3,17.8-15,30.2l0.8,30.6c0.1,2.2,1.6,3.9,3.5,4l51.4,2.2c1.9,0.1,3.5,1.9,3.5,4.1v5.7
	C429.3,428.5,472.3,572,474.3,572l38.9-72.6c2,0-11.9-85.9-11.9-88.2v-5.9c0-2.1,1.4-3.9,3.3-4.1l46.2-4.4c2-0.2,3.5-2.2,3.3-4.5
	L549.5,342.3z"/>
<g id="XMLID_585_">
	<path id="XMLID_596_" class="st7" d="M453.2,736.7"/>
	<g id="XMLID_586_">
		<g>
			<g id="XMLID_143_">
				<path class="st7" d="M534.8,527.3c-21.2,4.6-35.3,35.2-58,34.9c-22.7,0.3-46.8-28.4-67.9-32.9c0,0-20.4,86.6-10.4,125.9
					c10,39.4,24.9,70.7,24.2,91.7c-0.7,20.9,13.2,106.7,17.8,137.2c4.9,32.6,3.6,47.4,3.6,47.4s27.8,5.5,26.3-3.1
					c0,0-4.6-134.5-3.7-143c0.8-7.9,4.2-73.4,2.8-86.9c-1.4-13.5,1.3-85,2-86.3l0.3-2.8c2.8-1.1,5.2,1.2,5.2,1.2
					c0.7,1.2,4.4,67.6,3,81.1c-1.4,13.5,3.2,82.5,2.8,94.4c-0.3,8.5-7.1,140.2-7.1,140.2c-1.4,8.6,26.3,3.1,26.3,3.1
					s0.9-8.7,3.6-47.4c2.1-30.8,18.5-116.3,17.8-137.2c-0.7-20.9,14.2-52.3,24.2-91.7C557.6,613.9,534.8,527.3,534.8,527.3z"/>
			</g>
			<path id="XMLID_142_" class="st7" d="M440.9,584.1c0,0,10.1,21.1,29.9,25.1c0,0,5.3-1,6.7,1.2c1.4,2.2,26.1-11.2,28.7-17.1
				c0,0-24.3,11.5-29.1,10.2C464.3,599.8,447.3,592.7,440.9,584.1z"/>
		</g>
	</g>
</g>
<g id="XMLID_584_">
	<path class="st19" d="M449.7,107.2c-21.2,36.7-31.6,80.7-29.3,124c0.5,10.5,10.8,17.6,17.1,25.4c4.5,5.6,6.1,8.4,10.5,14.1
		c6.7,8.7,0.4,24.8,0.7,36.2c0.1,2.5-1.6-1.9-3.1,0c-2,2.8-0.9,10.6-4.2,10.5c-15.6-0.5-31.3,6.1-42.8,17.8
		c13.3-23.1,13.4-52.6,9.3-79.6s-11.8-53.5-12.6-80.8c-0.8-27.4,7.1-57.1,27.5-72.7c4.5-3.4,9.7-6.1,15.1-5.6s10.8,4.8,11.3,10.8"/>
</g>
<path id="XMLID_583_" class="st20" d="M446.9,97.2c25.5-14.6,58.8-6,79.3,16.1s29.1,55.2,27.6,86.8c-2.2,47-26.3,92.2-62.6,117.3
	c-11.8-41.4-9.8-86.2-21.1-127.8c-8.3-30.7-23.9-59.9-23.7-91.9"/>
<path id="XMLID_582_" class="st18" d="M398.3,344.9c0.1-1.3,0.8-2.5,1.8-3.2l53-35.7l0,0l45.4-0.8c1.6,0,3,1.1,3.5,2.8l0,0
	c0.3,1,0.9,1.8,1.7,2.3l41,26.5c9.5,6.2,15.3,17.9,15,30.5l-0.8,30.9c-0.1,2.2-1.6,3.9-3.5,4l-51.4,2.3c-1.9,0.1-3.5,1.9-3.5,4.2
	v5.8c0,2.3-1.6,4.2-3.6,4.2h-46.6c-2,0-3.6-1.9-3.6-4.2v-5.9c0-2.2-1.4-4-3.3-4.1l-46.2-4.4c-2-0.2-3.5-2.3-3.3-4.6L398.3,344.9z"/>
<g id="XMLID_556_">
	<path id="XMLID_579_" class="st21" d="M543.8,314.8c0,0,38.3,325.4,30.8,331.2c-7.6,5.8-86.3,23-94.7-3.6
		c-8.4-26.7,25.8-335.6,18.6-337.2C517.8,309.5,544.8,315.5,543.8,314.8z"/>
	<path id="XMLID_576_" class="st21" d="M409,318.4c0,0-58.2,352.2-50.7,358c7.6,5.8,95.6,2.6,110.9-19.9
		c17.4-25.6-28.6-350.2-19.4-351C449.9,305.5,416.9,312.9,409,318.4z"/>
	<path id="XMLID_573_" class="st22" d="M399.5,313.1c0,0-21.6,4.2-28,42.9c-9.3,56-54.5,149.9-54.5,149.9s42.2,77.6,52.3,71.3
		C379.3,570.9,399.5,313.1,399.5,313.1z"/>
	<path id="XMLID_566_" class="st21" d="M547.4,327.6c0,0,48.4,352.9,40.8,358.7c-7.6,5.8-96.5-17.8-104.9-44.5
		c-7.7-24.4,34.5-284.7,34.8-329.6c0-4.2,1,0.2,0.2,0.1C518.4,312.3,539.4,322.2,547.4,327.6z"/>
	<path id="XMLID_563_" class="st23" d="M541.9,313.8c2,0.9,3.5,3,3.7,5.5c3.6,35.8,34.2,358.3,27.1,363.8
		c-7.6,5.8-88-11.8-96.4-38.5c-7.7-24.4,33.4-286.3,33.7-331.2c0,0,0-0.1,0-0.1c0-4.1-1.2-5.7,2.4-5
		C519.9,309.7,535.4,310.9,541.9,313.8z"/>
	<path id="XMLID_560_" class="st21" d="M398.8,329.7c0,0-40,313.7-32.4,319.6c7.6,5.8,88.1,21.3,96.4-5.4
		c7.7-24.4-34.5-284.7-34.8-329.6c0-4.2-1,0.2-0.2,0.1C427.8,314.4,406.8,324.3,398.8,329.7z"/>
	<path id="XMLID_557_" class="st23" d="M405,315.5c-2.5,1.1-4.3,3.7-4.6,6.7c-4,39.2-40.3,346.3-33.3,351.8
		c7.6,5.8,94.4-1.5,102.8-28.2c7.7-24.4-35.1-283.7-35.3-328.6c0,0,0-0.1,0-0.1c0-5.1-4.2-8.8-8.6-7.8
		C419.5,310.7,410.9,313,405,315.5z"/>
</g>
<g id="XMLID_551_">
	<g id="XMLID_552_">
		<g id="XMLID_553_">
			<g id="XMLID_554_">
				<path id="XMLID_555_" class="st24" d="M521.8,187.9"/>
			</g>
		</g>
	</g>
</g>
<g id="XMLID_550_">
	<path class="st24" d="M467.7,197.4c-2.4-3.6,0.7,0.7-3.6-4.5c-2-2.4-8.9-4.6-12.6-4.7c-3,0-7.2-0.2-10.9-1.1
		c3.5,5.1,9.8,8.6,15,9.7C460.8,197.9,462.5,197.9,467.7,197.4"/>
</g>
<path id="XMLID_549_" class="st24" d="M462.6,191.2c2,1.7-0.7,6.2-4.4,6.2s-9.3-1.9-9.3-5.5c0-2.8,1.3-4.6,4.9-3.8
	C458.6,189.2,460.9,189.8,462.6,191.2z"/>
<g id="XMLID_548_">
	<path class="st24" d="M501.8,198.2c2.4-3.6-0.7,0.7,3.6-4.5c2-2.4,8.9-4.6,12.6-4.7c3,0,7.2-0.2,10.9-1.1c-3.5,5.1-9.8,8.6-15,9.7
		C508.7,198.6,507,198.7,501.8,198.2"/>
</g>
<path id="XMLID_547_" class="st24" d="M509.3,192c-2,1.7,0.7,6.2,4.6,6.2c3.9,0,9.7-1.9,9.7-5.5c0-2.8-1.4-4.6-5.1-3.8
	C513.5,190,511,190.6,509.3,192z"/>
<ellipse id="XMLID_546_" class="st24" cx="514.3" cy="193.1" rx="1.3" ry="3.2"/>
<ellipse id="XMLID_545_" class="st24" cx="452.9" cy="191.1" rx="1.2" ry="3.3"/>
<g id="XMLID_544_" class="st2">
	<path class="st25" d="M469.2,533.1"/>
</g>
<g id="XMLID_125_" class="st2">
	<path class="st25" d="M467.2,531.3"/>
</g>
<g id="XMLID_4_" class="st2">
	<path class="st25" d="M445.7,339.9"/>
</g>
<path id="XMLID_542_" class="st24" d="M468.4,185.1c-5-4.8-10.7-8-16.7-9.5c-3.6-0.9-7.3-1.2-10.9-2.1c-3.6-1-7.2-2.8-9.9-6.3
	c9,1,18,2,27,3c2.9,0.3,6,0.7,8.5,3c2.5,2.2,4.1,6.9,2.8,10.7"/>
<path id="XMLID_541_" class="st24" d="M500.3,184.3c5.1-4.6,10.8-7.7,16.9-9.1c3.7-0.9,7.4-1.1,11-2.1c3.6-0.9,7.3-2.7,10-6.1
	c-9.1,1-18.2,1.9-27.2,2.9c-3,0.3-6,0.7-8.6,2.8c-2.5,2.1-4.1,6.7-2.8,10.2"/>
<path id="XMLID_540_" class="st24" d="M489.9,225.7c-1.3,2.1-4.2,3.6-7.2,3.8c-3,0.1-5.9-1.2-7.1-3.2"/>
<path id="XMLID_539_" class="st24" d="M456.5,243.1c2.9,1.1,45.7,4.5,48.5,4c-0.1,4.8-1,9.6-4.6,13.3s-10.5,5.9-17.1,4.2
	c-6-1.5-12.7-6.4-16-10.3S462.1,245.3,456.5,243.1"/>
<ellipse id="XMLID_538_" class="st24" cx="443.3" cy="195.3" rx="0.7" ry="0.5"/>
<path id="XMLID_537_" class="st24" d="M467.7,197.4c-3-5.5-8.7-9.2-14.7-9.7c-2.5-0.2-5,0.2-7.4,0.1s-5.1-0.5-7-2.2"/>
<path id="XMLID_536_" class="st24" d="M500.7,199.1c3-5.5,8.7-9.2,14.7-9.7c2.5-0.2,5,0.2,7.4,0.1c2.5,0,5.1-0.5,7-2.2"/>
<polyline id="XMLID_535_" class="st24" points="425.1,164.7 417.8,182.3 417.1,164.1 417.2,147.1 "/>
<path id="XMLID_534_" class="st24" d="M417.2,147.1l0.6,35.2L417.2,147.1z"/>
<polygon id="XMLID_533_" class="st24" points="427.7,150.9 417.7,182.3 417.2,147.1 "/>
<polyline id="XMLID_532_" class="st26" points="499.9,305.8 498.9,272.9 447.8,274.1 447.8,305.8 "/>
<polyline id="XMLID_31_" class="st27" points="449.9,287.7 449.9,272.4 497.4,269.3 497.7,301.9 "/>
<g id="XMLID_525_">
	<g id="XMLID_526_">
		<path id="XMLID_530_" class="st18" d="M542.1,185.3l-0.6-33c-8.9-33-28.7-61.7-64.9-63c-36.2-1.3-70.6,26.5-71.8,62.8l0,28.2
			c-2,0.4-3.9,1.3-5.5,2.5c-2.9,2.3-4.8,5.8-4.9,9.9l-0.5,13.7c-0.2,7.2,7.1,9.1,14.3,9.4c20.3,36,35.5,61.6,63.3,66.3
			c25.1,4.2,48.7-33,65.6-64.5c7.2,0.2,13.8,1.8,14.1-5.5l0.5-13.7C551.9,192.2,547.8,186.9,542.1,185.3z"/>
		<g id="XMLID_527_">
			<g id="XMLID_528_">
				<path id="XMLID_529_" class="st28" d="M509.6,185.9"/>
			</g>
		</g>
	</g>
</g>
<g id="XMLID_521_" class="st2">
	<path class="st5" d="M478.9,224.9c-0.4,1.4-1.5,2.6-2.7,3.4c-1.3,0.8-2.7,1.3-4.3,1.4c-1.5,0.1-3.1-0.2-4.4-0.9
		c-1.3-0.7-2.5-1.8-2.9-3.2c1.1,0.9,2.3,1.4,3.5,1.8c1.2,0.3,2.5,0.5,3.7,0.4c1.2-0.1,2.5-0.3,3.7-0.8
		C476.7,226.4,477.8,225.8,478.9,224.9z"/>
</g>
<ellipse id="XMLID_519_" class="st29" cx="432.3" cy="194.5" rx="0.7" ry="0.5"/>
<path id="XMLID_518_" class="st30" d="M406.2,146.3l0.6,35.2L406.2,146.3z"/>
<g id="XMLID_512_">
	<path class="st28" d="M490.7,196.9c5.4,7.8,17.8,9.5,24.1,6.7c6.3-2.8,8.5-7.7,11.3-15.6l0,0c-6.1-4.5-13.8-7.5-19.8-6
		C500.2,183.6,493.6,190.1,490.7,196.9L490.7,196.9z"/>
	<path class="st7" d="M490.7,196.9c2.4,3.1,5.8,5.1,9.5,6.2c3.6,1.1,7.5,1.4,11.2,0.7c1.8-0.3,3.5-1.1,5.1-2.1c1.5-1,2.9-2.3,4-3.8
		c2.2-3,3.5-6.6,4.7-10.3l0.4,1.1c-2.8-2.1-6-3.8-9.3-5c-3.3-1.2-6.9-1.8-10.2-0.9c-3.3,0.9-6.3,3-8.9,5.5
		C494.5,190.8,492.3,193.7,490.7,196.9z M490.7,196.9c1.2-3.4,3.3-6.5,5.7-9.3c2.5-2.7,5.5-5.1,9.2-6.3c1.8-0.6,3.8-0.7,5.7-0.6
		c1.9,0.2,3.7,0.6,5.5,1.2c3.6,1.2,6.8,3,9.8,5.2l0.6,0.4l-0.3,0.7c-1.3,3.7-2.6,7.4-5.1,10.8c-1.2,1.6-2.8,3-4.5,4.1
		c-0.9,0.5-1.8,1-2.7,1.4c-1,0.4-2,0.6-3,0.8c-4,0.6-8.1,0.1-11.8-1.3C496.2,202.6,492.7,200.3,490.7,196.9z"/>
</g>
<path id="XMLID_511_" class="st31" d="M458.2,195.6c-6,9.3-19.8,11.4-26.7,8c-7-3.4-9.6-9.2-12.6-18.6l0,0c6.8-5.4,15.4-9,22-7.2
	C447.6,179.7,455,187.5,458.2,195.6L458.2,195.6z"/>
<path id="XMLID_510_" class="st32" d="M520,188.2c4.8,9.5-4.2,14.8-9.6,15.6c-5.4,0.8-16.1,0.9-15.3-10c0.7-9,7.9-11,12.8-11.4
	C513.8,182,517.7,183.7,520,188.2z"/>
<g id="XMLID_503_">
	<path class="st28" d="M459,196.4c-5.3,7.5-17.7,9.1-23.9,6.3c-6.3-2.8-8.6-7.5-11.4-15.1l0,0c6.1-4.3,13.7-7.2,19.7-5.6
		C449.4,183.5,456.1,189.8,459,196.4L459,196.4z"/>
	<path class="st7" d="M459,196.4c-2.1,3.3-5.5,5.5-9.2,6.9c-3.7,1.3-7.7,1.8-11.6,1.2c-1-0.2-2-0.4-2.9-0.7c-1-0.4-1.8-0.8-2.7-1.3
		c-1.7-1-3.3-2.4-4.6-4c-2.5-3.2-3.9-6.9-5.2-10.5l-0.3-0.7l0.6-0.4c3-2.1,6.3-3.8,9.8-5c1.8-0.6,3.6-0.9,5.5-1.1
		c1.9-0.1,3.8,0,5.6,0.6c3.6,1.2,6.6,3.5,9.1,6.1C455.6,190,457.7,193.1,459,196.4z M459,196.4c-1.7-3.2-3.9-6-6.5-8.4
		c-2.6-2.4-5.6-4.4-8.9-5.3c-3.3-0.9-6.8-0.3-10.1,0.8c-3.3,1.1-6.4,2.8-9.2,4.8l0.4-1.2c1.3,3.6,2.6,7.1,4.8,10
		c1.1,1.4,2.4,2.7,4,3.6c1.6,1,3.2,1.7,5,2c3.6,0.7,7.5,0.4,11.1-0.6C453.1,201.4,456.6,199.4,459,196.4z"/>
</g>
<path id="XMLID_502_" class="st33" d="M431,188.5c-4.4,8.7,3.8,13.5,8.7,14.2s14.5,0.7,14.1-9.2c-0.4-9-7.1-10-11.6-10.3
	C436.7,182.7,433.1,184.3,431,188.5z"/>
<path id="XMLID_501_" class="st7" d="M434.7,191.7c-0.7,5.7,3.2,10.9,8.8,11.7c5.6,0.8,12-3.2,11.4-8.9c-0.5-5.3-3.5-10.3-9.5-12.3
	C440.7,180.6,435.4,186,434.7,191.7z"/>
<ellipse id="XMLID_499_" transform="matrix(0.9948 -0.1023 0.1023 0.9948 -17.0024 45.867)" class="st28" cx="438.8" cy="188.7" rx="5.4" ry="5.5"/>
<ellipse id="XMLID_498_" transform="matrix(4.020776e-02 -0.9992 0.9992 4.020776e-02 219.161 624.8684)" class="st28" cx="434.8" cy="198.4" rx="1.6" ry="1.3"/>
<ellipse id="XMLID_497_" transform="matrix(1.652590e-02 -0.9999 0.9999 1.652590e-02 302.7766 696.2031)" class="st7" cx="505.3" cy="194.2" rx="11.5" ry="10.3"/>
<ellipse id="XMLID_495_" transform="matrix(0.9987 -5.095727e-02 5.095727e-02 0.9987 -8.9546 26.1354)" class="st28" cx="508.1" cy="188.7" rx="5.4" ry="5.7"/>
<ellipse id="XMLID_493_" transform="matrix(0.9868 -0.1621 0.1621 0.9868 -25.4506 85.9802)" class="st28" cx="514.1" cy="198.9" rx="1.8" ry="1.7"/>
<g id="XMLID_478_">
	<g>
		<path class="st9" d="M441.2,165c2.5,0.6,4.9,1.4,7.1,2.3c2.2,0.9,4.2,2,5.9,3c1.7,1,3.1,1.8,4.1,2.3c1,0.5,1.6,0.8,1.6,0.8
			s-0.6-0.2-1.8-0.3c-1.1-0.1-2.8-0.2-4.7-0.4c-2-0.2-4.2-0.4-6.6-0.9c-2.4-0.5-4.8-1.2-7.2-2.1c-4.8-2-7.9-3.2-11.4-3.3
			c-1.8,0-3.6,0.1-5.6,0.5c-1,0.2-2,0.5-3.1,1c-1,0.5-2.1,1.3-2.6,2.6c0.5-1.3,1.6-2.1,2.5-2.7c1-0.6,2-1,3-1.4
			c1.9-0.8,3.7-1.3,5.6-1.7C431.8,163.6,436,163.8,441.2,165z"/>
	</g>
</g>
<ellipse id="XMLID_475_" class="st28" cx="406.4" cy="212.3" rx="1.9" ry="2.5"/>
<ellipse id="XMLID_474_" class="st28" cx="541.3" cy="214.8" rx="2" ry="2.5"/>
<g id="XMLID_464_">
	<path class="st34" d="M449.9,287.5c2.1,0.6,4.2,1.6,6.2,2.3c1,0.4,2,0.6,3,0.9c1,0.3,2,0.6,3.1,0.9c4.1,1,8.2,1.7,12.4,1.9
		c4.2,0.2,8.3-0.2,12.4-1.1c4.1-0.9,8.1-2.5,12-4.5c-3,3.3-6.9,5.8-11.1,7.4c-4.3,1.6-8.9,2.3-13.4,2.1c-4.6-0.1-9.1-1.1-13.3-2.7
		c-2.1-0.8-4.1-1.7-6.1-3C453.1,290.4,451.5,289,449.9,287.5z"/>
</g>
<g id="XMLID_460_">
	<path id="XMLID_463_" class="st35" d="M472.4,244.9c-2.1,0-4.9-5.2-12.5-0.7c-3.9,2.3-12.4,2.1-12.4,2.1s9.9,17.8,24.9,17.8
		c15,0,26.2-18.1,26.2-18.1s-8.1,0.6-14.2-2.3C476,239.8,474.4,244.9,472.4,244.9z"/>
	<path id="XMLID_461_" class="st36" d="M455.8,248.5c0,0,6.7,12,16.8,12c10.1,0,17.7-12.2,17.7-12.2L455.8,248.5z"/>
</g>
<path id="XMLID_459_" class="st37" d="M436.2,182.1c-2.2-0.6-4.2-1.9-5.6-3.7c1.2,1.3,2.4,2.7,3.6,4c-3.5-0.3-6.8-1.9-9.1-4.4
	c0.5,2.7,2.8,5,5.5,5.6c-2.6,0.4-5.5-0.5-7.4-2.3c1.3,1.1,2.6,2.2,3.9,3.4c-3.7-0.3-7.3-1.6-10.3-3.8c2.8,1.9,5.6,3.9,8.4,5.8
	c-2.9,1.2-6.5,0.9-9.1-1c1.1,2.2,3.8,3.4,6.2,2.9"/>
<g id="XMLID_458_">
	<path class="st19" d="M438.3,105.1c4.9,21.6,29.1,27.8,46.3,39.8c17.2,12,36,23.6,45.9,43.1c9.6,18.7,9,43.1-1.6,61.2
		c6.8,0.6,13.2-4.7,16.5-11.3c3.3-6.6,4-14.2,4.4-21.7c1.6-27.5,5.5-59.1-5-84.2s-36.7-43-61.6-47.6c-14.4-2.7-45.2,6.6-51.8,20.7"
		/>
</g>
<g id="XMLID_407_">
	<path class="st13" d="M436.4,102.4c-8.8,12.6-16.3,26.1-22.1,40.2c-5.9,14.1-10.3,28.9-13.1,43.9c-2.8,15-4.3,30.3-4.1,45.5
		c0.2,15.3,1.9,30.5,5.4,45.3c3.3,14.9,8.3,29.4,13.2,43.9c4.9,14.5,9.8,29.2,12.8,44.4c3,15.2,3.9,30.8,1.7,46.1
		c-1.1,7.6-3.1,15.2-6.1,22.3c-0.3,0.9-0.8,1.8-1.2,2.6l-1.3,2.6c-0.9,1.7-1.9,3.3-2.9,5c-1.1,1.6-2.2,3.1-3.3,4.7
		c-1.2,1.5-2.5,2.9-3.7,4.4c5-5.8,8.9-12.5,11.7-19.6c2.8-7.1,4.5-14.6,5.4-22.2c1.9-15.1,0.7-30.6-2.5-45.5
		c-3.3-14.9-8.1-29.5-13.1-44c-5-14.5-10.1-29.1-13.5-44.2c-3.4-15.1-5.1-30.5-5.2-46c-0.1-15.4,1.4-30.9,4.6-46
		c3.1-15.1,7.8-29.9,14-44C419.3,128,427,114.6,436.4,102.4z"/>
</g>
<g id="XMLID_401_">
	<path class="st19" d="M447.4,95.5c-14.7-1.2-34.5,1.8-45.7,12.3c-29.8,28.1-36,79.2-33.5,122.3c2.5,43.1,17.5,84.1,33.8,123.4
		s34.1,78.4,43,120.5c0-49.1-7.1-98.1-20.9-144.8c-8.3-28-19-55.1-26-83.5c-7-28.4-10.3-58.7-3.5-87.2c6.8-28.4,25.1-54.7,50.6-63.8
		"/>
	<path class="st15" d="M447.4,95.5c-9.1-0.6-18.2,0.3-26.9,2.8c-4.3,1.3-8.5,3-12.4,5.3c-1.9,1.2-3.7,2.5-5.4,4
		c-0.8,0.7-1.6,1.6-2.4,2.4c-0.8,0.8-1.6,1.6-2.3,2.5c-6,6.7-10.8,14.4-14.6,22.6c-3.8,8.2-6.6,16.8-8.7,25.5
		c-4.2,17.5-5.6,35.7-5.5,53.7c0.2,18.1,2.2,36.1,6.2,53.7c4,17.6,9.4,34.9,15.7,51.9c6.2,17,13.3,33.7,20.4,50.4
		c7.1,16.7,14.1,33.5,20.3,50.7c6.3,17.1,11.7,34.6,15.5,52.6l-4.9,0.5c0-33.8-3.4-67.5-9.9-100.6c-1.7-8.3-3.5-16.5-5.5-24.7
		c-2.1-8.2-4.3-16.3-6.8-24.4c-4.9-16.2-10.5-32.2-15.5-48.4c-5.1-16.2-9.6-32.7-12.4-49.5c-2.8-16.8-3.8-34-1.9-51.1
		c0.3-2.1,0.6-4.2,0.9-6.3c0.4-2.1,0.7-4.2,1.2-6.3c0.9-4.2,2-8.3,3.3-12.4c2.7-8.1,6.3-15.9,10.9-23.1c4.5-7.2,10-13.9,16.4-19.5
		c3.2-2.8,6.7-5.3,10.3-7.5c3.7-2.2,7.5-4,11.5-5.3c-4,1.5-7.8,3.4-11.3,5.7c-3.6,2.3-6.9,4.9-10,7.7c-6.2,5.7-11.5,12.4-15.8,19.6
		c-4.3,7.2-7.7,15-10.2,23c-1.3,4-2.2,8.1-3,12.2c-0.4,2.1-0.7,4.1-1.1,6.2c-0.3,2.1-0.5,4.2-0.7,6.3c-1.6,16.8-0.4,33.7,2.5,50.3
		c2.9,16.6,7.7,32.8,12.9,48.9c5.2,16.1,11,32,16.1,48.3c2.5,8.1,4.8,16.3,7,24.6c2.1,8.2,4,16.6,5.8,24.9
		c6.8,33.4,10.2,67.5,10.3,101.5l0.1,23.7l-5-23.2c-3.8-17.6-9-34.9-15.2-51.9c-6.2-17-13.1-33.7-20.1-50.5
		c-7-16.8-14-33.6-20.1-50.7c-3.1-8.6-6-17.2-8.6-26c-2.6-8.8-4.8-17.6-6.7-26.6c-3.8-17.9-5.6-36.2-5.5-54.5
		c0-18.2,1.7-36.6,6.2-54.3c2.3-8.9,5.3-17.5,9.4-25.8c4-8.2,9.1-16,15.3-22.7c0.8-0.8,1.6-1.7,2.4-2.5c0.8-0.8,1.6-1.6,2.5-2.4
		c1.7-1.5,3.6-2.9,5.6-4c4-2.3,8.3-4,12.7-5.1C429.2,95.3,438.4,94.6,447.4,95.5z"/>
</g>
<path id="XMLID_398_" class="st21" d="M474.3,585.8c0,0-88.3-30.9-68.5-109c19.7-78.1,30.7-154.8,30.7-154.8L474.3,585.8z"/>
<g id="XMLID_393_">
	<path class="st19" d="M452.6,110.5c-11.2,25-14.2,32.1-31.6,51.7c-15.2,17.1-12.8,43.2-10.3,66.2c3.3,29.7,11.8,58.3,18.2,87.4
		c6.4,29.1,10.5,59.5,4.9,88.8c-5.6,29.3-22.7,57.3-48.1,67.8c6.4-2.1,11.3-7.9,15.1-13.9c17.3-27.2,20.1-62.8,15.8-95.6
		c-4.3-32.8-15.1-64.2-22.8-96.2c-7.7-32.1-12.4-77.5-4.4-109.5s27.2-55,57.1-59.6"/>
	<path class="st15" d="M452.6,110.5c-3.3,7.5-6.5,15.1-10.3,22.5c-1.9,3.7-3.9,7.3-6.2,10.7c-2.3,3.4-4.8,6.8-7.3,10
		c-2.6,3.2-5.3,6.3-7.9,9.5l-1.9,2.4c-0.6,0.8-1.1,1.7-1.7,2.6c-0.3,0.4-0.6,0.8-0.8,1.3l-0.7,1.4l-0.7,1.4
		c-0.2,0.4-0.5,0.9-0.6,1.4l-1.1,2.8c-0.4,1-0.6,1.9-0.9,2.9c-0.1,0.5-0.3,1-0.4,1.5l-0.3,1.5c-0.2,1-0.5,2-0.7,3
		c-0.7,4-1.1,8.1-1.3,12.2c-0.2,8.2,0.3,16.4,1.2,24.6c0.8,8.2,1.9,16.3,3.4,24.4c2.9,16.2,6.9,32.1,10.8,48.1
		c3.9,16,7.8,32.1,10.1,48.5c2.4,16.4,3.4,33,1.7,49.6c-1.6,16.5-6.3,32.9-14.6,47.4c-4.1,7.2-9.1,14.1-15.2,19.9
		c-6,5.8-13.1,10.7-20.9,14l-1-2.8c3.8-1.2,7-3.9,9.8-7.1c1.4-1.6,2.6-3.3,3.8-5c1.2-1.8,2.2-3.7,3.3-5.5c4.2-7.4,7.4-15.5,9.7-23.7
		c4.6-16.6,5.8-34,4.8-51.2c-1-17.2-4.3-34.3-8.3-51.1c-4.1-16.9-8.9-33.5-13.2-50.4c-2.1-8.4-4.1-16.9-5.7-25.5
		c-1.5-8.6-2.8-17.2-3.6-25.9c-0.9-8.7-1.4-17.4-1.5-26.1c-0.1-8.7,0.3-17.4,1.4-26.1c1.1-8.7,2.9-17.2,5.8-25.5
		c0.7-2.1,1.5-4.1,2.3-6.1l0.6-1.5c0.2-0.5,0.5-1,0.7-1.5l1.4-3c0.4-1,1-1.9,1.5-2.9l1.6-2.9l1.8-2.8c0.6-0.9,1.1-1.9,1.8-2.7
		c5.1-7.1,11.3-13.4,18.8-18c7.4-4.6,15.8-7.6,24.4-8.8c-8.6,1.4-16.9,4.5-24.1,9.2c-7.3,4.7-13.4,11-18.3,18.1
		c-0.7,0.9-1.2,1.8-1.8,2.7l-1.7,2.8l-1.5,2.9c-0.5,1-1.1,1.9-1.5,2.9l-1.3,2.9c-0.2,0.5-0.5,1-0.7,1.5l-0.6,1.5
		c-0.8,2-1.6,4-2.2,6.1c-2.7,8.2-4.5,16.7-5.4,25.3c-1,8.6-1.3,17.3-1.1,25.9c0.1,8.7,0.7,17.3,1.7,25.9c0.9,8.6,2.2,17.2,3.8,25.7
		c1.6,8.5,3.6,16.9,5.8,25.3c4.4,16.8,9.3,33.5,13.5,50.4c4.1,16.9,7.5,34.1,8.5,51.6c1,17.4-0.1,35.2-4.8,52.1
		c-2.3,8.5-5.6,16.7-9.9,24.4c-1.1,1.9-2.2,3.8-3.4,5.7c-1.2,1.8-2.5,3.7-4,5.4c-1.5,1.7-3.1,3.3-5,4.7c-1.8,1.4-3.9,2.5-6.2,3.3
		l-1-2.8c7.4-3.1,14.2-7.7,20-13.3c5.9-5.6,10.7-12.2,14.8-19.2c8.1-14.1,12.8-30,14.4-46.3c1.7-16.3,0.7-32.7-1.6-48.9
		c-2.3-16.2-6-32.3-9.8-48.3c-3.8-16-7.7-32.1-10.5-48.4c-1.4-8.1-2.4-16.4-3.2-24.6c-0.8-8.2-1.3-16.5-1-24.8
		c0.2-4.1,0.6-8.3,1.5-12.4c0.2-1,0.5-2,0.7-3l0.4-1.5c0.1-0.5,0.3-1,0.5-1.5c0.3-1,0.6-2,1-3l1.2-2.9c0.2-0.5,0.4-1,0.7-1.4
		l0.7-1.4l0.7-1.4c0.3-0.5,0.6-0.9,0.8-1.3c0.6-0.9,1.1-1.8,1.7-2.6l2-2.4c2.7-3.1,5.5-6.2,8.1-9.4c2.6-3.2,5.1-6.4,7.4-9.8
		c2.3-3.4,4.4-6.9,6.3-10.6C445.7,125.6,449.1,118,452.6,110.5z"/>
</g>
<g id="XMLID_383_">
	<path class="st15" d="M422.4,447.7c2-7.4,3.8-14.9,5.3-22.5c1.4-7.6,2.5-15.2,3.2-22.9c1.5-15.3,1.7-30.8,0.5-46.1l-0.2-2.9
		l-0.3-2.9c-0.2-1.9-0.4-3.8-0.6-5.7c-0.5-3.8-1-7.6-1.7-11.4c-0.6-3.8-1.4-7.6-2.2-11.3c-0.8-3.8-1.7-7.5-2.7-11.2
		c-3.9-14.9-8.8-29.5-13.5-44.2c-4.7-14.7-9.2-29.5-12.2-44.6c-3-15.1-4.7-30.6-3.7-46.1c0.5-7.7,1.7-15.4,3.8-22.8
		c2.1-7.4,5-14.6,8.8-21.4c3.8-6.7,8.5-13,14.1-18.3c5.6-5.3,12.2-9.6,19.4-12.3c-7.2,2.8-13.7,7.2-19.2,12.5
		c-5.6,5.3-10.1,11.6-13.8,18.3c-3.7,6.7-6.7,13.9-8.7,21.3c-2,7.4-3.2,15.1-3.7,22.7c-1,15.4,0.7,30.8,3.8,45.8
		c3.1,15.1,7.6,29.8,12.3,44.5c4.7,14.7,9.5,29.3,13.3,44.3c1,3.7,1.8,7.5,2.6,11.3c0.7,3.8,1.5,7.6,2.1,11.4
		c0.7,3.8,1.1,7.6,1.7,11.5c0.2,1.9,0.4,3.8,0.6,5.8l0.3,2.9l0.2,2.9c1.2,15.4,0.9,30.9-0.7,46.2c-0.8,7.7-2,15.3-3.5,22.9
		C426.4,432.8,424.5,440.3,422.4,447.7z"/>
</g>
<g id="XMLID_379_">
	<path class="st15" d="M445.6,97.5c-4,0.7-8,2-11.6,3.7c-3.7,1.7-7.1,4-10.2,6.5c-3.1,2.6-5.9,5.6-8.3,8.8
		c-2.5,3.2-4.6,6.6-6.5,10.2c-3.8,7.1-6.6,14.8-8.8,22.6c-2.1,7.8-3.7,15.8-4.8,23.8c-1.1,8-1.7,16.1-1.5,24.2c0,4,0.4,8,0.8,12.1
		c0.5,4,1.1,8,2,11.9c0.2,1,0.4,2,0.6,2.9l0.8,2.9c0.5,2,1.1,3.8,1.7,5.8c1.3,3.9,2.6,7.7,4,11.5c2.8,7.7,5.7,15.3,8.6,23
		c5.6,15.4,11.2,31,14.5,47.3c3.3,16.3,4.5,32.9,4.1,49.4c-0.5,16.5-2.6,32.9-5.8,49c-3.3,16.1-7.6,32-12.8,47.5
		c4.2-15.9,7.9-31.8,10.5-48c2.7-16.1,4.2-32.4,4.3-48.7c0-16.3-1.3-32.5-4.8-48.4c-3.4-15.8-8.8-31.2-14.6-46.6
		c-2.9-7.7-5.7-15.4-8.5-23.1c-1.4-3.9-2.7-7.8-4-11.7c-0.6-2-1.3-4-1.7-6l-0.8-3c-0.2-1-0.4-2-0.7-3.1c-0.9-4.1-1.4-8.2-1.9-12.4
		c-0.4-4.2-0.6-8.3-0.6-12.5c-0.1-4.2,0.2-8.3,0.5-12.5c0.4-4.1,0.9-8.3,1.6-12.3l0.5-3.1l0.6-3c0.4-2,0.8-4,1.3-6.1
		c0.9-4,1.9-8,3.2-12c2.5-7.9,5.6-15.7,9.8-22.9c2.1-3.6,4.5-7,7.2-10.2c2.7-3.2,5.7-6.1,9-8.6c3.3-2.5,6.9-4.6,10.8-6.1
		C437.5,98.9,441.5,97.9,445.6,97.5z"/>
</g>
<g id="XMLID_321_">
	<path class="st21" d="M382.4,600c3.5-1.5,6.9-2.7,10.2-4c3.3-1.2,6.6-2.4,9.9-3.7l9.9-3.8c3.3-1.3,6.7-2.6,10.4-3.7
		c-2.2,3.1-5,5.7-8.1,7.9c-3.1,2.2-6.4,3.9-10,5.3c-3.5,1.3-7.2,2.2-11,2.7C389.9,601,386.1,601,382.4,600z"/>
</g>
<g id="XMLID_315_">
	<path class="st21" d="M525.7,584.9c3.6,1.9,6.9,3.8,10.3,5.5c3.3,1.7,6.7,3.3,10.1,4.7c3.4,1.4,6.9,2.6,10.5,3.7
		c3.6,1.1,7.3,2,11.3,3c-3.8,1.5-8,1.9-12.1,1.7c-4.1-0.3-8.2-1.2-12-2.8c-3.8-1.5-7.4-3.7-10.5-6.3
		C530.3,591.7,527.5,588.6,525.7,584.9z"/>
</g>
<path id="XMLID_308_" class="st21" d="M478.9,583.3c0,0,84.6-33.9,63.6-112.1c-21-78.2-32.6-163.5-32.6-163.5L478.9,583.3z"/>
<path id="XMLID_161_" class="st22" d="M524.5,918l-37.9-6c-3.1-0.5-5.9,1.6-6.4,4.6l-6.6,44.4c-0.5,3.2,1.8,6.2,5.1,6.5l45.3,5.3
	c5.8,0.7,8.6-6.8,3.7-10.2l-18.9-18.4"/>
<path id="XMLID_80_" class="st22" d="M429.2,922.1l44.2-7.8l9.1,54.7l-47.8,6.6c-7.2,1-10.8-7.5-4.9-11.7l13.5-16.6"/>
<ellipse id="XMLID_75_" class="st38" cx="435.5" cy="226.6" rx="14.3" ry="5.6"/>
<ellipse id="XMLID_73_" class="st38" cx="509.1" cy="227.4" rx="14.3" ry="5.3"/>
<path id="XMLID_12_" class="st39" d="M469.2,553.3l-17.5-181c-0.6-7.4,10.2,20,14.4,25.1l-2,0.4c2.3,2.8,5.9,2.9,8.3,0.3l10.2-11
	c4.2-4.5,14.3-15.6,14-8.5l-11,120.8l-4.1,55c-0.3,4.1-1.4,7.7-4.6,7.7h-4.1C469.6,562.1,469.6,557.4,469.2,553.3z"/>
<path class="st19" d="M408.8,122.8c-0.7,18.7-3,37.4-6.9,55.8c6.3-4.8,10.5-12.4,11.2-20.3c3.1,6,5.6,12.2,7.7,18.6
	c3.4-4,5.1-9.2,4.7-14.4c2.5,3.9,3.7,8.7,3.4,13.3c1.7-5.4,2.9-10.9,3.6-16.5c2.6,8.7,4.9,17.5,7.1,26.3c3.2-5.4,4.3-12.1,2.9-18.3
	c2.2,3.8,4.3,7.7,6.5,11.5c0.1-8.6,0.3-17.1,0.4-25.7c1.9,11.1,4.7,22,8.4,32.6c1.8-6.1,2.8-12.4,2.8-18.8c1.5,1.4,2.9,2.8,4.4,4.2
	c2.3-2.6,3.8-5.9,4.4-9.3c4.1,9.3,7.2,18.9,9.3,28.9c2.7-7.2,4.5-14.8,5.4-22.4c1.7,1.4,3.2,3.1,4.2,5c1.8-2.2,3.6-4.3,5.3-6.5
	c0.8,5.5,3.2,10.7,6.9,14.9c1.2-5,1.6-10.2,1.2-15.3c3,5.2,6,10.4,9,15.6c14.7-15.9,15.6-39.6,15.8-61.2c0-2.1,0-4.3-0.9-6.1
	c-0.9-1.8-2.5-3.2-4.2-4.4C505.1,98.7,483.9,97,463.9,97c-9.7,0-19.4,0.3-29.1,1c-9.7,0.6-21.5,3.2-24.3,12.5
	c-1.5,4.9-0.8,11.9-5.8,13.4"/>
<g id="XMLID_447_">
	<path class="st15" d="M454.3,92.8c9.8,0.7,19.4,3.4,28.5,7.3c9.1,4,17.6,9.3,25.1,15.8c7.6,6.4,14.3,13.9,20,22.1
		c5.6,8.2,10.1,17.3,13.4,26.7c3.2,9.5,5.2,19.3,6,29.3c0.7,9.9,0.4,19.9-1.2,29.7c-1.6,9.8-4.3,19.4-8.2,28.5
		c-3.9,9.1-8.9,17.7-15.2,25.2c10.7-16.4,17.1-35.2,19.5-54.3c1.1-9.6,1.3-19.2,0.4-28.8c-0.9-9.6-2.9-19-6-28
		c-3.1-9.1-7.3-17.7-12.6-25.7c-5.2-8-11.5-15.3-18.6-21.9C491.2,105.9,473.6,96.4,454.3,92.8z"/>
</g>
<g id="XMLID_451_">
	<path class="st15" d="M450.4,96.8l3.9,2.3l3.9,2.3c2.6,1.5,5.3,3,7.9,4.4c5.3,2.9,10.7,5.7,16,8.5c10.7,5.7,21.3,11.6,31.2,18.9
		c9.9,7.2,18.8,15.8,26,25.8c7.2,10,12.3,21.7,14.2,34c1.8,12.3,0.5,24.9-3.1,36.7c-3.7,11.8-9.4,22.8-16.7,32.7
		c-7.3,9.8-16,18.5-25.2,26.4c-4.6,3.9-9.4,7.6-14.3,11.3c-2.4,1.8-4.9,3.6-7.3,5.4l-7.4,5.2l7-5.7c2.3-1.9,4.7-3.8,7-5.7
		c4.6-3.9,9.2-7.8,13.6-11.9c8.9-8.1,17.1-17,24-26.7c6.8-9.8,12.3-20.5,15.6-31.9c3.4-11.3,4.6-23.4,2.8-35
		c-1.7-11.6-6.5-22.7-13.3-32.4c-6.7-9.8-15.4-18.2-24.8-25.5c-9.5-7.3-19.8-13.5-30.2-19.6c-5.2-3.1-10.4-6.1-15.6-9.3
		c-2.6-1.6-5.1-3.2-7.7-4.8l-3.8-2.5L450.4,96.8z"/>
</g>
<g id="XMLID_378_">
	<path class="st15" d="M441.2,96.8c-5.8,12.7-13.3,24.6-19.7,36.9c-3.2,6.1-6.2,12.4-8.4,18.8c-0.6,1.6-1.1,3.2-1.6,4.9l-0.7,2.4
		c-0.2,0.8-0.4,1.6-0.6,2.4c-0.7,3.2-1.1,6.6-1.3,10c-0.4,6.8-0.1,13.6,0.6,20.4c0.6,6.8,1.7,13.6,3.1,20.3
		c1.4,6.7,3.2,13.3,5.5,19.7c1.1,3.2,2.4,6.3,3.8,9.3c0.4,0.7,0.7,1.5,1.1,2.2l1.3,2.3c0.9,1.6,1.7,3.2,2.5,4.9
		c0.8,1.7,1.5,3.5,2,5.4c0.5,1.9,0.8,3.8,1,5.5c0.5,3.3,1.2,6.4,2.2,9.6l1.7,4.9c0.6,1.7,1.1,3.4,1.6,5.1c1,3.4,1.9,6.9,2.6,10.4
		c1.4,7,2.2,14.1,2.5,21.3c0.1,3.6,0.1,7.1,0,10.7c-0.1,1.8-0.2,3.6-0.4,5.3c-0.2,1.8-0.3,3.5-0.6,5.3c-0.9,7.1-2.3,14-4.2,20.9
		c-2,6.8-4.5,13.5-7.5,19.9c-6,12.8-14.2,24.5-24.3,34.2c9-10.7,16.1-22.7,21.1-35.6c5.1-12.8,8.2-26.3,9.4-39.9
		c1.1-13.6,0.4-27.4-2.6-40.6c-0.4-1.6-0.8-3.3-1.2-4.9c-0.5-1.6-0.9-3.3-1.4-4.9c-0.5-1.6-1-3.2-1.6-4.8l-1.8-5
		c-1.2-3.4-2.1-7.1-2.7-10.7c-0.3-1.8-0.5-3.3-0.8-4.8c-0.3-1.5-0.9-2.9-1.5-4.4c-0.6-1.5-1.4-3-2.2-4.4l-1.2-2.3
		c-0.5-0.8-0.9-1.6-1.3-2.5c-1.6-3.3-2.9-6.7-4.1-10.1c-2.3-6.8-4-13.7-5.3-20.7c-2.6-13.9-4-28.1-2.9-42.4
		c0.3-3.6,0.8-7.2,1.7-10.7c0.2-0.9,0.5-1.8,0.7-2.7c0.3-0.9,0.6-1.7,0.9-2.5c0.6-1.7,1.3-3.3,1.9-5c2.7-6.6,6.1-12.8,9.7-18.8
		C425.8,120,434,108.7,441.2,96.8z"/>
</g>
<g id="XMLID_389_">
	<path class="st15" d="M441.5,96.1c-7.6,9.7-13,21-16.8,32.6c-1.9,5.8-3.5,11.8-4.7,17.7c-1.2,6-2.2,12-3,18.1
		c-1.4,12.2-2.1,24.4-1.9,36.7c0.1,6.1,0.3,12.3,0.7,18.4c0.2,3.1,0.5,6.1,0.7,9.2c0.3,3,0.7,6.1,1,9.2c1.3,12.3,2.1,24.7,3.6,36.8
		c0.8,6.1,1.8,12.1,3,18.1c0.6,3,1.3,6,2,9c0.7,3,1.3,6.1,1.9,9.1c2.3,12.2,3.6,24.7,3.1,37.2c-0.5,12.4-3,24.9-8.2,36.1
		c4.3-11.6,6-24,5.8-36.2c-0.1-12.3-1.9-24.4-4.4-36.4c-0.7-3-1.4-6-2.1-8.9c-0.8-3-1.5-6-2.2-9.1c-1.4-6.1-2.5-12.2-3.4-18.4
		c-0.9-6.2-1.5-12.4-2.1-18.5c-0.6-6.2-1.2-12.3-1.8-18.4c-1.4-12.3-2.2-24.8-2.2-37.2c0.1-12.4,0.8-24.9,2.7-37.2
		c1.8-12.3,4.8-24.5,9.2-36.2C426.9,116.3,433,105.1,441.5,96.1z"/>
</g>
<g>
	<g>
		<path class="st40" d="M450.3,146.1c0.4,1.7,0.7,3.4,1.1,5.1c0.4,1.7,0.7,3.3,1.1,4.9c0.4,1.6,0.7,3.2,1.1,4.6
			c0.3,1.5,0.7,2.9,1,4.1c0.3,1.3,0.7,2.4,1,3.5c0.3,1,0.6,1.9,0.8,2.7c0.5,1.5,0.8,2.3,0.8,2.3s-0.3-0.8-1-2.2
			c-0.3-0.7-0.7-1.6-1.1-2.6c-0.4-1-0.9-2.1-1.4-3.4c-0.5-1.2-1-2.6-1.5-4c-0.5-1.4-1-3-1.5-4.6c-0.5-1.6-0.9-3.3-1.3-5
			c-0.4-1.7-0.7-3.4-1-5.2c-1.1-7.2-1.3-12.2-1.5-17.2c-0.1-5-0.1-10.1,0.4-17.6c-0.4,7.5-0.1,12.6,0.3,17.6
			C448.1,134.2,448.8,139.1,450.3,146.1z"/>
	</g>
</g>
<g>
	<g>
		<path class="st40" d="M441.8,149.4c0.3,6.2,0.1,12.5-0.1,17.2c-0.1,2.1-0.2,4-0.3,5.7c-0.1,1.4-0.1,2.2-0.1,2.2s0-0.8-0.1-2.2
			c-0.2-1.7-0.3-3.6-0.5-5.7c-0.4-4.7-0.9-11-0.8-17.2c0.1-12.9,0.6-17.6,0.3-30.9c0.1,6.7,0.4,11.2,0.7,15.6
			C441.1,138.6,441.4,142.9,441.8,149.4z"/>
	</g>
</g>
<g>
	<g>
		<path class="st40" d="M491.1,146.6c0.6,1.7,1.4,3.3,2.2,4.9c0.8,1.6,1.7,3.1,2.6,4.6c1.7,3,3.4,5.8,4.5,8.4c0.6,1.3,1,2.5,1.3,3.6
			c0.2,0.5,0.2,1.1,0.3,1.6c0.1,0.5,0.1,0.9,0.1,1.4c0,0.8,0,1.5-0.1,1.9c0,0.2,0,0.4-0.1,0.7c0-0.2,0-0.4,0-0.7
			c0.1-0.4,0-1.1-0.1-1.9c-0.1-0.4-0.2-0.8-0.3-1.3c-0.2-0.5-0.3-1-0.5-1.5c-0.4-1-1-2.2-1.7-3.3c-1.4-2.4-3.3-5-5.2-7.9
			c-0.9-1.5-1.9-3-2.8-4.6c-0.9-1.6-1.7-3.4-2.3-5.2c-1.2-3.7-1.8-6.8-2.7-9.6c-0.8-2.7-1.9-5.1-3.2-7.4c-2.6-4.5-6.1-8.7-11.5-14.3
			c5.5,5.6,9.2,9.5,12.1,13.9c1.5,2.2,2.8,4.5,3.8,7.3C489,140,489.8,143.1,491.1,146.6z"/>
	</g>
</g>
<g>
	<g>
		<path class="st40" d="M503.3,147.7c1.7,2.3,3.5,4.8,4.8,7.3c1.4,2.5,2.2,5.2,2.5,7.5c0.3,2.3,0,4.3-0.3,5.5
			c-0.2,0.6-0.3,1.1-0.4,1.5c-0.1,0.2-0.1,0.3-0.2,0.5c0-0.2,0.1-0.3,0.1-0.5c0.1-0.3,0.2-0.8,0.2-1.5c0.1-1.3-0.1-3.1-0.9-5.1
			c-0.7-2-1.9-4.2-3.4-6.4c-1.5-2.2-3.3-4.5-4.9-7.1c-1.6-2.6-2.7-5.2-3.4-7.4c-0.7-2.2-1.3-4.3-1.9-6.3c-0.6-2-1.3-4-2.4-6.1
			c-0.5-1.1-1.3-2.1-2.1-3.1c-0.9-1-2-1.9-3.4-2.7c1.4,0.8,2.5,1.6,3.5,2.6c0.9,1,1.7,2,2.4,3c1.3,2,2.2,4,3.1,5.9
			c0.9,1.9,1.7,3.8,2.7,5.9C500.3,143.2,501.5,145.3,503.3,147.7z"/>
	</g>
</g>
<g>
	<g>
		<path class="st40" d="M471.9,137.5c0.6,1.6,1.2,3.2,1.7,4.8c0.5,1.6,1,3.2,1.4,4.7c0.8,3.1,1.4,6,1.8,8.6c0.2,1.3,0.4,2.4,0.5,3.5
			c0.1,1,0.3,1.9,0.4,2.7c0.2,1.5,0.3,2.3,0.3,2.3s-0.2-0.8-0.5-2.3c-0.4-1.5-0.9-3.5-1.7-6c-0.7-2.4-1.7-5.3-2.6-8.3
			c-1-3-2-6.1-3.1-9.5c-2.1-6.6-3.7-11.2-5.3-15.7c-0.8-2.3-1.6-4.6-2.6-7.1c-0.5-1.3-1-2.6-1.6-4c-0.6-1.4-1.4-2.9-2.6-4.3
			c1.2,1.4,2,2.8,2.7,4.2c0.7,1.4,1.2,2.7,1.8,4c1.1,2.5,2.1,4.7,3.1,7C467.4,126.6,469.4,131,471.9,137.5z"/>
	</g>
</g>
<g>
	<g>
		<path class="st40" d="M414.1,112.3c-0.5,0.6-1.1,1.3-1.6,1.9c-0.6,0.6-1.1,1.2-1.6,1.8c-0.5,0.6-1,1.2-1.5,1.7
			c-0.5,0.5-0.9,1.1-1.4,1.6c-0.4,0.5-0.8,1-1.1,1.4c-0.3,0.4-0.6,0.8-0.8,1.1c-0.4,0.6-0.6,1-0.6,1s0.2-0.4,0.4-1.2
			c0.1-0.4,0.2-0.8,0.4-1.4c0.2-0.5,0.3-1.1,0.5-1.8c0.2-0.6,0.5-1.3,0.8-2c0.3-0.7,0.7-1.5,1.1-2.2c0.4-0.7,1-1.4,1.5-2.2
			c0.6-0.7,1.2-1.4,1.9-2c2.8-2.5,5.1-3.7,7.3-4.9c2.3-1.1,4.6-2.2,8.1-3.4c-3.5,1.3-5.6,2.8-7.5,4.3
			C418,107.9,416.3,109.7,414.1,112.3z"/>
	</g>
</g>
<g>
	<g>
		<path class="st40" d="M414.1,125.6c-1.2,1.8-2.5,3.5-3.7,5c-1.3,1.6-2.5,3-3.6,4.3c-1.1,1.2-2,2.3-2.5,3.1
			c-0.6,0.8-0.9,1.2-0.9,1.2s0.3-0.5,0.6-1.4c0.2-0.5,0.4-1.1,0.7-1.6c0.3-0.6,0.5-1.3,0.9-2.1c0.7-1.5,1.5-3.3,2.5-5
			c1-1.8,2.3-3.6,3.7-5.2c3-3.4,5.3-5.5,7.6-7.6c2.4-2.2,4.8-4.3,8-7.3c-3.4,3.1-5.4,5.5-7.3,8C418.3,119.5,416.6,122,414.1,125.6z"
			/>
	</g>
</g>
<g>
	<g>
		<path class="st40" d="M533.1,143.1c-0.7-0.8-1.4-1.6-2.1-2.4c-0.7-0.8-1.4-1.6-2.2-2.4c-1.5-1.5-3-3.1-4.6-4.5
			c-0.8-0.7-1.5-1.5-2.3-2.2c-0.8-0.7-1.6-1.4-2.3-2.1c-1.6-1.4-3.1-2.8-4.6-4.1c-3.1-2.7-6-5.4-8.7-8c-1.4-1.3-2.7-2.6-3.9-3.9
			c-1.2-1.3-2.4-2.6-3.5-3.8c-2.2-2.5-4.1-4.8-5.6-7.1c-1.6-2.1-2.7-4.2-3.7-5.9c-0.5-0.8-0.8-1.6-1.2-2.3c-0.3-0.6-0.6-1.2-0.8-1.7
			c-0.3-0.6-0.5-1-0.7-1.4c0.2,0.4,0.4,0.8,0.7,1.4c0.3,0.5,0.6,1,0.9,1.7c0.4,0.6,0.7,1.4,1.3,2.2c1.1,1.6,2.3,3.6,4.1,5.5
			c1.6,2.1,3.7,4.2,6,6.5c1.2,1.1,2.4,2.3,3.7,3.5c1.3,1.2,2.7,2.4,4.1,3.6c2.9,2.4,5.9,4.9,9.1,7.5c1.6,1.3,3.2,2.6,4.8,4
			c0.8,0.7,1.6,1.4,2.4,2.1c0.8,0.7,1.6,1.5,2.4,2.2c1.6,1.4,3.1,3,4.7,4.6c0.8,0.8,1.5,1.6,2.2,2.5c0.7,0.8,1.5,1.7,2.2,2.5
			c0.7,0.9,1.4,1.8,2,2.7c0.3,0.4,0.7,0.9,1,1.3c0.3,0.5,0.6,0.9,0.9,1.4c0.6,0.9,1.1,1.8,1.6,2.7c0.3,0.4,0.5,0.9,0.7,1.3
			c0.2,0.5,0.4,0.9,0.7,1.3c1.9,3.5,3,7,3.9,10.4c1.7,6.8,2.1,13,2.3,19.2c0.1,6.2-0.1,12.5-0.2,19.5c-0.1,7-0.2,14.8-0.3,24.1
			c0-9.3,0-17.1-0.1-24.1c-0.1-7-0.1-13.3-0.5-19.4c-0.4-6.2-1.2-12.3-3.1-18.8c-1-3.2-2.2-6.5-4.2-9.8c-0.2-0.4-0.4-0.8-0.7-1.3
			c-0.2-0.4-0.5-0.9-0.7-1.2c-0.5-0.8-1.1-1.6-1.7-2.5c-0.3-0.4-0.6-0.8-0.9-1.3c-0.3-0.4-0.7-0.8-1-1.2
			C534.5,144.8,533.8,144,533.1,143.1z"/>
	</g>
</g>
<g>
	<g>
		<path class="st40" d="M525,169.6c-0.7-1.6-1.5-3.2-2.3-4.7c-0.8-1.6-1.6-3.1-2.4-4.7c-0.8-1.6-1.6-3.1-2.4-4.6
			c-0.8-1.5-1.6-3-2.4-4.4c-1.6-2.9-3.1-5.7-4.6-8.4c-0.8-1.3-1.5-2.6-2.2-3.8c-0.7-1.2-1.5-2.4-2.1-3.6c-1.4-2.3-2.7-4.3-3.9-6.2
			c-1.2-1.8-2.2-3.4-3.1-4.7c-1.8-2.5-2.9-4-2.9-4s1.1,1.4,3.1,3.8c1,1.3,2.2,2.7,3.5,4.4c1.3,1.7,2.9,3.6,4.4,5.8
			c0.8,1.1,1.6,2.2,2.5,3.4c0.8,1.2,1.7,2.4,2.5,3.7c1.7,2.6,3.5,5.3,5.2,8.1c0.9,1.4,1.7,2.9,2.6,4.4c0.8,1.5,1.7,3,2.5,4.6
			c0.8,1.6,1.6,3.1,2.4,4.7c0.8,1.6,1.5,3.2,2.2,4.9c2.9,6.7,5.1,12.5,6.9,17.8c1.8,5.3,3.2,10.1,4.5,15c1.3,4.9,2.4,9.9,2.5,15.7
			c0.1,2.9-0.2,5.9-0.3,9.1c-0.2,3.2-0.3,6.7,0.6,10.4c-0.9-3.7-0.8-7.2-0.7-10.4c0.1-3.2,0.3-6.2,0.1-9.1
			c-0.4-5.7-1.7-10.6-3.2-15.4C534.8,192,531.2,182.7,525,169.6z"/>
	</g>
</g>
<g>
	<g>
		<path class="st40" d="M384.7,259.2c-0.4-2.3-0.7-4.6-1-6.9c-0.3-2.3-0.7-4.6-0.9-6.9c-0.5-4.6-1-9.2-1.3-13.7
			c-0.2-2.3-0.3-4.5-0.5-6.8c-0.1-2.3-0.2-4.5-0.3-6.8c-0.3-4.5-0.2-8.9-0.3-13.3c0-4.4,0.1-8.6,0.2-12.8c0.2-4.2,0.4-8.3,0.7-12.3
			c0.3-4,0.6-7.9,1-11.6c0.4-3.7,0.9-7.4,1.5-10.8c1.3-6.9,3-13.1,5.2-18.3c2.2-5.2,4.9-9.5,7.5-12.6c1.3-1.6,2.6-2.8,3.7-4
			c1.2-1,2.2-1.9,3.1-2.5c1.4-1,2.2-1.5,2.8-1.9c-0.6,0.4-1.3,0.9-2.7,1.9c-0.9,0.7-1.9,1.6-3,2.6c-1.1,1.2-2.4,2.4-3.6,4
			c-2.5,3.2-5,7.5-7,12.7c-2,5.2-3.5,11.4-4.5,18.3c-0.5,3.4-0.9,7-1.2,10.7c-0.3,3.7-0.4,7.6-0.7,11.6c-0.1,4-0.2,8-0.3,12.2
			c0,4.2-0.1,8.4,0.1,12.7c0.1,4.3,0.2,8.7,0.5,13.2c0.1,2.2,0.2,4.5,0.3,6.7c0.2,2.2,0.4,4.5,0.5,6.8c0.3,4.5,0.8,9.1,1.3,13.6
			c0.2,2.3,0.6,4.6,0.8,6.8c0.3,2.3,0.6,4.6,0.9,6.8c2.8,18.8,6.3,34.4,10.2,48.4c3.9,14,8.1,26.4,12.9,38.6
			c4.8,12.2,10.3,24.3,14.9,38.5c1.1,3.6,2.2,7.2,3.1,11.1c0.4,1.9,0.9,3.9,1.2,5.9c0.4,2,0.7,4.1,0.9,6.2c0.4,4.2,0.4,8.7-1.2,13
			c-0.8,2.1-2.1,4.1-3.7,5.8c-1.7,1.7-3.8,3-6.2,3.6c2.4-0.5,4.5-1.9,6.2-3.6c1.7-1.7,2.9-3.7,3.7-5.8c1.6-4.3,1.6-8.8,1.2-13
			c-0.2-2.1-0.6-4.1-1-6.1c-0.4-2-0.8-4-1.3-5.9c-1-3.8-2-7.5-3.2-11c-4.8-14.1-10.5-26.1-15.5-38.2c-5-12.2-9.6-24.5-13.8-38.5
			C391.7,293.7,387.8,278,384.7,259.2z"/>
	</g>
</g>
<g>
	<g>
		<path class="st40" d="M483.4,142.3c0.3,1.7,0.6,3.5,0.7,5.2c0.1,1.7,0.3,3.4,0.2,5.1c0,1.6-0.1,3.2-0.2,4.7
			c-0.1,1.5-0.3,2.9-0.5,4.2c-0.2,1.3-0.4,2.5-0.6,3.5c-0.2,1-0.4,1.9-0.6,2.7c-0.3,1.5-0.5,2.3-0.5,2.3s0.1-0.9,0.2-2.4
			c0-0.8,0.1-1.7,0.1-2.7c0-1.1,0-2.2-0.1-3.5c-0.1-1.3-0.1-2.7-0.2-4.1c-0.1-1.5-0.2-3-0.4-4.6c-0.1-1.6-0.3-3.2-0.5-4.9
			c-0.2-1.6-0.4-3.3-0.6-5c-0.9-6.9-1.8-11.7-3.2-16.4c-1.4-4.7-3.1-9.4-6.7-15.8c3.7,6.4,5.8,10.9,7.7,15.4
			C480.3,130.6,482,135.3,483.4,142.3z"/>
	</g>
</g>
<g>
	<g>
		<path class="st40" d="M455.5,141.9c-0.9-7.9-1.7-15.3-2.4-21.4c-0.2-1.5-0.3-2.8-0.5-4c-0.1-1.2-0.3-2.2-0.4-3.1
			c-0.2-1.7-0.4-2.7-0.4-2.7s0.2,1,0.6,2.6c0.2,0.9,0.5,1.9,0.7,3c0.3,1.2,0.6,2.5,0.9,3.9c0.3,1.4,0.7,3,1,4.7
			c0.3,1.7,0.7,3.4,0.9,5.2c0.6,3.6,1.1,7.6,1.3,11.5c0.6,8.1,0.5,13.6,0.5,19.2c-0.1,5.6-0.2,11.2-0.5,19.6
			c0.3-8.3,0.1-14-0.2-19.6C456.9,155.3,456.3,149.9,455.5,141.9z"/>
	</g>
</g>
<g>
	<g>
		<path class="st40" d="M423.5,129.7c0.1-0.6,0.2-1.1,0.3-1.7c0.2-0.5,0.3-1.1,0.5-1.6c0.3-1.1,0.7-2.2,1-3.2
			c0.8-2.1,1.8-4.1,2.8-5.9c2.1-3.7,4.7-6.7,7.2-9c1.2-1.2,2.4-2.2,3.5-3c0.5-0.4,1.1-0.8,1.5-1.1c0.5-0.4,0.9-0.7,1.3-0.9
			c0.8-0.5,1.5-0.9,1.9-1.2c0.2-0.1,0.5-0.3,0.7-0.4c-0.2,0.1-0.4,0.3-0.7,0.5c-0.4,0.3-1.1,0.7-1.8,1.3c-0.8,0.6-1.7,1.4-2.6,2.3
			c-1,0.9-2,2-3.1,3.3c-2.2,2.5-4.4,5.6-6.3,9.3c-0.9,1.8-1.8,3.7-2.6,5.7c-0.4,1-0.7,2-1,3.1c-0.2,0.5-0.3,1-0.5,1.6
			c-0.1,0.5-0.3,1.1-0.4,1.6c-1,4.4-1.5,8.1-1.7,11.6c-0.2,3.5-0.3,6.6-0.3,9.7c0,3.2,0,6.3,0.1,9.9c0,3.6,0,7.5-0.3,12.2
			c0.3-4.7,0.2-8.7,0.1-12.2c-0.2-3.6-0.4-6.7-0.5-9.9c-0.2-3.2-0.3-6.3-0.3-9.8C422.4,138.2,422.6,134.3,423.5,129.7z"/>
	</g>
</g>
<g>
	<g>
		<path class="st40" d="M443.6,137.9c-0.1-4.4-0.1-8.8,0.1-12.9c0.1-2.1,0.3-4.1,0.5-6c0.2-1.9,0.5-3.7,0.8-5.3
			c0.3-1.6,0.7-3.1,1-4.4c0.3-1.3,0.7-2.4,0.9-3.4c0.3-0.9,0.5-1.6,0.7-2.1c0.1-0.3,0.2-0.5,0.2-0.8c-0.1,0.3-0.1,0.5-0.2,0.8
			c-0.1,0.5-0.3,1.2-0.5,2.2c-0.2,0.9-0.4,2.1-0.6,3.4c-0.2,1.3-0.4,2.8-0.5,4.5c-0.1,1.6-0.3,3.4-0.3,5.3c-0.1,1.9-0.1,3.9-0.2,5.9
			c0,4.1,0,8.4-0.1,12.9c-0.1,4.5-0.1,8.3,0.4,11.6c0.5,3.4,1.5,6.3,3.2,8.9c1.6,2.7,3.6,5.1,5.1,8.4c1.5,3.2,2.3,7.2,1.6,11.9
			c0.7-4.6-0.3-8.7-1.8-11.8c-1.6-3.1-3.7-5.5-5.5-8.1c-1.8-2.6-3.2-5.6-3.9-9C443.9,146.3,443.7,142.4,443.6,137.9z"/>
	</g>
</g>
<g>
	<g>
		<path class="st40" d="M461,132.3c-1.5-2.9-2.8-5.6-4.1-8.1c-1.3-2.6-2.6-5.1-3.4-7.3c-0.8-2.3-1.2-4.3-1.2-5.6
			c0-0.7,0-1.2,0.1-1.6c0-0.2,0-0.4,0.1-0.6c0,0.2,0,0.4,0,0.6c0,0.4,0,0.9,0.1,1.6c0.2,1.4,0.8,3.2,1.9,5.3
			c1.1,2.1,2.6,4.3,4.1,6.8c1.5,2.5,3,5.3,4.2,8.2c2.6,5.9,4,10.1,5.4,14.3c1.4,4.2,2.7,8.6,4.5,15c-1.8-6.4-3.4-10.6-5.1-14.7
			C465.7,142,463.9,138,461,132.3z"/>
	</g>
</g>
<g>
	<g>
		<path class="st40" d="M476.5,132.7c-1.6-2.6-3.2-5.2-4.6-7.7c-1.5-2.5-2.7-4.9-3.7-7c-1-2.1-1.8-3.9-2.3-5.1
			c-0.2-0.5-0.4-1-0.6-1.5c-0.1-0.2-0.1-0.3-0.2-0.5c0,0,0.3,0.7,1,1.9c0.7,1.2,1.7,2.8,3,4.7c2.6,3.8,6.2,8.8,9.2,14.2
			c2.8,5.2,4.2,9.2,5.2,13.3c0.5,2,0.9,4,1,6.3c0.2,2.2,0.2,4.7-0.3,7.5l0,0c0-0.6,0-1.5,0.1-2.4c0,0.9,0,1.8-0.1,2.4l0,0
			c0.4-2.8,0.3-5.3,0-7.5c-0.3-2.2-0.8-4.2-1.5-6.1C481.3,141.3,479.5,137.6,476.5,132.7z"/>
	</g>
</g>
<g>
	<g>
		<path class="st40" d="M498.6,138.7c-0.6-1-1.2-1.9-1.8-2.9c-0.6-0.9-1.2-1.9-1.9-2.8c-0.7-0.9-1.3-1.8-2-2.7
			c-0.7-0.9-1.4-1.7-2.1-2.5c-1.4-1.6-2.8-3.2-4.2-4.6c-1.4-1.4-2.7-2.7-4-3.9c-1.3-1.2-2.5-2.2-3.6-3.1c-1.1-0.9-2.1-1.7-2.9-2.3
			c-1.6-1.2-2.6-1.9-2.6-1.9s1,0.6,2.7,1.7c0.8,0.6,1.9,1.2,3.1,2c1.2,0.8,2.5,1.7,3.9,2.8c1.4,1.1,2.9,2.3,4.4,3.6
			c1.5,1.3,3,2.8,4.5,4.4c0.7,0.8,1.5,1.6,2.2,2.5c0.7,0.9,1.4,1.8,2.1,2.7c0.7,0.9,1.3,1.9,2,2.9c0.6,1,1.2,2,1.8,3.1
			c2.2,4.3,3.6,8.2,4.5,11.8c0.9,3.6,1.4,6.8,2,10.1c1.1,6.5,2.2,13.1,4.1,22.8c-1.9-9.7-3.3-16.2-4.8-22.6
			C504.6,153.3,503.3,146.8,498.6,138.7z"/>
	</g>
</g>
<g>
	<g>
		<path class="st40" d="M505.8,145.6c-0.7-1.5-1.5-2.9-2.3-4.4c-0.8-1.4-1.5-2.8-2.3-4.2c-0.8-1.4-1.5-2.6-2.3-3.9
			c-0.7-1.2-1.5-2.3-2.2-3.4c-0.7-1.1-1.4-2-2-2.8c-0.6-0.8-1.1-1.5-1.6-2.1c-0.9-1.2-1.5-1.8-1.5-1.8s0.6,0.6,1.6,1.7
			c0.5,0.5,1.2,1.1,1.9,1.9c0.7,0.8,1.5,1.6,2.3,2.6c0.8,1,1.7,2,2.6,3.2c0.9,1.2,1.8,2.4,2.7,3.7c0.9,1.3,1.7,2.7,2.5,4.2
			c0.8,1.5,1.5,3,2.2,4.5c2.7,6.4,3.9,11,5,15.7c1,4.7,1.8,9.5,2.2,16.6c-0.4-7.1-1.5-11.8-2.9-16.4
			C510.4,156.1,508.8,151.7,505.8,145.6z"/>
	</g>
</g>
<g>
	<g>
		<path class="st40" d="M428.2,147.2c0.2-2,0.6-3.9,1-5.8c0.4-1.9,0.9-3.7,1.3-5.5c1-3.5,2-6.8,3-9.5c1-2.8,1.9-5,2.5-6.6
			c0.6-1.6,1-2.5,1-2.5s-0.3,0.9-0.8,2.6c-0.5,1.6-1.1,4-1.8,6.8c-0.7,2.8-1.4,6.1-2.2,9.7c-0.4,1.8-0.8,3.6-1.2,5.5
			c-0.4,1.9-0.8,3.8-1.1,5.6c-0.3,1.9-0.3,3.6,0,5.2c0.3,1.6,0.9,3,1.5,4.4c1.3,2.7,2.7,5.1,3.7,7.7c1.1,2.6,1.9,5.2,2.6,8.3
			c0.7,3,1.3,6.5,1.4,10.6c-0.1-4.1-0.8-7.6-1.6-10.6c-0.8-3-1.8-5.6-3.1-8.1c-1.2-2.5-2.7-4.7-4.2-7.4c-0.7-1.4-1.5-2.9-1.9-4.6
			C428,151.2,428,149.2,428.2,147.2z"/>
	</g>
</g>
<g>
	<g>
		<path class="st40" d="M420.2,136.5c0.4-1,0.8-1.9,1.3-2.8c0.5-0.9,0.9-1.9,1.4-2.7c0.5-0.9,1-1.8,1.5-2.6c0.5-0.9,1-1.7,1.6-2.5
			c1-1.6,2.1-3.2,3.2-4.6c1.1-1.4,2.1-2.8,3.1-4c1-1.2,1.9-2.3,2.7-3.2c0.8-0.9,1.6-1.8,2.2-2.4c1.2-1.3,1.9-2.1,1.9-2.1
			s-0.7,0.8-1.8,2.2c-0.6,0.7-1.2,1.6-1.9,2.6c-0.7,1-1.5,2.2-2.4,3.5c-0.9,1.3-1.7,2.7-2.7,4.2c-0.9,1.5-1.9,3.1-2.8,4.8
			c-0.5,0.8-0.9,1.7-1.4,2.5c-0.5,0.9-0.9,1.7-1.4,2.6c-0.5,0.9-0.9,1.8-1.4,2.7c-0.5,0.9-0.9,1.8-1.4,2.7c-3.7,7.5-5.6,13-7.2,18.6
			c-0.8,2.8-1.4,5.7-1.9,8.9c-0.1,0.8-0.3,1.6-0.3,2.5c0,0.9,0.1,1.8,0.6,2.6c0.2,0.4,0.5,0.8,1,1c0.4,0.2,0.9,0.3,1.4,0.3
			c0.5,0,1-0.2,1.4-0.5c0.4-0.3,0.7-0.9,0.5-1.4c0.1,0.5-0.1,1.1-0.5,1.4c-0.4,0.3-0.9,0.5-1.4,0.5c-0.5,0-1,0-1.4-0.3
			c-0.4-0.2-0.8-0.6-1-1c-0.5-0.8-0.6-1.8-0.6-2.6c0-0.9,0.1-1.7,0.2-2.5c0.4-3.3,0.9-6.2,1.5-9.1c0.2-0.7,0.3-1.4,0.5-2.2
			c0.2-0.7,0.4-1.4,0.5-2.2c0.3-1.5,0.8-2.9,1.2-4.5C417.3,143.8,418.5,140.4,420.2,136.5z"/>
	</g>
</g>
<g>
	<g>
		<path class="st40" d="M436.7,146.8c0.6-3.7,1.4-7.4,2.3-10.9c0.9-3.4,1.8-6.6,2.6-9.3c0.4-1.4,0.8-2.6,1.2-3.7
			c0.3-1,0.6-2,0.9-2.8c0.5-1.6,0.8-2.5,0.8-2.5s-0.2,0.9-0.6,2.5c-0.4,1.6-0.8,3.9-1.3,6.7c-0.5,2.9-1.1,6.1-1.8,9.5
			c-0.7,3.5-1.4,7.2-2.2,10.8c-1.6,7.6-2.7,12.8-3.6,18c-0.9,5.3-1.8,10.7-2.5,18.7c0.7-8,1.3-13.4,1.8-18.7
			C434.8,159.8,435.4,154.5,436.7,146.8z"/>
	</g>
</g>
<g>
	<g>
		<path class="st40" d="M528.2,114.4c-2.5-2.5-5.2-4.8-8.1-6.7c-2.8-2-5.8-3.7-8.8-5.2c-6-3-11.8-5.3-16.8-7.5
			c-2.5-1.1-4.7-2.1-6.7-3.1c-2-1-3.7-1.9-5.1-2.6c-0.7-0.4-1.3-0.7-1.8-1c-0.5-0.3-0.9-0.6-1.3-0.8c-0.4-0.3-0.8-0.5-1.1-0.7
			c0.3,0.2,0.7,0.4,1.1,0.6c0.4,0.2,0.9,0.5,1.4,0.8c0.6,0.3,1.2,0.6,1.9,0.9c1.4,0.7,3.2,1.5,5.2,2.3c2,0.8,4.3,1.7,6.9,2.7
			c5.1,1.9,11,3.9,17.2,6.8c3.1,1.5,6.2,3.2,9.1,5.2c3,2,5.7,4.4,8.3,7c5.2,5.4,8.7,10.7,11.5,15.7c2.7,5,4.8,9.7,6.5,14.5
			c3.5,9.6,6,19.7,9.3,34.6c-3.3-14.9-6.1-24.9-10-34.4c-1.9-4.7-4.1-9.3-7-14.1C537,124.6,533.4,119.5,528.2,114.4z"/>
	</g>
</g>
<g>
	<g>
		<path class="st40" d="M522.1,112.3c-2.8-1.6-5.8-3-8.7-4.4c-2.9-1.4-5.8-2.8-8.6-4.1c-5.6-2.7-10.8-5.3-15.2-7.6
			c-4.3-2.2-7.9-4-10.7-5.5c-2.6-1.3-4.1-2-4.1-2s1.5,0.7,4.2,1.8c2.9,1.2,6.7,2.8,11.1,4.7c4.6,2,9.9,4.3,15.6,6.8
			c2.8,1.3,5.8,2.6,8.7,4c2.9,1.4,6,2.7,8.9,4.5c3,1.8,5.4,4.1,7.3,6.4c1.9,2.4,3.3,4.8,4.4,7.2c2.3,4.8,3.6,9.3,5,13.8
			c2.7,9,5.2,18.3,7.9,32.1c-2.7-13.8-5.5-23-8.6-31.9c-1.6-4.4-3.1-8.9-5.5-13.4C531.3,120.4,527.9,115.6,522.1,112.3z"/>
	</g>
</g>
<g>
	<g>
		<path class="st40" d="M386.5,255.7c-1.3-7-2.3-14.1-3.1-21.1c-0.8-7-1.2-14-1.4-20.7c-0.1-3.4-0.1-6.7-0.1-9.9
			c0.1-3.2,0.1-6.4,0.2-9.5c0.2-6.2,0.7-12,1.2-17.3c0.5-5.4,1.3-10.2,2.1-14.5c0.8-4.3,1.8-8,2.8-11c1-3,1.9-5.3,2.5-6.8
			c0.5-1.1,0.8-1.8,1-2.4c-0.2,0.6-0.5,1.2-1,2.4c-0.6,1.6-1.5,3.9-2.4,6.9c-0.9,3-1.7,6.7-2.4,11c-0.7,4.3-1.2,9.2-1.6,14.5
			c-0.4,5.4-0.7,11.2-0.8,17.3c-0.1,3.1,0,6.2,0,9.4c0.1,3.2,0.1,6.5,0.3,9.8c0.3,6.7,0.8,13.6,1.6,20.5c0.8,7,1.7,14,3,21
			c1.3,7.2,2.7,13.8,4.2,20c0.8,3.1,1.5,6,2.3,8.9c0.4,1.4,0.8,2.8,1.2,4.2c0.4,1.4,0.8,2.7,1.2,4.1c3.2,10.7,6.5,20.3,9.6,30
			c3.1,9.7,6.1,19.5,8.7,30.7c1.4,5.6,2.4,11.6,3.3,18c0.8,6.5,1.3,13.5,1.2,21.1c0.1-7.6-0.4-14.6-1.2-21.1c-1-6.4-2.1-12.4-3.5-18
			c-2.7-11.2-5.9-20.9-9.1-30.5c-3.3-9.6-6.7-19.1-10.1-29.8c-0.4-1.3-0.9-2.7-1.3-4.1c-0.4-1.4-0.8-2.8-1.3-4.2
			c-0.9-2.8-1.7-5.8-2.5-8.9C389.4,269.5,387.8,262.9,386.5,255.7z"/>
	</g>
</g>
<g>
	<g>
		<path class="st40" d="M399.7,267.9c-0.7-2.7-1.3-5.4-2-8.1c-0.7-2.7-1.4-5.4-2-8.1c-1.4-5.3-2.8-10.6-4.1-15.7
			c-1.3-5.1-2.5-10.1-3.2-14.9c-0.8-4.8-1.1-9.4-1.1-13.7c0-4.2,0.4-8.1,0.9-11.5c0.5-3.4,1-6.4,1.5-8.8c0.5-2.4,0.9-4.3,1.2-5.6
			c0.2-0.9,0.3-1.4,0.4-2c0,0-0.6,2.8-1.4,7.6c-0.7,4.9-1.8,11.9-1.6,20.2c0.1,4.2,0.6,8.7,1.5,13.4c0.9,4.7,2.2,9.6,3.6,14.7
			c1.4,5.1,2.9,10.3,4.3,15.7c0.7,2.7,1.3,5.4,2,8.1c0.6,2.7,1.3,5.4,1.9,8.2c2.5,11.3,4.4,20.8,5.9,29.5c1.5,8.7,2.7,16.5,3.8,24.5
			c1.1,7.9,2.1,15.9,3.1,24.8c0.5,4.5,1,9.2,1.4,14.3c0.2,2.5,0.4,5.2,0.7,7.9c0.1,0.7,0.1,1.4,0.2,2.1l0,0.5c0,0.2,0.1,0.4-0.2,0.4
			c-0.3,0.1-0.7,0.2-1.1,0.1c-1.4,0-2.9-1-3.3-2.4c0.5,1.4,1.9,2.4,3.3,2.4c0.4,0,0.7,0,1.1-0.1c0.2,0,0.2-0.2,0.2-0.4l0-0.5
			c-0.1-0.7-0.1-1.4-0.2-2.1c-0.2-2.7-0.5-5.4-0.7-7.9c-0.5-5.1-1-9.8-1.6-14.3c-1.1-9-2.3-16.9-3.5-24.8
			C407.9,305.8,405,290.3,399.7,267.9z"/>
	</g>
</g>
<g>
	<g>
		<path class="st40" d="M370.6,227.8c-0.2-4.4-0.3-8.8-0.4-13.1c-0.1-4.3-0.1-8.6,0-12.7c0.1-8.2,0.3-15.9,1-22.5
			c0.3-3.3,0.8-6.3,1.2-8.9c0.5-2.6,1-4.9,1.5-6.8c0.5-1.9,0.9-3.3,1.2-4.3c0.2-0.6,0.3-1.1,0.5-1.5c-0.1,0.4-0.3,0.9-0.4,1.5
			c-0.3,1-0.6,2.5-1,4.3c-0.4,1.9-0.8,4.2-1.1,6.8c-0.3,2.7-0.6,5.6-0.8,8.9c-0.4,6.6-0.3,14.2-0.1,22.4c0.1,4.1,0.1,8.3,0.2,12.6
			c0.1,4.3,0.2,8.7,0.3,13c0.3,9,0.7,16.5,1.3,23.4c0.4,3.4,0.6,6.7,1.1,9.8c0.2,1.6,0.4,3.1,0.6,4.7c0.3,1.5,0.5,3.1,0.8,4.6
			c1.1,6.1,2.4,12.3,4.4,19c2,6.7,4.6,14.2,8.7,22.5c-4.1-8.3-6.8-15.7-8.9-22.4c-2.2-6.7-3.6-12.8-4.9-18.9
			c-0.3-1.5-0.6-3.1-0.9-4.6c-0.3-1.5-0.5-3.1-0.8-4.7c-0.6-3.1-0.9-6.4-1.4-9.8C371.8,244.4,371.1,236.8,370.6,227.8z"/>
	</g>
</g>
<g>
	<g>
		<path class="st40" d="M465,142c-0.3-0.9-0.7-1.9-1.1-2.8c-0.4-0.9-0.7-1.9-1.1-2.8c-0.7-1.8-1.5-3.6-2.3-5.3
			c-0.8-1.7-1.6-3.4-2.3-5c-0.8-1.6-1.4-3.1-2-4.5c-1.2-2.9-1.8-5.4-2-7.2c-0.1-0.9-0.2-1.6-0.2-2.1c0-0.3,0-0.5,0-0.7
			c0,0.2,0,0.5,0.1,0.7c0,0.5,0.1,1.2,0.3,2c0.4,1.7,1.3,4.1,2.7,6.8c0.7,1.3,1.5,2.8,2.4,4.3c0.9,1.5,1.8,3.1,2.7,4.8
			c0.9,1.7,1.7,3.5,2.5,5.4c0.4,0.9,0.8,1.9,1.1,2.8c0.4,1,0.7,1.9,1,2.9c1.3,4,2.1,7.5,2.7,10.6c0.6,3.2,0.9,6,1.2,8.9
			c0.4,5.8,0.6,11.7-0.6,20.3c0.6-4.3,0.7-7.9,0.7-11.2c0-3.3-0.4-6.2-0.8-9c-0.5-2.8-1-5.7-1.8-8.7
			C467.5,149.3,466.4,145.9,465,142z"/>
	</g>
</g>
<g>
	<g>
		<path class="st40" d="M480.1,139.4c-3-7.1-5.7-14.3-7.6-19.8c-1-2.7-1.8-5-2.5-6.6c-0.6-1.6-1-2.5-1-2.5s0.4,0.9,1.2,2.4
			c0.9,1.8,2,3.9,3.2,6.3c2.6,5.2,5.9,12.2,8.5,19.4c2.7,7.5,4.4,12.6,6.1,17.9c1.7,5.3,3.4,10.6,5.9,18.3c-2.6-7.8-4.5-13-6.5-18.1
			C485.3,151.7,483.2,146.8,480.1,139.4z"/>
	</g>
</g>
<g>
	<g>
		<path class="st40" d="M525.3,172.6c-6-11.1-13.4-21.5-20.2-31.2c-3.4-4.9-6.8-9.6-10.1-13.9c-3.3-4.3-6.6-8.3-9.9-11.8
			c-3.3-3.5-6.5-6.4-9.5-8.8c-1.5-1.2-3-2.3-4.4-3.2c-1.4-1-2.7-1.7-3.9-2.4c-1.2-0.7-2.3-1.2-3.3-1.7c-1-0.5-1.8-0.8-2.5-1.1
			c-1-0.4-1.6-0.6-2.1-0.8c0.6,0.2,1.2,0.4,2.1,0.8c0.7,0.3,1.6,0.6,2.5,1.1c1,0.5,2.2,0.9,3.4,1.6c1.2,0.7,2.6,1.4,4,2.3
			c1.5,0.9,2.9,1.9,4.5,3c3.1,2.3,6.5,5.2,9.9,8.6c3.4,3.4,6.9,7.3,10.3,11.6c3.5,4.3,6.9,8.9,10.4,13.7c7,9.6,14.5,20.1,20.4,31.4
			c3.1,5.8,5.5,11.4,7.5,16.7c1.9,5.4,3.2,10.5,4.1,15.5c1.7,9.9,1.7,19.2-0.2,28.1c-1.9,8.9-6,17.3-11.7,25.8
			c-2.8,4.3-6.1,8.6-9.5,13.2c-3.5,4.7-7.2,9.7-10.8,15.4c3.6-5.7,7.3-10.8,10.7-15.4c3.4-4.7,6.6-9,9.4-13.3
			c5.6-8.5,9.5-16.9,11.2-25.8c1.7-8.8,1.5-17.9-0.4-27.7c-1-4.9-2.4-9.9-4.3-15.1C530.9,183.7,528.4,178.3,525.3,172.6z"/>
	</g>
</g>
<g>
	<g>
		<path class="st40" d="M504.1,107.6c-3.6-2.6-7.4-5-11.1-7.3c-3.6-2.2-7.1-4.2-10.1-5.8c-3-1.6-5.6-2.9-7.4-3.7
			c-1.8-0.8-2.9-1.3-2.9-1.3c0.9,0.3,1.8,0.6,3,1.1c1.9,0.7,4.6,1.7,7.7,3c3.2,1.3,6.8,3,10.6,5.1c3.8,2.1,7.7,4.5,11.3,7.3
			c3.7,2.9,6.5,5.8,8.8,8.6c2.3,2.8,4.2,5.4,6.1,8c3.8,5.2,7.7,10.5,13.6,18.2c-5.9-7.6-10.1-12.7-14.2-17.7c-2.1-2.5-4.1-5-6.5-7.6
			C510.7,113,507.8,110.4,504.1,107.6z"/>
	</g>
</g>
<g>
	<g>
		<path class="st40" d="M532.5,202.5c-0.4-4.5-0.7-9.1-1.1-13.5c-0.2-2.2-0.5-4.4-0.9-6.5c-0.4-2.1-0.8-4.2-1.4-6.3
			c-2.2-8.2-5.7-15.4-9-21.3c-3.3-6-6.4-10.8-8.6-14.1c-2.2-3.3-3.5-5.2-3.5-5.2c0.8,1.1,1.8,2.6,3.7,5.1c2.3,3.3,5.7,7.9,9.3,13.7
			c3.6,5.9,7.4,13,9.9,21.3c0.6,2.1,1.1,4.2,1.6,6.4c0.4,2.2,0.7,4.4,0.9,6.7c0.4,4.5,0.7,9,1,13.6c0.3,4.7,0.4,9,0.2,13.1
			c-0.2,4.1-0.5,7.8-1,11.4c-1,7.1-2.5,13.4-4.2,19.7c-1.7,6.3-3.7,12.5-5.8,19.5c-1.1,3.5-2.2,7.2-3.8,11c-0.8,1.9-1.7,3.9-2.9,5.8
			c-0.3,0.5-0.6,1-0.9,1.4l-0.5,0.7c0,0-0.1,0.1-0.1,0.1l0-0.1l0-0.2l0-0.4c-0.1-1.2-0.2-2.3-0.3-3.6c0.1,1.2,0.2,2.4,0.3,3.6l0,0.4
			l0,0.2l0,0.1c0,0,0,0,0,0l0.5-0.7c0.3-0.5,0.6-1,0.9-1.4c1.1-1.9,2.1-3.9,2.8-5.8c1.6-3.9,2.6-7.6,3.7-11.1
			c2.1-7,3.9-13.3,5.4-19.6c1.5-6.3,2.8-12.6,3.6-19.7c0.4-3.5,0.7-7.3,0.7-11.3C533.1,211.4,532.9,207.1,532.5,202.5z"/>
	</g>
</g>
<g>
	<g>
		<path class="st40" d="M516.5,163.5c-0.6-1.3-1.3-2.6-1.9-3.8c-0.6-1.3-1.2-2.5-1.8-3.7c-0.6-1.2-1.2-2.3-1.7-3.4
			c-0.5-1.1-1.1-2.1-1.6-3.1c-0.5-1-1-1.8-1.4-2.6c-0.4-0.8-0.8-1.4-1.1-1.9c-0.7-1.1-1.1-1.7-1.1-1.7s0.4,0.6,1.2,1.5
			c0.4,0.5,0.9,1.1,1.4,1.8c0.5,0.7,1.2,1.5,1.8,2.3c0.6,0.9,1.3,1.8,2,2.8c0.7,1,1.4,2.1,2.1,3.3c1.4,2.3,2.7,4.9,3.8,7.5
			c2.3,5.5,3.3,9.4,4.4,13.3c1,3.9,1.9,8,3,13.9c-1.1-6-2.3-9.9-3.7-13.7C520.6,172.4,519,168.7,516.5,163.5z"/>
	</g>
</g>
<g>
	<g>
		<path class="st40" d="M419.4,154.4c0.2-2.2,0.6-4.3,1.2-6.3c0.3-1,0.6-1.9,1-2.8c0.4-0.9,0.7-1.7,1.1-2.4c0.4-0.7,0.8-1.4,1.1-2
			c0.3-0.5,0.6-1,0.9-1.5c0.6-0.8,0.8-1.2,0.8-1.2s-0.3,0.5-0.7,1.3c-0.2,0.4-0.4,1-0.6,1.6c-0.2,0.6-0.5,1.3-0.7,2.1
			c-0.2,0.8-0.4,1.6-0.6,2.5c-0.2,0.9-0.4,1.8-0.6,2.8c-0.4,2-0.7,4-1.1,6.1c-0.7,4.3-1.1,7.4-1.5,10.4c-0.2,1.5-0.4,3.1-0.4,4.8
			c0,1.7,0,3.7,0.5,5.9c-0.5-2.2-0.7-4.2-0.8-5.9c-0.1-1.7-0.1-3.3-0.1-4.8C419.1,161.9,419,158.9,419.4,154.4z"/>
	</g>
</g>
<g>
	<g>
		<path class="st40" d="M455.5,138.5c-1.5-6.8-2.7-13.6-3.6-18.7c-0.5-2.6-0.8-4.7-1.1-6.2c-0.3-1.5-0.5-2.3-0.5-2.3
			s0.2,0.8,0.7,2.3c0.3,0.8,0.5,1.7,0.8,2.6c0.3,1,0.7,2.2,1.1,3.4c1.6,5,3.4,11.8,4.5,18.6c1.2,7.1,1.7,11.9,2.2,16.9
			c0.5,5,1,10,1.8,17.3c-0.8-7.3-1.6-12.3-2.5-17.2C458,150.3,456.9,145.5,455.5,138.5z"/>
	</g>
</g>
<g>
	<g>
		<path class="st40" d="M449.3,137c-0.7-5.8-0.8-11.6-0.7-15.9c0-1.9,0.1-3.7,0.1-5.3c0-1.3,0-2,0-2s0,0.7,0.2,2
			c0.1,1.3,0.4,3.1,0.7,5.2c0.6,4.3,1.3,10.1,1.6,15.8c0.3,5.9,0.5,10,0.7,14.1c0.3,4.1,0.6,8.3,1.3,14.4c-0.8-6.1-1.4-10.2-2-14.3
			C450.6,147,450,142.9,449.3,137z"/>
	</g>
</g>
<g id="XMLID_359_">
	<path class="st0" d="M389.6,118.3c14.2-2.5,28.7-3.4,43.2-3.1c3.6,0.1,7.2,0.2,10.9,0.4c3.6,0.3,7.2,0.6,10.8,0.9
		c3.6,0.4,7.2,0.9,10.8,1.4l10.7,1.8l10.6,2.3l10.5,2.8l10.4,3.3c3.4,1.2,6.8,2.6,10.2,3.9c13.4,5.5,26.3,12.4,37.8,21.1
		c-12.5-7.3-25.5-13.3-39-18.2l-10.2-3.4l-10.3-3l-10.4-2.7l-10.5-2.2l-10.6-1.9l-10.6-1.5c-3.6-0.4-7.1-0.8-10.7-1.2l-10.7-0.8
		C418.4,117.4,404,117.4,389.6,118.3z"/>
</g>
<path id="XMLID_356_" class="st0" d="M485.1,123.5c-2.4-1.6-4.9-3.2-6.4-5.9c-1.5-2.6-1.8-6.5,0.3-8.7c1.6-1.7,4.3-1.8,6.2-0.5
	c1.9,1.3,3,3.8,3.1,6.3c-0.1-2.5,1.8-4.8,4-5.2c2.2-0.4,4.5,0.8,5.8,2.9c1.2,1.9,1.7,4.5,0.8,6.6c-0.9,2.1-3.4,3.2-5.2,2.1
	c2.4,0.9,4.4,3.4,4.5,6.3c0.1,2.9-1.8,5.8-4.3,6.2c-2.5,0.4-5.2-2.1-5-5c-1.3,4.7-7.2,6.7-10.5,3.6c-3.3-3.1-2.7-10.1,1.1-12.3"/>
<path id="XMLID_355_" class="st23" d="M538.8,145.9c-1.7-1.1-3.5-2.3-4.5-4.2c-1.1-1.9-1.2-4.7,0.2-6.2c1.1-1.2,3-1.3,4.3-0.4
	s2.1,2.7,2.2,4.5c-0.1-1.8,1.2-3.4,2.8-3.7c1.5-0.3,3.2,0.6,4.1,2c0.9,1.3,1.2,3.2,0.6,4.7c-0.6,1.5-2.4,2.3-3.7,1.5
	c1.7,0.6,3.1,2.5,3.2,4.5c0.1,2.1-1.2,4.1-3,4.4s-3.6-1.5-3.5-3.5c-0.9,3.3-5,4.8-7.4,2.5c-2.3-2.2-1.9-7.2,0.8-8.8"/>
<path id="XMLID_352_" class="st0" d="M409.8,116.8c-1.5-1.1-3.1-2.3-4.1-4.2c-1-1.9-1.1-4.7,0.2-6.2c1-1.2,2.7-1.3,4-0.4
	c1.2,0.9,1.9,2.7,2,4.5c-0.1-1.8,1.1-3.4,2.5-3.7c1.4-0.3,2.9,0.6,3.7,2c0.8,1.3,1.1,3.2,0.5,4.7c-0.6,1.5-2.2,2.3-3.3,1.5
	c1.5,0.6,2.8,2.5,2.9,4.5c0.1,2.1-1.1,4.1-2.7,4.4c-1.6,0.3-3.3-1.5-3.2-3.5c-0.8,3.3-4.6,4.8-6.7,2.5c-2.1-2.2-1.7-7.2,0.7-8.8"/>
<path id="XMLID_330_" class="st23" d="M496.9,134.5c-1.5-1.1-3.1-2.3-4.1-4.2c-1-1.9-1.1-4.7,0.2-6.2c1-1.2,2.7-1.3,4-0.4
	c1.2,0.9,1.9,2.7,2,4.5c-0.1-1.8,1.1-3.4,2.5-3.7s2.9,0.6,3.7,2c0.8,1.3,1.1,3.2,0.5,4.7s-2.2,2.3-3.3,1.5c1.5,0.6,2.8,2.5,2.9,4.5
	s-1.1,4.1-2.7,4.4c-1.6,0.3-3.3-1.5-3.2-3.5c-0.8,3.3-4.6,4.8-6.7,2.5c-2.1-2.2-1.7-7.2,0.7-8.8"/>
<path id="XMLID_329_" class="st21" d="M549.4,152.1c-1.6-1-3.3-2-4.3-3.6c-1-1.6-1.2-4.1,0.2-5.4c1.1-1.1,2.9-1.1,4.1-0.3
	s2,2.4,2.1,3.9c-0.1-1.6,1.2-3,2.7-3.2c1.5-0.3,3,0.5,3.9,1.8c0.8,1.2,1.2,2.8,0.5,4.1c-0.6,1.3-2.3,2-3.5,1.3
	c1.6,0.6,2.9,2.1,3,3.9c0.1,1.8-1.2,3.6-2.9,3.8c-1.7,0.3-3.5-1.3-3.4-3.1c-0.8,2.9-4.8,4.1-7,2.2c-2.2-1.9-1.8-6.2,0.8-7.6"/>
<path id="XMLID_276_" class="st21" d="M424.9,110c-2.7-1.7-5.6-3.6-7.3-6.4s-2-7.2,0.3-9.5c1.8-1.9,4.8-2,7-0.6
	c2.1,1.4,3.4,4.2,3.5,6.9c-0.1-2.8,2-5.3,4.5-5.7c2.5-0.5,5.1,0.9,6.6,3.1c1.4,2,1.9,4.9,0.9,7.2s-3.9,3.5-5.9,2.3
	c2.7,1,4.9,3.8,5.1,6.9c0.2,3.1-2,6.3-4.8,6.8s-5.8-2.3-5.7-5.4c-1.4,5.1-8.1,7.3-11.8,3.9c-3.7-3.4-3-11,1.3-13.5"/>
<g>
	<g>
		<path class="st40" d="M362.1,197.3l0.3-1.8l0.4-1.8c0.2-1.2,0.5-2.4,0.7-3.5c0.2-1.2,0.5-2.4,0.7-3.5l0.4-1.8l0.5-1.7
			c1.2-4.6,2.3-9.2,3.8-13.5c0.7-2.2,1.4-4.3,2.1-6.3c0.8-2,1.6-4,2.3-6c0.4-1,0.7-1.9,1.1-2.9c0.4-0.9,0.8-1.8,1.2-2.7
			c0.8-1.8,1.6-3.5,2.3-5.2c0.4-0.8,0.7-1.6,1.1-2.4c0.4-0.8,0.8-1.5,1.2-2.3c0.8-1.5,1.5-2.9,2.2-4.2c0.7-1.3,1.3-2.6,1.9-3.7
			c0.6-1.1,1.2-2.1,1.8-3c1.7-2.9,2.6-4.5,3.3-5.8c-0.7,1.3-1.6,2.9-3.1,5.9c-0.5,1-1,2-1.6,3.1c-0.6,1.1-1.1,2.4-1.7,3.7
			c-0.6,1.3-1.3,2.8-1.9,4.3c-0.3,0.8-0.7,1.5-1.1,2.3c-0.3,0.8-0.6,1.6-1,2.5c-0.7,1.7-1.4,3.4-2.1,5.2c-0.4,0.9-0.8,1.8-1.1,2.8
			c-0.3,1-0.7,1.9-1,2.9c-0.7,2-1.4,4-2.1,6c-0.7,2.1-1.3,4.2-1.9,6.3c-1.4,4.3-2.5,8.8-3.6,13.4l-0.4,1.7l-0.4,1.7
			c-0.2,1.2-0.5,2.3-0.7,3.5c-0.2,1.2-0.5,2.3-0.7,3.5l-0.4,1.8l-0.3,1.8c-0.4,2.4-0.8,4.8-1.2,7c-0.1,0.6-0.2,1.1-0.3,1.7
			c-0.1,0.6-0.1,1.1-0.2,1.7c-0.1,1.1-0.3,2.2-0.4,3.2c-0.3,2.1-0.5,4.2-0.7,6.1c-0.1,2-0.3,3.9-0.4,5.8c-0.1,1.9-0.3,3.7-0.4,5.5
			c0,1.8-0.1,3.6-0.1,5.3c0,1.7-0.1,3.5-0.1,5.2c0,1.7,0.1,3.4,0.1,5.1c0,1.7,0.1,3.4,0.1,5.2c0.1,1.7,0.3,3.5,0.4,5.2
			c0.1,1.8,0.3,3.6,0.4,5.4c0.2,1.8,0.5,3.7,0.7,5.6c0.3,1.9,0.5,3.9,0.8,5.9c0.4,2,0.7,4.1,1.1,6.3c0.2,1.1,0.4,2.2,0.6,3.3
			c0.3,1.1,0.5,2.2,0.8,3.4c0.6,2.3,1.1,4.7,1.7,7.2c-0.6-2.5-1.2-4.9-1.7-7.2c-0.3-1.2-0.6-2.3-0.8-3.4c-0.2-1.1-0.4-2.2-0.6-3.3
			c-0.4-2.2-0.8-4.2-1.2-6.3c-0.4-2-0.6-4-0.9-5.9c-0.3-1.9-0.5-3.8-0.8-5.6c-0.2-1.8-0.4-3.6-0.5-5.4c-0.2-1.8-0.3-3.5-0.5-5.2
			c-0.1-1.7-0.2-3.4-0.3-5.2c-0.1-1.7-0.2-3.4-0.3-5.2c-0.1-1.7,0-3.5,0-5.2c0-1.8,0-3.5,0-5.4c0-1.8,0.1-3.7,0.2-5.6
			c0.1-1.9,0.2-3.8,0.3-5.9c0.2-2,0.4-4.1,0.6-6.2c0.1-1.1,0.2-2.2,0.3-3.3c0.1-0.6,0.1-1.1,0.2-1.7c0.1-0.6,0.2-1.1,0.3-1.7
			C361.4,202.1,361.8,199.7,362.1,197.3z"/>
	</g>
</g>
<g>
	<g>
		<path class="st40" d="M383.5,277.4c-2.6-5.8-5-11.6-7-17.5c-2-5.9-3.5-11.9-4.6-17.8c-1.1-5.9-1.7-11.6-2-17
			c-0.2-5.5-0.2-10.6,0.1-15.4c0-1.2,0.2-2.3,0.3-3.5c0.1-1.1,0.2-2.2,0.3-3.3c0.3-2.1,0.5-4.2,0.9-6.1c0.3-1.9,0.6-3.7,1-5.3
			c0.3-1.6,0.6-3.1,1-4.5c0.3-1.3,0.6-2.5,0.9-3.6c0.3-1,0.5-1.9,0.7-2.6c0.3-1,0.5-1.6,0.6-2.2c-0.1,0.6-0.3,1.2-0.6,2.2
			c-0.2,0.8-0.4,1.6-0.7,2.6c-0.2,1.1-0.5,2.3-0.8,3.6c-0.3,1.3-0.5,2.9-0.8,4.5c-0.3,1.6-0.5,3.4-0.8,5.3c-0.3,1.9-0.4,3.9-0.6,6.1
			c-0.1,1.1-0.1,2.2-0.2,3.3c-0.1,1.1-0.1,2.3-0.2,3.5c-0.2,4.7,0,9.8,0.4,15.2c0.4,5.4,1.2,11,2.3,16.8c1.2,5.8,2.7,11.6,4.7,17.5
			c2,5.8,4.4,11.6,6.9,17.4c5.2,11.9,9.8,21.8,13.1,31.2c3.3,9.4,5.5,18.2,6.2,27.2c0.3,4.5,0.3,9-0.3,13.7c-0.6,4.6-1.8,9.3-3.7,14
			c-0.9,2.4-2.2,4.7-3.6,7c-1.5,2.3-3,4.6-5,6.7c-3.8,4.3-8.9,8.1-15.3,10.3c6.3-2.3,11.4-6.1,15.2-10.4c2-2.1,3.5-4.4,5-6.7
			c1.3-2.3,2.6-4.6,3.5-7c1.9-4.7,3-9.4,3.5-14c0.5-4.6,0.5-9.1,0-13.6c-0.9-8.9-3.2-17.5-6.7-26.8
			C393.7,299.1,388.8,289.3,383.5,277.4z"/>
	</g>
</g>
<g>
	<g>
		<path class="st40" d="M408.7,361.7c-0.3-2.8-0.6-5.7-1-8.5c-0.2-1.4-0.4-2.8-0.6-4.2c-0.2-1.4-0.5-2.8-0.7-4.2
			c-0.2-1.4-0.5-2.8-0.7-4.2c-0.3-1.4-0.5-2.7-0.8-4.1c-0.5-2.7-1-5.4-1.6-8c-1.1-5.3-2.1-10.4-3-15.3c-0.5-2.4-0.9-4.8-1.3-7.1
			c-0.4-2.3-0.8-4.5-1.1-6.7c-0.3-2.1-0.7-4.2-0.9-6.1c-0.2-2-0.5-3.8-0.7-5.6c-0.4-3.5-0.6-6.6-0.9-9.1c-0.2-4.2-0.3-6.4-0.4-7.9
			c0.1,1.5,0.3,3.7,0.6,7.9c0.3,2.5,0.6,5.5,1.2,9c0.3,1.7,0.6,3.6,0.9,5.5c0.3,1.9,0.8,4,1.2,6.1c0.4,2.1,0.9,4.3,1.4,6.6
			c0.5,2.3,1,4.6,1.5,7c1.1,4.8,2.2,9.9,3.4,15.2c0.6,2.6,1.2,5.3,1.7,8c0.3,1.4,0.5,2.7,0.8,4.1c0.2,1.4,0.5,2.8,0.7,4.2
			c0.2,1.4,0.5,2.8,0.7,4.2c0.2,1.4,0.4,2.8,0.6,4.3c0.4,2.8,0.7,5.7,1,8.6c1,11.8,0.6,22-1,30.9c-1.5,9-4.2,16.8-7.7,24.2
			c-1.7,3.7-3.8,7.3-6,10.9c-0.6,0.9-1.2,1.8-1.8,2.7c-0.3,0.4-0.6,0.9-0.9,1.3c-0.3,0.4-0.7,0.9-1,1.3c-0.7,0.9-1.3,1.8-2,2.7
			c-0.7,0.9-1.5,1.7-2.2,2.6c-0.4,0.4-0.7,0.9-1.1,1.3c-0.4,0.4-0.8,0.9-1.2,1.3c-0.8,0.9-1.6,1.8-2.5,2.6c-0.9,0.9-1.8,1.7-2.7,2.6
			c-0.9,0.9-1.9,1.7-2.9,2.6c-4,3.4-8.5,6.8-13.7,10c5.3-3.1,9.7-6.6,13.7-10c1-0.9,2-1.7,2.9-2.6c0.9-0.9,1.8-1.8,2.6-2.6
			c0.9-0.9,1.6-1.8,2.4-2.7c0.4-0.4,0.8-0.9,1.2-1.3c0.4-0.5,0.7-0.9,1.1-1.4c0.7-0.9,1.4-1.8,2.1-2.7c0.7-0.9,1.3-1.8,2-2.7
			c0.3-0.4,0.6-0.9,1-1.3c0.3-0.5,0.6-0.9,0.9-1.4c0.6-0.9,1.2-1.8,1.7-2.7c2.2-3.6,4.1-7.2,5.8-11c3.3-7.4,5.8-15.2,7-24.1
			C409.7,383.4,409.9,373.4,408.7,361.7z"/>
	</g>
</g>
<g>
	<g>
		<path class="st40" d="M427.6,389.8c0-3.5,0-7-0.1-10.4c-0.1-3.4-0.3-6.8-0.5-10.1c-0.3-3.3-0.6-6.4-1-9.4
			c-0.2-1.5-0.4-2.9-0.6-4.3c-0.2-1.4-0.5-2.7-0.7-4c-0.1-0.6-0.3-1.3-0.4-1.9c-0.1-0.6-0.3-1.2-0.4-1.8c-0.3-1.2-0.5-2.3-0.8-3.3
			c-0.3-1-0.5-2-0.8-2.9c-0.3-0.9-0.5-1.7-0.8-2.4c-0.5-1.5-0.9-2.6-1.2-3.4c-0.2-0.5-0.3-0.8-0.5-1.2c0.1,0.4,0.3,0.7,0.5,1.2
			c0.3,0.8,0.8,1.9,1.4,3.3c0.6,1.4,1.2,3.2,1.9,5.2c0.4,1,0.7,2.1,1,3.3c0.2,0.6,0.4,1.2,0.5,1.8c0.2,0.6,0.3,1.2,0.5,1.9
			c0.4,1.3,0.7,2.6,1,4c0.3,1.4,0.6,2.8,0.9,4.3c0.6,3,1,6.2,1.4,9.5c0.3,3.3,0.6,6.7,0.7,10.2c0.1,3.5,0.1,7,0,10.5
			c-0.3,7.2-0.8,13.3-1.4,18.8c-0.6,5.5-1.2,10.4-1.8,15.4c-0.6,5-1.2,9.9-1.8,15.6c-0.6,5.6-1.2,11.8-1.5,19.3
			c0.8-14.9,1.8-25,2.7-34.9c0.4-5,0.8-9.9,1.2-15.4C427.2,403.1,427.5,397,427.6,389.8z"/>
	</g>
</g>
<path id="XMLID_10_" class="st37" d="M510.8,181.7c2.2-0.6,4.2-1.9,5.6-3.7c-1.2,1.3-2.4,2.7-3.6,4c3.5-0.3,6.8-1.9,9.1-4.4
	c-0.5,2.7-2.8,5-5.5,5.6c2.6,0.4,5.5-0.5,7.4-2.3c-1.3,1.1-2.6,2.2-3.9,3.4c3.7-0.3,7.3-1.6,10.3-3.8c-2.8,1.9-5.6,3.9-8.4,5.8
	c2.9,1.2,6.5,0.9,9.1-1c-1.1,2.2-3.8,3.4-6.2,2.9"/>
<g>
	<g>
		<path class="st40" d="M476.8,166.9c-1.3-3.6-2.2-7.3-2.8-10.1c-0.3-1.4-0.6-2.6-0.8-3.4c-0.2-0.8-0.4-1.3-0.4-1.3s0.2,0.4,0.5,1.2
			c0.5,1.1,1,2.1,1.5,3.1c1.3,2.6,2.8,6.1,3.7,9.9c1,3.8,1.4,6.5,1.9,9.1c0.5,2.7,1,5.4,1.8,9.3c-0.9-4-1.7-6.6-2.5-9.2
			C479.1,173.1,478.1,170.5,476.8,166.9z"/>
	</g>
</g>
<g>
	<g>
		<path class="st40" d="M476.9,169.6c-0.3-1.8-0.6-3.5-0.9-5.2c-0.3-1.7-0.5-3.2-0.8-4.6c-0.1-0.7-0.2-1.3-0.4-1.8
			c-0.1-0.5-0.2-1-0.3-1.4c-0.2-0.8-0.3-1.2-0.3-1.2s0.2,0.4,0.5,1.1c0.2,0.4,0.4,0.8,0.6,1.3c0.2,0.5,0.5,1.1,0.8,1.7
			c0.3,0.6,0.6,1.3,0.8,2.1c0.3,0.7,0.6,1.5,0.8,2.4c0.5,1.7,0.8,3.5,1,5.3c0.4,3.8,0.2,6.4,0.1,9c-0.2,2.6-0.4,5.2-0.9,9
			c0.5-3.8,0.4-6.5,0.2-9C478,175.7,477.6,173.2,476.9,169.6z"/>
	</g>
</g>
<g>
	<g>
		<path class="st40" d="M466.8,162.7c-0.2-2.2,0.2-4.5,0.6-6.1c0.1-0.6,0.3-1.3,0.5-2c0.1-0.5,0.1-0.8,0.1-0.8s0,0.3,0.1,0.8
			c0.1,0.5,0.2,1.2,0.3,2c0.3,1.7,0.5,3.9,0.4,6.1c-0.1,2.3-0.3,3.8-0.4,5.4c-0.1,1.6-0.2,3.2,0.1,5.5c-0.2-2.3-0.5-3.9-0.7-5.5
			C467.3,166.5,467,165,466.8,162.7z"/>
	</g>
</g>
<g>
	<g>
		<path class="st40" d="M444.2,393.7c-0.3-1.4-0.7-2.8-1.1-4.2c-0.4-1.4-0.8-2.8-1.2-4.1c-0.9-2.7-1.8-5.4-2.7-8
			c-1.8-5.2-3.6-10-5-14.2c-0.7-2.1-1.3-4-1.8-5.7c-0.5-1.7-0.9-3.2-1.3-4.5c-0.4-1.7-0.7-2.8-1-3.9c0.1,0.3,0.2,0.6,0.3,1
			c0.2,0.7,0.5,1.6,0.9,2.8c0.4,1.2,0.9,2.7,1.6,4.3c0.6,1.7,1.4,3.5,2.3,5.6c1.7,4.1,3.8,8.7,5.8,13.9c1,2.6,2,5.2,2.9,8
			c0.5,1.4,0.8,2.8,1.2,4.2c0.3,1.4,0.7,2.9,1,4.3c1.2,6,1.5,11.2,1.3,15.8c-0.3,4.7-1.1,8.8-2.2,12.8c-1.2,4-2.7,8-4.9,12.1
			c-2.2,4.2-5.1,8.5-9.4,13.1c4.2-4.6,7.1-9,9.2-13.2c2.1-4.2,3.5-8.2,4.4-12.2C446.3,413.7,446.9,405.3,444.2,393.7z"/>
	</g>
</g>
<g>
	<g>
		<path class="st40" d="M374.8,281.9c-3.5-7.9-6.6-16-8.3-24c-0.9-4-1.5-7.9-1.8-11.6c-0.3-3.7-0.3-7.3-0.1-10.5
			c0.2-3.3,0.7-6.2,1.2-8.8c0.6-2.6,1.2-4.8,1.8-6.6c0.3-0.9,0.6-1.7,0.9-2.4c0.3-0.7,0.5-1.2,0.7-1.7c0.3-0.6,0.4-1,0.6-1.4
			c-0.2,0.4-0.3,0.8-0.6,1.4c-0.2,0.5-0.4,1-0.7,1.7c-0.2,0.7-0.5,1.5-0.8,2.4c-0.5,1.8-1.1,4-1.5,6.6c-0.4,2.6-0.7,5.5-0.7,8.7
			c0,3.2,0.1,6.7,0.6,10.3c0.5,3.6,1.2,7.4,2.1,11.3c1.9,7.8,4.9,15.8,8.3,23.6c3.5,8.1,6.7,14.8,9.5,21c2.8,6.2,5.3,11.7,7.3,17.6
			c1,2.9,1.9,5.9,2.4,9c0.5,3.1,0.8,6.4,0.4,9.9c-0.4,3.4-1.6,7-3.7,10.3c-2.1,3.3-5.3,6.4-9.7,7.7c4.4-1.4,7.6-4.5,9.7-7.8
			c2.1-3.3,3.2-6.9,3.5-10.3c0.4-3.4,0-6.7-0.6-9.8c-0.6-3.1-1.6-6-2.6-8.9c-2.2-5.7-4.9-11.2-7.8-17.2
			C381.9,296.6,378.5,290,374.8,281.9z"/>
	</g>
</g>
<g>
	<g>
		<path class="st40" d="M561.7,243.2c0.4-4.9,0.2-9.9-0.1-14.8c-0.2-2.4-0.5-4.9-0.8-7.2c-0.4-2.4-0.7-4.7-1.1-7
			c-1.6-9.2-3.9-17.7-6-24.9c-0.5-1.8-1.1-3.5-1.6-5.2c-0.5-1.6-1-3.2-1.5-4.7c-0.9-2.9-1.8-5.4-2.5-7.5c-1.4-4.2-2.3-6.5-2.3-6.5
			c0.5,1.4,1.2,3.2,2.5,6.5c0.8,2.1,1.8,4.5,2.8,7.4c0.5,1.4,1.1,3,1.7,4.6c0.6,1.6,1.2,3.3,1.8,5.1c2.4,7.2,5,15.6,6.9,24.9
			c0.5,2.3,0.8,4.7,1.2,7.1c0.3,2.4,0.6,4.9,0.8,7.3c0.3,5,0.5,10,0,15.1c-0.8,10.4-3.3,19-6.4,26.3c-3.2,7.3-7.1,13.3-11.3,19.1
			c-4.2,5.8-8.8,11.3-14.2,17.4c-5.4,6-11.5,12.5-19.3,19.8c7.8-7.3,13.9-13.9,19.2-20c5.2-6.1,9.7-11.8,13.7-17.6
			c4-5.9,7.7-12,10.6-19.2C558.9,261.8,561.1,253.4,561.7,243.2z"/>
	</g>
</g>
<g>
	<path class="st41" d="M461.8,82.1"/>
</g>
<g>
	<g>
		<path class="st40" d="M443.4,90.5c-0.3,0.4-0.5,0.7-0.8,1c-0.1,0.1-0.3,0.3-0.4,0.4c-0.1,0.1-0.3,0.3-0.4,0.5
			c-0.2,0.3-0.4,0.6-0.5,0.8c-0.1,0.2-0.1,0.4-0.1,0.4s0-0.1-0.1-0.4c0-0.1-0.1-0.3-0.1-0.4c0-0.2-0.1-0.4-0.1-0.6
			c0-0.2-0.1-0.5,0-0.8c0-0.3,0.1-0.5,0.2-0.8c0.2-0.5,0.6-1.1,1-1.4c1-0.7,1.8-1,2.5-1.2c0.7-0.3,1.5-0.5,2.5-0.9
			c-1,0.5-1.6,1-2.1,1.5C444.4,89,443.9,89.7,443.4,90.5z"/>
	</g>
</g>
<g>
	<g>
		<path class="st40" d="M432.1,89c1,0.5,2,1.1,2.8,1.8c0.8,0.7,1.5,1.4,2.1,2.1c0.3,0.3,0.5,0.6,0.7,0.9c0.2,0.2,0.4,0.5,0.6,0.7
			c0.3,0.4,0.5,0.6,0.5,0.6s-0.2-0.2-0.6-0.4c-0.4-0.3-1-0.6-1.8-1c-0.8-0.4-1.6-0.8-2.5-1.3c-0.9-0.5-1.8-1.1-2.7-1.7
			c-1.9-1.3-3.2-2.1-4.5-2.9c-1.4-0.8-2.8-1.5-5.1-2.1c2,0.5,3.7,1,5.4,1.4C428.4,87.6,430,88,432.1,89z"/>
	</g>
</g>
<path id="XMLID_86_" class="st18" d="M585.5,560.6c1.2-2.6,3.6-4,5.4-3.2c1.8,0.8,2.3,3.6,1.1,6.2c0,0.1-0.2,0.7-0.4,1.7
	s-0.4,2.4-0.5,4.1c-0.3,3.3,2.1,7.8,3.3,11.7c0.7,2.2-2.7,5.1-4.8,6.6c-2,1.6-4.2,1-4.9-1.2"/>
<path id="XMLID_85_" class="st18" d="M560.4,516.5l29.2-3.2l15.1,57.2c0.9,11.8-2.9,14.4-13.4,15.2c-10.6,0.7-25.6,2.4-26.4-9.5"/>
<path id="XMLID_105_" class="st22" d="M543.6,314.7c30.6,67.8,74.7,159.6,74.7,159.6s-50.5,103-62.6,96.3"/>
<text transform="matrix(0.9813 -0.1924 0.1924 0.9813 375.7072 668.4318)" class="st28 st42 st43">szani lee</text>
<g>
	<g>
		<path class="st40" d="M494.7,169.5c-0.3-2.2-0.3-4.4-0.3-6.1c0-0.9,0-1.6,0-2.1c0-0.5-0.1-0.8-0.1-0.8s0.1,0.3,0.3,0.7
			c0.1,0.3,0.2,0.6,0.4,0.8c0.1,0.3,0.3,0.7,0.4,1.1c0.6,1.6,1.3,3.9,1.2,6.1c0,2.4-0.3,4-0.5,5.5c-0.2,1.6-0.5,3.2-0.8,5.6
			c0.3-2.4,0.3-4,0.1-5.6C495.3,173.3,495,171.7,494.7,169.5z"/>
	</g>
</g>
</svg>
