<?xml version="1.0" encoding="utf-8"?>
<!-- Generator: Adobe Illustrator 19.0.0, SVG Export Plug-In . SVG Version: 6.00 Build 0)  -->
<svg version="1.1" id="Layer_1" xmlns="http://www.w3.org/2000/svg" xmlns:xlink="http://www.w3.org/1999/xlink" x="0px" y="0px"
	 viewBox="0 0 579 1028" style="enable-background:new 0 0 579 1028;" xml:space="preserve">
<style type="text/css">
	.st0{fill:#D2D5C3;}
	.st1{opacity:0.5;}
	.st2{fill:#E0F1E7;}
	.st3{fill:#D2D7C5;}
	.st4{fill:#795031;}
	.st5{fill:#D2D5C3;stroke:#594A42;stroke-width:0.25;stroke-miterlimit:10;}
	.st6{fill:#414042;}
	.st7{opacity:0.4;fill:#D2D5C3;}
	.st8{fill-rule:evenodd;clip-rule:evenodd;fill:#414042;}
	.st9{fill:#F8BDD7;}
	.st10{fill:#D2D5C3;stroke:#414042;stroke-miterlimit:10;}
	.st11{fill:#58595B;}
	.st12{fill:#D2D5C3;stroke:#58595B;stroke-width:3;stroke-miterlimit:10;}
	.st13{fill:#F7ABA4;}
	.st14{fill:#D2D5C3;stroke:#F7ABA4;stroke-width:5;stroke-miterlimit:10;}
	.st15{fill:#F8F8F5;}
	.st16{fill:#E5A67C;}
	.st17{fill:#414042;stroke:#58595B;stroke-width:5;stroke-miterlimit:10;}
	.st18{fill:#FBC5BA;}
	.st19{fill:#FDDBD2;}
	.st20{fill:#FBC5BA;stroke:#FBC5BA;stroke-miterlimit:10;}
	.st21{fill:#F6E972;}
	.st22{fill:#EBEAE0;}
	.st23{fill:#BE9888;}
	.st24{fill:#FFFFFF;}
	.st25{stroke:#594A42;stroke-width:0.25;stroke-miterlimit:10;}
	.st26{fill:#F1AE75;}
	.st27{opacity:0.4;fill:#E58888;}
	.st28{fill:#A6DEF0;}
	.st29{fill:#B8E4F3;}
	.st30{fill:#C98477;}
	.st31{fill:#F8F7F7;}
	.st32{fill:#414042;stroke:#414042;stroke-miterlimit:10;}
	.st33{fill:#E6EDDD;}
	.st34{fill:#FFEFAE;}
	.st35{fill:#B3DFD7;}
	.st36{fill:#FBC5BA;stroke:#FBC5BA;stroke-width:3;stroke-miterlimit:10;}
	.st37{opacity:0.3;fill:#FBCBC4;}
	.st38{opacity:0.6;fill:#FFEFAE;}
	.st39{font-family:'MyriadPro-Regular';}
	.st40{font-size:14.6646px;}
</style>
<path id="XMLID_399_" class="st0" d="M156.9,582.4c2.8-11.3-1.8-23.7-2.1-24.3c-1.3-2.4-3.6-3.6-5.2-2.8c-1.6,0.9-1.9,3.5-0.7,5.9
	c0,0,0.2,0.6,0.4,1.6c0.2,1,0.5,2.3,0.7,3.8c0.4,3.1-1.6,7.5-2.5,11.2c-0.5,2.1,2.8,4.6,4.8,6C154.4,585.1,156.4,584.5,156.9,582.4z
	"/>
<path id="XMLID_1_" class="st0" d="M426.3,573.2c-2.8-11.3,1.8-23.7,2.1-24.3c1.3-2.4,3.6-3.6,5.2-2.8c1.6,0.9,1.9,3.5,0.7,5.9
	c0,0-0.2,0.6-0.4,1.6c-0.2,1-0.5,2.3-0.7,3.8c-0.4,3.1,1.6,7.5,2.5,11.2c0.5,2.1-2.8,4.6-4.8,6"/>
<path id="XMLID_396_" class="st0" d="M163.9,567.3l-3.7-59.8l-30-22.3l-14.8,80.2c0.7,11.8,5.6,14.1,18.4,13.8
	C146.5,578.9,164.7,579.1,163.9,567.3z"/>
<g id="XMLID_382_" class="st1">
	<path id="XMLID_393_" class="st2" d="M266.2,735.2"/>
	<g id="XMLID_383_">
		<g id="XMLID_491_">
			<path id="XMLID_492_" class="st2" d="M252.1,565.7c0,0,11.6,23.5,34.1,27.9c0,0,6.1-1.1,7.7,1.3c1.6,2.4,29.7-12.5,32.7-19
				c0,0-27.8,12.8-33.2,11.3C278.9,583.1,259.4,575.3,252.1,565.7z"/>
		</g>
	</g>
</g>
<g id="XMLID_381_">
	<path id="XMLID_468_" class="st0" d="M262,35.9c-25.2,40.7-37.7,89.6-35,137.7c0.6,11.6,12.9,19.6,20.4,28.3
		c5.4,6.2,7.3,9.3,12.6,15.6c8,9.6,4.3,28.5,4.6,41.1c0.1,2.8,0.1,5.8-1.6,8c-2.4,3.1-6.9,2.9-10.8,2.8c-18.6-0.5-37.4,6.7-51,19.7
		c15.9-25.7,15.9-58.4,11.1-88.4c-4.9-30-14.1-59.4-15-89.8s8.4-63.4,32.9-80.7c5.3-3.8,11.6-6.8,18-6.3c6.5,0.5,12.9,5.4,13.5,12"
		/>
</g>
<path id="XMLID_379_" class="st0" d="M381,297.1c-0.1-1.5,0.7-0.6-0.5-1.4l-60.2-41.4h-4.6l-54.2-0.9c-1.9,0-2,2.4-4.2,3.1l0,0
	c-0.3,1.1-1,2-2,2.5l-48.9,29.2c-11.4,6.8-18.3,19.7-17.9,33.6l1,33.9c0.1,2.4,1.9,4.3,4.2,4.4l61.3,2.5c2.3,0.1,4.2,2.1,4.2,4.6
	v6.3c0,2.5,29.9,190.6,32.3,190.6l27.6-186c2.4,0,4.3-2,4.3-4.6v-6.5c0-2.4,1.7-4.4,4-4.6l55.1-4.8c2.4-0.2,4.2-2.5,3.9-5L381,297.1
	z"/>
<path id="XMLID_377_" class="st0" d="M330.2,553.2L254.6,579V311.3h65.6c5.5,0,9.9,4.5,9.9,10.1V553.2z"/>
<g id="XMLID_352_">
	<path id="XMLID_368_" class="st3" d="M200,264.6c0,0-23.8,4.6-31.4,47.6c-11,62.2-65,166.5-65,166.5s50.3,86.2,62.3,79.2
		C178,551,200,264.6,200,264.6z"/>
</g>
<g id="XMLID_347_">
	<g id="XMLID_348_">
		<g id="XMLID_349_">
			<g id="XMLID_350_">
				<path id="XMLID_351_" class="st0" d="M348.6,125.6"/>
			</g>
		</g>
	</g>
</g>
<g id="XMLID_346_">
	<path id="XMLID_469_" class="st0" d="M283.4,136.1c-2.9-3.9,0.8,0.8-4.3-5c-2.4-2.6-10.6-5.2-15-5.2c-3.6,0-8.6-0.2-12.9-1.3
		c4.2,5.7,11.7,9.5,17.9,10.7C275.2,136.6,277.2,136.7,283.4,136.1"/>
</g>
<path id="XMLID_345_" class="st0" d="M277.3,129.2c2.3,1.9-0.8,6.9-5.3,6.9s-11.1-2.1-11.1-6.1c0-3.1,1.6-5.1,5.9-4.2
	C272.6,127,275.3,127.7,277.3,129.2z"/>
<g id="XMLID_344_">
	<path id="XMLID_464_" class="st0" d="M327.3,137c3-3.9-0.8,0.8,4.5-5c2.5-2.6,11.1-5.2,15.7-5.2c3.8,0,9-0.2,13.5-1.3
		c-4.4,5.7-12.3,9.5-18.7,10.7C335.9,137.5,333.7,137.6,327.3,137"/>
</g>
<path id="XMLID_343_" class="st0" d="M333.7,130.1c-2.4,1.9,0.9,6.9,5.5,6.9c4.6,0,11.6-2.1,11.6-6.1c0-3.1-1.7-5.1-6.1-4.2
	C338.6,127.9,335.7,128.5,333.7,130.1z"/>
<ellipse id="XMLID_342_" class="st0" cx="339.6" cy="131.3" rx="1.5" ry="3.6"/>
<ellipse id="XMLID_341_" class="st0" cx="265.7" cy="129.1" rx="1.5" ry="3.7"/>
<path id="XMLID_340_" class="st0" d="M284.3,122.4c-6-5.3-12.8-8.9-19.9-10.6c-4.3-1-8.7-1.3-13-2.4c-4.3-1.1-8.6-3.1-11.9-7
	c10.7,1.1,21.4,2.2,32.2,3.4c3.5,0.4,7.1,0.8,10.1,3.3c3,2.5,4.9,7.7,3.3,11.9"/>
<path id="XMLID_339_" class="st0" d="M325.4,121.6c6.3-5.1,13.5-8.6,21-10.2c4.6-1,9.2-1.2,13.8-2.3c4.6-1,9.1-3,12.5-6.7
	c-11.3,1.1-22.7,2.2-34,3.2c-3.7,0.4-7.5,0.8-10.7,3.1s-5.2,7.4-3.5,11.4"/>
<path id="XMLID_338_" class="st0" d="M309.9,167.5c-1.6,2.4-5.1,4.1-8.6,4.2c-3.5,0.1-7-1.3-8.5-3.6"/>
<path id="XMLID_337_" class="st0" d="M270,186.9c3.5,1.2,54.5,5,57.9,4.4c-0.1,5.3-1.2,10.7-5.5,14.8c-4.3,4.1-12.6,6.6-20.4,4.7
	c-7.1-1.7-15.1-7.1-19.1-11.5C278.9,194.9,276.8,189.4,270,186.9"/>
<ellipse id="XMLID_336_" class="st0" cx="254.3" cy="133.8" rx="0.8" ry="0.6"/>
<path id="XMLID_335_" class="st0" d="M283.4,136.1c-3.6-6.1-10.4-10.3-17.5-10.7c-3-0.2-5.9,0.2-8.9,0.2c-3,0-6.1-0.6-8.4-2.4"/>
<path id="XMLID_334_" class="st0" d="M326,137.9c3.8-6.1,10.9-10.3,18.3-10.7c3.1-0.2,6.2,0.2,9.3,0.2c3.1,0,6.3-0.6,8.8-2.4"/>
<polyline id="XMLID_333_" class="st0" points="232.6,99.8 223.9,119.3 223,99.1 223.1,80.2 "/>
<path id="XMLID_332_" class="st0" d="M223.1,80.2l0.7,39.1L223.1,80.2z"/>
<polygon id="XMLID_331_" class="st0" points="235.7,84.5 223.8,119.3 223.1,80.2 "/>
<polyline id="XMLID_330_" class="st0" points="321.3,256.6 320.6,220 260.4,221.3 260.4,256.5 "/>
<polyline id="XMLID_329_" class="st0" points="321.7,254.3 260.4,237.4 260.4,221.3 321.5,218.1 321.7,254.3 "/>
<g id="XMLID_323_">
	<g id="XMLID_324_">
		<path id="XMLID_328_" class="st0" d="M368.7,123.9l-0.7-37.2c-10.1-37.1-32.9-69.4-74.6-70.8c-41.7-1.4-81.3,29.9-82.7,70.8v31.7
			c-2.4,0.5-4.5,1.4-6.3,2.9c-3.4,2.6-5.5,6.6-5.7,11.1l-0.5,15.4c-0.3,8.1,8.2,10.2,16.5,10.6c23.2,40.5,40.7,69.3,72.7,74.5
			c28.9,4.7,56.1-37.2,75.6-72.7c8.3,0.2,15.9,2,16.2-6.2l0.5-15.4C380,131.6,375.3,125.7,368.7,123.9z"/>
		<g id="XMLID_325_">
			<g id="XMLID_326_">
				<path id="XMLID_327_" class="st0" d="M331.4,124.7"/>
			</g>
		</g>
	</g>
</g>
<g id="XMLID_320_" class="st1">
	<path id="XMLID_422_" class="st0" d="M296.8,166.6c-1.6,2.4-5.1,4.1-8.6,4.2c-3.5,0.1-7-1.3-8.5-3.6"/>
	<path id="XMLID_421_" class="st4" d="M296.8,166.6c0,0,0,0.1-0.1,0.2c-0.1,0.1-0.1,0.3-0.3,0.6c-0.3,0.5-0.7,1.2-1.5,1.8
		c-0.7,0.6-1.7,1.3-2.8,1.7c-1.1,0.5-2.4,0.8-3.7,0.8c-0.4,0-0.6,0-1,0c-0.3,0-0.7,0-1-0.1c-0.6-0.1-1.3-0.2-1.8-0.4
		c-0.6-0.2-1.1-0.4-1.6-0.7c-0.5-0.3-0.9-0.5-1.3-0.9c-0.8-0.6-1.3-1.3-1.6-1.7c-0.3-0.5-0.4-0.8-0.4-0.8c0,0,0.2,0.2,0.7,0.5
		c0.2,0.2,0.5,0.3,0.8,0.5c0.3,0.2,0.7,0.3,1.1,0.5c0.8,0.3,1.8,0.6,2.8,0.8c0.5,0.1,1.1,0.1,1.6,0.2c0.3,0,0.5,0,0.8,0
		c0.3,0,0.6,0,0.9,0c0.6,0,1.1-0.1,1.7-0.2c0.5-0.1,1.1-0.2,1.6-0.3c0.5-0.1,1-0.3,1.5-0.5c0.5-0.2,0.9-0.4,1.3-0.6
		c0.8-0.4,1.4-0.8,1.8-1.1c0.2-0.2,0.4-0.3,0.5-0.4C296.7,166.7,296.8,166.6,296.8,166.6z"/>
</g>
<ellipse id="XMLID_319_" class="st5" cx="241.2" cy="132.8" rx="0.8" ry="0.6"/>
<path id="XMLID_318_" class="st0" d="M210,79.3l0.7,39.1L210,79.3z"/>
<g id="XMLID_312_">
	<path id="XMLID_419_" class="st0" d="M311.4,137.7c6.2,8.8,20.7,10.4,28.2,7s10.3-9,13.7-18.2l0,0c-7.1-5-16.1-8.2-23.2-6.3
		C322.9,122.2,314.9,129.8,311.4,137.7L311.4,137.7z"/>
	<path id="XMLID_415_" class="st6" d="M311.4,137.7c1.5,1.7,3.3,3.1,5.2,4.2c1.9,1.1,4,1.8,6.2,2.3c2.1,0.5,4.3,0.8,6.5,0.8
		c2.2,0,4.3-0.2,6.4-0.7c1-0.3,2-0.6,2.9-1l0.3-0.1l0.4-0.2l0.8-0.4c0.5-0.3,0.9-0.5,1.3-0.8c0.9-0.6,1.7-1.2,2.4-1.9
		c0.8-0.7,1.4-1.5,2-2.3c2.5-3.3,4.1-7.5,5.7-11.7l0.7,2.3c-0.8-0.6-1.7-1.2-2.5-1.7c-0.9-0.5-1.8-1-2.7-1.5
		c-0.9-0.5-1.8-0.9-2.8-1.3c-0.9-0.4-1.9-0.7-2.8-1.1c-1-0.3-1.9-0.6-2.9-0.8c-0.5-0.1-1-0.2-1.5-0.3l-1.5-0.2c-1-0.1-1.9-0.1-2.9,0
		c-0.5,0.1-1,0.1-1.4,0.2l-0.7,0.1l0,0c0.1,0,0,0,0.1,0l0,0l0,0l-0.1,0l-0.2,0.1l-0.4,0.1c-0.5,0.1-1,0.3-1.4,0.5
		c-0.4,0.1-0.9,0.4-1.4,0.6c-0.9,0.4-1.8,0.9-2.7,1.4c-0.9,0.5-1.7,1.1-2.6,1.7c-0.8,0.6-1.6,1.3-2.4,2c-0.4,0.3-0.8,0.7-1.2,1
		c-0.4,0.4-0.8,0.7-1.1,1.1c-0.7,0.7-1.4,1.5-2.1,2.3c-0.7,0.8-1.3,1.6-1.9,2.5l-0.9,1.3L311.4,137.7z M311.4,137.7l0.6-1.5l0.7-1.5
		c0.5-1,1-1.9,1.6-2.8c0.6-0.9,1.2-1.8,1.8-2.7c0.3-0.4,0.7-0.9,1-1.3c0.3-0.4,0.7-0.8,1.1-1.2c0.7-0.8,1.5-1.6,2.3-2.3
		c0.8-0.7,1.7-1.5,2.6-2.1c0.9-0.7,1.8-1.3,2.8-1.8c0.5-0.3,1-0.5,1.5-0.8c0.5-0.2,1.1-0.5,1.6-0.6l0.4-0.1l0.2-0.1l0.1,0l0.1,0
		l0.1,0l0.9-0.2c0.6-0.2,1.1-0.2,1.7-0.3c1.2-0.2,2.3-0.2,3.5-0.2l1.7,0.1c0.6,0.1,1.1,0.1,1.7,0.2c1.1,0.2,2.2,0.4,3.3,0.8
		c1.1,0.3,2.1,0.7,3.2,1.1c1,0.4,2.1,0.9,3.1,1.4c1,0.5,2,1,2.9,1.6l1.4,0.9l1.4,0.9l1.3,0.8l-0.6,1.5c-0.8,2.1-1.7,4.3-2.7,6.4
		c-0.5,1.1-1,2.1-1.7,3.2c-0.6,1-1.3,2.1-2.1,3c-0.8,1-1.6,1.9-2.6,2.7c-0.9,0.8-2,1.5-3,2.2c-0.5,0.3-1.1,0.6-1.6,0.9l-0.8,0.4
		l-0.4,0.2c-0.2,0.1-0.3,0.1-0.5,0.2c-1.2,0.5-2.4,0.8-3.6,1c-4.8,0.8-9.6,0.3-14.1-1.3c-2.2-0.8-4.3-1.9-6.2-3.3
		C314.1,141.5,312.5,139.7,311.4,137.7z"/>
</g>
<path id="XMLID_311_" class="st7" d="M273.7,136.2c-7.8,11.4-24.9,14.4-33.5,10.6s-11.5-10.7-14.9-21.9l0,0
	c8.7-6.7,19.4-11.4,27.6-9.4C261.1,117.4,270,126.5,273.7,136.2L273.7,136.2z"/>
<path id="XMLID_310_" class="st0" d="M350.1,127.5c5.9,10.6-5.3,16.7-12,17.6c-6.7,0.9-20.1,1.1-19-11.1c0.9-10.1,9.9-12.4,16-12.9
	C342.4,120.5,347.2,122.5,350.1,127.5z"/>
<g id="XMLID_304_">
	<path id="XMLID_412_" class="st0" d="M272.7,137.8c-6.2,8.8-20.7,10.4-28.2,7s-10.3-9-13.7-18.2l0,0c7.1-5,16.1-8.2,23.2-6.3
		S269.1,129.8,272.7,137.8L272.7,137.8z"/>
	<path id="XMLID_407_" class="st6" d="M272.7,137.8c-1.1,2-2.7,3.7-4.6,5.1c-1.9,1.4-4,2.5-6.2,3.3c-4.5,1.5-9.3,2.1-14.1,1.3
		c-1.2-0.2-2.4-0.5-3.6-1c-0.2-0.1-0.3-0.1-0.5-0.2l-0.4-0.2l-0.8-0.4c-0.5-0.3-1.1-0.6-1.6-0.9c-1-0.7-2.1-1.4-3-2.2
		c-0.9-0.8-1.8-1.7-2.6-2.7c-0.8-1-1.5-2-2.1-3c-0.6-1-1.2-2.1-1.7-3.2c-1-2.1-1.9-4.3-2.7-6.4l-0.6-1.5l1.3-0.8l1.4-0.9l1.4-0.9
		c1-0.6,1.9-1.1,2.9-1.6c1-0.5,2-0.9,3.1-1.4c1-0.4,2.1-0.8,3.2-1.1c1.1-0.3,2.2-0.6,3.3-0.8c0.6-0.1,1.1-0.2,1.7-0.2l1.7-0.1
		c1.2,0,2.3,0,3.5,0.2c0.6,0.1,1.2,0.2,1.7,0.3l0.9,0.2l0.1,0l0.1,0l0.1,0l0.2,0.1l0.4,0.1c0.5,0.2,1,0.4,1.6,0.6
		c0.6,0.2,1,0.5,1.5,0.8c1,0.5,1.9,1.2,2.8,1.8c0.9,0.7,1.7,1.4,2.6,2.1c0.8,0.7,1.6,1.5,2.3,2.3c0.4,0.4,0.7,0.8,1.1,1.2
		c0.3,0.4,0.7,0.8,1,1.3c0.7,0.9,1.3,1.8,1.8,2.7c0.6,0.9,1.1,1.9,1.6,2.8l0.7,1.5L272.7,137.8z M272.7,137.8l-0.8-1.4l-0.9-1.3
		c-0.6-0.9-1.3-1.7-1.9-2.5c-0.7-0.8-1.4-1.6-2.1-2.3c-0.4-0.4-0.7-0.7-1.1-1.1c-0.4-0.4-0.8-0.7-1.2-1c-0.8-0.7-1.6-1.3-2.4-2
		c-0.8-0.6-1.7-1.2-2.6-1.7c-0.9-0.5-1.8-1-2.7-1.4c-0.5-0.2-0.9-0.4-1.4-0.6c-0.4-0.2-0.9-0.3-1.4-0.5l-0.4-0.1l-0.2-0.1l-0.1,0
		l0,0l0,0c0,0-0.1,0,0.1,0l0,0l-0.7-0.1c-0.5-0.1-0.9-0.1-1.4-0.2c-1-0.1-1.9-0.1-2.9,0l-1.5,0.2c-0.5,0.1-1,0.2-1.5,0.3
		c-1,0.2-1.9,0.5-2.9,0.8c-1,0.3-1.9,0.7-2.8,1.1c-0.9,0.4-1.8,0.8-2.8,1.3c-0.9,0.5-1.8,1-2.7,1.5c-0.9,0.5-1.7,1.1-2.5,1.7
		l0.7-2.3c1.6,4.2,3.2,8.4,5.7,11.7c0.6,0.8,1.3,1.6,2,2.3c0.7,0.7,1.6,1.3,2.4,1.9c0.4,0.3,0.8,0.5,1.3,0.8l0.8,0.4l0.4,0.2
		l0.3,0.1c0.9,0.4,1.9,0.8,2.9,1c2,0.5,4.2,0.7,6.4,0.7c2.2,0,4.4-0.3,6.5-0.8c2.1-0.5,4.2-1.3,6.2-2.3
		C269.4,140.9,271.2,139.5,272.7,137.8z"/>
</g>
<path id="XMLID_303_" class="st0" d="M239.6,127.4c-5.3,10.6,4.5,16.5,10.3,17.3c5.8,0.8,17.3,0.9,16.8-11.3
	c-0.5-11-8.5-12.2-13.9-12.6C246.4,120.3,242.1,122.3,239.6,127.4z"/>
<path id="XMLID_302_" class="st0" d="M244,131.3c-0.9,6.9,3.8,13.3,10.5,14.2c6.7,1,14.3-3.9,13.7-10.8c-0.6-6.5-4.2-12.6-11.4-15
	C251.2,117.8,244.9,124.3,244,131.3z"/>
<path id="XMLID_301_" class="st0" d="M242.5,126.7c-0.5,3.7,2,7.1,5.6,7.6c3.5,0.5,6.8-2.1,7.2-5.8c0.5-3.7-2-7.1-5.6-7.6
	C246.2,120.5,242.9,123,242.5,126.7z"/>
<path id="XMLID_300_" class="st0" d="M242.7,137c-0.1,1,0.5,1.8,1.3,2s1.6-0.6,1.8-1.5c0.1-1-0.5-1.8-1.3-2
	C243.6,135.3,242.8,136,242.7,137z"/>
<path id="XMLID_299_" class="st0" d="M318.9,132.2c-1,7.3,4,13.9,11,14.9s13.6-4.1,14.5-11.4c1-7.3-4-13.9-11-14.9
	C326.3,119.8,319.8,124.9,318.9,132.2z"/>
<path id="XMLID_298_" class="st0" d="M330.1,127.5c-0.5,3.7,2.1,7.1,5.8,7.6c3.7,0.5,7.1-2.1,7.6-5.8s-2.1-7.1-5.8-7.6
	C334,121.2,330.6,123.8,330.1,127.5z"/>
<path id="XMLID_297_" class="st0" d="M345.6,139.6c0.1,1.1-0.7,2.2-1.9,2.3c-1.2,0.2-2.3-0.6-2.5-1.7c-0.1-1.1,0.7-2.2,1.9-2.3
	C344.4,137.7,345.4,138.5,345.6,139.6z"/>
<g id="XMLID_296_">
	<path id="XMLID_392_" class="st0" d="M310.2,109.5c7.5-2.4,15.1-4.9,22.6-7.3c4.4-1.4,9-2.9,13.6-2.7c4.7,0.1,9.5,2.2,10.9,6"/>
	<g id="XMLID_378_">
		<path id="XMLID_380_" class="st8" d="M332.7,104.8c-2.6,1.1-5.4,1.9-8,2.5c-2.6,0.6-5.1,1-7.3,1.2c-2.2,0.3-4,0.5-5.2,0.6
			c-1.3,0.2-1.9,0.4-1.9,0.4s0.7-0.2,1.8-0.8c1.1-0.6,2.7-1.5,4.6-2.5c1.9-1,4.2-2.2,6.6-3.3c2.5-1.1,5.2-2,7.9-2.7
			c5.7-1.4,10-2,14.2-1.6c2.1,0.2,4.2,0.7,6.3,1.6c1.1,0.5,2.1,1.1,3.1,1.9c1,0.8,1.9,1.9,2.5,3.3c-0.6-1.4-1.6-2.5-2.6-3.2
			c-1.1-0.7-2.2-1.2-3.2-1.5c-2.2-0.6-4.2-0.6-6.1-0.4C341.5,100.9,338.1,102.5,332.7,104.8z"/>
	</g>
</g>
<g id="XMLID_295_">
	<path id="XMLID_385_" class="st0" d="M274.3,109.4c-7.6-2.2-15.2-4.4-22.8-6.6c-4.4-1.3-9-2.6-13.7-2.3c-4.6,0.3-9.4,2.5-10.7,6.3"
		/>
	<g id="XMLID_373_">
		<path id="XMLID_374_" class="st8" d="M253,100.8c2.8,0.6,5.5,1.4,8,2.4c2.5,1,4.8,2.1,6.7,3.1c1.9,1,3.5,1.8,4.7,2.4
			c1.1,0.6,1.8,0.8,1.8,0.8s-0.7-0.2-2-0.3c-1.3-0.2-3.1-0.3-5.2-0.5c-2.2-0.2-4.7-0.5-7.3-1c-2.6-0.5-5.4-1.2-8-2.2
			c-5.5-2.1-9-3.6-12.9-4c-1.9-0.2-3.9-0.1-6.1,0.6c-1.1,0.4-2.2,0.9-3.2,1.6c-1,0.8-2,1.9-2.5,3.3c0.5-1.4,1.4-2.6,2.4-3.4
			c1-0.9,2-1.5,3.1-2c2.1-1,4.2-1.5,6.3-1.8C243,99.1,247.3,99.6,253,100.8z"/>
	</g>
</g>
<ellipse id="XMLID_294_" class="st0" cx="210.3" cy="152.7" rx="2.2" ry="2.8"/>
<ellipse id="XMLID_293_" class="st0" cx="371.9" cy="155.4" rx="2.4" ry="2.8"/>
<g id="XMLID_290_">
	<path id="XMLID_369_" class="st0" d="M259.7,236.9c4,2.1,7.9,4.2,12.2,5.8c16.3,6.1,35.6,3.5,49.6-6.6"/>
	<path id="XMLID_367_" class="st9" d="M259.7,236.9c0,0,1,0.3,2.7,1c1.7,0.6,4.1,1.5,7,2.5c0.7,0.2,1.5,0.5,2.2,0.7l0.6,0.2l0.1,0
		l0,0c-0.1,0,0,0,0,0l0.1,0l0.3,0.1c0.4,0.1,0.8,0.2,1.3,0.3c0.4,0.1,0.9,0.2,1.3,0.4c0.4,0.1,0.9,0.2,1.3,0.3
		c0.9,0.2,1.7,0.4,2.7,0.5c0.9,0.1,1.8,0.3,2.8,0.4c0.9,0.1,1.9,0.2,2.9,0.3c1,0.1,1.9,0.1,2.9,0.2c1,0,2,0,3,0c1,0,2-0.1,3-0.1
		c1-0.1,2-0.2,2.9-0.2c1.9-0.2,3.8-0.5,5.7-0.8c0.5-0.1,0.9-0.2,1.4-0.3c0.4-0.1,0.9-0.2,1.3-0.3c0.9-0.2,1.7-0.4,2.6-0.6
		c1.7-0.5,3.2-1,4.6-1.4c0.7-0.2,1.4-0.5,2-0.8c0.6-0.3,1.3-0.5,1.8-0.7c1.1-0.5,2.1-0.9,2.9-1.3c1.6-0.8,2.6-1.2,2.6-1.2
		s-0.7,0.7-2.1,1.9c-0.7,0.6-1.6,1.2-2.6,2c-1,0.7-2.3,1.5-3.6,2.2c-0.7,0.4-1.4,0.7-2.2,1.1c-0.8,0.4-1.6,0.7-2.4,1
		c-0.8,0.4-1.7,0.7-2.6,1c-0.9,0.3-1.8,0.6-2.8,0.9c-1.9,0.5-3.9,0.9-6,1.2c-1,0.1-2.1,0.3-3.1,0.3c-1.1,0-2.1,0.1-3.2,0.1
		c-1.1,0-2.1,0-3.2-0.1c-1.1-0.1-2.1-0.2-3.1-0.3c-1-0.1-2.1-0.3-3.1-0.5c-1-0.2-2-0.4-3-0.7c-1-0.2-1.9-0.5-2.8-0.8
		c-0.5-0.2-0.9-0.3-1.4-0.5c-0.4-0.2-0.8-0.3-1.2-0.5c-0.4-0.2-0.8-0.3-1.2-0.5l-0.3-0.1l-0.2-0.1l-0.1-0.1l-0.6-0.3
		c-0.8-0.4-1.5-0.7-2.2-1.1c-2.8-1.5-4.9-2.9-6.4-3.9C260.6,237.6,259.7,236.9,259.7,236.9z"/>
</g>
<g id="XMLID_287_">
	<path id="XMLID_289_" class="st0" d="M289,188.9c-2.5,0-5.8-5.8-14.9-0.8c-4.7,2.6-14.8,2.4-14.8,2.4s11.9,20.1,29.7,20.1
		s31.3-20.4,31.3-20.4s-9.7,0.6-17-2.6C293.3,183.1,291.5,188.9,289,188.9z"/>
	<path id="XMLID_288_" class="st0" d="M269.2,193c0,0,8,13.5,20,13.5c12,0,21.1-13.8,21.1-13.8L269.2,193z"/>
</g>
<ellipse id="XMLID_286_" class="st7" cx="246.7" cy="168.8" rx="15.3" ry="5.1"/>
<ellipse id="XMLID_285_" class="st7" cx="342.3" cy="167.9" rx="16" ry="5.1"/>
<path id="XMLID_284_" class="st10" d="M245.8,119.6c-2.6-0.8-5-2.4-6.7-4.5c1.4,1.6,2.8,3.3,4.3,4.9c-4.1-0.4-8.1-2.3-10.9-5.4
	c0.6,3.3,3.3,6.1,6.6,6.8c-3.2,0.5-6.5-0.6-8.8-2.9c1.6,1.4,3.1,2.7,4.7,4.1c-4.4-0.3-8.7-2-12.2-4.7c3.3,2.4,6.7,4.7,10,7.1
	c-3.5,1.5-7.8,1.1-10.9-1.2c1.3,2.7,4.6,4.2,7.4,3.5"/>
<g id="XMLID_277_">
	<path id="XMLID_313_" class="st11" d="M267.4,20c0,0,1,0.1,3,0.4c1.9,0.3,4.8,0.5,8.4,1.4c0.9,0.2,1.8,0.4,2.8,0.6
		c1,0.2,2,0.4,3.1,0.7c2.1,0.6,4.4,1.3,6.9,2c2.4,0.9,5,1.8,7.7,2.8c2.6,1.1,5.4,2.4,8.2,3.7c5.6,2.9,11.6,6.2,17.4,10.5
		c0.7,0.5,1.5,1.1,2.2,1.6l1.1,0.8l1.1,0.9c1.4,1.2,2.9,2.4,4.4,3.6l1.1,0.9l1.1,1c0.7,0.7,1.4,1.3,2.1,2c1.4,1.3,2.9,2.6,4.2,4.1
		c1.4,1.4,2.7,2.9,4.1,4.4c1.3,1.5,2.6,3.1,3.9,4.7c0.6,0.8,1.3,1.6,1.9,2.4c0.6,0.8,1.2,1.7,1.8,2.5c0.6,0.8,1.2,1.7,1.8,2.5
		c0.6,0.8,1.2,1.7,1.8,2.6c1.1,1.8,2.2,3.5,3.3,5.3c0.6,0.9,1.1,1.8,1.5,2.7l1.5,2.8l1.5,2.8c0.5,1,0.9,1.9,1.3,2.9l1.3,2.9l0.6,1.4
		l0.3,0.7l0.3,0.8l2.1,5.9c0.2,0.5,0.4,1,0.5,1.5l0.4,1.5l0.9,3.1l0.9,3.1c0.3,1,0.4,2.1,0.7,3.1c0.4,2.1,0.9,4.1,1.2,6.1
		c0.3,2.1,0.6,4.1,0.9,6.1c0.3,2,0.4,4.1,0.5,6.1c0.4,4.1,0.3,8.1,0.3,12c0,2-0.2,3.9-0.3,5.9c-0.1,1-0.1,1.9-0.2,2.9
		c-0.1,1-0.2,1.9-0.3,2.8c-0.2,1.9-0.5,3.7-0.7,5.6c-0.3,1.8-0.7,3.6-1,5.4c-0.6,3.6-1.6,6.9-2.4,10.3c-0.1,0.4-0.2,0.8-0.3,1.2
		c-0.1,0.4-0.3,0.8-0.4,1.2c-0.3,0.8-0.5,1.6-0.8,2.4c-0.5,1.6-1,3.1-1.5,4.6c-1.2,2.9-2.2,5.8-3.4,8.4c-1.3,2.6-2.4,5.1-3.6,7.3
		c-1.3,2.2-2.4,4.3-3.5,6.2c-1.1,1.9-2.3,3.6-3.3,5.1c-0.5,0.8-1,1.5-1.4,2.2c-0.4,0.7-1,1.3-1.4,1.8c-0.9,1.1-1.6,2.1-2.2,2.9
		c-1.2,1.5-1.8,2.4-1.8,2.4s0.6-0.9,1.7-2.5c1.1-1.6,2.8-3.9,4.6-7.1c0.9-1.6,2-3.3,3.1-5.2c1-2,2.1-4.1,3.2-6.3
		c1.1-2.3,2.1-4.8,3.2-7.4c1-2.6,2-5.5,3.1-8.4c0.4-1.5,0.9-3,1.4-4.6c0.2-0.8,0.5-1.6,0.7-2.3c0.1-0.4,0.2-0.8,0.4-1.2
		c0.1-0.4,0.2-0.8,0.3-1.2c0.7-3.3,1.6-6.6,2.1-10.2c0.3-1.8,0.6-3.5,0.8-5.3c0.2-1.8,0.4-3.7,0.5-5.5c0.1-0.9,0.2-1.9,0.3-2.8
		c0-0.9,0.1-1.9,0.1-2.8c0.1-1.9,0.2-3.8,0.2-5.8c0-7.8-0.7-15.7-2-23.8c-0.4-2-0.8-4-1.2-6c-0.2-1-0.4-2-0.7-3l-0.8-2.9l-0.8-2.9
		l-0.4-1.5c-0.1-0.5-0.3-1-0.5-1.5l-2.1-5.9l-0.2-0.7l-0.3-0.7l-0.6-1.4l-1.2-2.8c-0.4-0.9-0.8-1.9-1.2-2.8l-1.4-2.7l-1.4-2.7
		c-0.5-0.9-0.9-1.8-1.5-2.7c-1.1-1.7-2.1-3.5-3.2-5.2c-0.5-0.9-1.1-1.7-1.7-2.5c-0.6-0.8-1.2-1.6-1.7-2.5c-0.6-0.8-1.2-1.6-1.7-2.5
		c-0.6-0.8-1.2-1.6-1.9-2.3c-1.3-1.5-2.5-3.1-3.7-4.6c-1.3-1.4-2.6-2.9-4-4.3c-1.3-1.5-2.7-2.7-4.1-4.1c-0.7-0.7-1.4-1.3-2-2l-1-1
		l-1.1-0.9c-1.4-1.2-2.8-2.4-4.2-3.6l-1-0.9l-1.1-0.8c-0.7-0.5-1.4-1.1-2.1-1.6C318,39.4,312.1,36,306.7,33c-2.8-1.4-5.5-2.7-8-3.9
		c-2.6-1.1-5.1-2.1-7.5-3c-2.4-0.8-4.7-1.5-6.7-2.2c-1-0.4-2.1-0.6-3-0.8c-1-0.2-1.9-0.5-2.8-0.7c-3.5-1-6.4-1.4-8.3-1.8
		C268.4,20.1,267.4,20,267.4,20z"/>
</g>
<g id="XMLID_274_">
	<path id="XMLID_308_" class="st0" d="M246.1,30.6c-42.7,53.7-58.7,128.5-42,195.5c8.3,33.2,24,64.2,31.4,97.7
		c7.4,33.5,4.8,72.3-18.8,96.7"/>
	<path id="XMLID_306_" class="st11" d="M246.1,30.6c0,0-0.9,1.3-2.7,3.8c-0.9,1.2-2,2.7-3.2,4.5c-1.3,1.7-2.7,3.9-4.2,6.3
		c-0.8,1.2-1.6,2.4-2.4,3.7c-0.4,0.7-0.8,1.3-1.3,2c-0.2,0.3-0.4,0.7-0.7,1c-0.2,0.4-0.4,0.7-0.6,1.1c-1.6,3-3.4,6.2-5.3,9.6
		c-1.8,3.5-3.5,7.3-5.5,11.2c-1.8,4-3.5,8.3-5.4,12.7c-0.8,2.3-1.6,4.6-2.5,6.9c-0.4,1.2-0.8,2.4-1.3,3.6c-0.2,0.6-0.4,1.2-0.6,1.8
		c-0.2,0.6-0.4,1.2-0.5,1.9c-1.4,5-3.1,10.1-4.3,15.5c-0.6,2.7-1.3,5.4-1.9,8.2c-0.5,2.8-1,5.6-1.5,8.4c-0.2,1.4-0.6,2.8-0.7,4.3
		c-0.2,1.4-0.4,2.9-0.6,4.4c-0.2,1.5-0.4,2.9-0.6,4.4c-0.2,1.5-0.4,3-0.5,4.5c-0.2,3-0.4,6-0.6,9.1l-0.2,2.3c0,0.8,0,1.5-0.1,2.3
		c0,1.5,0,3.1-0.1,4.6c-0.3,6.2,0.2,12.4,0.4,18.7c1,12.6,2.8,25.2,5.9,37.7c3,12.5,7.1,24.6,11.3,36.5c4.3,11.9,8.7,23.6,12.4,35.1
		c3.8,11.5,6.9,22.9,8.8,33.8c1.8,11,2.4,21.6,2,31.3c-0.4,9.7-2,18.6-4.3,26.1c-2.3,7.6-5.3,13.8-8.1,18.7
		c-1.5,2.4-2.8,4.6-4.2,6.3c-1.3,1.7-2.4,3.3-3.5,4.3c-2,2.2-3.1,3.4-3.1,3.4s1-1.2,3-3.5c1-1.1,2.1-2.7,3.3-4.4
		c1.3-1.7,2.5-3.9,4-6.3c2.7-4.9,5.5-11.2,7.5-18.7c2.1-7.5,3.4-16.3,3.7-25.9c0.3-9.6-0.5-20-2.4-30.8c-1.1-5.4-2.3-10.9-3.9-16.5
		c-0.7-2.8-1.6-5.6-2.4-8.4c-0.9-2.8-1.8-5.7-2.7-8.5c-3.8-11.4-8.3-23.1-12.6-35c-2.2-6-4.3-12-6.3-18.1c-1-3.1-1.9-6.1-2.8-9.3
		c-0.5-1.6-0.9-3.1-1.3-4.7c-0.4-1.6-0.9-3.1-1.2-4.7c-3-12.6-4.8-25.5-5.8-38.2c-0.2-6.4-0.6-12.7-0.3-18.9c0-1.6,0.1-3.1,0.1-4.7
		c0-0.8,0-1.6,0.1-2.3l0.2-2.3c0.2-3.1,0.5-6.1,0.7-9.2c0.1-1.5,0.4-3,0.5-4.5c0.2-1.5,0.4-3,0.6-4.5c0.2-1.5,0.4-2.9,0.6-4.4
		c0.2-1.5,0.5-2.9,0.8-4.3c0.6-2.9,1.1-5.7,1.7-8.5c0.6-2.8,1.4-5.5,2-8.2c1.2-5.4,3-10.5,4.5-15.5c0.2-0.6,0.4-1.2,0.6-1.9
		c0.2-0.6,0.4-1.2,0.7-1.8c0.4-1.2,0.9-2.4,1.3-3.6c0.9-2.4,1.8-4.7,2.6-6.9c1-2.2,1.9-4.4,2.9-6.5c1-2.1,1.8-4.2,2.8-6.2
		c2-3.9,3.9-7.7,5.8-11.1c2-3.4,3.9-6.6,5.6-9.5c0.2-0.4,0.4-0.7,0.6-1.1c0.2-0.3,0.5-0.7,0.7-1c0.5-0.7,0.9-1.3,1.3-2
		c0.9-1.3,1.7-2.5,2.5-3.7c0.8-1.2,1.5-2.3,2.2-3.3c0.7-1.1,1.5-1.9,2.1-2.8c1.3-1.7,2.5-3.2,3.4-4.4
		C245.1,31.9,246.1,30.6,246.1,30.6z"/>
</g>
<g id="XMLID_270_">
	<path id="XMLID_292_" class="st0" d="M259.2,22.9c-17.5-1.3-34.4,7.4-47.7,19.1c-35.6,31.3-49.7,82.5-46.7,130.4
		s20.9,93.4,40.3,137.1s40.7,87.1,51.2,133.8c0-54.5-8.5-109-25-160.8c-9.9-31.1-22.6-61.2-31-92.7c-8.4-31.5-12.3-65.2-4.1-96.8
		s30-60.8,60.3-70.9"/>
	<path id="XMLID_282_" class="st11" d="M259.2,22.9c-10.1-0.7-20.1,2-29,6.6c-4.5,2.3-8.7,5-12.7,8c-2,1.5-3.9,3.1-5.8,4.8l-5.5,5.2
		c-7,7.2-13.1,15.2-18.3,23.8l-1.9,3.3c-0.6,1.1-1.3,2.2-1.8,3.3l-3.4,6.7l-2.9,6.9c-0.5,1.1-0.9,2.3-1.3,3.5l-1.3,3.5
		c-3.3,9.5-5.7,19.2-7.4,29.1c-1.6,9.9-2.4,19.9-2.5,29.9l0,3.8l0,1.9l0.1,1.9l0.3,7.5l0.6,7.5c0.2,2.5,0.6,5,0.9,7.5
		c1.3,9.9,3.2,19.8,5.5,29.6c2.4,9.8,5.2,19.4,8.4,28.9c3.2,9.5,6.6,19,10.3,28.3c3.7,9.3,7.6,18.6,11.7,27.8
		c4,9.2,8.2,18.4,12.3,27.6c8.3,18.3,16.6,36.8,23.9,55.6c7.4,18.8,13.7,38,18.2,57.8l-2.9,0.3c0-37.9-4.1-75.8-12.1-112.9
		c-2-9.3-4.3-18.5-6.8-27.6c-2.6-9.1-5.2-18.2-8.2-27.2c-6-18-12.7-35.8-18.7-53.8c-3-9-5.9-18.1-8.4-27.3
		c-2.5-9.2-4.7-18.5-6.4-27.9c-1.7-9.4-2.7-18.9-3.1-28.4c-0.4-9.5-0.1-19.1,1.2-28.6c1.3-9.5,3.5-18.8,6.8-27.8
		c3.3-9,7.8-17.5,13.2-25.3c5.4-7.8,11.8-15,19.3-20.9c7.5-5.9,15.9-10.6,24.9-13.6c-9,3.1-17.3,8-24.6,13.9
		c-7.4,5.9-13.7,13.2-19,21c-5.3,7.8-9.6,16.3-12.8,25.3c-3.2,8.9-5.2,18.2-6.4,27.6c-1.2,9.4-1.4,18.9-1,28.3
		c0.5,9.4,1.6,18.9,3.3,28.2c3.4,18.6,8.9,36.8,15.1,54.8c6.2,17.9,13,35.7,19,53.7c3,9,5.8,18.2,8.3,27.3
		c2.5,9.2,4.8,18.4,6.9,27.7c8.1,37.2,12.3,75.3,12.4,113.4l0,13.2l-3-12.8c-4.5-19.5-10.7-38.7-18-57.4
		c-7.3-18.7-15.5-37.1-23.7-55.5c-4.1-9.2-8.3-18.4-12.3-27.6c-4-9.2-7.9-18.5-11.6-27.9c-3.7-9.4-7.2-18.9-10.3-28.5
		c-3.1-9.6-5.9-19.3-8.2-29.2c-2.3-9.8-4.1-19.8-5.4-29.8c-0.3-2.5-0.6-5-0.8-7.5l-0.6-7.5l-0.3-7.6l-0.1-1.9l0-1.9l0-3.8
		c0.2-10.1,1.1-20.2,2.7-30.2c1.8-10,4.3-19.8,7.7-29.3l1.3-3.6c0.4-1.2,0.9-2.4,1.4-3.5l3.1-6.9l3.5-6.8c0.5-1.1,1.2-2.2,1.9-3.3
		l1.9-3.3c5.3-8.6,11.6-16.6,18.7-23.8l5.5-5.2c1.9-1.7,3.9-3.2,5.9-4.8c4.1-3,8.4-5.7,12.9-7.9C239,24.6,249.1,22.1,259.2,22.9z"/>
</g>
<path id="XMLID_267_" class="st0" d="M285.1,566.9c0,0-97.2-33.6-75.8-120.4s33.4-172,33.4-172L285.1,566.9z"/>
<path id="XMLID_266_" class="st12" d="M256.4,31.7C243,59.5,235.7,72.6,227.7,97c-8.1,24.4-15.3,48-12.2,73.6
	c3.9,33,14.1,64.8,21.7,97.1s12.6,66.1,5.9,98.6c-6.7,32.5-27,63.6-57.4,75.3c7.7-2.3,13.4-8.7,18-15.4
	c20.6-30.2,24-69.7,18.8-106.2s-18-71.3-27.1-106.9s-14.8-86.1-5.3-121.6s32.4-61.1,68.1-66.2"/>
<g id="XMLID_263_">
	<path id="XMLID_269_" class="st0" d="M257,25.1c-33.7,36.2-50.5,88.2-44.5,137.8c3.8,31,15.8,60.3,23.7,90.5s11.4,63.5-1.3,91.9"/>
	<path id="XMLID_265_" class="st11" d="M257,25.1c0,0-0.8,1-2.4,2.9c-0.8,1-1.7,2.1-2.9,3.5c-0.6,0.7-1.1,1.5-1.7,2.3
		c-0.6,0.8-1.2,1.7-1.9,2.6c-0.7,0.9-1.4,1.9-2.1,2.9c-0.7,1-1.4,2.2-2.2,3.3c-1.5,2.3-3.2,4.8-4.7,7.6c-0.8,1.4-1.6,2.8-2.5,4.3
		c-0.9,1.5-1.6,3-2.4,4.6c-0.8,1.6-1.7,3.2-2.5,4.9c-0.8,1.7-1.5,3.5-2.3,5.2c-0.4,0.9-0.8,1.8-1.2,2.7c-0.4,0.9-0.7,1.9-1.1,2.8
		c-0.7,1.9-1.5,3.8-2.2,5.8c-0.7,2-1.3,4-2,6.1c-0.3,1-0.7,2.1-1,3.1c-0.3,1.1-0.6,2.1-0.9,3.2c-2.5,8.6-4.3,17.8-5.5,27.5
		c-0.7,4.8-0.9,9.8-1.2,14.7c0,2.5,0,5-0.1,7.5c0,1.3,0,2.5,0.1,3.8c0,1.3,0.1,2.5,0.1,3.8c0.1,1.3,0.1,2.5,0.2,3.8
		c0.1,1.3,0.2,2.5,0.4,3.8c0.1,1.3,0.2,2.6,0.4,3.8l0,0.5l0,0.2l0,0.2l0.1,1l0.3,1.9c0.3,2.6,0.8,5.1,1.2,7.7c0.5,2.5,1,5.1,1.6,7.6
		c2.2,10.2,5,20.2,8,30.1c3,9.9,5.9,19.7,8.7,29.2c1.3,4.8,2.6,9.5,3.7,14.2c0.5,2.3,1.1,4.6,1.5,6.9c0.5,2.3,0.9,4.6,1.3,6.8
		c1.6,9,2.6,17.6,2.9,25.6c0.3,8-0.1,15.3-1,21.7c-0.9,6.4-2.1,11.9-3.5,16.4c-0.3,1.1-0.6,2.2-1,3.1c-0.4,1-0.7,1.9-1,2.7
		c-0.3,0.8-0.6,1.6-0.9,2.3c-0.3,0.7-0.6,1.3-0.9,1.9c-1,2.2-1.6,3.4-1.6,3.4s0.4-1.2,1.3-3.6c0.2-0.6,0.4-1.2,0.7-1.9
		c0.2-0.7,0.4-1.5,0.7-2.4c0.2-0.9,0.5-1.8,0.8-2.8c0.3-1,0.5-2,0.8-3.2c1.1-4.4,1.9-10,2.4-16.3c0.5-6.3,0.5-13.5-0.2-21.3
		c-0.6-7.8-2-16.2-3.8-24.9c-0.5-2.2-1-4.4-1.5-6.6c-0.5-2.2-1.1-4.5-1.8-6.8c-0.6-2.3-1.3-4.6-1.9-6.9c-0.7-2.3-1.4-4.6-2.1-7
		c-1.4-4.7-2.9-9.5-4.5-14.3c-1.6-4.8-3.1-9.7-4.6-14.7c-3.1-9.9-6-20.1-8.3-30.5c-0.6-2.6-1.1-5.2-1.5-7.8
		c-0.4-2.6-0.9-5.3-1.2-7.9l-0.3-1.9l-0.1-1l0-0.2l0-0.3l0-0.5c-0.1-1.3-0.2-2.6-0.4-4c-0.1-1.3-0.2-2.6-0.4-4
		c-0.1-1.3-0.1-2.6-0.2-4c0-1.3-0.1-2.6-0.1-3.9c0-1.3-0.1-2.6,0-3.9c0.1-2.6,0.2-5.2,0.2-7.8c0.4-5.1,0.8-10.2,1.5-15.2
		c0.2-1.2,0.3-2.5,0.5-3.7c0.2-1.2,0.5-2.4,0.7-3.6c0.5-2.4,0.9-4.8,1.5-7.1c0.6-2.3,1.2-4.6,1.8-6.9c0.6-2.3,1.4-4.5,2-6.7
		c0.3-1.1,0.7-2.2,1-3.3c0.4-1.1,0.8-2.1,1.2-3.2c0.8-2.1,1.5-4.1,2.3-6.1c0.9-2,1.7-3.9,2.6-5.8c0.4-0.9,0.8-1.9,1.2-2.8
		c0.5-0.9,0.9-1.8,1.4-2.7c0.9-1.8,1.8-3.5,2.6-5.2c0.9-1.7,1.9-3.3,2.8-4.8c0.9-1.6,1.7-3.1,2.7-4.5c0.9-1.4,1.9-2.8,2.7-4.2
		c1.7-2.7,3.6-5.1,5.2-7.4c0.8-1.1,1.6-2.2,2.4-3.2c0.8-1,1.6-1.9,2.4-2.8c1.5-1.8,2.8-3.4,4-4.7c1.2-1.3,2.3-2.4,3.1-3.3
		C256.1,26,257,25.1,257,25.1z"/>
</g>
<g id="XMLID_260_">
	<path id="XMLID_262_" class="st0" d="M229.4,414.1c14-45,15.8-94,5.2-140c-6.8-29.6-18.6-57.8-27.4-86.8s-14.6-60-9-89.9
		c5.6-29.9,24.6-58.5,52.7-68.4"/>
	<path id="XMLID_261_" class="st11" d="M229.4,414.1c0,0,0.4-1.6,1.3-4.5c0.4-1.5,1-3.3,1.5-5.4c0.5-2.1,1.1-4.6,1.8-7.3
		c0.6-2.8,1.3-5.8,1.9-9.2c0.3-1.7,0.6-3.4,0.9-5.2c0.2-0.9,0.3-1.8,0.5-2.8c0.1-0.9,0.3-1.9,0.4-2.9c0.3-1.9,0.6-4,0.9-6
		c0.2-2.1,0.5-4.2,0.7-6.4c0.3-2.2,0.4-4.5,0.6-6.8c0.2-2.3,0.4-4.7,0.5-7.1c0.5-9.7,0.6-20.2-0.1-31.3c-0.7-11.1-2.1-22.7-4.4-34.6
		c-2.3-11.9-5.5-24-9.3-36.1c-3.8-12.1-8.2-24.3-12.4-36.6c-4.2-12.3-8.2-24.6-11.5-37c-3.2-12.4-5.6-24.8-6.8-36.9
		c-0.6-6.1-0.8-12.1-0.7-17.9c0.1-5.9,0.6-11.6,1.4-17.2c0.2-1.4,0.5-2.7,0.7-4.1c0.1-0.7,0.2-1.3,0.4-2c0.1-0.7,0.3-1.3,0.4-2
		c0.3-1.3,0.5-2.6,0.9-3.9c0.4-1.3,0.7-2.6,1.1-3.8c1.5-5,3.3-9.8,5.4-14.2c4.1-8.9,9.1-16.4,14.3-22.3c5.2-6,10.5-10.5,15.3-13.6
		c1.1-0.9,2.3-1.5,3.4-2.1c0.5-0.3,1.1-0.6,1.6-0.9c0.3-0.2,0.5-0.3,0.8-0.4c0.3-0.1,0.5-0.2,0.8-0.4c1-0.5,1.9-0.9,2.7-1.3
		c0.8-0.4,1.6-0.8,2.3-1c2.8-1.1,4.3-1.7,4.3-1.7s-1.5,0.6-4.3,1.8c-0.7,0.3-1.5,0.7-2.3,1.1c-0.8,0.4-1.7,0.9-2.7,1.4
		c-0.2,0.1-0.5,0.3-0.7,0.4c-0.2,0.2-0.5,0.3-0.7,0.5c-0.5,0.3-1,0.6-1.6,1c-1.1,0.7-2.2,1.3-3.4,2.2c-4.7,3.2-9.8,7.8-14.9,13.8
		c-5.1,6-9.9,13.5-13.9,22.3c-2,4.4-3.7,9.1-5.2,14.1c-0.3,1.3-0.7,2.5-1,3.8c-0.4,1.3-0.6,2.6-0.9,3.9c-0.1,0.7-0.3,1.3-0.4,2
		c-0.1,0.6-0.2,1.3-0.3,2c-0.2,1.3-0.4,2.7-0.6,4.1c-0.7,5.5-1.1,11.2-1.2,17c0,5.8,0.2,11.7,0.8,17.8c1.2,12,3.6,24.3,6.9,36.6
		c3.2,12.3,7.3,24.6,11.5,36.8c4.2,12.2,8.5,24.5,12.3,36.7c3.8,12.2,7,24.4,9.3,36.3c2.3,12,3.5,23.7,4.1,34.8
		c0.6,11.1,0.4,21.7-0.2,31.4c-0.7,9.7-1.7,18.6-3.1,26.4c-0.2,1-0.3,1.9-0.5,2.9c-0.2,0.9-0.4,1.9-0.5,2.8c-0.4,1.8-0.7,3.6-1,5.2
		c-0.7,3.3-1.5,6.4-2.1,9.2c-0.7,2.7-1.4,5.2-1.9,7.3c-0.6,2.1-1.2,3.9-1.6,5.4C229.8,412.6,229.4,414.1,229.4,414.1z"/>
</g>
<g id="XMLID_257_">
	<path id="XMLID_258_" class="st0" d="M257,25.1c-33.3,4.6-50.2,34-58.1,63.7s-9.5,59.1,0.7,88.2s24.2,57.2,31.3,87
		c13.1,54.3,3.1,111.2-14,164.6"/>
	<path id="XMLID_256_" class="st11" d="M257,25.1c0,0-0.4,0.1-1.2,0.2c-0.8,0.2-2,0.4-3.6,0.8c-3.1,0.8-7.7,2.2-13,5
		c-5.3,2.8-11.2,7.1-16.8,13.3c-5.5,6.2-10.6,14.2-14.7,23.5c-4.1,9.4-7.1,20.1-9.5,31.6c-2.3,11.5-3.8,23.8-3.6,36.6
		c0.2,12.7,2.4,25.8,6.6,38.4c4.4,12.7,9.7,25.4,14.8,38.2c5.1,12.8,10.1,25.8,14,38.9c1.9,6.6,3.6,13.2,4.8,19.8
		c1.3,6.6,2.2,13.2,2.9,19.7c1.3,13,1.4,25.6,0.7,37.5c-0.6,11.9-2.1,23.1-3.8,33.3c-1.7,10.2-3.8,19.5-5.9,27.7
		c-2.1,8.2-4.1,15.2-5.9,21c-1.8,5.8-3.3,10.3-4.3,13.3c-1.1,3.1-1.6,4.7-1.6,4.7s0.5-1.7,1.4-4.8c0.9-3.1,2.1-7.7,3.6-13.5
		c1.5-5.8,3.2-12.9,5-21.1c1.8-8.2,3.5-17.5,4.9-27.7c1.4-10.2,2.5-21.3,2.9-33.1c0.4-11.8,0.1-24.2-1.4-36.9
		c-0.7-6.4-1.7-12.8-3.1-19.2c-1.3-6.5-3-12.9-4.9-19.3c-3.9-12.9-8.8-25.7-14-38.4c-5.1-12.8-10.3-25.6-14.8-38.5
		c-4.4-13.1-6.4-26.8-6.5-39.9c-0.1-13.1,1.7-25.7,4.3-37.4c1.3-5.8,2.8-11.4,4.5-16.8c1.7-5.4,3.8-10.4,6-15.2
		c2.2-4.7,4.7-9.1,7.4-13.1c2.7-4,5.6-7.5,8.5-10.6c5.9-6.2,12.2-10.3,17.7-12.9c2.8-1.3,5.3-2.2,7.6-2.9c0.6-0.2,1.1-0.3,1.6-0.5
		c0.5-0.1,1-0.3,1.5-0.4c1-0.2,1.8-0.4,2.7-0.6c1.6-0.3,2.8-0.5,3.6-0.6C256.6,25.2,257,25.1,257,25.1z"/>
</g>
<g id="XMLID_254_">
	<path id="XMLID_226_" class="st0" d="M259.9,24.3c-12.7,22.6-31.1,44.4-39.1,69c-8,24.6-10.8,56.2,2.2,77.4
		c10,16.3,16.3,34.6,23.4,52.4c19.9,49.9,7,110.9-31.4,148.8"/>
	<path id="XMLID_207_" class="st11" d="M259.9,24.3c0,0-0.7,1.3-2.1,3.7c-1.4,2.4-3.4,5.9-6.1,10.3c-2.8,4.4-6.1,9.7-9.9,15.7
		c-3.8,6.1-8,13-12.1,20.8c-4.1,7.8-7.7,16.6-10.1,26.4c-2.5,9.7-4.1,20.3-4.3,31.2c-0.1,5.5,0.3,11,1.3,16.5c0.9,5.5,2.5,11,5,16.1
		c0.3,0.6,0.6,1.3,0.9,1.9c0.3,0.6,0.7,1.3,1,1.9c0.7,1.2,1.5,2.5,2.2,3.7c1.5,2.6,2.9,5.2,4.3,7.8c2.7,5.3,5.2,10.7,7.4,16.1
		c2.3,5.5,4.4,11,6.5,16.5c1.1,2.7,2.1,5.5,3.2,8.2l0.8,2.1l0.8,2l0.8,2l0.7,2.1c3.7,11.2,5.7,22.6,6.5,33.7
		c0.4,5.6,0.4,11.1,0,16.4c-0.3,5.4-0.9,10.6-1.8,15.6c-0.9,5-1.9,9.9-3.2,14.5c-0.6,2.3-1.4,4.6-2,6.8c-0.4,1.1-0.8,2.2-1.1,3.2
		c-0.4,1.1-0.7,2.1-1.2,3.2c-3.2,8.3-6.9,15.6-10.6,21.8c-3.7,6.2-7.4,11.3-10.7,15.3c-3.3,4-6.1,7-8,8.9c-2,1.9-3,3-3,3
		s1-1.1,2.9-3.1c1-1,2-2.3,3.4-3.8c0.7-0.7,1.3-1.6,2-2.5c0.7-0.9,1.5-1.8,2.3-2.9c3.1-4.1,6.7-9.3,10.2-15.5
		c3.5-6.2,7-13.6,10-21.8c0.4-1,0.7-2.1,1.1-3.1c0.3-1.1,0.7-2.1,1.1-3.2c0.6-2.2,1.3-4.4,1.9-6.7c1.2-4.6,2.2-9.4,2.9-14.4
		c0.8-5,1.3-10.1,1.5-15.4c0.2-5.3,0.2-10.7-0.2-16.1c-0.8-10.9-2.8-22.1-6.5-33c-1.8-5.4-4.1-10.8-6.2-16.3
		c-2.1-5.5-4.3-10.9-6.5-16.4c-2.2-5.4-4.6-10.8-7.2-16c-1.3-2.6-2.7-5.1-4.1-7.6c-0.7-1.3-1.5-2.5-2.2-3.8c-0.4-0.6-0.7-1.3-1.1-2
		c-0.4-0.7-0.7-1.3-1-2c-2.5-5.4-4.1-11.1-5.1-16.8c-1-5.7-1.3-11.4-1.2-17c0.2-11.2,2.1-21.9,4.8-31.7c0.7-2.4,1.4-4.9,2.2-7.2
		c0.4-1.2,0.8-2.3,1.2-3.5c0.2-0.6,0.4-1.1,0.6-1.7c0.2-0.6,0.5-1.1,0.7-1.7c1.8-4.5,3.9-8.6,6-12.5c4.2-7.8,8.7-14.6,12.6-20.6
		c4-6,7.5-11.2,10.4-15.5c2.8-4.3,5-7.7,6.5-10.1C259.2,25.6,259.9,24.3,259.9,24.3z"/>
</g>
<g id="XMLID_250_">
	<path id="XMLID_193_" class="st0" d="M258.6,24.8c-10.8,24.4,5.7,38.5,19.3,49.9c13.7,11.4,29.4,20.1,42.6,32.1
		c26.3,23.9,40.7,60.8,37.7,96.7c16.8-30.7,11.5-72.3-12.4-97.6c-14.1-15-33.1-23.8-50.6-34.3c-17.5-10.5-29-24-36.1-43.4"/>
	<path id="XMLID_192_" class="st11" d="M258.6,24.8c-0.8,2.1-1.6,4.3-2.1,6.5c-0.5,2.2-0.9,4.5-0.9,6.7c-0.2,4.5,0.7,9,2.6,13.1
		c1.9,4.1,4.6,7.7,7.6,11c3.1,3.3,6.5,6.3,10,9.2c3.5,2.9,7.1,5.7,10.8,8.3c3.7,2.7,7.5,5.2,11.2,7.8c7.6,5.1,15.2,10.3,22.3,16.3
		l1.3,1.1l0.3,0.3l0.3,0.3l0.6,0.6c0.8,0.8,1.7,1.5,2.5,2.4c1.7,1.6,3.3,3.3,4.9,5c3.1,3.4,6.1,7.1,8.7,10.9
		c5.4,7.6,9.9,15.8,13.4,24.5c3.5,8.6,6,17.7,7.5,26.9c1.4,9.2,1.8,18.6,1.1,27.9l-4.7-1.4c4.3-7.9,7.2-16.6,8.5-25.6
		c1.4-9,1.3-18.1-0.2-27.1c-1.5-9-4.3-17.7-8.5-25.8c-2.1-4-4.5-7.9-7.3-11.5c-0.7-0.9-1.4-1.8-2.1-2.6l-2.2-2.5l-2.4-2.5l-2.5-2.3
		c-6.7-6.2-14.4-11.4-22.3-16.2c-3.9-2.4-8-4.8-12-7.2c-4-2.4-8-4.7-12-7.3c-3.9-2.5-7.8-5.4-11.3-8.5c-3.5-3.1-6.8-6.6-9.7-10.3
		c-2.9-3.7-5.4-7.7-7.6-11.9c-2.1-4.2-3.9-8.5-5.4-12.9c3.5,8.7,8.1,16.9,14.1,23.9c3,3.5,6.3,6.7,9.9,9.7c3.6,2.9,7.4,5.5,11.3,7.9
		c4,2.4,8.1,4.6,12.1,6.8c4.1,2.2,8.2,4.5,12.2,6.8c8.1,4.7,16.1,9.9,23.2,16.2l2.7,2.4l2.5,2.5c0.9,0.9,1.6,1.8,2.5,2.7
		c0.8,0.9,1.5,1.8,2.3,2.8c3,3.8,5.6,7.8,7.9,12c4.5,8.4,7.6,17.6,9.3,27.1c1.6,9.4,1.7,19.1,0.3,28.6c-1.4,9.5-4.4,18.8-9,27.2
		l-5.7,10.3l1-11.7c0.8-8.9,0.4-17.9-0.9-26.8c-1.4-8.9-3.7-17.6-7-25.9c-3.3-8.3-7.5-16.3-12.6-23.7c-2.5-3.7-5.3-7.2-8.2-10.6
		c-1.5-1.7-3-3.3-4.6-4.9c-0.8-0.8-1.6-1.6-2.4-2.4l-0.6-0.6l-0.3-0.3l-0.3-0.3l-1.3-1.1c-6.7-6-14.1-11.3-21.6-16.6
		c-3.7-2.7-7.4-5.4-11.1-8.1c-1.8-1.4-3.6-2.8-5.4-4.3c-1.7-1.5-3.5-3-5.2-4.5c-3.4-3-6.8-6.2-9.9-9.7c-3-3.5-5.7-7.4-7.4-11.7
		c-1.8-4.3-2.5-9-2.1-13.7c0.2-2.3,0.7-4.6,1.3-6.8C256.8,29,257.7,26.8,258.6,24.8z"/>
</g>
<path id="XMLID_244_" class="st0" d="M305.2,60.7c-2.9-1.8-5.9-3.6-7.7-6.5s-2.1-7.3,0.3-9.7c1.9-1.9,5.1-2,7.4-0.6
	c2.3,1.5,3.6,4.2,3.7,7c-0.1-2.8,2.1-5.4,4.7-5.8c2.6-0.5,5.3,0.9,6.9,3.2c1.5,2.1,2.1,5,1,7.3c-1.1,2.3-4.1,3.6-6.2,2.3
	c2.9,1,5.2,3.8,5.4,7c0.2,3.2-2.1,6.4-5.1,6.9c-3,0.5-6.2-2.3-6-5.5c-1.5,5.2-8.5,7.4-12.5,4c-4-3.5-3.2-11.2,1.4-13.7"/>
<path id="XMLID_240_" class="st0" d="M215.4,53.3c-1.8-1.3-3.8-2.6-4.9-4.7c-1.2-2.1-1.3-5.2,0.2-6.9c1.2-1.4,3.3-1.5,4.7-0.4
	c1.4,1,2.3,3,2.4,5c-0.1-2,1.4-3.8,3-4.2c1.7-0.3,3.4,0.7,4.4,2.3c0.9,1.5,1.3,3.6,0.6,5.2c-0.7,1.7-2.6,2.6-4,1.6
	c1.8,0.7,3.3,2.7,3.4,5c0.1,2.3-1.3,4.6-3.3,4.9s-3.9-1.6-3.8-3.9c-1,3.7-5.5,5.3-8,2.8c-2.5-2.5-2-8,0.9-9.8"/>
<path id="XMLID_237_" class="st0" d="M319.3,72.9c-1.8-1.3-3.8-2.6-4.9-4.7c-1.2-2.1-1.3-5.2,0.2-6.9c1.2-1.4,3.3-1.5,4.7-0.4
	s2.3,3,2.4,5c-0.1-2,1.4-3.8,3-4.2c1.7-0.3,3.4,0.7,4.4,2.3c0.9,1.5,1.3,3.6,0.6,5.2c-0.7,1.7-2.6,2.6-4,1.6c1.8,0.7,3.3,2.7,3.4,5
	c0.1,2.3-1.3,4.6-3.3,4.9c-1.9,0.3-3.9-1.6-3.8-3.9c-1,3.7-5.5,5.3-8,2.8s-2-8,0.9-9.8"/>
<g id="XMLID_231_">
	<path id="XMLID_148_" class="st0" d="M178.3,583.3c17.9-1.4,35.4-7.2,50.3-16.9"/>
	<path id="XMLID_147_" class="st13" d="M178.3,583.3c0,0,0.2-0.1,0.6-0.2c0.4-0.1,0.9-0.4,1.7-0.6c0.7-0.2,1.6-0.5,2.6-0.8
		c1-0.3,2.1-0.7,3.3-1c2.4-0.7,5.1-1.6,8.1-2.5c1.5-0.5,3-1,4.5-1.4c1.5-0.5,3.1-1,4.6-1.5c1.5-0.5,3.1-1.1,4.6-1.6
		c1.5-0.5,3-1.1,4.5-1.6c2.9-1,5.6-2,8-2.9c1.2-0.4,2.3-0.8,3.2-1.1c1-0.3,1.8-0.6,2.5-0.9c0.7-0.3,1.3-0.4,1.7-0.5
		c0.4-0.1,0.6-0.2,0.6-0.2s-0.1,0.2-0.4,0.5c-0.3,0.3-0.7,0.7-1.2,1.3c-0.5,0.5-1.2,1.2-2,1.8c-0.8,0.7-1.7,1.4-2.8,2.2
		c-1,0.8-2.2,1.6-3.4,2.4c-1.2,0.8-2.6,1.6-4,2.3c-1.4,0.7-2.9,1.5-4.5,2.1c-1.5,0.7-3.2,1.2-4.8,1.8c-1.6,0.5-3.3,1-4.9,1.4
		c-1.6,0.4-3.3,0.7-4.9,1c-1.6,0.2-3.1,0.5-4.6,0.6c-1.5,0.1-2.9,0.2-4.2,0.2c-1.3,0-2.5,0-3.5-0.1c-1.1-0.1-2-0.2-2.7-0.3
		c-0.7-0.1-1.3-0.2-1.7-0.3C178.5,583.4,178.3,583.3,178.3,583.3z"/>
</g>
<path id="XMLID_224_" class="st14" d="M300.5,564.7c0,0,103.8-37.6,77.6-124.5S336,267.7,336,267.7L300.5,564.7z"/>
<g id="XMLID_205_">
	<path id="XMLID_160_" class="st0" d="M259.9,24.3c-22.9,3.5-42.2,21.2-52,42.6s-11,46.2-7.4,69.6c3.5,23.4,11.5,45.8,19.4,68
		c14.7,41.1,29.4,82.3,44,123.4"/>
	<path id="XMLID_157_" class="st11" d="M259.9,24.3c0,0-1.3,0.3-3.8,0.8c-1.2,0.3-2.7,0.8-4.4,1.2c-0.9,0.3-1.8,0.7-2.7,1
		c-0.5,0.2-1,0.4-1.5,0.6c-0.5,0.2-1,0.5-1.6,0.7c-4.3,1.9-9.3,4.7-14.3,8.7c-0.6,0.5-1.3,1-1.9,1.6c-0.7,0.5-1.3,1.1-1.9,1.7
		c-0.6,0.6-1.3,1.2-1.9,1.8c-0.6,0.6-1.2,1.3-1.9,1.9c-0.3,0.3-0.6,0.7-1,1c-0.3,0.3-0.6,0.7-0.9,1c-0.6,0.7-1.2,1.4-1.9,2.1
		c-0.6,0.7-1.2,1.5-1.8,2.3c-0.6,0.8-1.2,1.5-1.8,2.4c-0.6,0.8-1.2,1.6-1.7,2.5c-0.5,0.9-1.1,1.7-1.6,2.6c-0.6,0.9-1.1,1.8-1.6,2.7
		c-0.5,0.9-1,1.8-1.5,2.8c-1.9,3.8-3.6,8-5.1,12.3c-1.5,4.3-2.6,8.9-3.5,13.6c-0.9,4.7-1.5,9.6-1.8,14.6c-0.6,10-0.2,20.3,1.4,30.7
		c1.5,10.4,3.9,20.8,6.9,31.1c2.9,10.3,6.4,20.4,9.9,30.3c3.5,9.9,7,19.7,10.3,29.2c6.7,18.9,12.8,36.7,18.2,51.8
		c5.3,15.2,9.6,27.8,12.7,36.7c3,8.9,4.8,13.9,4.8,13.9s-1.9-5-5.1-13.8c-3.2-8.8-7.9-21.4-13.4-36.5c-5.5-15.1-12-32.7-18.7-51.6
		c-3.4-9.5-6.9-19.2-10.5-29.2c-3.5-9.9-7-20.1-10-30.4c-3-10.3-5.4-20.9-6.8-31.3c-1.5-10.5-1.9-21-1.3-31.1
		c0.6-10.1,2.6-19.8,5.6-28.5c1.6-4.4,3.3-8.5,5.3-12.4c0.5-1,1.1-1.9,1.6-2.8c0.5-0.9,1.1-1.9,1.6-2.7c0.6-0.9,1.1-1.8,1.7-2.6
		c0.6-0.8,1.2-1.7,1.8-2.5c4.7-6.6,10.2-11.7,15.4-15.7c5.2-4,10.3-6.7,14.6-8.5c0.5-0.2,1.1-0.5,1.6-0.7c0.5-0.2,1-0.4,1.5-0.5
		c1-0.3,1.9-0.7,2.8-0.9c1.8-0.4,3.3-0.9,4.5-1.1C258.6,24.6,259.9,24.3,259.9,24.3z"/>
</g>
<path id="XMLID_204_" class="st0" d="M233.4,45.7c-3.3-1.9-6.6-4-8.7-7.2c-2.1-3.2-2.4-8,0.4-10.6c2.2-2.1,5.8-2.2,8.3-0.6
	c2.5,1.6,4,4.6,4.2,7.7c-0.1-3.1,2.4-5.9,5.3-6.4s6,1,7.8,3.5c1.7,2.3,2.3,5.5,1.1,8c-1.2,2.5-4.6,3.9-7,2.5
	c3.3,1.1,5.9,4.2,6.1,7.7c0.2,3.5-2.4,7-5.8,7.5s-7-2.5-6.8-6c-1.7,5.7-9.7,8.1-14.1,4.3c-4.5-3.8-3.6-12.2,1.5-15"/>
<path id="XMLID_72_" class="st15" d="M230.1,937.1l55.8-9.7l12,65l-60.4,8.3c-9.1,1.2-13.7-8.9-6.2-13.9l16.9-19.8"/>
<path id="XMLID_45_" class="st16" d="M277,974.5l4.1-44.1l21.8-17.1l8.6,58.7c-0.8,8.7-4.3,10.5-13.4,10.6
	C289.1,982.6,276.2,983.2,277,974.5z"/>
<path id="XMLID_44_" class="st16" d="M273.7,973.1l-4.2-41.6l-20.8-16.3l-7.8,55.3c0.8,8.2,4.2,9.9,12.7,10.1
	C262.3,980.7,274.5,981.3,273.7,973.1z"/>
<path id="XMLID_43_" class="st16" d="M142.8,582.8c2.8-11.3-1.8-23.7-2.1-24.3c-1.3-2.4-3.6-3.6-5.2-2.8c-1.6,0.9-1.9,3.5-0.7,5.9
	c0,0,0.2,0.6,0.4,1.6s0.5,2.3,0.7,3.8c0.4,3.1-1.6,7.5-2.5,11.2c-0.5,2.1,2.8,4.6,4.8,6C140.3,585.6,142.3,584.9,142.8,582.8z"/>
<path id="XMLID_86_" class="st16" d="M412.2,573.7c-2.8-11.3,1.8-23.7,2.1-24.3c1.3-2.4,3.6-3.6,5.2-2.8c1.6,0.9,1.9,3.5,0.7,5.9
	c0,0-0.2,0.6-0.4,1.6c-0.2,1-0.5,2.3-0.7,3.8c-0.4,3.1,1.6,7.5,2.5,11.2c0.5,2.1-2.8,4.6-4.8,6C414.8,576.4,412.7,575.8,412.2,573.7
	z"/>
<path id="XMLID_85_" class="st16" d="M401.8,563.8l-3.8-56.5l31.7-2.1l15.4,54.4c0.8,11.2-3.4,13.5-14.8,13.9
	C418.8,573.9,402.5,575,401.8,563.8z"/>
<path id="XMLID_26_" class="st16" d="M154.4,567.7l-3.6-59.8l-28.7-22.3L108,565.8c0.7,11.8,5.4,14.1,17.5,13.8
	C137.7,579.4,155.1,579.5,154.4,567.7z"/>
<path id="XMLID_13_" class="st16" d="M367.5,297.5c-0.1-1.5,0.7-0.6-0.5-1.4l-60.2-41.4h-4.6l-54.2-0.9c-1.9,0-2,2.4-4.2,3.1l0,0
	c-0.3,1.1-1,2-2,2.5L193,288.7c-11.4,6.8-18.3,19.7-17.9,33.6l1,33.9c0.1,2.4,1.9,4.3,4.2,4.4l61.3,2.5c2.3,0.1,4.2,2.1,4.2,4.6v6.3
	c-21.5,19.1,29.8,178.6,32.1,178.6l46.4-80.7c2.4,0-14.3-95.4-14.3-98v-6.5c0-2.4,1.7-4.4,4-4.6l55.1-4.8c2.4-0.2,4.2-2.5,3.9-5
	L367.5,297.5z"/>
<g id="XMLID_82_">
	<path id="XMLID_140_" class="st6" d="M252.7,735.6"/>
	<g id="XMLID_84_">
		<g id="XMLID_508_">
			<g id="XMLID_510_">
				<path id="XMLID_511_" class="st6" d="M350,503c-25.3,5.1-42.1,39.1-69.1,38.7c-27.1,0.4-55.8-31.5-81.1-36.6
					c0,0-24.3,96.2-12.4,139.9c11.9,43.7,29.7,78.6,28.9,101.8c-0.8,23.2,15.7,118.5,21.2,152.4c5.9,36.2,4.2,52.6,4.2,52.6
					s33.1,6.1,31.4-3.4c0,0-5.5-149.4-4.4-158.8c1-8.7,5-81.5,3.3-96.5c-1.7-15,1.6-94.5,2.4-95.8l0.4-3.1c3.3-1.2,6.2,1.3,6.2,1.3
					c0.8,1.4,5.2,75.1,3.5,90.1c-1.7,15,3.9,91.6,3.4,104.9c-0.3,9.5-8.5,155.8-8.5,155.8c-1.7,9.6,31.4,3.4,31.4,3.4
					s1.1-9.7,4.2-52.6c2.5-34.2,22.1-129.1,21.2-152.4c-0.8-23.2,17-58.1,28.9-101.8C377.2,599.1,350,503,350,503z"/>
			</g>
			<path id="XMLID_509_" class="st6" d="M237.9,566.1c0,0,12.1,23.5,35.6,27.9c0,0,6.4-1.1,8,1.3c1.7,2.4,31.1-12.5,34.2-19
				c0,0-29,12.8-34.8,11.3C265.9,583.5,245.6,575.7,237.9,566.1z"/>
		</g>
	</g>
</g>
<g id="XMLID_37_">
	<path id="XMLID_153_" class="st6" d="M248.5,36.3c-25.2,40.7-37.7,89.6-35,137.7c0.6,11.6,12.9,19.6,20.4,28.3
		c5.4,6.2,7.3,9.3,12.6,15.6c8,9.6,0.5,27.6,0.8,40.2c0.1,2.8-2-2.2-3.7,0c-2.4,3.1-1.1,11.8-5,11.7c-18.6-0.5-37.4,6.7-51,19.7
		c15.9-25.7,15.9-58.4,11.1-88.4s-14.1-59.4-15-89.8s8.4-63.4,32.9-80.7c5.3-3.8,11.6-6.8,18-6.3c6.5,0.5,12.9,5.4,13.5,12"/>
</g>
<path id="XMLID_14_" class="st17" d="M245.1,25.2c30.4-16.2,70.1-6.7,94.6,17.9c24.5,24.6,34.8,61.3,33,96.4
	c-2.7,52.2-31.4,102.4-74.7,130.3c-14.1-45.9-11.7-95.8-25.2-141.9c-10-34.1-28.6-66.5-28.3-102"/>
<path id="XMLID_42_" class="st16" d="M187.1,300.3c0.1-1.5,0.9-2.8,2.1-3.5l63.3-39.7l0,0l54.2-0.9c1.9,0,3.6,1.3,4.2,3.2v0
	c0.3,1.1,1,2,2,2.6l48.9,29.5c11.4,6.9,18.3,19.9,17.9,33.9l-1,34.3c-0.1,2.4-1.9,4.4-4.2,4.5l-61.3,2.5c-2.3,0.1-4.2,2.1-4.2,4.6
	v6.4c0,2.6-1.9,4.6-4.3,4.6h-55.6c-2.4,0-4.3-2.1-4.3-4.6v-6.6c0-2.4-1.7-4.4-4-4.6l-55.1-4.9c-2.4-0.2-4.2-2.5-3.9-5.1L187.1,300.3
	z"/>
<g id="XMLID_83_">
	<path id="XMLID_109_" class="st18" d="M360.7,267c0,0,45.7,361.4,36.7,367.9c-9,6.5-102.9,25.6-113-4.1
		c-10-29.7,29.6-376.2,21.1-377.9C328.5,257.7,361.9,267.7,360.7,267z"/>
	<path id="XMLID_108_" class="st18" d="M199.9,270.9c0,0-69.4,391.2-60.4,397.7c9,6.5,114,2.9,132.3-22.1
		c20.8-28.4-37.8-390.5-26.8-391.4C244.9,255.1,209.4,264.9,199.9,270.9z"/>
	<path id="XMLID_107_" class="st19" d="M186.5,265c0,0-23.8,4.6-31.4,47.6c-11,62.2-65,166.5-65,166.5s50.3,86.2,62.3,79.2
		C164.5,551.4,186.5,265,186.5,265z"/>
	<path id="XMLID_105_" class="st19" d="M354.6,264.2c0,0,23.8,4.6,31.4,47.6c11,62.2,70,158.1,70,158.1s-55.3,94.5-67.3,87.6
		C376.7,550.6,354.6,264.2,354.6,264.2z"/>
	<path id="XMLID_103_" class="st20" d="M365,281.2c0,0,57.7,391.9,48.7,398.4c-9,6.5-115.1-19.8-125.1-49.4
		c-9.2-27.1,41.2-316.3,41.5-366.2c0-4.6,1.2,0.2,0.2,0.1C330.4,264.2,355.4,275.2,365,281.2z"/>
	<path id="XMLID_81_" class="st19" d="M358.5,265.8c2.4,1,4.2,3.3,4.4,6.1c4.3,39.8,40.8,398,32.3,404.1c-9,6.5-105-13.1-115-42.7
		c-9.2-27.1,39.9-318,40.2-367.9c0,0,0-0.1,0-0.1c0-4.5,3.9-7.9,8.2-7.1C337.5,259.7,350.7,262.6,358.5,265.8z"/>
	<path id="XMLID_48_" class="st18" d="M187.8,283.5c0,0-47.7,348.5-38.7,355c9,6.5,105,23.7,115.1-6c9.2-27.1-41.2-316.3-41.5-366.2
		c0-4.6-1.2,0.2-0.2,0.1C222.4,266.5,197.3,277.5,187.8,283.5z"/>
	<path id="XMLID_47_" class="st19" d="M195.2,267.7c-3,1.2-5.1,4.1-5.5,7.4c-4.7,43.5-48.1,384.7-39.7,390.7
		c9,6.5,112.6-1.7,122.6-31.3c9.2-27.1-41.8-315.1-42.2-365c0,0,0-0.1,0-0.1c0-5.6-5-9.8-10.2-8.7
		C212.4,262.4,202.1,264.9,195.2,267.7z"/>
</g>
<g id="XMLID_187_">
	<g id="XMLID_188_">
		<g id="XMLID_189_">
			<g id="XMLID_190_">
				<path id="XMLID_191_" class="st21" d="M334.5,126"/>
			</g>
		</g>
	</g>
</g>
<g id="XMLID_186_">
	<path id="XMLID_228_" class="st21" d="M269.9,136.6c-2.9-3.9,0.8,0.8-4.3-5c-2.4-2.6-10.6-5.2-15-5.2c-3.6,0-8.6-0.2-12.9-1.3
		c4.2,5.7,11.7,9.5,17.9,10.7C261.7,137.1,263.7,137.1,269.9,136.6"/>
</g>
<path id="XMLID_185_" class="st21" d="M263.8,129.7c2.3,1.9-0.8,6.9-5.3,6.9s-11.1-2.1-11.1-6.1c0-3.1,1.6-5.1,5.9-4.2
	C259.1,127.4,261.9,128.1,263.8,129.7z"/>
<g id="XMLID_184_">
	<path id="XMLID_234_" class="st21" d="M310.6,137.4c2.9-3.9-0.8,0.8,4.3-5c2.4-2.6,10.6-5.2,15-5.2c3.6,0,8.6-0.2,12.9-1.3
		c-4.2,5.7-11.7,9.5-17.9,10.7C318.8,137.9,316.8,138,310.6,137.4"/>
</g>
<path id="XMLID_183_" class="st21" d="M319.6,130.5c-2.4,1.9,0.9,6.9,5.5,6.9c4.6,0,11.6-2.1,11.6-6.1c0-3.1-1.7-5.1-6.1-4.2
	C324.5,128.3,321.6,129,319.6,130.5z"/>
<ellipse id="XMLID_182_" class="st21" cx="325.5" cy="131.7" rx="1.5" ry="3.6"/>
<ellipse id="XMLID_181_" class="st21" cx="252.3" cy="129.5" rx="1.5" ry="3.7"/>
<g id="XMLID_539_" class="st1">
	<path id="XMLID_242_" class="st22" d="M271.7,509.4"/>
</g>
<g id="XMLID_24_" class="st1">
	<path id="XMLID_233_" class="st22" d="M243.7,294.8C250,354,263,448.3,269.3,507.5"/>
</g>
<path id="XMLID_180_" class="st21" d="M270.8,122.8c-6-5.3-12.8-8.9-19.9-10.6c-4.3-1-8.7-1.3-13-2.4c-4.3-1.1-8.6-3.1-11.9-7
	c10.7,1.1,21.4,2.2,32.2,3.4c3.5,0.4,7.1,0.8,10.1,3.3c3,2.5,4.9,7.7,3.3,11.9"/>
<path id="XMLID_179_" class="st21" d="M308.8,122c6-5.1,12.9-8.6,20.1-10.2c4.4-1,8.8-1.2,13.2-2.3c4.4-1,8.7-3,12-6.7
	c-10.8,1.1-21.7,2.2-32.5,3.2c-3.5,0.4-7.2,0.8-10.2,3.1c-3,2.4-4.9,7.4-3.4,11.4"/>
<path id="XMLID_178_" class="st21" d="M296.4,168c-1.6,2.4-5.1,4.1-8.6,4.2c-3.5,0.1-7-1.3-8.5-3.6"/>
<path id="XMLID_177_" class="st21" d="M256.6,187.3c3.5,1.2,54.5,5,57.9,4.4c-0.1,5.3-1.2,10.7-5.5,14.8c-4.3,4.1-12.6,6.6-20.4,4.7
	c-7.1-1.7-15.1-7.1-19.1-11.5C265.5,195.3,263.3,189.8,256.6,187.3"/>
<ellipse id="XMLID_176_" class="st21" cx="240.9" cy="134.2" rx="0.8" ry="0.6"/>
<path id="XMLID_175_" class="st21" d="M269.9,136.6c-3.6-6.1-10.4-10.3-17.5-10.7c-3-0.2-5.9,0.2-8.9,0.2c-3,0-6.1-0.6-8.4-2.4"/>
<path id="XMLID_174_" class="st21" d="M309.4,138.4c3.6-6.1,10.4-10.3,17.5-10.7c3-0.2,5.9,0.2,8.9,0.2c3,0,6.1-0.6,8.4-2.4"/>
<polyline id="XMLID_173_" class="st21" points="219.1,100.2 210.4,119.8 209.5,99.5 209.6,80.7 "/>
<path id="XMLID_172_" class="st21" d="M209.6,80.7l0.7,39.1L209.6,80.7z"/>
<polygon id="XMLID_171_" class="st21" points="222.2,84.9 210.3,119.8 209.6,80.7 "/>
<polyline id="XMLID_170_" class="st16" points="305.7,257 305,220.4 246.9,221.7 246.9,257 "/>
<polyline id="XMLID_169_" class="st23" points="306.2,254.7 246.9,237.9 246.9,221.7 306,218.5 306.2,254.7 "/>
<g id="XMLID_163_">
	<g id="XMLID_164_">
		<path id="XMLID_168_" class="st16" d="M355.3,124.3l-0.7-37.2C344.5,50,321.6,17.7,280,16.3c-41.7-1.4-81.3,29.9-82.7,70.8v31.7
			c-2.4,0.5-4.5,1.4-6.3,2.9c-3.4,2.6-5.5,6.6-5.7,11.1l-0.5,15.4c-0.3,8.1,8.2,10.2,16.5,10.6c23.2,40.5,40.7,69.3,72.7,74.5
			c28.9,4.7,56.1-37.2,75.6-72.7c8.3,0.2,15.9,2,16.2-6.2l0.5-15.4C366.5,132.1,361.8,126.1,355.3,124.3z"/>
		<g id="XMLID_165_">
			<g id="XMLID_166_">
				<path id="XMLID_167_" class="st24" d="M317.9,125.1"/>
			</g>
		</g>
	</g>
</g>
<g id="XMLID_159_" class="st1">
	<path id="XMLID_142_" class="st4" d="M283.3,167c0,0,0,0.1-0.1,0.2c-0.1,0.1-0.1,0.3-0.3,0.6c-0.3,0.5-0.7,1.2-1.5,1.8
		c-0.7,0.6-1.7,1.3-2.8,1.7c-1.1,0.5-2.4,0.8-3.7,0.8c-0.4,0-0.6,0-1,0c-0.3,0-0.7,0-1-0.1c-0.6-0.1-1.3-0.2-1.8-0.4
		c-0.6-0.2-1.1-0.4-1.6-0.7c-0.5-0.3-0.9-0.5-1.3-0.9c-0.8-0.6-1.3-1.3-1.6-1.7c-0.3-0.5-0.4-0.8-0.4-0.8c0,0,0.2,0.2,0.7,0.5
		c0.2,0.2,0.5,0.3,0.8,0.5c0.3,0.2,0.7,0.3,1.1,0.5c0.8,0.3,1.8,0.6,2.8,0.8c0.5,0.1,1.1,0.1,1.6,0.2c0.3,0,0.5,0,0.8,0
		c0.3,0,0.6,0,0.9,0c0.6,0,1.1-0.1,1.7-0.2c0.5-0.1,1.1-0.2,1.6-0.3c0.5-0.1,1-0.3,1.5-0.5c0.5-0.2,0.9-0.4,1.3-0.6
		c0.8-0.4,1.4-0.8,1.8-1.1c0.2-0.2,0.4-0.3,0.5-0.4C283.2,167.1,283.3,167,283.3,167z"/>
</g>
<ellipse id="XMLID_154_" class="st25" cx="227.7" cy="133.3" rx="0.8" ry="0.6"/>
<path id="XMLID_149_" class="st26" d="M196.5,79.7l0.7,39.1L196.5,79.7z"/>
<g id="XMLID_128_">
	<path id="XMLID_201_" class="st24" d="M297.9,138.2c6.2,8.8,20.7,10.4,28.2,7c7.5-3.4,10.3-9,13.7-18.2l0,0
		c-7.1-5-16.1-8.2-23.2-6.3C309.5,122.6,301.5,130.3,297.9,138.2L297.9,138.2z"/>
	<path id="XMLID_198_" class="st6" d="M297.9,138.2c1.4,1.8,3.1,3.3,5.1,4.4c1.9,1.1,4,2,6.2,2.5c2.2,0.6,4.4,0.9,6.6,1
		c2.2,0.1,4.4-0.1,6.6-0.6c1.1-0.2,2.1-0.6,3.1-1c0.4-0.2,1-0.5,1.5-0.7c0.5-0.3,0.9-0.5,1.4-0.8c0.9-0.6,1.8-1.2,2.6-2
		c0.8-0.7,1.5-1.6,2.2-2.4c0.6-0.9,1.3-1.8,1.8-2.7c0.6-0.9,1-1.9,1.5-3c0.9-2,1.7-4.1,2.5-6.2l0.4,1.2c-0.8-0.6-1.7-1.2-2.6-1.7
		c-0.9-0.5-1.8-1-2.7-1.5c-1.9-0.9-3.8-1.7-5.7-2.4c-1-0.3-2-0.6-3-0.8c-0.5-0.1-1-0.2-1.5-0.3l-1.5-0.2c-1-0.1-2-0.1-3,0.1
		c-0.5,0.1-1,0.1-1.5,0.2l-0.7,0.2l-0.7,0.2c-0.5,0.1-1,0.3-1.5,0.5c-0.5,0.2-0.9,0.4-1.4,0.6c-0.9,0.5-1.8,1-2.7,1.5
		c-0.9,0.6-1.7,1.2-2.6,1.8c-0.8,0.6-1.6,1.3-2.4,2c-0.4,0.4-0.8,0.7-1.1,1.1c-0.4,0.4-0.7,0.7-1.1,1.1c-0.7,0.8-1.4,1.6-2,2.4
		c-0.6,0.8-1.3,1.7-1.8,2.6l-0.8,1.4L297.9,138.2z M297.9,138.2l0.6-1.5l0.7-1.4c0.5-0.9,1.1-1.9,1.7-2.7c0.6-0.9,1.2-1.8,1.9-2.6
		c0.3-0.4,0.7-0.8,1-1.2c0.3-0.4,0.7-0.8,1.1-1.2c0.7-0.8,1.5-1.5,2.3-2.2c0.8-0.7,1.7-1.4,2.6-2c0.9-0.6,1.8-1.2,2.8-1.7
		c0.5-0.2,1-0.5,1.5-0.7c0.5-0.2,1-0.5,1.5-0.6c0.3-0.1,0.5-0.2,0.8-0.3l0.8-0.2c0.5-0.2,1.1-0.2,1.6-0.3c1.1-0.2,2.2-0.2,3.3-0.1
		l1.7,0.1c0.5,0.1,1.1,0.1,1.6,0.2c1.1,0.2,2.1,0.5,3.2,0.8c2.1,0.6,4.1,1.5,6.1,2.4c1,0.5,1.9,1,2.9,1.6c0.9,0.6,1.8,1.2,2.7,1.8
		l0.6,0.4l-0.3,0.7c-0.8,2.1-1.7,4.3-2.6,6.4c-0.5,1-1,2.1-1.6,3.1c-0.6,1-1.2,2-2,2.9c-0.7,0.9-1.5,1.8-2.4,2.6
		c-0.9,0.8-1.9,1.5-2.9,2.1c-0.5,0.3-1,0.6-1.6,0.9c-0.5,0.2-1,0.5-1.6,0.7c-1.1,0.5-2.3,0.8-3.4,1c-2.3,0.4-4.7,0.5-7,0.4
		c-2.3-0.2-4.6-0.6-6.8-1.3c-2.2-0.7-4.3-1.7-6.2-3C300.8,141.7,299.1,140.1,297.9,138.2z"/>
</g>
<path id="XMLID_136_" class="st27" d="M260.2,136.6c-7.8,11.4-24.9,14.4-33.5,10.6c-8.5-3.8-11.5-10.7-14.9-21.9l0,0
	c8.7-6.7,19.4-11.4,27.6-9.4C247.6,117.8,256.5,126.9,260.2,136.6L260.2,136.6z"/>
<path id="XMLID_127_" class="st28" d="M332.4,127.9c5.7,10.6-5.1,16.7-11.5,17.6s-19.2,1.1-18.2-11.1c0.8-10.1,9.4-12.4,15.3-12.9
	C325,121,329.7,122.9,332.4,127.9z"/>
<g id="XMLID_106_">
	<path id="XMLID_213_" class="st24" d="M259.2,138.2c-6.2,8.8-20.7,10.4-28.2,7c-7.5-3.4-10.3-9-13.7-18.2l0,0
		c7.1-5,16.1-8.2,23.2-6.3C247.6,122.6,255.6,130.3,259.2,138.2L259.2,138.2z"/>
	<path id="XMLID_195_" class="st6" d="M259.2,138.2c-1.2,1.9-2.9,3.6-4.8,4.9c-1.9,1.3-4,2.3-6.2,3c-2.2,0.7-4.5,1.2-6.8,1.3
		c-2.3,0.2-4.7,0.1-7-0.4c-1.2-0.2-2.3-0.5-3.4-1c-0.6-0.2-1.1-0.5-1.6-0.7c-0.5-0.3-1-0.6-1.6-0.9c-1-0.6-2-1.3-2.9-2.1
		c-0.9-0.8-1.7-1.7-2.4-2.6c-0.7-0.9-1.4-1.9-2-2.9c-0.6-1-1.1-2.1-1.6-3.1c-1-2.1-1.8-4.2-2.6-6.4l-0.3-0.7l0.6-0.4
		c0.9-0.6,1.8-1.2,2.7-1.8c0.9-0.6,1.9-1.1,2.9-1.6c1.9-1,4-1.8,6.1-2.4c1.1-0.3,2.1-0.6,3.2-0.8c0.5-0.1,1.1-0.2,1.6-0.2l1.7-0.1
		c1.1,0,2.2,0,3.3,0.1c0.6,0.1,1.1,0.1,1.6,0.3l0.8,0.2c0.3,0.1,0.5,0.2,0.8,0.3c0.5,0.2,1,0.4,1.5,0.6c0.5,0.2,1,0.5,1.5,0.7
		c1,0.5,1.9,1.1,2.8,1.7c0.9,0.6,1.7,1.3,2.6,2c0.8,0.7,1.6,1.4,2.3,2.2c0.4,0.4,0.7,0.8,1.1,1.2c0.4,0.4,0.7,0.8,1,1.2
		c0.7,0.8,1.3,1.7,1.9,2.6c0.6,0.9,1.1,1.8,1.7,2.7l0.7,1.4L259.2,138.2z M259.2,138.2l-0.8-1.4l-0.8-1.4c-0.6-0.9-1.2-1.8-1.8-2.6
		c-0.7-0.8-1.3-1.6-2-2.4c-0.3-0.4-0.7-0.8-1.1-1.1c-0.4-0.4-0.7-0.7-1.1-1.1c-0.8-0.7-1.6-1.4-2.4-2c-0.8-0.7-1.7-1.3-2.6-1.8
		c-0.9-0.6-1.8-1.1-2.7-1.5c-0.5-0.2-0.9-0.5-1.4-0.6c-0.5-0.2-0.9-0.4-1.5-0.5l-0.7-0.2l-0.7-0.2c-0.5-0.1-1-0.2-1.5-0.2
		c-1-0.1-2-0.1-3-0.1l-1.5,0.2c-0.5,0.1-1,0.2-1.5,0.3c-1,0.2-2,0.5-3,0.8c-2,0.6-3.9,1.4-5.7,2.4c-0.9,0.5-1.8,1-2.7,1.5
		c-0.9,0.5-1.8,1.1-2.6,1.7l0.4-1.2c0.8,2.1,1.6,4.2,2.5,6.2c0.5,1,1,2,1.5,3c0.5,1,1.2,1.9,1.8,2.7c0.7,0.9,1.4,1.7,2.2,2.4
		c0.8,0.8,1.7,1.4,2.6,2c0.5,0.3,0.9,0.6,1.4,0.8c0.5,0.2,1,0.6,1.5,0.7c1,0.4,2,0.8,3.1,1c2.1,0.5,4.4,0.7,6.6,0.6
		c2.2-0.1,4.4-0.4,6.6-1c2.2-0.6,4.3-1.4,6.2-2.5C256,141.4,257.8,140,259.2,138.2z"/>
</g>
<path id="XMLID_79_" class="st29" d="M226.1,127.8c-5.3,10.6,4.5,16.5,10.3,17.3c5.8,0.8,17.3,0.9,16.8-11.3
	c-0.5-11-8.5-12.2-13.9-12.6C232.9,120.8,228.6,122.7,226.1,127.8z"/>
<path id="XMLID_78_" class="st6" d="M230.5,131.7c-0.9,6.9,3.8,13.3,10.5,14.2c6.7,1,14.3-3.9,13.7-10.8c-0.6-6.5-4.2-12.6-11.4-15
	C237.7,118.2,231.4,124.8,230.5,131.7z"/>
<path id="XMLID_74_" class="st24" d="M229,127.2c-0.5,3.7,2,7.1,5.6,7.6c3.5,0.5,6.8-2.1,7.2-5.8c0.5-3.7-2-7.1-5.6-7.6
	C232.7,120.9,229.5,123.5,229,127.2z"/>
<path id="XMLID_70_" class="st24" d="M229.2,137.4c-0.1,1,0.5,1.8,1.3,2c0.9,0.1,1.6-0.6,1.8-1.5c0.1-1-0.5-1.8-1.3-2
	C230.1,135.7,229.3,136.4,229.2,137.4z"/>
<path id="XMLID_59_" class="st6" d="M302.6,132.6c-0.9,7.3,3.8,13.9,10.6,14.9c6.7,1,13-4.1,13.9-11.4s-3.8-13.9-10.6-14.9
	C309.7,120.3,303.5,125.4,302.6,132.6z"/>
<path id="XMLID_55_" class="st24" d="M313.3,128c-0.5,3.7,2,7.1,5.6,7.6s6.8-2.1,7.2-5.8c0.5-3.7-2-7.1-5.6-7.6
	C317,121.7,313.7,124.3,313.3,128z"/>
<path id="XMLID_34_" class="st24" d="M331.5,140.1c0.1,1.1-0.7,2.2-1.9,2.3c-1.2,0.2-2.3-0.6-2.5-1.7c-0.1-1.1,0.7-2.2,1.9-2.3
	C330.2,138.2,331.3,138.9,331.5,140.1z"/>
<g id="XMLID_33_">
	<g id="XMLID_129_">
		<path id="XMLID_132_" class="st8" d="M319.9,107.5c-2.6,1.3-5.3,2-8,2.4c-2.7,0.4-5.3,0.3-7.6,0.2c-1.1-0.1-2.2-0.1-3.1-0.2
			c-0.9-0.1-1.7-0.1-2.4-0.1c-0.7,0-1.2,0-1.5,0.1c-0.3,0-0.5,0.1-0.5,0.1s0.2-0.1,0.5-0.2c0.3-0.2,0.7-0.5,1.3-0.8
			c0.5-0.4,1.2-0.9,1.9-1.5c0.7-0.6,1.5-1.3,2.4-2c1.8-1.4,3.9-3,6.3-4.3c2.4-1.3,5.1-2.3,7.9-2.7c5.8-1,10.6-1.1,14.9-0.2
			c2.2,0.4,4.3,1.1,6.5,2.2c1.1,0.6,2.1,1.2,3.1,2.1c1,0.9,1.9,2,2.5,3.4c-0.6-1.4-1.6-2.5-2.7-3.1c-1.1-0.7-2.2-1.1-3.3-1.3
			c-2.2-0.5-4.2-0.3-6,0.2c-1.9,0.5-3.6,1.3-5.5,2.3C324.6,104.9,322.6,106.2,319.9,107.5z"/>
	</g>
</g>
<g id="XMLID_25_">
	<g id="XMLID_115_">
		<path id="XMLID_119_" class="st8" d="M238.2,100.8c3,0.6,5.9,1.5,8.5,2.6c2.7,1,5.1,2.2,7.2,3.2c2.1,1,3.8,1.9,5,2.5
			c1.2,0.6,1.9,0.8,1.9,0.8s-0.7-0.2-2.1-0.3c-1.3-0.2-3.3-0.3-5.6-0.6c-2.3-0.2-5-0.6-7.8-1.1c-2.8-0.6-5.7-1.3-8.6-2.4
			c-5.8-2.1-9.5-3.5-13.8-3.5c-2.1,0-4.3,0.1-6.6,0.6c-1.2,0.3-2.4,0.6-3.7,1.2c-1.2,0.6-2.6,1.4-3.2,2.9c0.6-1.5,2-2.4,3.1-3.1
			c1.2-0.7,2.4-1.1,3.6-1.6c2.3-0.8,4.5-1.4,6.6-1.8C227.2,99.2,232,99.5,238.2,100.8z"/>
	</g>
</g>
<ellipse id="XMLID_120_" class="st24" cx="196.8" cy="153.1" rx="2.2" ry="2.8"/>
<ellipse id="XMLID_123_" class="st24" cx="357.8" cy="155.9" rx="2.4" ry="2.8"/>
<g id="XMLID_124_">
	<path id="XMLID_111_" class="st9" d="M249.8,238.6c0,0,0.2,0.1,0.6,0.3c0.4,0.2,1,0.4,1.8,0.8c0.8,0.4,1.6,0.9,2.7,1.3
		c1,0.5,2.2,1,3.5,1.4c1.3,0.4,2.8,0.9,4.3,1.3c1.6,0.4,3.2,0.8,4.9,1.2c1.7,0.3,3.5,0.6,5.3,0.8c1.8,0.2,3.7,0.3,5.5,0.4
		c1.9,0,3.7,0,5.6-0.1c1.8-0.1,3.6-0.3,5.3-0.6c1.7-0.3,3.4-0.7,4.9-1.1c1.5-0.4,3-0.9,4.3-1.4c1.3-0.5,2.5-1,3.5-1.5
		c1-0.5,1.9-0.9,2.7-1.4c0.7-0.4,1.3-0.7,1.7-0.9c0.4-0.2,0.6-0.3,0.6-0.3s-0.2,0.1-0.5,0.4c-0.3,0.3-0.8,0.7-1.5,1.2
		c-0.7,0.5-1.5,1.1-2.5,1.7c-1,0.6-2.2,1.3-3.4,1.9c-1.3,0.6-2.7,1.2-4.3,1.8c-1.6,0.5-3.2,1-5,1.4c-1.8,0.4-3.6,0.7-5.5,0.9
		c-1.9,0.2-3.8,0.2-5.8,0.2c-1.9,0-3.9-0.2-5.7-0.4c-1.9-0.2-3.7-0.6-5.5-1c-1.8-0.4-3.4-0.9-5-1.4c-1.6-0.5-3-1.1-4.4-1.6
		c-1.3-0.6-2.5-1.2-3.5-1.8c-1-0.6-1.8-1.2-2.5-1.7C250.6,239.1,249.8,238.6,249.8,238.6z"/>
</g>
<g id="XMLID_134_">
	<path id="XMLID_131_" class="st30" d="M275.5,189.8c-2.5,0-5.8-6.8-14.9-0.9c-4.7,3.1-14.8,2.8-14.8,2.8s11.9,23.6,29.7,23.6
		s31.3-24,31.3-24s-9.7,0.8-17-3.1C279.8,183.1,278,189.8,275.5,189.8z"/>
	<path id="XMLID_130_" class="st31" d="M255.7,194.7c0,0,8,15.9,20,15.9c12,0,21.1-16.2,21.1-16.2L255.7,194.7z"/>
</g>
<path id="XMLID_125_" class="st32" d="M232.3,120c-2.6-0.8-5-2.4-6.7-4.5c1.4,1.6,2.8,3.3,4.3,4.9c-4.1-0.4-8.1-2.3-10.9-5.4
	c0.6,3.3,3.3,6.1,6.6,6.8c-3.2,0.5-6.5-0.6-8.8-2.9c1.6,1.4,3.1,2.7,4.7,4.1c-4.4-0.3-8.7-2-12.2-4.7c3.3,2.4,6.7,4.7,10,7.1
	c-3.5,1.5-7.8,1.1-10.9-1.2c1.3,2.7,4.6,4.2,7.4,3.5"/>
<g id="XMLID_17_">
	<path id="XMLID_113_" class="st6" d="M234.9,34c5.8,24,34.8,30.9,55.3,44.2s42.9,26.3,54.8,47.8c11.4,20.8,10.7,47.9-1.9,67.9
		c8.2,0.6,15.8-5.2,19.6-12.6s4.8-15.8,5.3-24.1c1.9-30.5,6.6-65.7-5.9-93.5S318.3,16.1,288.5,11c-17.1-2.9-53.9,7.3-61.7,23"/>
</g>
<g id="XMLID_7_">
	<path id="XMLID_101_" class="st11" d="M249.3,24.8c0,0,1.1,0.6,3.2,1.8c2.1,1.2,5.3,2.9,9.3,5c4,2.1,8.9,4.6,14.6,7.4
		c5.7,2.8,12.1,5.9,19,9.5c6.9,3.6,14.4,7.6,22,12.4c7.6,4.8,15.4,10.3,22.7,17c1.9,1.6,3.6,3.4,5.4,5.2c0.9,0.9,1.7,1.8,2.6,2.7
		l1.3,1.4l1.2,1.4c3.4,3.8,6.5,8,9.3,12.4c2.8,4.4,5.2,9.1,7.2,14c2.1,4.9,3.5,10,4.5,15.3c0.2,1.3,0.5,2.5,0.6,3.9l0.4,4
		c0.2,1.3,0.1,2.7,0.2,4l0.1,2c0,0.7,0,1.3-0.1,2c-0.1,5.3-0.9,10.5-1.9,15.7c-1,5.1-2.6,10.1-4.4,14.8c-1.8,4.8-4,9.3-6.3,13.7
		c-4.7,8.7-10.3,16.5-16.3,23.2c-6,6.8-12.1,12.7-18,17.8c-5.9,5.1-11.6,9.5-16.7,13.2c-5.1,3.8-9.7,6.9-13.4,9.5
		c-3.7,2.6-6.7,4.5-8.8,5.9c-2,1.3-3.1,2.1-3.1,2.1s4.2-3.1,11.4-8.6c3.6-2.7,8-6.1,13-10c4.9-4,10.4-8.5,16.1-13.8
		c5.7-5.2,11.6-11.3,17.3-18c1.4-1.7,2.8-3.5,4.2-5.3c1.3-1.8,2.7-3.6,4-5.6c2.6-3.8,5-7.9,7.3-12.1c2.2-4.3,4.2-8.7,5.9-13.3
		c0.5-1.1,0.8-2.3,1.2-3.5c0.4-1.2,0.8-2.4,1.1-3.6c0.3-1.2,0.7-2.4,1-3.6c0.3-1.2,0.5-2.4,0.8-3.7c1-4.9,1.7-9.9,1.7-15
		c0-0.6,0.1-1.3,0.1-1.9l-0.1-1.9c-0.1-1.3,0-2.5-0.2-3.8l-0.4-3.7c-0.1-1.3-0.4-2.6-0.6-3.8c-0.9-4.9-2.2-9.9-4.2-14.5
		c-1.9-4.7-4.1-9.2-6.8-13.4c-2.7-4.2-5.6-8.3-8.8-12l-1.2-1.4l-1.2-1.4c-0.8-0.9-1.6-1.8-2.5-2.7c-1.7-1.7-3.4-3.5-5.2-5.1
		c-7-6.6-14.5-12.2-21.9-17.1c-7.4-4.9-14.7-9.1-21.5-12.9c-6.8-3.7-13.1-7.2-18.6-10.2c-5.6-3.1-10.4-5.8-14.3-8.1
		c-3.9-2.3-7-4.2-9-5.5C250.4,25.5,249.3,24.8,249.3,24.8z"/>
</g>
<g id="XMLID_8_">
	<path id="XMLID_98_" class="st11" d="M253.9,20.4c0,0,1,0.1,3,0.3c1,0.1,2.2,0.2,3.6,0.4c1.4,0.1,3,0.4,4.8,0.8
		c0.9,0.2,1.9,0.4,2.9,0.6c1,0.2,2.1,0.4,3.1,0.7c2.1,0.6,4.5,1.2,6.9,1.9c2.4,0.8,5,1.8,7.7,2.7c2.7,1.1,5.4,2.3,8.3,3.6
		c5.6,2.8,11.7,6.1,17.6,10.4c0.7,0.5,1.5,1.1,2.2,1.6l1.1,0.8l1.1,0.9c1.5,1.2,2.9,2.4,4.4,3.6l1.1,0.9l1.1,1
		c0.7,0.7,1.4,1.3,2.1,2c1.4,1.3,2.9,2.6,4.3,4.1c1.4,1.4,2.8,2.9,4.1,4.4c1.3,1.5,2.6,3.1,3.9,4.7c0.7,0.8,1.3,1.6,2,2.4
		c0.6,0.8,1.2,1.7,1.8,2.5c0.6,0.8,1.2,1.7,1.8,2.5c0.6,0.9,1.2,1.7,1.8,2.6c1.1,1.8,2.2,3.6,3.3,5.4c0.6,0.9,1.1,1.8,1.6,2.8
		l1.5,2.8l1.5,2.8c0.5,1,0.9,1.9,1.3,2.9l1.3,2.9l0.6,1.5l0.3,0.7l0.3,0.8l2.1,5.9c0.2,0.5,0.4,1,0.5,1.5l0.4,1.6l0.9,3.1l0.9,3.1
		c0.3,1,0.4,2.1,0.7,3.1c0.4,2.1,0.9,4.1,1.2,6.2c0.3,2.1,0.6,4.1,0.9,6.2c0.3,2,0.4,4.1,0.5,6.2c0.4,4.1,0.3,8.1,0.3,12.1
		c0,2-0.2,4-0.3,5.9c-0.1,1-0.1,1.9-0.2,2.9c-0.1,1-0.2,1.9-0.3,2.9c-0.2,1.9-0.5,3.8-0.7,5.6c-0.3,1.8-0.7,3.6-1,5.4
		c-0.6,3.6-1.6,7-2.5,10.3c-0.1,0.4-0.2,0.8-0.3,1.2c-0.1,0.4-0.3,0.8-0.4,1.2c-0.3,0.8-0.5,1.6-0.8,2.4c-0.5,1.6-1,3.1-1.5,4.6
		c-1.2,2.9-2.3,5.8-3.5,8.4c-1.3,2.6-2.5,5-3.6,7.3c-1.3,2.2-2.5,4.3-3.6,6.2c-1.2,1.9-2.4,3.5-3.4,5.1c-0.5,0.8-1,1.5-1.5,2.1
		c-0.4,0.7-1,1.2-1.4,1.8c-0.9,1.1-1.7,2.1-2.3,2.8c-1.2,1.5-1.9,2.3-1.9,2.3s0.6-0.9,1.7-2.5c1.1-1.7,2.8-3.9,4.5-7.1
		c0.9-1.6,2-3.3,3-5.2c1-2,2-4.1,3.2-6.3c1-2.3,2-4.8,3.1-7.4c1-2.6,1.9-5.5,3-8.4c0.4-1.5,0.9-3,1.3-4.6c0.2-0.8,0.4-1.6,0.7-2.3
		c0.1-0.4,0.2-0.8,0.3-1.2c0.1-0.4,0.2-0.8,0.3-1.2c0.7-3.3,1.6-6.6,2-10.1c0.3-1.7,0.6-3.5,0.8-5.3c0.2-1.8,0.3-3.6,0.5-5.5
		c0.1-0.9,0.2-1.8,0.2-2.8c0-0.9,0.1-1.9,0.1-2.8c0.1-1.9,0.2-3.8,0.2-5.7c0-7.7-0.7-15.6-2-23.6c-0.4-2-0.8-4-1.2-5.9
		c-0.2-1-0.4-2-0.7-3l-0.8-2.9l-0.8-2.9l-0.4-1.5c-0.1-0.5-0.3-1-0.5-1.5l-2.1-5.9l-0.2-0.7l-0.3-0.7l-0.6-1.4l-1.2-2.8
		c-0.4-0.9-0.8-1.9-1.2-2.8l-1.4-2.7l-1.4-2.7c-0.5-0.9-0.9-1.8-1.5-2.7c-1.1-1.7-2.1-3.5-3.2-5.2c-1.1-1.7-2.3-3.3-3.4-5
		c-0.6-0.8-1.1-1.6-1.7-2.5c-0.6-0.8-1.2-1.6-1.8-2.3c-1.2-1.5-2.4-3.1-3.7-4.6c-1.3-1.4-2.6-2.9-3.9-4.3c-1.3-1.5-2.7-2.7-4-4.1
		c-0.7-0.7-1.4-1.3-2-2l-1-1l-1.1-0.9c-1.4-1.2-2.8-2.4-4.2-3.6l-1-0.9l-1.1-0.8c-0.7-0.5-1.4-1.1-2.1-1.6
		c-5.6-4.3-11.3-7.8-16.7-10.9c-2.7-1.4-5.4-2.7-8-4c-2.6-1.1-5.1-2.1-7.4-3.1c-2.4-0.8-4.6-1.6-6.7-2.3c-1-0.4-2-0.6-3-0.9
		c-1-0.3-1.9-0.5-2.8-0.8c-3.5-1-6.3-1.5-8.3-1.9C255,20.6,253.9,20.4,253.9,20.4z"/>
</g>
<g id="XMLID_18_">
	<path id="XMLID_96_" class="st11" d="M232.6,31.1c0,0-0.9,1.3-2.7,3.8c-0.9,1.2-2,2.7-3.2,4.5c-1.3,1.7-2.7,3.9-4.2,6.3
		c-0.8,1.2-1.6,2.4-2.4,3.7c-0.4,0.7-0.8,1.3-1.3,2c-0.2,0.3-0.4,0.7-0.7,1c-0.2,0.4-0.4,0.7-0.6,1.1c-1.6,3-3.4,6.2-5.3,9.6
		c-1.8,3.5-3.5,7.3-5.5,11.2c-1.8,4-3.5,8.3-5.4,12.7c-0.8,2.3-1.6,4.6-2.5,6.9c-0.4,1.2-0.8,2.4-1.3,3.6c-0.2,0.6-0.4,1.2-0.6,1.8
		c-0.2,0.6-0.4,1.2-0.5,1.9c-1.4,5-3.1,10.1-4.3,15.5c-0.6,2.7-1.3,5.4-1.9,8.2c-0.5,2.8-1,5.6-1.5,8.4c-0.2,1.4-0.6,2.8-0.7,4.3
		c-0.2,1.4-0.4,2.9-0.6,4.4c-0.2,1.5-0.4,2.9-0.6,4.4c-0.2,1.5-0.4,3-0.5,4.5c-0.2,3-0.4,6-0.6,9.1l-0.2,2.3c0,0.8,0,1.5-0.1,2.3
		c0,1.5,0,3.1-0.1,4.6c-0.3,6.2,0.2,12.4,0.4,18.7c1,12.6,2.8,25.2,5.9,37.7c3,12.5,7.1,24.6,11.3,36.5c4.3,11.9,8.7,23.6,12.4,35.1
		c3.8,11.5,6.9,22.9,8.8,33.8c1.8,11,2.4,21.6,2,31.3c-0.4,9.7-2,18.6-4.3,26.1c-2.3,7.6-5.3,13.8-8.1,18.7
		c-1.5,2.4-2.8,4.6-4.2,6.3c-1.3,1.7-2.4,3.3-3.5,4.3c-2,2.2-3.1,3.4-3.1,3.4s1-1.2,3-3.5c1-1.1,2.1-2.7,3.3-4.4
		c1.3-1.7,2.5-3.9,4-6.3c2.7-4.9,5.5-11.2,7.5-18.7c2.1-7.5,3.4-16.3,3.7-25.9c0.3-9.6-0.5-20-2.4-30.8c-1.1-5.4-2.3-10.9-3.9-16.5
		c-0.7-2.8-1.6-5.6-2.4-8.4c-0.9-2.8-1.8-5.7-2.7-8.5c-3.8-11.4-8.3-23.1-12.6-35c-2.2-6-4.3-12-6.3-18.1c-1-3.1-1.9-6.1-2.8-9.3
		c-0.5-1.6-0.9-3.1-1.3-4.7c-0.4-1.6-0.9-3.1-1.2-4.7c-3-12.6-4.8-25.5-5.8-38.2c-0.2-6.4-0.6-12.7-0.3-18.9c0-1.6,0.1-3.1,0.1-4.7
		c0-0.8,0-1.6,0.1-2.3l0.2-2.3c0.2-3.1,0.5-6.1,0.7-9.2c0.1-1.5,0.4-3,0.5-4.5c0.2-1.5,0.4-3,0.6-4.5c0.2-1.5,0.4-2.9,0.6-4.4
		c0.2-1.5,0.5-2.9,0.8-4.3c0.6-2.9,1.1-5.7,1.7-8.5c0.6-2.8,1.4-5.5,2-8.2c1.2-5.4,3-10.5,4.5-15.5c0.2-0.6,0.4-1.2,0.6-1.9
		c0.2-0.6,0.4-1.2,0.7-1.8c0.4-1.2,0.9-2.4,1.3-3.6c0.9-2.4,1.8-4.7,2.6-6.9c1-2.2,1.9-4.4,2.9-6.5c1-2.1,1.8-4.2,2.8-6.2
		c2-3.9,3.9-7.7,5.8-11.1c2-3.4,3.9-6.6,5.6-9.5c0.2-0.4,0.4-0.7,0.6-1.1c0.2-0.3,0.5-0.7,0.7-1c0.5-0.7,0.9-1.3,1.3-2
		c0.9-1.3,1.7-2.5,2.5-3.7c0.8-1.2,1.5-2.3,2.2-3.3c0.7-1.1,1.5-1.9,2.1-2.8c1.3-1.7,2.5-3.2,3.4-4.4
		C231.6,32.3,232.6,31.1,232.6,31.1z"/>
</g>
<g id="XMLID_30_">
	<path id="XMLID_94_" class="st6" d="M245.7,23.3c-17.5-1.3-41.2,2-54.5,13.7c-35.6,31.3-42.9,88-40,135.9s20.9,93.4,40.3,137.1
		s40.7,87.1,51.2,133.8c0-54.5-8.5-109-25-160.8c-9.9-31.1-22.6-61.2-31-92.7s-12.3-65.2-4.1-96.8c8.1-31.6,30-60.8,60.3-70.9"/>
	<path id="XMLID_80_" class="st11" d="M245.7,23.3c-10.2-0.6-20.5,0.2-30.4,2.7c-9.9,2.4-19.5,6.7-26.5,14.1
		c-7.2,7.1-13.3,15.4-18.1,24.4c-4.8,9-8.4,18.5-11.1,28.3c-2.7,9.8-4.6,19.8-5.7,29.9c-1.2,10.1-1.7,20.3-1.6,30.5
		c0.1,10.2,0.5,20.4,1.7,30.5c1.1,10.1,3,20.1,5.2,30c2.3,9.9,5.1,19.7,8.3,29.4c3.1,9.7,6.6,19.3,10.4,28.7
		c7.5,19,15.9,37.6,24.4,56.2c8.4,18.6,16.9,37.4,24.4,56.5c3.8,9.6,7.3,19.2,10.4,29c3.1,9.8,5.9,19.7,8.2,29.8l-4.9,0.5
		c-0.1-9.5-0.2-18.9-0.8-28.4c-0.5-9.4-1.2-18.9-2.3-28.3c-0.5-4.7-1.1-9.4-1.7-14.1c-0.7-4.7-1.3-9.4-2.1-14
		c-1.5-9.3-3.3-18.6-5.2-27.9c-2-9.3-4.3-18.4-6.7-27.6l-1.9-6.8l-1-3.4l-1-3.4l-2.1-6.8l-2.2-6.8c-5.9-18-12.6-35.8-18.6-53.9
		c-3-9-5.9-18.1-8.4-27.3c-2.5-9.2-4.7-18.5-6.3-27.9c-1.6-9.4-2.7-18.9-3.1-28.5c-0.3-9.6-0.1-19.2,1.3-28.7
		c1.3-9.5,3.5-18.8,6.9-27.8c3.4-9,7.8-17.5,13.3-25.4c5.5-7.8,12-15,19.5-20.9c7.5-5.9,16-10.5,25-13.5c-9,3.1-17.3,8-24.6,14
		c-7.3,6-13.6,13.2-18.9,21c-5.2,7.9-9.5,16.4-12.6,25.3c-3.2,8.9-5.2,18.2-6.3,27.5c-1.1,9.4-1.4,18.8-0.9,28.2
		c0.5,9.4,1.7,18.8,3.4,28.1c1.7,9.3,3.9,18.5,6.6,27.6c2.6,9.1,5.5,18.1,8.7,27.1c3.1,9,6.4,17.9,9.6,26.8
		c3.3,8.9,6.5,17.9,9.5,26.9l2.2,6.8l2.1,6.8l1.1,3.4l1,3.4l2,6.9c2.5,9.2,4.9,18.5,6.9,27.8c2,9.3,3.9,18.7,5.4,28.1
		c0.8,4.7,1.4,9.4,2.1,14.2c0.6,4.7,1.3,9.5,1.7,14.2c1.1,9.5,1.8,19,2.3,28.5c0.6,9.5,0.8,19.1,0.8,28.6l0.2,22.6l-5.1-22.1
		c-4.6-19.8-10.9-39.2-18.3-58.1c-7.4-19-15.8-37.6-24.2-56.3c-8.3-18.7-16.7-37.4-24.1-56.6c-3.7-9.6-7.2-19.3-10.3-29.1
		c-3.1-9.8-5.8-19.7-8-29.8c-2.2-10.1-3.9-20.2-5-30.5c-1.1-10.3-1.4-20.5-1.4-30.8c0.1-10.3,0.7-20.6,2-30.8
		c1.3-10.2,3.3-20.4,6.2-30.2c2.9-9.9,6.8-19.5,11.8-28.5c5-9,11.3-17.3,18.8-24.4l2.8-2.6c1-0.9,2-1.7,3.1-2.4
		c2.1-1.5,4.4-2.8,6.7-3.9c4.7-2.2,9.6-3.8,14.6-5C225.2,23,235.5,22.5,245.7,23.3z"/>
</g>
<path id="XMLID_39_" class="st18" d="M271.6,567.3c0,0-97.2-33.6-75.8-120.4s33.4-172,33.4-172L271.6,567.3z"/>
<g id="XMLID_28_">
	<path id="XMLID_76_" class="st6" d="M251.9,40.1c-13.4,27.8-17,35.7-37.7,57.4c-18.1,18.9-15.3,48-12.2,73.6
		c3.9,33,14.1,64.8,21.7,97.1s12.6,66.1,5.9,98.6c-6.7,32.5-27,63.6-57.4,75.3c7.7-2.3,13.4-8.7,18-15.4
		c20.6-30.2,24-69.7,18.8-106.2s-18-71.3-27.1-106.9c-9.2-35.6-14.8-86.1-5.3-121.6c9.5-35.5,32.4-61.1,68.1-66.2"/>
	<path id="XMLID_75_" class="st11" d="M251.9,40.1c-4,8.4-7.8,16.8-12.3,24.9c-2.2,4.1-4.7,8-7.3,11.8c-2.7,3.8-5.6,7.4-8.6,10.9
		c-3,3.5-6.2,6.9-9.3,10.3c-3.1,3.5-5.7,7.2-7.7,11.3c-1.9,4.2-3.4,8.5-4.4,13c-0.9,4.5-1.5,9.1-1.6,13.7
		c-0.4,9.2,0.3,18.4,1.3,27.6c0.5,4.6,1.1,9.2,1.7,13.7c0.7,4.5,1.4,9.1,2.3,13.6c3.5,18.1,8.3,36,13,53.9
		c4.7,17.9,9.3,35.9,12.1,54.3c2.8,18.3,3.9,37.1,1.8,55.7c-0.3,2.3-0.6,4.6-1,6.9l-0.6,3.4l-0.3,1.7c-0.1,0.6-0.3,1.1-0.4,1.7
		c-0.5,2.3-1,4.5-1.7,6.8l-1,3.4c-0.3,1.1-0.7,2.2-1.1,3.3c-3,8.9-7,17.4-12,25.3c-5,7.9-11.1,15.2-18.2,21.4
		c-7.1,6.2-15.2,11.3-24,14.7l-1-2.8c2.2-0.7,4.2-1.7,6.1-3c1.9-1.3,3.7-2.9,5.3-4.6c1.6-1.7,3.1-3.6,4.5-5.5c0.4-0.5,0.7-1,1-1.5
		c0.3-0.4,0.6-1,1-1.5l2-3.1c5-8.2,9-17.1,11.8-26.3c2.8-9.2,4.6-18.8,5.5-28.4c0.9-9.6,1-19.4,0.4-29c-0.6-9.7-1.9-19.3-3.6-28.9
		c-1.8-9.6-4-19-6.4-28.5c-4.9-18.9-10.8-37.5-15.9-56.4c-2.6-9.4-4.9-19-6.7-28.6c-1.8-9.6-3.3-19.3-4.3-29.1
		c-1-9.7-1.6-19.5-1.6-29.3c0-9.8,0.5-19.6,1.9-29.3c1.4-9.7,3.8-19.3,7.4-28.4c3.6-9.1,8.4-17.8,14.6-25.5c3-3.9,6.5-7.3,10.2-10.6
		c0.9-0.8,1.9-1.5,2.9-2.3c1-0.7,1.9-1.6,2.9-2.2c2.1-1.3,4-2.8,6.2-3.9c8.6-4.8,18-7.8,27.7-9.1c-9.7,1.5-19.1,4.6-27.5,9.5
		c-2.2,1.1-4.1,2.6-6.1,3.9c-1,0.6-1.9,1.5-2.9,2.2c-0.9,0.8-1.9,1.5-2.8,2.3c-3.6,3.3-7,6.7-10,10.6c-6,7.6-10.7,16.3-14.1,25.4
		c-0.8,2.3-1.7,4.5-2.4,6.9l-1,3.5l-0.5,1.8c-0.2,0.6-0.3,1.2-0.4,1.8c-1.2,4.7-2,9.5-2.7,14.3c-1.3,9.6-1.8,19.4-1.7,29.1
		c0.1,9.7,0.8,19.5,1.8,29.1c1.1,9.7,2.6,19.3,4.5,28.9c1.9,9.5,4.3,19,6.9,28.4c5.3,18.8,11.2,37.4,16.1,56.3
		c5,18.9,9,38.2,10.3,57.9c0.6,9.8,0.6,19.7-0.4,29.5c-0.9,9.8-2.7,19.6-5.5,29c-2.8,9.5-6.8,18.6-12,27.1l-2,3.1
		c-0.3,0.5-0.6,1-1,1.6c-0.4,0.5-0.7,1-1.1,1.5c-1.5,2-3,4-4.8,5.8c-1.7,1.8-3.7,3.5-5.8,5c-2.1,1.4-4.5,2.6-7,3.4l-1-2.8
		c8.5-3.3,16.3-8.2,23.1-14.1c6.8-6,12.8-13,17.7-20.7c4.9-7.7,8.8-16,11.8-24.7c0.4-1.1,0.8-2.2,1.1-3.2l0.9-3.3
		c0.7-2.2,1.1-4.5,1.7-6.7c0.1-0.5,0.3-1.2,0.4-1.7l0.3-1.7l0.6-3.4c0.4-2.3,0.7-4.5,1-6.8c2.2-18.2,1.1-36.8-1.6-55
		c-1.4-9.1-3.2-18.2-5.2-27.2c-2-9-4.3-18-6.5-26.9c-4.6-17.9-9.3-35.9-12.6-54.1c-0.8-4.6-1.6-9.1-2.2-13.7
		c-0.6-4.6-1.2-9.2-1.6-13.8c-1-9.2-1.6-18.5-1.1-27.8c0.2-4.7,0.9-9.3,1.8-13.9c1.1-4.6,2.6-9,4.6-13.2c2.2-4.1,4.9-8.1,8-11.4
		c3.2-3.4,6.4-6.7,9.4-10.2c3-3.5,6-7,8.7-10.8c2.7-3.7,5.2-7.6,7.5-11.7C243.8,56.7,247.8,48.4,251.9,40.1z"/>
</g>
<g id="XMLID_20_">
	<path id="XMLID_69_" class="st11" d="M243.5,25.5c0,0-0.2,0.2-0.6,0.7c-0.4,0.5-1,1.2-1.8,2.1c-1.5,1.9-3.6,4.7-6,8.5
		c-2.4,3.8-5.1,8.6-7.6,14.3c-2.6,5.7-5,12.3-7.2,19.7c-2.1,7.4-3.9,15.5-5.4,24.2c-1.4,8.7-2.3,18-2.9,27.6
		c-0.5,9.6-0.5,19.5-0.2,29.6c0.2,5,0.5,10.1,0.9,15.2c0.4,5.1,1,10.2,1.7,15.3c1.2,10.3,2,20.6,3.1,30.7c0.6,5,1.2,10,1.9,14.9
		c0.8,4.9,1.7,9.7,2.7,14.4c1,4.7,2.2,9.3,3.3,13.8c1.1,4.6,2,9.1,2.8,13.5c1.6,8.8,2.5,17.3,2.7,25.1c0.3,7.8-0.1,15-1,21.3
		c-0.8,6.3-2.1,11.7-3.4,16c-1.3,4.4-2.7,7.7-3.7,9.9c-0.5,1.1-0.9,1.9-1.2,2.5c-0.3,0.6-0.4,0.9-0.4,0.9s0.1-0.3,0.3-0.9
		c0.2-0.6,0.6-1.4,1-2.6c0.8-2.3,1.9-5.7,3-10c1-4.4,2-9.8,2.5-16c0.5-6.2,0.6-13.3,0-20.9c-0.6-7.7-1.8-15.9-3.5-24.5
		c-0.9-4.3-1.9-8.7-3.1-13.2c-1.2-4.5-2.5-9.1-3.6-13.9c-2.2-9.5-4-19.5-5.1-29.7c-1.2-10.2-2.1-20.4-3.3-30.7
		c-1.3-10.3-2.2-20.7-2.5-30.9c-0.4-10.2-0.1-20.3,0.6-30.1c0.7-9.7,1.9-19.1,3.6-27.9c0.8-4.4,1.8-8.7,2.8-12.7
		c1.1-4.1,2.2-8,3.5-11.7c2.5-7.4,5.3-14,8.2-19.7c2.9-5.7,5.9-10.3,8.5-14c2.7-3.7,5-6.4,6.7-8.2c0.8-0.9,1.5-1.6,1.9-2
		C243.3,25.8,243.5,25.5,243.5,25.5z"/>
</g>
<g id="XMLID_6_">
	<path id="XMLID_67_" class="st11" d="M215.9,414.6c0,0,0.4-1.6,1.3-4.5c0.4-1.5,1-3.2,1.5-5.4c0.5-2.1,1.1-4.6,1.8-7.3
		c0.6-2.8,1.3-5.8,2-9.2c0.3-1.7,0.6-3.4,0.9-5.2c0.2-0.9,0.3-1.8,0.5-2.8c0.1-0.9,0.3-1.9,0.4-2.9c0.3-1.9,0.6-4,0.9-6
		c0.2-2.1,0.5-4.2,0.7-6.4c0.3-2.2,0.4-4.5,0.6-6.8c0.2-2.3,0.4-4.7,0.5-7.1c0.6-9.7,0.7-20.2,0-31.3c-0.6-11.1-2-22.8-4.3-34.7
		c-2.3-11.9-5.5-24-9.3-36.2c-3.8-12.1-8.2-24.3-12.4-36.6c-4.2-12.3-8.2-24.6-11.5-36.9c-3.2-12.3-5.6-24.7-6.8-36.8
		c-0.6-6.1-0.8-12-0.8-17.9c0.1-5.9,0.6-11.6,1.3-17.1c0.5-2.7,0.8-5.5,1.5-8.1c0.3-1.3,0.5-2.6,0.9-3.9c0.4-1.3,0.7-2.6,1.1-3.8
		c1.5-5,3.3-9.8,5.3-14.2c4.1-8.8,9-16.4,14.2-22.3c5.2-6,10.5-10.5,15.2-13.6c1.1-0.9,2.3-1.5,3.4-2.2c0.5-0.3,1.1-0.6,1.6-0.9
		c0.3-0.2,0.5-0.3,0.7-0.4c0.3-0.1,0.5-0.3,0.8-0.4c1-0.5,1.9-0.9,2.7-1.4c0.8-0.4,1.6-0.8,2.3-1.1c2.8-1.1,4.3-1.7,4.3-1.7
		s-1.5,0.6-4.3,1.8c-0.7,0.3-1.5,0.7-2.3,1.1c-0.8,0.4-1.7,0.9-2.7,1.4c-0.2,0.1-0.5,0.3-0.7,0.4c-0.2,0.1-0.5,0.3-0.7,0.5
		c-0.5,0.3-1,0.6-1.6,1c-1.1,0.7-2.3,1.3-3.4,2.2c-4.7,3.2-9.9,7.7-15,13.7c-5.1,6-10,13.5-14,22.3c-2.1,4.4-3.8,9.1-5.3,14.1
		c-0.3,1.3-0.7,2.5-1,3.8c-0.4,1.3-0.6,2.6-0.9,3.9c-0.6,2.6-1,5.3-1.4,8.1c-0.7,5.5-1.1,11.2-1.2,17c0,5.8,0.2,11.8,0.8,17.8
		c1.2,12.1,3.6,24.4,6.9,36.7c3.3,12.3,7.3,24.6,11.5,36.8c4.2,12.2,8.5,24.5,12.3,36.6c3.8,12.2,7,24.3,9.2,36.3
		c2.2,11.9,3.6,23.6,4.2,34.8c0.6,11.1,0.5,21.7-0.1,31.4c-0.1,2.4-0.3,4.8-0.5,7.1c-0.2,2.3-0.4,4.6-0.7,6.8
		c-0.3,2.2-0.5,4.3-0.8,6.4c-0.3,2.1-0.6,4.1-0.9,6c-0.2,1-0.3,1.9-0.5,2.9c-0.2,0.9-0.4,1.9-0.5,2.8c-0.3,1.8-0.7,3.6-1,5.2
		c-0.7,3.3-1.4,6.4-2,9.2c-0.7,2.7-1.4,5.2-1.9,7.3c-0.5,2.1-1.1,3.9-1.5,5.4C216.4,413,215.9,414.6,215.9,414.6z"/>
</g>
<g id="XMLID_22_">
	<path id="XMLID_64_" class="st11" d="M243.5,25.5c0,0-0.4,0.1-1.2,0.2c-0.8,0.2-2,0.4-3.6,0.8c-3.1,0.8-7.7,2.2-13,5
		c-5.3,2.8-11.2,7.1-16.8,13.3c-5.5,6.2-10.6,14.2-14.7,23.5c-4.1,9.4-7.1,20.1-9.5,31.6c-2.3,11.5-3.8,23.8-3.6,36.6
		c0.2,12.7,2.4,25.8,6.6,38.4c4.4,12.7,9.7,25.4,14.8,38.2c5.1,12.8,10.1,25.8,14,38.9c1.9,6.6,3.6,13.2,4.8,19.8
		c1.3,6.6,2.2,13.2,2.9,19.7c1.3,13,1.4,25.6,0.7,37.5c-0.6,11.9-2.1,23.1-3.8,33.3c-1.7,10.2-3.8,19.5-5.9,27.7
		c-2.1,8.2-4.1,15.2-5.9,21c-1.8,5.8-3.3,10.3-4.3,13.3c-1.1,3.1-1.6,4.7-1.6,4.7s0.5-1.7,1.4-4.8c0.9-3.1,2.1-7.7,3.6-13.5
		c1.5-5.8,3.2-12.9,5-21.1c1.8-8.2,3.5-17.5,4.9-27.7c1.4-10.2,2.5-21.3,2.9-33.1c0.4-11.8,0.1-24.2-1.4-36.9
		c-0.7-6.4-1.7-12.8-3.1-19.2c-1.3-6.5-3-12.9-4.9-19.3c-3.9-12.9-8.8-25.7-14-38.4c-5.1-12.8-10.3-25.6-14.8-38.5
		c-4.4-13.1-6.4-26.8-6.5-39.9c-0.1-13.1,1.7-25.7,4.3-37.4c1.3-5.8,2.8-11.4,4.5-16.8c1.7-5.4,3.8-10.4,6-15.2
		c2.2-4.7,4.7-9.1,7.4-13.1c2.7-4,5.6-7.5,8.5-10.6c5.9-6.2,12.2-10.3,17.7-12.9c2.8-1.3,5.3-2.2,7.6-2.9c0.6-0.2,1.1-0.3,1.6-0.5
		c0.5-0.1,1-0.3,1.5-0.4c1-0.2,1.8-0.4,2.7-0.6c1.6-0.3,2.8-0.5,3.6-0.6C243.1,25.6,243.5,25.5,243.5,25.5z"/>
</g>
<g id="XMLID_21_">
	<path id="XMLID_62_" class="st11" d="M238.3,24.7c0,0-0.7,1.3-2,3.7c-1.3,2.4-3.2,6-5.8,10.4c-2.6,4.4-5.9,9.8-9.6,15.9
		c-3.7,6.1-7.8,13-11.7,20.8c-1.9,3.9-3.8,8-5.4,12.4c-0.4,1.1-0.8,2.2-1.2,3.3c-0.4,1.1-0.7,2.2-1.1,3.3c-0.7,2.4-1.2,4.5-1.6,7
		c-1.5,9.6-1.1,20.1,0,30.9c1.2,10.7,3.3,21.8,6.5,32.7c1.6,5.4,3.5,10.8,5.7,16c1.1,2.6,2.4,5.1,3.8,7.4l2.3,3.8
		c0.8,1.4,1.5,2.7,2.2,4.1c0.7,1.4,1.3,2.9,1.9,4.4c0.5,1.5,1,3.2,1.2,4.7c0.3,1.5,0.5,3,0.7,4.3c0.2,1.4,0.5,2.7,0.9,4
		c0.7,2.6,1.6,5.3,2.6,7.9c0.5,1.4,1,2.8,1.5,4.1c0.5,1.3,1,2.8,1.4,4.2c3.7,11.3,5.6,22.9,6.1,34.1c0.3,5.6,0.3,11.1-0.2,16.5
		c-0.4,5.4-1,10.6-2,15.7c-1.8,10.1-4.6,19.4-8,27.7c-3.3,8.3-7.1,15.5-11,21.6c-3.8,6.1-7.7,11.1-11,15c-3.3,3.9-6.2,6.8-8.2,8.7
		c-2,1.9-3.1,2.9-3.1,2.9s1-1.1,2.8-3.1c0.9-1,2-2.4,3.2-3.9c0.6-0.8,1.3-1.6,2-2.5c0.7-0.9,1.5-1.8,2.2-2.9c3-4.1,6.4-9.3,9.8-15.5
		c3.4-6.2,6.7-13.5,9.6-21.7c0.8-2,1.3-4.2,2-6.3c0.6-2.2,1.3-4.4,1.8-6.6c1.1-4.5,2.1-9.3,2.8-14.1c0.7-4.9,1.2-10,1.4-15.1
		c0.1-2.6,0.1-5.2,0.1-7.8c-0.1-2.6-0.1-5.3-0.4-8c-0.4-5.4-1.1-10.8-2.1-16.2c-1.1-5.4-2.5-10.8-4.2-16.1c-0.5-1.3-0.8-2.6-1.4-4
		c-0.5-1.3-1-2.7-1.5-4c-1.1-2.8-2.1-5.7-2.9-8.7c-0.8-3-1.3-6.2-1.7-8.9c-0.2-1.3-0.5-2.5-0.9-3.8c-0.4-1.2-0.9-2.4-1.5-3.7
		c-0.6-1.2-1.2-2.4-1.9-3.6l-2.2-3.8c-1.6-2.7-2.9-5.4-4.1-8.2c-2.4-5.5-4.2-11.2-5.8-16.9c-3.1-11.3-5.1-22.7-6.1-33.8
		c-1-11.1-1-22,0.8-32.3c0.5-2.5,1.2-5.3,1.9-7.5c0.4-1.2,0.9-2.4,1.3-3.6c0.4-1.2,0.9-2.3,1.4-3.4c1.9-4.5,4-8.6,6.2-12.5
		c4.3-7.8,8.9-14.5,13-20.4c4.1-5.9,7.7-10.9,10.6-15.2c1.5-2.1,2.7-4,3.9-5.6c1.1-1.7,2.1-3.1,2.8-4.2
		C237.5,26,238.3,24.7,238.3,24.7z"/>
</g>
<g id="XMLID_3_">
	<path id="XMLID_58_" class="st6" d="M245.1,25.2c-10.8,24.4,5.7,38.5,19.3,49.9c13.7,11.4,29.4,20.1,42.6,32.1
		c26.3,23.9,40.7,60.8,37.7,96.7c16.8-30.7,11.5-72.3-12.4-97.6c-14.1-15-33.1-23.8-50.6-34.3s-29-24-36.1-43.4"/>
	<path id="XMLID_57_" class="st11" d="M245.1,25.2c-0.9,2.1-1.6,4.3-2.2,6.5c-0.5,2.2-0.9,4.5-1,6.7c-0.2,4.5,0.6,9.1,2.5,13.2
		c1.8,4.1,4.5,7.8,7.6,11.1c3.1,3.3,6.5,6.3,10,9.2c3.5,2.9,7.1,5.7,10.8,8.4c3.7,2.7,7.5,5.2,11.2,7.8c7.6,5.1,15.2,10.3,22.2,16.4
		l1.3,1.1l0.3,0.3l0.3,0.3l0.6,0.6c0.8,0.8,1.7,1.5,2.5,2.4c1.7,1.6,3.3,3.3,4.8,5c3.1,3.4,6,7.1,8.7,10.8
		c5.3,7.6,9.8,15.8,13.3,24.4c3.5,8.6,6,17.6,7.4,26.8c1.4,9.2,1.8,18.5,1.1,27.8l-3.7-1.1c4.3-8,7.2-16.8,8.6-25.8
		c1.4-9,1.3-18.2-0.2-27.3c-1.5-9-4.3-17.8-8.6-25.9c-2.1-4-4.6-7.9-7.4-11.5c-0.7-0.9-1.4-1.8-2.2-2.7l-2.2-2.5l-2.4-2.5l-2.5-2.3
		c-6.8-6.2-14.5-11.4-22.4-16.2c-4-2.4-8-4.8-12-7.1c-4-2.4-8.1-4.7-12-7.2c-4-2.5-7.8-5.4-11.3-8.5c-3.5-3.1-6.8-6.5-9.7-10.2
		c-2.9-3.7-5.4-7.7-7.6-11.8c-2.2-4.2-4-8.5-5.5-12.9c3.4,8.7,8,16.9,14,24c3,3.5,6.3,6.8,9.9,9.7c3.6,2.9,7.4,5.5,11.3,7.9
		c4,2.4,8.1,4.6,12.1,6.9c4.1,2.3,8.2,4.5,12.2,6.9c8.1,4.7,16,9.9,23.1,16.2l2.6,2.4l2.5,2.5l2.4,2.7c0.8,0.9,1.5,1.8,2.3,2.8
		c3,3.7,5.6,7.8,7.8,12c4.5,8.4,7.6,17.5,9.2,26.9c1.6,9.4,1.7,19,0.3,28.5c-1.4,9.4-4.4,18.7-9,27.1l-4.5,8.2l0.8-9.4
		c0.8-8.9,0.4-18-0.9-26.9c-1.4-8.9-3.7-17.6-7-26c-3.3-8.4-7.5-16.4-12.7-23.8c-2.6-3.7-5.3-7.3-8.3-10.7c-1.5-1.7-3-3.3-4.6-4.9
		c-0.8-0.8-1.6-1.6-2.4-2.4l-0.6-0.6l-0.3-0.3l-0.3-0.3l-1.3-1.1c-6.8-6-14.2-11.3-21.6-16.6c-3.7-2.7-7.4-5.3-11.1-8.1
		c-1.8-1.4-3.6-2.8-5.4-4.3c-1.7-1.5-3.5-3-5.2-4.5c-3.4-3-6.8-6.2-9.9-9.7c-3-3.5-5.7-7.4-7.5-11.7c-1.8-4.3-2.6-9-2.2-13.6
		c0.2-2.3,0.6-4.6,1.3-6.8C243.4,29.4,244.2,27.3,245.1,25.2z"/>
</g>
<g id="XMLID_87_">
	<path id="XMLID_54_" class="st33" d="M177.8,55.3c0,0,3.2-0.4,8.7-1.2c1.4-0.2,2.9-0.4,4.6-0.6c1.7-0.1,3.5-0.3,5.5-0.5
		c2-0.2,4-0.3,6.2-0.5c2.2-0.1,4.5-0.2,6.9-0.3c1.2-0.1,2.4-0.1,3.7-0.2c0.6,0,1.3-0.1,1.9-0.1c0.6,0,1.3,0,1.9,0c2.6,0,5.3,0,8.1,0
		c2.8,0,5.6,0.1,8.5,0.2c2.9,0.1,5.9,0.2,8.9,0.4c6,0.5,12.3,0.8,18.6,1.7c6.3,0.7,12.7,1.8,19,2.8c3.2,0.6,6.3,1.3,9.5,1.9
		c1.6,0.3,3.2,0.6,4.7,1c1.6,0.4,3.1,0.8,4.6,1.1c3.1,0.8,6.2,1.4,9.1,2.4c3,0.9,5.9,1.8,8.8,2.6c1.5,0.4,2.9,0.9,4.3,1.4
		c1.4,0.5,2.8,1,4.2,1.5c2.7,1,5.4,1.9,8,3c2.6,1.1,5.1,2.1,7.5,3.1c0.6,0.3,1.2,0.5,1.8,0.7c0.6,0.3,1.2,0.5,1.7,0.8
		c1.1,0.5,2.3,1.1,3.3,1.6c2.2,1,4.3,2,6.3,3c1.9,1.1,3.8,2.1,5.5,3c1.7,0.9,3.3,1.8,4.8,2.7c1.5,0.8,2.8,1.7,4,2.4
		c4.7,3,7.4,4.8,7.4,4.8S373,92.6,368,90c-1.3-0.6-2.6-1.4-4.1-2.1c-1.5-0.7-3.2-1.5-5-2.3c-1.8-0.8-3.6-1.7-5.6-2.6
		c-2-0.8-4.1-1.7-6.4-2.6c-4.4-1.9-9.3-3.6-14.4-5.5c-2.6-1-5.3-1.8-8-2.7c-2.8-0.8-5.5-1.8-8.4-2.6c-2.9-0.8-5.8-1.6-8.8-2.4
		c-0.7-0.2-1.5-0.4-2.2-0.6c-0.8-0.2-1.5-0.3-2.3-0.5c-1.5-0.4-3-0.7-4.6-1.1c-1.5-0.4-3.1-0.7-4.6-1.1c-1.5-0.4-3.1-0.6-4.7-1
		c-3.1-0.6-6.2-1.2-9.4-1.8c-6.3-1-12.6-2.2-18.8-2.9c-1.6-0.2-3.1-0.4-4.7-0.6c-0.8-0.1-1.5-0.2-2.3-0.3c-0.8-0.1-1.5-0.2-2.3-0.2
		c-3.1-0.3-6.1-0.6-9.1-0.9c-3-0.3-5.9-0.4-8.8-0.6c-2.9-0.2-5.7-0.4-8.4-0.5c-5.5-0.2-10.7-0.5-15.5-0.4c-2.4,0-4.7,0-6.9-0.1
		c-2.2,0-4.3,0.1-6.2,0.1c-3.9,0.1-7.3,0.1-10.1,0.3C181,55.2,177.8,55.3,177.8,55.3z"/>
</g>
<path id="XMLID_89_" class="st18" d="M291.7,61.1c-2.9-1.8-5.9-3.6-7.7-6.5s-2.1-7.3,0.3-9.7c1.9-1.9,5.1-2,7.4-0.6
	c2.3,1.5,3.6,4.2,3.7,7c-0.1-2.8,2.1-5.4,4.7-5.8c2.6-0.5,5.3,0.9,6.9,3.2c1.5,2.1,2.1,5,1,7.3c-1.1,2.3-4.1,3.6-6.2,2.3
	c2.9,1,5.2,3.8,5.4,7c0.2,3.2-2.1,6.4-5.1,6.9c-3,0.5-6.2-2.3-6-5.5c-1.5,5.2-8.5,7.4-12.5,4S280.5,59.5,285,57"/>
<path id="XMLID_90_" class="st34" d="M355.8,86c-2-1.3-4.1-2.6-5.4-4.7c-1.3-2.1-1.5-5.2,0.2-6.9c1.4-1.4,3.6-1.5,5.2-0.4
	c1.6,1,2.5,3,2.6,5c-0.1-2,1.5-3.8,3.3-4.2s3.8,0.7,4.9,2.3c1,1.5,1.4,3.6,0.7,5.2c-0.8,1.7-2.9,2.6-4.4,1.6c2,0.7,3.7,2.7,3.8,5
	s-1.5,4.6-3.6,4.9c-2.1,0.3-4.3-1.6-4.2-3.9c-1.1,3.7-6,5.3-8.8,2.8c-2.8-2.5-2.2-8,1-9.8"/>
<path id="XMLID_88_" class="st35" d="M201.9,53.7c-1.8-1.3-3.8-2.6-4.9-4.7c-1.2-2.1-1.3-5.2,0.2-6.9c1.2-1.4,3.3-1.5,4.7-0.4
	c1.4,1,2.3,3,2.4,5c-0.1-2,1.4-3.8,3-4.2c1.7-0.3,3.4,0.7,4.4,2.3c0.9,1.5,1.3,3.6,0.6,5.2c-0.7,1.7-2.6,2.6-4,1.6
	c1.8,0.7,3.3,2.7,3.4,5c0.1,2.3-1.3,4.6-3.3,4.9s-3.9-1.6-3.8-3.9c-1,3.7-5.5,5.3-8,2.8c-2.5-2.5-2-8,0.9-9.8"/>
<path id="XMLID_92_" class="st35" d="M305.8,73.4c-1.8-1.3-3.8-2.6-4.9-4.7c-1.2-2.1-1.3-5.2,0.2-6.9c1.2-1.4,3.3-1.5,4.7-0.4
	c1.4,1,2.3,3,2.4,5c-0.1-2,1.4-3.8,3-4.2c1.7-0.3,3.4,0.7,4.4,2.3c0.9,1.5,1.3,3.6,0.6,5.2c-0.7,1.7-2.6,2.6-4,1.6
	c1.8,0.7,3.3,2.7,3.4,5c0.1,2.3-1.3,4.6-3.3,4.9c-1.9,0.3-3.9-1.6-3.8-3.9c-1,3.7-5.5,5.3-8,2.8s-2-8,0.9-9.8"/>
<path id="XMLID_93_" class="st18" d="M368.4,92.9c-1.9-1.1-3.9-2.2-5.2-4c-1.2-1.8-1.4-4.5,0.2-6c1.3-1.2,3.4-1.3,4.9-0.4
	c1.5,0.9,2.4,2.6,2.5,4.3c-0.1-1.7,1.4-3.3,3.2-3.6c1.7-0.3,3.6,0.6,4.6,2c1,1.3,1.4,3.1,0.6,4.5s-2.7,2.2-4.1,1.4
	c1.9,0.6,3.5,2.4,3.6,4.3c0.1,2-1.4,4-3.4,4.3c-2,0.3-4.1-1.4-4-3.4c-1,3.2-5.7,4.6-8.4,2.5c-2.7-2.1-2.1-6.9,0.9-8.5"/>
<g id="XMLID_102_">
	<path id="XMLID_52_" class="st18" d="M168.1,583.8c0,0,0.2-0.1,0.6-0.2c0.4-0.1,0.9-0.4,1.6-0.6c0.7-0.2,1.5-0.5,2.4-0.8
		c0.9-0.3,2-0.7,3.1-1c2.3-0.7,4.9-1.6,7.7-2.5c1.4-0.5,2.8-1,4.3-1.4c1.5-0.5,2.9-1,4.4-1.5c1.5-0.5,2.9-1.1,4.4-1.6
		c1.5-0.5,2.9-1.1,4.3-1.6c2.8-1,5.4-2,7.6-2.9c1.1-0.4,2.2-0.8,3.1-1.1c0.9-0.3,1.8-0.6,2.4-0.9c0.7-0.3,1.2-0.4,1.6-0.5
		c0.4-0.1,0.6-0.2,0.6-0.2s-0.1,0.2-0.4,0.5c-0.3,0.3-0.6,0.7-1.1,1.3c-0.5,0.5-1.1,1.2-1.9,1.8c-0.7,0.7-1.6,1.4-2.6,2.2
		c-1,0.8-2.1,1.6-3.3,2.3c-1.2,0.8-2.5,1.5-3.8,2.3c-1.4,0.7-2.8,1.5-4.3,2.1c-1.5,0.7-3,1.3-4.6,1.8c-1.6,0.5-3.1,1-4.7,1.4
		c-1.6,0.4-3.2,0.7-4.7,1c-1.5,0.2-3,0.5-4.4,0.6c-1.4,0.1-2.8,0.2-4,0.2c-1.2,0-2.4,0-3.4-0.1c-1-0.1-1.9-0.2-2.6-0.3
		c-0.7-0.1-1.3-0.2-1.7-0.3C168.3,583.8,168.1,583.8,168.1,583.8z"/>
</g>
<g id="XMLID_138_">
	<path id="XMLID_41_" class="st18" d="M339.1,567c0,0,0.2,0.1,0.6,0.3c0.4,0.2,0.9,0.5,1.6,0.9c0.7,0.4,1.5,0.8,2.4,1.3
		c0.9,0.5,1.9,1.1,3.1,1.7c1.1,0.6,2.3,1.2,3.6,1.9c1.3,0.7,2.7,1.3,4.1,2c1.4,0.6,2.9,1.3,4.4,1.9c1.5,0.7,3,1.2,4.6,1.8
		c1.6,0.5,3.1,1.1,4.7,1.6c0.8,0.2,1.5,0.5,2.3,0.7c0.8,0.2,1.5,0.4,2.3,0.7c0.7,0.2,1.5,0.4,2.2,0.6c0.7,0.2,1.4,0.4,2.1,0.6
		c1.4,0.3,2.7,0.7,4,1c0.6,0.1,1.2,0.3,1.8,0.4c0.6,0.1,1.1,0.2,1.6,0.3c1,0.2,1.9,0.4,2.7,0.6c0.8,0.1,1.3,0.3,1.8,0.4
		c0.4,0.1,0.6,0.2,0.6,0.2s-0.2,0.1-0.6,0.2c-0.4,0.1-1,0.3-1.7,0.5c-0.8,0.2-1.7,0.4-2.8,0.6c-0.5,0.1-1.1,0.2-1.7,0.3
		c-0.6,0.1-1.2,0.1-1.9,0.1c-0.7,0-1.4,0.1-2.1,0.1c-0.7,0-1.5,0-2.2,0c-1.5,0-3.2-0.2-4.8-0.4c-1.7-0.3-3.4-0.6-5.1-1
		c-1.7-0.4-3.4-1-5.1-1.6c-1.7-0.7-3.3-1.3-4.9-2.2c-1.6-0.8-3.1-1.7-4.5-2.5c-0.7-0.5-1.4-0.9-2-1.4c-0.7-0.5-1.3-0.9-1.9-1.4
		c-0.6-0.5-1.2-1-1.7-1.4c-0.5-0.5-1-1-1.5-1.4c-0.5-0.5-0.9-0.9-1.4-1.4c-0.4-0.5-0.8-0.9-1.2-1.3c-0.7-0.8-1.3-1.6-1.7-2.2
		c-0.5-0.6-0.8-1.1-1-1.5C339.3,567.2,339.1,567,339.1,567z"/>
</g>
<path id="XMLID_31_" class="st36" d="M285,565.2c0,0,99.3-37.6,74.2-124.5c-25-86.9-40.3-172.6-40.3-172.6L285,565.2z"/>
<g id="XMLID_19_">
	<path id="XMLID_38_" class="st6" d="M246.5,24.8c0,0-1.3,0.3-3.8,0.8c-1.2,0.3-2.7,0.8-4.4,1.2c-0.9,0.3-1.8,0.7-2.7,1
		c-0.5,0.2-1,0.4-1.5,0.6c-0.5,0.2-1,0.5-1.6,0.7c-4.3,1.9-9.3,4.7-14.3,8.7c-0.6,0.5-1.3,1-1.9,1.6c-0.7,0.5-1.3,1.1-1.9,1.7
		c-0.6,0.6-1.3,1.2-1.9,1.8c-0.6,0.6-1.2,1.3-1.9,1.9c-0.3,0.3-0.6,0.7-1,1c-0.3,0.3-0.6,0.7-0.9,1c-0.6,0.7-1.2,1.4-1.9,2.1
		c-0.6,0.7-1.2,1.5-1.8,2.3c-0.6,0.8-1.2,1.5-1.8,2.4c-0.6,0.8-1.2,1.6-1.7,2.5c-0.5,0.9-1.1,1.7-1.6,2.6c-0.6,0.9-1.1,1.8-1.6,2.7
		c-0.5,0.9-1,1.8-1.5,2.8c-1.9,3.8-3.6,8-5.1,12.3c-1.5,4.3-2.6,8.9-3.5,13.6c-0.9,4.7-1.5,9.6-1.8,14.6c-0.6,10-0.2,20.3,1.4,30.7
		c1.5,10.4,3.9,20.8,6.9,31.1c2.9,10.3,6.4,20.4,9.9,30.3c3.5,9.9,7,19.7,10.3,29.2c6.7,18.9,12.8,36.7,18.2,51.8
		c5.3,15.2,9.6,27.8,12.7,36.7c3,8.9,4.8,13.9,4.8,13.9s-1.9-5-5.1-13.8c-3.2-8.8-7.9-21.4-13.4-36.5c-5.5-15.1-12-32.7-18.7-51.6
		c-3.4-9.5-6.9-19.2-10.5-29.2c-3.5-9.9-7-20.1-10-30.4c-3-10.3-5.4-20.9-6.8-31.3c-1.5-10.5-1.9-21-1.3-31.1
		c0.6-10.1,2.6-19.8,5.6-28.5c1.6-4.4,3.3-8.5,5.3-12.4c0.5-1,1.1-1.9,1.6-2.8c0.5-0.9,1.1-1.9,1.6-2.7c0.6-0.9,1.1-1.8,1.7-2.6
		c0.6-0.8,1.2-1.7,1.8-2.5c4.7-6.6,10.2-11.7,15.4-15.7c5.2-4,10.3-6.7,14.6-8.5c0.5-0.2,1.1-0.5,1.6-0.7c0.5-0.2,1-0.4,1.5-0.5
		c1-0.3,1.9-0.7,2.8-0.9c1.8-0.4,3.3-0.9,4.5-1.1C245.1,25,246.5,24.8,246.5,24.8z"/>
</g>
<path id="XMLID_91_" class="st34" d="M219.9,46.1c-3.3-1.9-6.6-4-8.7-7.2c-2.1-3.2-2.4-8,0.4-10.6c2.2-2.1,5.8-2.2,8.3-0.6
	c2.5,1.6,4,4.6,4.2,7.7c-0.1-3.1,2.4-5.9,5.3-6.4s6,1,7.8,3.5c1.7,2.3,2.3,5.5,1.1,8c-1.2,2.5-4.6,3.9-7,2.5
	c3.3,1.1,5.9,4.2,6.1,7.7c0.2,3.5-2.4,7-5.8,7.5s-7-2.5-6.8-6c-1.7,5.7-9.7,8.1-14.1,4.3c-4.5-3.8-3.6-12.2,1.5-15"/>
<g id="XMLID_71_">
	<path id="XMLID_143_" class="st34" d="M337.7,937l-45.2-6.7c-3.7-0.5-7.1,1.7-7.6,5.1l-7.9,49.4c-0.6,3.5,2.2,6.8,6,7.3l54.1,5.9
		c6.9,0.8,10.2-7.5,4.5-11.3l-22.5-20.4"/>
	<path id="XMLID_135_" class="st18" d="M337.7,937c-7.8-0.7-15.6-1.5-23.4-2.4c-3.9-0.4-7.8-0.9-11.7-1.3l-5.8-0.7l-2.9-0.3
		c-0.9-0.1-2.1-0.3-2.6-0.2c-1.5,0.1-2.9,0.8-3.7,1.9c-0.4,0.5-0.7,1.2-0.7,1.8l-0.4,2.9c-0.5,3.9-1.1,7.7-1.7,11.6l-1.7,11.6
		l-1.8,11.6l-1.8,11.6l0,0.1l0,0c0,0.1,0-0.1,0-0.1l0,0.2l0,0.4c0,0.2,0,0.2,0,0.3c0,0.3,0.1,0.6,0.2,0.8c0.2,0.5,0.5,1.1,0.9,1.5
		c0.4,0.4,1,0.8,1.6,1c0.6,0.2,1.1,0.3,2.2,0.4l11.7,1.3c3.9,0.4,7.8,0.9,11.7,1.4l11.7,1.4c3.9,0.5,7.8,1,11.6,1.5l5.8,0.8l0.4,0
		l0.1,0l0,0c0.1,0-0.1,0,0,0l0.2,0c0.3,0,0.5,0,0.6,0c0.3,0,0.7,0,1.1-0.1c0.7-0.1,1.4-0.4,2-0.8c1.2-0.8,1.9-2.3,1.9-3.7
		c0-1.5-0.8-2.9-2.2-3.8l-0.1-0.1l0,0l-5.4-5.3l-5.4-5.3l-5.4-5.4l-5.3-5.4l5.9,4.8l5.9,4.9l5.8,4.9l5.8,4.9l-0.2-0.1
		c1,0.6,1.9,1.4,2.5,2.4c0.7,1,1.1,2.2,1.2,3.4c0.2,2.5-0.9,5-2.8,6.5c-1,0.8-2.1,1.3-3.3,1.6c-0.6,0.1-1.2,0.2-1.8,0.2
		c-0.4,0-0.6,0-0.8,0l-0.2,0l-0.3,0l-0.4,0l-5.8-0.5c-3.9-0.4-7.8-0.7-11.7-1.1l-11.7-1.1c-3.9-0.4-7.8-0.7-11.7-1.2l-11.7-1.2
		c-0.5-0.1-0.9-0.1-1.6-0.2c-0.6-0.1-1.3-0.3-1.9-0.5c-1.2-0.5-2.4-1.2-3.3-2.1c-0.9-1-1.7-2.1-2.1-3.4c-0.2-0.7-0.3-1.4-0.4-2.1
		c0-0.4,0-0.9,0-1.2l0-0.4l0-0.2l0-0.3l1.9-11.6l1.9-11.6l2-11.6c0.7-3.9,1.3-7.7,2-11.6l0.5-2.9c0.2-1.3,0.8-2.5,1.6-3.5
		c1.7-2,4.1-3,6.6-3.1c1.4,0,2.2,0.3,3.2,0.4l2.9,0.5l5.8,1c3.9,0.7,7.7,1.4,11.6,2.1C322.3,933.9,330,935.4,337.7,937z"/>
</g>
<g id="XMLID_46_">
	<path id="XMLID_362_" class="st34" d="M224,941.5l52.7-8.7l10.9,60.8l-57.1,7.3c-8.6,1.1-12.8-8.4-5.8-13l16.1-18.4"/>
	<path id="XMLID_118_" class="st18" d="M224,941.5c4.4-1,8.7-1.9,13.1-2.8c4.4-0.9,8.7-1.8,13.1-2.7l13.1-2.6
		c4.4-0.9,8.8-1.7,13.1-2.5l1.8-0.3l0.4,1.9l1.5,7.6l1.5,7.6l2.9,15.2l2.8,15.2l1.4,7.6l1.4,7.6l0.5,2.6l-2.6,0.3l-19.4,2.4
		l-19.4,2.2c-3.2,0.4-6.5,0.7-9.7,1.1l-4.9,0.5l-2.4,0.3l-1.2,0.1c-0.6,0.1-0.8,0.1-1.3,0.1c-2,0.1-3.9-0.4-5.6-1.4
		c-1.7-1-3.1-2.6-3.7-4.4c-0.7-1.9-0.7-4,0.1-5.8c0.8-1.8,2.2-3.2,3.7-4.2l-0.2,0.2c2.8-3,5.6-5.9,8.4-8.9l4.2-4.4l4.3-4.4l-3.7,4.8
		l-3.8,4.8c-2.5,3.2-5.1,6.4-7.6,9.5l-0.1,0.1l-0.2,0.1c-1.2,0.9-2.1,1.9-2.5,3.2c-0.4,1.2-0.4,2.6,0.2,3.7c0.5,1.2,1.5,2.1,2.6,2.7
		c1.1,0.6,2.5,0.8,3.8,0.8c0.3,0,0.8-0.1,1.1-0.1l1.2-0.2l2.4-0.4l4.8-0.7c3.2-0.5,6.4-1,9.7-1.4l19.3-2.7l19.3-2.6l-2.1,2.9
		l-1.4-7.6l-1.3-7.6l-2.7-15.2l-2.5-15.2l-1.3-7.6l-1.2-7.6l2.2,1.6c-4.4,0.6-8.8,1.3-13.2,1.9l-13.2,1.8c-4.4,0.6-8.8,1.1-13.3,1.7
		C232.9,940.6,228.4,941,224,941.5z"/>
</g>
<ellipse id="XMLID_10_" class="st37" cx="231.5" cy="169.6" rx="17.1" ry="6.7"/>
<ellipse id="XMLID_29_" class="st37" cx="319.3" cy="170.8" rx="17.1" ry="6.7"/>
<path id="XMLID_209_" class="st38" d="M271.7,531.9l-22-200.4c-0.8-8.2,13.3,21.6,18.3,27.3l-2.4,0.4c2.8,3.1,7,3.2,9.9,0.3
	l12.1-12.2c5-5.1,13.7-15.4,13.3-7.6L291.3,472l-4.9,61.1c-0.4,4.5-1.7,8.6-5.5,8.6H276C272.2,541.7,272.2,536.4,271.7,531.9z"/>
<g id="XMLID_227_">
	<path id="XMLID_481_" class="st35" d="M355,607.8c-2.9-3.1-1.7-7.7,1.6-10.5c3.3-2.8,8.3-3.9,13-4.3c3-0.2,6.3-0.1,8.6,1.5
		c2.7,1.9,3,5,3.1,7.9c0.2,5,0.4,10.1-1.6,14.9c-1.7,4.1-5,7.6-8.1,11.1c-3.9,4.3-7.8,8.5-11.7,12.8c-0.8,0.9-1.6,1.8-2.9,2.2
		c-2.4,0.8-5.2-0.5-7.3-1.8c-5.5-3.3-11-6.5-16.5-9.8c-3-1.8-6.2-3.7-8.1-6.3c-1.7-2.3-2.4-5.1-3-7.8c-1.5-6.8-2.2-15.3,5.2-19.1
		c4.8-2.4,11.3-1.6,16.1,0.9s8.1,6.3,11.4,10"/>
</g>
<text id="XMLID_2_" transform="matrix(0.9889 -0.138 0.1378 0.9905 162.765 659.6187)" class="st24 st39 st40">SZANI LEE</text>
</svg>
