<?xml version="1.0" encoding="utf-8"?>
<!-- Generator: Adobe Illustrator 19.0.0, SVG Export Plug-In . SVG Version: 6.00 Build 0)  -->
<svg version="1.1" id="Layer_1" xmlns="http://www.w3.org/2000/svg" xmlns:xlink="http://www.w3.org/1999/xlink" x="0px" y="0px"
	 viewBox="0 0 703.8 512.6" style="enable-background:new 0 0 703.8 512.6;" xml:space="preserve">
<style type="text/css">
	.st0{opacity:0.3;fill:#EAE7EC;}
	.st1{fill:#F6E19F;}
	.st2{opacity:0.8;fill:#A7A9AC;}
	.st3{fill:#FBC5BA;}
	.st4{opacity:0.6;fill:#808285;}
	.st5{fill:#C3E5DA;}
	.st6{fill:#FCDBD5;}
	.st7{fill:#FCF6E4;}
	.st8{opacity:0.6;fill:#A7A9AC;}
	.st9{fill:#F8ACA4;}
	.st10{fill:#FFFFFF;}
	.st11{opacity:0.35;fill:#FBFBFB;}
	.st12{opacity:0.28;fill:#FBFBFB;}
	.st13{opacity:0.83;fill:#FBFBFB;}
	.st14{fill:#D5D2E9;}
	.st15{fill:#ADA49B;}
	.st16{fill:#DAEEE7;}
	.st17{fill:#F9EAC3;}
	.st18{fill:#FBD0CC;}
	.st19{fill:#E7F1F1;}
	.st20{opacity:0.62;fill:#FBFBFB;}
	.st21{opacity:0.2;fill:#FBFBFB;}
	.st22{fill:#F8F8F9;}
	.st23{fill:#FAF0D5;}
	.st24{fill:#C7E1E1;}
	.st25{fill:#FDE2DC;}
	.st26{fill:#CEEAE0;stroke:#FFFFFF;stroke-width:6;stroke-miterlimit:10;}
	.st27{fill:#FBD0CC;stroke:#FFFFFF;stroke-width:8;stroke-miterlimit:10;}
	.st28{fill:#A97C50;}
	.st29{opacity:0.7;fill:#FFFFFF;}
	.st30{fill:none;}
	.st31{fill:#F8D0CA;}
	.st32{font-family:'Tahoma';}
	.st33{font-size:22.3909px;}
	.st34{opacity:0.4;}
	.st35{fill-rule:evenodd;clip-rule:evenodd;}
</style>
<ellipse id="XMLID_262_" class="st0" cx="588.2" cy="116.9" rx="91.2" ry="90.5"/>
<ellipse id="XMLID_260_" class="st0" cx="425.3" cy="336.2" rx="157.2" ry="155.8"/>
<rect id="XMLID_183_" x="425.3" y="58.4" class="st1" width="234" height="380.4"/>
<rect id="XMLID_152_" x="14.2" y="283.3" class="st1" width="218.9" height="222.2"/>
<ellipse id="XMLID_210_" class="st0" cx="128.6" cy="117.8" rx="100.1" ry="98.5"/>
<path id="XMLID_73_" class="st2" d="M540.4,438.7H139.3c-3.3,0-6-2.7-6-6V212.1c0-3.3,2.7-6,6-6h401.1c3.3,0,6,2.7,6,6v220.6
	C546.4,436,543.7,438.7,540.4,438.7z"/>
<path id="XMLID_70_" class="st3" d="M534.6,434.1H130.7c-3.3,0-6-2.7-6-6v-218c0-3.3,2.7-6,6-6h403.9c3.3,0,6,2.7,6,6v218
	C540.6,431.4,537.9,434.1,534.6,434.1z"/>
<path id="XMLID_145_" class="st4" d="M641.6,334.5l-17.8-1.3c-3.5-0.3-6.6,2.3-6.9,5.7l0,0c-0.3,3.4,2.4,6.4,5.9,6.7l17.8,1.3
	c3.5,0.3,6.6-2.3,6.9-5.7v0C647.8,337.8,645.1,334.8,641.6,334.5z"/>
<path id="XMLID_139_" class="st4" d="M621.8,333l-21-1.6c-3.5-0.3-6.6,2.3-6.9,5.7l0,0c-0.3,3.4,2.4,6.4,5.9,6.7l21,1.6
	c3.5,0.3,6.6-2.3,6.9-5.7v0C628,336.3,625.3,333.3,621.8,333z"/>
<path id="XMLID_132_" class="st4" d="M601.3,331.5l-17.8-1.3c-3.5-0.3-6.6,2.3-6.9,5.7l0,0c-0.3,3.4,2.4,6.4,5.9,6.7l17.8,1.3
	c3.5,0.3,6.6-2.3,6.9-5.7v0C607.5,334.8,604.8,331.8,601.3,331.5z"/>
<path id="XMLID_131_" class="st2" d="M638.4,512.5l-83-6.1l13.5-169l87.9,6.5c9,0.7,15.8,8,15.1,16.4l-10.7,134.1
	C660.4,505.3,650.2,513.4,638.4,512.5z"/>
<line id="XMLID_130_" class="st4" x1="581.3" y1="340.4" x2="641.8" y2="412.5"/>
<line id="XMLID_129_" class="st4" x1="641.8" y1="412.5" x2="572.4" y2="452.3"/>
<path id="XMLID_127_" class="st5" d="M639.2,332.2l-17.8-1.3c-3.5-0.3-6.6,2.3-6.9,5.7l0,0c-0.3,3.4,2.4,6.4,5.9,6.7l17.8,1.3
	c3.5,0.3,6.6-2.3,6.9-5.7v0C645.4,335.5,642.7,332.5,639.2,332.2z"/>
<path id="XMLID_126_" class="st6" d="M619.4,330.8l-21-1.6c-3.5-0.3-6.6,2.3-6.9,5.7l0,0c-0.3,3.4,2.4,6.4,5.9,6.7l21,1.6
	c3.5,0.3,6.6-2.3,6.9-5.7v0C625.6,334,622.9,331,619.4,330.8z"/>
<path id="XMLID_122_" class="st7" d="M598.9,329.3l-17.8-1.3c-3.5-0.3-6.6,2.3-6.9,5.7l0,0c-0.3,3.4,2.4,6.4,5.9,6.7l17.8,1.3
	c3.5,0.3,6.6-2.3,6.9-5.7l0,0C605.1,332.5,602.4,329.5,598.9,329.3z"/>
<ellipse id="XMLID_121_" class="st2" cx="68.3" cy="290" rx="42.6" ry="40.3"/>
<ellipse id="XMLID_120_" class="st8" cx="67.9" cy="290.7" rx="25.6" ry="25"/>
<path id="XMLID_117_" class="st8" d="M53.8,308.9"/>
<ellipse id="XMLID_116_" class="st8" cx="73.6" cy="286.6" rx="12.2" ry="12.8"/>
<path id="XMLID_115_" class="st2" d="M40.1,495.7L6,480.2c-4.4-2-6.2-6.9-4.1-11l40-76.5c2.1-4.1,7.4-5.8,11.8-3.8l34.1,15.5
	c4.4,2,6.2,6.9,4.1,11l-40,76.5C49.7,496,44.4,497.7,40.1,495.7z"/>
<polygon id="XMLID_109_" class="st8" points="594.3,68.9 77,68.9 65.9,77.5 603.2,77.5 "/>
<path id="XMLID_97_" class="st2" d="M542.2,207.9h-412L68.7,78.5c-0.9-1.8,1.5-3.6,4.8-3.6h525.7c3.3,0,5.7,1.8,4.8,3.6L542.2,207.9
	z"/>
<polygon id="XMLID_85_" class="st3" points="590.5,69.1 74.2,69.1 63.1,76.6 599.4,76.6 "/>
<rect id="XMLID_69_" x="159.3" y="200.7" class="st9" width="350.6" height="14.1"/>
<rect id="XMLID_66_" x="155.7" y="224.2" class="st9" width="24.2" height="12.6"/>
<rect id="XMLID_20_" x="159.3" y="247.4" class="st10" width="15.3" height="9.6"/>
<path id="XMLID_67_" class="st9" d="M537.8,203.9H124.7L63.1,78.4c-0.9-1.7,1.5-3.5,4.8-3.5h527c3.3,0,5.7,1.7,4.8,3.5L537.8,203.9z
	"/>
<path id="XMLID_68_" class="st5" d="M526.5,196.2H142.9L85.7,93.6c-0.8-1.4,1.4-2.8,4.5-2.8h489.4c3.1,0,5.3,1.4,4.5,2.8
	L526.5,196.2z"/>
<polygon id="XMLID_72_" class="st11" points="247.8,196.2 194.6,196.2 293.6,90.7 347.2,90.7 "/>
<polygon id="XMLID_71_" class="st12" points="412.4,196.2 271.3,196.2 367.6,90.7 503,90.7 "/>
<path id="XMLID_8_" class="st13" d="M389.7,425.7H276.4c-3,0-5.5-2.5-5.5-5.5v-48c0-3,2.5-5.5,5.5-5.5h113.2c3,0,5.5,2.5,5.5,5.5v48
	C395.2,423.2,392.7,425.7,389.7,425.7z"/>
<path id="XMLID_84_" class="st10" d="M39.1,492.3L5,476.9c-4.4-2-6.2-6.9-4.1-11l40-76.5c2.1-4.1,7.4-5.8,11.8-3.8l34.1,15.5
	c4.4,2,6.2,6.9,4.1,11l-40,76.5C48.7,492.6,43.4,494.3,39.1,492.3z"/>
<polygon id="XMLID_83_" class="st14" points="51.2,483.5 5.9,463 43.4,391.2 88.7,411.7 "/>
<path id="XMLID_82_" class="st6" d="M28.8,483.9l-9.8-4.4c-1.3-0.6-1.8-2-1.2-3.2h0c0.6-1.2,2.1-1.7,3.4-1.1l9.8,4.4
	c1.3,0.6,1.8,2,1.2,3.2h0C31.6,484,30.1,484.5,28.8,483.9z"/>
<path id="XMLID_81_" class="st15" d="M74.4,400.4l-13.1-6c-0.4-0.2-0.6-0.7-0.4-1.1l0,0c0.2-0.4,0.7-0.6,1.1-0.4l13.1,6
	c0.4,0.2,0.6,0.7,0.4,1.1v0C75.3,400.4,74.8,400.6,74.4,400.4z"/>
<polygon id="XMLID_80_" class="st16" points="82,420.6 40.2,401.7 42.9,396.5 84.7,415.5 "/>
<polygon id="XMLID_79_" class="st17" points="78.1,428 36.3,409 39,403.9 80.8,422.9 "/>
<polygon id="XMLID_78_" class="st18" points="74.2,435.4 32.4,416.4 35.1,411.3 76.9,430.3 "/>
<polygon id="XMLID_77_" class="st19" points="57.5,467.4 15.7,448.4 31.3,418.7 73.1,437.7 "/>
<polygon id="XMLID_76_" class="st10" points="52,477.9 10.2,459 14.6,450.7 56.3,469.7 "/>
<polygon id="XMLID_75_" class="st20" points="23.5,433.6 44.9,428.4 49.7,445.5 60.1,441.3 65.3,452.5 57.5,467.4 15.7,448.4 "/>
<polygon id="XMLID_74_" class="st21" points="4.7,464.7 89.3,409.9 49.9,485.2 "/>
<polygon id="XMLID_94_" class="st2" points="53.7,205 9.6,187.3 28.8,145.9 72.8,163.6 "/>
<polygon id="XMLID_93_" class="st18" points="51.7,201.2 7.7,183.5 26.8,142.2 70.9,159.9 "/>
<polygon id="XMLID_92_" class="st10" points="50.5,161.4 25.7,151.4 27,148.6 51.8,158.6 "/>
<polygon id="XMLID_91_" class="st10" points="57.1,169.8 23.2,156.2 24.6,153.4 58.4,167 "/>
<polygon id="XMLID_90_" class="st10" points="60,176.7 20.9,161 22.2,158.2 61.3,173.9 "/>
<polygon id="XMLID_89_" class="st16" points="29.1,187.6 24.3,185.7 31.2,170.8 36,172.7 "/>
<polygon id="XMLID_88_" class="st22" points="33.7,189.5 28.9,187.6 33.5,177.7 38.3,179.6 "/>
<polygon id="XMLID_87_" class="st23" points="38.5,191.4 33.7,189.5 40.2,175.3 45,177.3 "/>
<polygon id="XMLID_86_" class="st10" points="43.2,193.3 38.5,191.4 40.7,186.6 45.5,188.5 "/>
<polygon id="XMLID_103_" class="st2" points="95.5,240.7 48.4,232 57.8,187.9 104.9,196.6 "/>
<polygon id="XMLID_102_" class="st10" points="92.9,237.2 45.9,228.5 55.3,184.3 102.3,193 "/>
<polygon id="XMLID_100_" class="st10" points="96.7,206.5 54.9,198.8 55.6,195.8 97.4,203.5 "/>
<polygon id="XMLID_95_" class="st10" points="77.9,219.4 72.8,218.4 73.9,213.3 79,214.2 "/>
<polygon id="XMLID_96_" class="st6" points="75.2,196.5 57,193.3 57.3,191.6 75.6,194.9 "/>
<polygon id="XMLID_98_" class="st24" points="95.4,208 56.6,200.8 56.9,199.3 95.7,206.5 "/>
<polygon id="XMLID_104_" class="st25" points="93.1,214.9 54.2,207.8 54.5,206.3 93.4,213.4 "/>
<polygon id="XMLID_101_" class="st25" points="94.2,211.9 55.3,204.8 55.6,203.3 94.5,210.4 "/>
<polygon id="XMLID_99_" class="st6" points="92.6,218.3 53.7,211.1 54,209.6 92.9,216.8 "/>
<polygon id="XMLID_107_" class="st23" points="76.5,223.1 51,218.5 51.3,217 76.8,221.6 "/>
<polygon id="XMLID_106_" class="st24" points="90.9,222.6 52.1,215.5 52.4,214 91.3,221.1 "/>
<ellipse id="XMLID_113_" class="st26" cx="65.2" cy="286.7" rx="39.7" ry="37.5"/>
<ellipse id="XMLID_112_" class="st27" cx="64.3" cy="286.3" rx="25.6" ry="25"/>
<path id="XMLID_111_" class="st28" d="M50.3,304.5"/>
<path id="XMLID_110_" class="st10" d="M105,290.5H92.9c-2.2,0-4-1.8-4-4l0,0c0-2.2,1.8-4,4-4H105c2.2,0,4,1.8,4,4l0,0
	C109,288.7,107.2,290.5,105,290.5z"/>
<ellipse id="XMLID_108_" class="st29" cx="70.1" cy="282.3" rx="12.2" ry="12.8"/>
<path id="XMLID_114_" class="st10" d="M634,508.7l-83-6.1l13.5-169l87.9,6.5c9,0.7,15.8,8,15.1,16.4l-10.7,134.1
	C655.9,501.5,645.8,509.6,634,508.7z"/>
<polygon id="XMLID_118_" class="st16" points="562.4,503.4 550,502.5 563.5,333.6 575.9,334.5 "/>
<line id="XMLID_123_" class="st30" x1="578.9" y1="338.2" x2="639.4" y2="410.3"/>
<line id="XMLID_124_" class="st30" x1="639.4" y1="410.3" x2="570" y2="450.1"/>
<g id="XMLID_105_">
	<path id="XMLID_187_" class="st31" d="M617.5,402.1c1.4-4.5,8.4-7.3,13-8.6c4.5-1.3,10.1,1,11.6,5.4c0.5,1.5,0.5,3,0.3,4.6
		c-0.6,4.8-3.4,9.1-6.3,13c-5.6,7.6-14.1,14.1-21.2,20.4l0,0c-5.8-7.4-13.2-15.6-17.3-24.1c-2.1-4.4-4.1-9.1-3.8-13.9
		c0.1-1.5,0.4-3.1,1.2-4.4c2.3-4.1,8.2-5.3,12.4-3.3C611.5,393.2,616.9,397.5,617.5,402.1L617.5,402.1z"/>
</g>
<rect id="XMLID_128_" x="188.8" y="2.6" class="st2" width="85.1" height="54.5"/>
<rect id="XMLID_125_" x="186.1" class="st5" width="85.1" height="54.5"/>
<rect id="XMLID_134_" x="617.9" y="184" class="st2" width="83.9" height="57.2"/>
<rect id="XMLID_133_" x="615.3" y="181.2" class="st5" width="83.9" height="57.2"/>
<rect id="XMLID_136_" x="377.7" y="455" class="st2" width="92.7" height="54.1"/>
<rect id="XMLID_135_" x="373.9" y="451.4" class="st5" width="92.7" height="54.1"/>
<text id="XMLID_143_" transform="matrix(0.9403 0 0 1 202.4118 40.001)" class="st10 st32 st33">HTML</text>
<text id="XMLID_144_" transform="matrix(1.0097 0 0 1 639.4338 223.3911)" class="st10 st32 st33">CSS</text>
<text id="XMLID_151_" transform="matrix(1.0425 0 0 1 411.2443 489.9341)" class="st10 st32 st33">JS</text>
<rect id="XMLID_164_" x="186.1" class="st3" width="85.3" height="9.4"/>
<rect id="XMLID_165_" x="615" y="181.2" class="st3" width="84.2" height="11.1"/>
<rect id="XMLID_166_" x="373.1" y="451" class="st3" width="92.9" height="9.7"/>
<line id="XMLID_167_" class="st30" x1="524.6" y1="316" x2="658.4" y2="318.6"/>
<g id="XMLID_168_" class="st34">
	<g id="XMLID_466_">
		<g id="XMLID_470_">
			<g id="XMLID_553_">
				<g id="XMLID_554_">
					<g id="XMLID_558_">
						<rect id="XMLID_559_" x="515.7" y="302.5" class="st30" width="13.6" height="15"/>
					</g>
					<rect id="XMLID_557_" x="525.8" y="309.5" class="st35" width="2.5" height="1.5"/>
					<rect id="XMLID_556_" x="521.3" y="309.5" class="st35" width="2.5" height="1.5"/>
					<rect id="XMLID_555_" x="516.7" y="309.5" class="st35" width="2.5" height="1.5"/>
				</g>
			</g>
			<g id="XMLID_546_">
				<g id="XMLID_547_">
					<g id="XMLID_551_">
						<rect id="XMLID_552_" x="529.3" y="302.5" class="st30" width="13.6" height="15"/>
					</g>
					<rect id="XMLID_550_" x="539.4" y="309.5" class="st35" width="2.5" height="1.5"/>
					<rect id="XMLID_549_" x="534.9" y="309.5" class="st35" width="2.5" height="1.5"/>
					<rect id="XMLID_548_" x="530.4" y="309.5" class="st35" width="2.5" height="1.5"/>
				</g>
			</g>
			<g id="XMLID_539_">
				<g id="XMLID_540_">
					<g id="XMLID_544_">
						<rect id="XMLID_545_" x="543" y="302.5" class="st30" width="13.6" height="15"/>
					</g>
					<rect id="XMLID_543_" x="553.1" y="309.5" class="st35" width="2.5" height="1.5"/>
					<rect id="XMLID_542_" x="548.6" y="309.5" class="st35" width="2.5" height="1.5"/>
					<rect id="XMLID_541_" x="544" y="309.5" class="st35" width="2.5" height="1.5"/>
				</g>
			</g>
			<g id="XMLID_478_">
				<g id="XMLID_533_">
					<g id="XMLID_537_">
						<rect id="XMLID_538_" x="556.6" y="302.5" class="st30" width="13.6" height="15"/>
					</g>
					<rect id="XMLID_536_" x="566.7" y="309.5" class="st35" width="2.5" height="1.5"/>
					<rect id="XMLID_535_" x="562.2" y="309.5" class="st35" width="2.5" height="1.5"/>
					<rect id="XMLID_534_" x="557.7" y="309.5" class="st35" width="2.5" height="1.5"/>
				</g>
			</g>
			<g id="XMLID_471_">
				<g id="XMLID_472_">
					<g id="XMLID_476_">
						<rect id="XMLID_477_" x="570.3" y="302.5" class="st30" width="13.6" height="15"/>
					</g>
					<rect id="XMLID_475_" x="580.4" y="309.5" class="st35" width="2.5" height="1.5"/>
					<rect id="XMLID_474_" x="575.9" y="309.5" class="st35" width="2.5" height="1.5"/>
					<rect id="XMLID_473_" x="571.3" y="309.5" class="st35" width="2.5" height="1.5"/>
				</g>
			</g>
		</g>
	</g>
</g>
<g id="XMLID_169_" class="st34">
	<g id="XMLID_479_">
		<g id="XMLID_483_">
			<g id="XMLID_526_">
				<g id="XMLID_527_">
					<g id="XMLID_531_">
						<rect id="XMLID_532_" x="576.4" y="296.3" class="st30" width="15" height="13.8"/>
					</g>
					<rect id="XMLID_530_" x="583.4" y="297.3" class="st35" width="1.5" height="2.6"/>
					<rect id="XMLID_529_" x="583.4" y="301.9" class="st35" width="1.5" height="2.6"/>
					<rect id="XMLID_528_" x="583.4" y="306.4" class="st35" width="1.5" height="2.6"/>
				</g>
			</g>
			<g id="XMLID_519_">
				<g id="XMLID_520_">
					<g id="XMLID_524_">
						<rect id="XMLID_525_" x="576.4" y="282.5" class="st30" width="15" height="13.8"/>
					</g>
					<rect id="XMLID_523_" x="583.4" y="283.5" class="st35" width="1.5" height="2.6"/>
					<rect id="XMLID_522_" x="583.4" y="288.1" class="st35" width="1.5" height="2.6"/>
					<rect id="XMLID_521_" x="583.4" y="292.7" class="st35" width="1.5" height="2.6"/>
				</g>
			</g>
			<g id="XMLID_512_">
				<g id="XMLID_513_">
					<g id="XMLID_517_">
						<rect id="XMLID_518_" x="576.4" y="268.7" class="st30" width="15" height="13.8"/>
					</g>
					<rect id="XMLID_516_" x="583.4" y="269.7" class="st35" width="1.5" height="2.6"/>
					<rect id="XMLID_515_" x="583.4" y="274.3" class="st35" width="1.5" height="2.6"/>
					<rect id="XMLID_514_" x="583.4" y="278.9" class="st35" width="1.5" height="2.6"/>
				</g>
			</g>
			<g id="XMLID_505_">
				<g id="XMLID_506_">
					<g id="XMLID_510_">
						<rect id="XMLID_511_" x="576.4" y="254.9" class="st30" width="15" height="13.8"/>
					</g>
					<rect id="XMLID_509_" x="583.4" y="256" class="st35" width="1.5" height="2.6"/>
					<rect id="XMLID_508_" x="583.4" y="260.6" class="st35" width="1.5" height="2.6"/>
					<rect id="XMLID_507_" x="583.4" y="265.1" class="st35" width="1.5" height="2.6"/>
				</g>
			</g>
			<g id="XMLID_498_">
				<g id="XMLID_499_">
					<g id="XMLID_503_">
						<rect id="XMLID_504_" x="576.4" y="241.2" class="st30" width="15" height="13.8"/>
					</g>
					<rect id="XMLID_502_" x="583.4" y="242.2" class="st35" width="1.5" height="2.6"/>
					<rect id="XMLID_501_" x="583.4" y="246.8" class="st35" width="1.5" height="2.6"/>
					<rect id="XMLID_500_" x="583.4" y="251.3" class="st35" width="1.5" height="2.6"/>
				</g>
			</g>
			<g id="XMLID_491_">
				<g id="XMLID_492_">
					<g id="XMLID_496_">
						<rect id="XMLID_497_" x="576.4" y="227.4" class="st30" width="15" height="13.8"/>
					</g>
					<rect id="XMLID_495_" x="583.4" y="228.4" class="st35" width="1.5" height="2.6"/>
					<rect id="XMLID_494_" x="583.4" y="233" class="st35" width="1.5" height="2.6"/>
					<rect id="XMLID_493_" x="583.4" y="237.6" class="st35" width="1.5" height="2.6"/>
				</g>
			</g>
			<g id="XMLID_484_">
				<g id="XMLID_485_">
					<g id="XMLID_489_">
						<rect id="XMLID_490_" x="576.4" y="213.6" class="st30" width="15" height="13.8"/>
					</g>
					<rect id="XMLID_488_" x="583.4" y="214.7" class="st35" width="1.5" height="2.6"/>
					<rect id="XMLID_487_" x="583.4" y="219.2" class="st35" width="1.5" height="2.6"/>
					<rect id="XMLID_486_" x="583.4" y="223.8" class="st35" width="1.5" height="2.6"/>
				</g>
			</g>
		</g>
	</g>
</g>
<g id="XMLID_171_" class="st34">
	<g id="XMLID_219_">
		<g id="XMLID_223_">
			<g id="XMLID_443_">
				<g id="XMLID_444_">
					<g id="XMLID_448_">
						<rect id="XMLID_449_" x="583.9" y="206.1" class="st30" width="13.3" height="15"/>
					</g>
					<rect id="XMLID_447_" x="593.8" y="213.1" class="st35" width="2.5" height="1.5"/>
					<rect id="XMLID_446_" x="589.4" y="213.1" class="st35" width="2.5" height="1.5"/>
					<rect id="XMLID_445_" x="584.9" y="213.1" class="st35" width="2.5" height="1.5"/>
				</g>
			</g>
			<g id="XMLID_249_">
				<g id="XMLID_437_">
					<g id="XMLID_441_">
						<rect id="XMLID_442_" x="597.2" y="206.1" class="st30" width="13.3" height="15"/>
					</g>
					<rect id="XMLID_440_" x="607.1" y="213.1" class="st35" width="2.5" height="1.5"/>
					<rect id="XMLID_439_" x="602.6" y="213.1" class="st35" width="2.5" height="1.5"/>
					<rect id="XMLID_438_" x="598.2" y="213.1" class="st35" width="2.5" height="1.5"/>
				</g>
			</g>
			<g id="XMLID_224_">
				<g id="XMLID_232_">
					<g id="XMLID_247_">
						<rect id="XMLID_248_" x="610.5" y="206.1" class="st30" width="13.3" height="15"/>
					</g>
					<rect id="XMLID_246_" x="620.4" y="213.1" class="st35" width="2.5" height="1.5"/>
					<rect id="XMLID_244_" x="615.9" y="213.1" class="st35" width="2.5" height="1.5"/>
					<rect id="XMLID_234_" x="611.5" y="213.1" class="st35" width="2.5" height="1.5"/>
				</g>
			</g>
		</g>
	</g>
</g>
<g id="XMLID_173_" class="st34">
	<g id="XMLID_250_">
		<g id="XMLID_254_">
			<g id="XMLID_343_">
				<g id="XMLID_431_">
					<g id="XMLID_435_">
						<rect id="XMLID_436_" x="264.1" y="21.2" class="st30" width="13.2" height="15"/>
					</g>
					<rect id="XMLID_434_" x="273.9" y="28.2" class="st35" width="2.4" height="1.5"/>
					<rect id="XMLID_433_" x="269.5" y="28.2" class="st35" width="2.4" height="1.5"/>
					<rect id="XMLID_432_" x="265.1" y="28.2" class="st35" width="2.4" height="1.5"/>
				</g>
			</g>
			<g id="XMLID_336_">
				<g id="XMLID_337_">
					<g id="XMLID_341_">
						<rect id="XMLID_342_" x="277.3" y="21.2" class="st30" width="13.2" height="15"/>
					</g>
					<rect id="XMLID_340_" x="287" y="28.2" class="st35" width="2.4" height="1.5"/>
					<rect id="XMLID_339_" x="282.7" y="28.2" class="st35" width="2.4" height="1.5"/>
					<rect id="XMLID_338_" x="278.3" y="28.2" class="st35" width="2.4" height="1.5"/>
				</g>
			</g>
			<g id="XMLID_329_">
				<g id="XMLID_330_">
					<g id="XMLID_334_">
						<rect id="XMLID_335_" x="290.5" y="21.2" class="st30" width="13.2" height="15"/>
					</g>
					<rect id="XMLID_333_" x="300.2" y="28.2" class="st35" width="2.4" height="1.5"/>
					<rect id="XMLID_332_" x="295.8" y="28.2" class="st35" width="2.4" height="1.5"/>
					<rect id="XMLID_331_" x="291.5" y="28.2" class="st35" width="2.4" height="1.5"/>
				</g>
			</g>
			<g id="XMLID_322_">
				<g id="XMLID_323_">
					<g id="XMLID_327_">
						<rect id="XMLID_328_" x="303.6" y="21.2" class="st30" width="13.2" height="15"/>
					</g>
					<rect id="XMLID_326_" x="313.4" y="28.2" class="st35" width="2.4" height="1.5"/>
					<rect id="XMLID_325_" x="309" y="28.2" class="st35" width="2.4" height="1.5"/>
					<rect id="XMLID_324_" x="304.6" y="28.2" class="st35" width="2.4" height="1.5"/>
				</g>
			</g>
			<g id="XMLID_313_">
				<g id="XMLID_316_">
					<g id="XMLID_320_">
						<rect id="XMLID_321_" x="316.8" y="21.2" class="st30" width="13.2" height="15"/>
					</g>
					<rect id="XMLID_319_" x="326.6" y="28.2" class="st35" width="2.4" height="1.5"/>
					<rect id="XMLID_318_" x="322.2" y="28.2" class="st35" width="2.4" height="1.5"/>
					<rect id="XMLID_317_" x="317.8" y="28.2" class="st35" width="2.4" height="1.5"/>
				</g>
			</g>
		</g>
	</g>
</g>
<g id="XMLID_175_" class="st34">
	<g id="XMLID_344_">
		<g id="XMLID_348_">
			<g id="XMLID_424_">
				<g id="XMLID_425_">
					<g id="XMLID_429_">
						<rect id="XMLID_430_" x="322.5" y="27.7" class="st30" width="15" height="13.8"/>
					</g>
					<rect id="XMLID_428_" x="329" y="37.9" class="st35" width="1.5" height="2.6"/>
					<rect id="XMLID_427_" x="329" y="33.3" class="st35" width="1.5" height="2.6"/>
					<rect id="XMLID_426_" x="329" y="28.8" class="st35" width="1.5" height="2.6"/>
				</g>
			</g>
			<g id="XMLID_417_">
				<g id="XMLID_418_">
					<g id="XMLID_422_">
						<rect id="XMLID_423_" x="322.5" y="41.5" class="st30" width="15" height="13.8"/>
					</g>
					<rect id="XMLID_421_" x="329" y="51.7" class="st35" width="1.5" height="2.6"/>
					<rect id="XMLID_420_" x="329" y="47.1" class="st35" width="1.5" height="2.6"/>
					<rect id="XMLID_419_" x="329" y="42.5" class="st35" width="1.5" height="2.6"/>
				</g>
			</g>
			<g id="XMLID_410_">
				<g id="XMLID_411_">
					<g id="XMLID_415_">
						<rect id="XMLID_416_" x="322.5" y="55.2" class="st30" width="15" height="13.8"/>
					</g>
					<rect id="XMLID_414_" x="329" y="65.4" class="st35" width="1.5" height="2.6"/>
					<rect id="XMLID_413_" x="329" y="60.8" class="st35" width="1.5" height="2.6"/>
					<rect id="XMLID_412_" x="329" y="56.3" class="st35" width="1.5" height="2.6"/>
				</g>
			</g>
			<g id="XMLID_403_">
				<g id="XMLID_404_">
					<g id="XMLID_408_">
						<rect id="XMLID_409_" x="322.5" y="69" class="st30" width="15" height="13.8"/>
					</g>
					<rect id="XMLID_407_" x="329" y="79.2" class="st35" width="1.5" height="2.6"/>
					<rect id="XMLID_406_" x="329" y="74.6" class="st35" width="1.5" height="2.6"/>
					<rect id="XMLID_405_" x="329" y="70" class="st35" width="1.5" height="2.6"/>
				</g>
			</g>
			<g id="XMLID_396_">
				<g id="XMLID_397_">
					<g id="XMLID_401_">
						<rect id="XMLID_402_" x="322.5" y="82.8" class="st30" width="15" height="13.8"/>
					</g>
					<rect id="XMLID_400_" x="329" y="93" class="st35" width="1.5" height="2.6"/>
					<rect id="XMLID_399_" x="329" y="88.4" class="st35" width="1.5" height="2.6"/>
					<rect id="XMLID_398_" x="329" y="83.8" class="st35" width="1.5" height="2.6"/>
				</g>
			</g>
			<g id="XMLID_389_">
				<g id="XMLID_390_">
					<g id="XMLID_394_">
						<rect id="XMLID_395_" x="322.5" y="96.5" class="st30" width="15" height="13.8"/>
					</g>
					<rect id="XMLID_393_" x="329" y="106.7" class="st35" width="1.5" height="2.6"/>
					<rect id="XMLID_392_" x="329" y="102.1" class="st35" width="1.5" height="2.6"/>
					<rect id="XMLID_391_" x="329" y="97.6" class="st35" width="1.5" height="2.6"/>
				</g>
			</g>
			<g id="XMLID_382_">
				<g id="XMLID_383_">
					<g id="XMLID_387_">
						<rect id="XMLID_388_" x="322.5" y="110.3" class="st30" width="15" height="13.8"/>
					</g>
					<rect id="XMLID_386_" x="329" y="120.5" class="st35" width="1.5" height="2.6"/>
					<rect id="XMLID_385_" x="329" y="115.9" class="st35" width="1.5" height="2.6"/>
					<rect id="XMLID_384_" x="329" y="111.3" class="st35" width="1.5" height="2.6"/>
				</g>
			</g>
			<g id="XMLID_375_">
				<g id="XMLID_376_">
					<g id="XMLID_380_">
						<rect id="XMLID_381_" x="322.5" y="124.1" class="st30" width="15" height="13.8"/>
					</g>
					<rect id="XMLID_379_" x="329" y="134.2" class="st35" width="1.5" height="2.6"/>
					<rect id="XMLID_378_" x="329" y="129.7" class="st35" width="1.5" height="2.6"/>
					<rect id="XMLID_377_" x="329" y="125.1" class="st35" width="1.5" height="2.6"/>
				</g>
			</g>
			<g id="XMLID_356_">
				<g id="XMLID_357_">
					<g id="XMLID_361_">
						<rect id="XMLID_362_" x="322.5" y="137.8" class="st30" width="15" height="13.8"/>
					</g>
					<rect id="XMLID_360_" x="329" y="148" class="st35" width="1.5" height="2.6"/>
					<rect id="XMLID_359_" x="329" y="143.4" class="st35" width="1.5" height="2.6"/>
					<rect id="XMLID_358_" x="329" y="138.9" class="st35" width="1.5" height="2.6"/>
				</g>
			</g>
			<g id="XMLID_349_">
				<g id="XMLID_350_">
					<g id="XMLID_354_">
						<rect id="XMLID_355_" x="322.5" y="151.6" class="st30" width="15" height="13.8"/>
					</g>
					<rect id="XMLID_353_" x="329" y="161.8" class="st35" width="1.5" height="2.6"/>
					<rect id="XMLID_352_" x="329" y="157.2" class="st35" width="1.5" height="2.6"/>
					<rect id="XMLID_351_" x="329" y="152.6" class="st35" width="1.5" height="2.6"/>
				</g>
			</g>
		</g>
	</g>
</g>
<rect id="XMLID_9_" x="177" y="247.2" class="st10" width="15.3" height="9.6"/>
<rect id="XMLID_11_" x="195" y="247.2" class="st10" width="15.3" height="9.4"/>
<rect id="XMLID_10_" x="212.7" y="247.2" class="st10" width="15.3" height="9.4"/>
<rect id="XMLID_15_" x="230.4" y="247.4" class="st10" width="15.3" height="9.6"/>
<rect id="XMLID_14_" x="248.2" y="247.2" class="st10" width="15.3" height="9.6"/>
<rect id="XMLID_13_" x="266.1" y="247.2" class="st10" width="15.3" height="9.4"/>
<rect id="XMLID_12_" x="283.8" y="247.2" class="st10" width="15.3" height="9.4"/>
<rect id="XMLID_22_" x="302.2" y="247.4" class="st10" width="15.3" height="9.6"/>
<rect id="XMLID_21_" x="320" y="247.2" class="st10" width="15.3" height="9.6"/>
<rect id="XMLID_19_" x="337.9" y="247.2" class="st10" width="15.3" height="9.4"/>
<rect id="XMLID_17_" x="355.6" y="247.2" class="st10" width="15.3" height="9.4"/>
<rect id="XMLID_26_" x="373.6" y="247.4" class="st10" width="15.3" height="9.6"/>
<rect id="XMLID_25_" x="391.3" y="247.2" class="st10" width="15.3" height="9.6"/>
<rect id="XMLID_24_" x="409.3" y="247.2" class="st10" width="15.3" height="9.4"/>
<rect id="XMLID_23_" x="432.3" y="247.2" class="st10" width="15.3" height="9.4"/>
<rect id="XMLID_30_" x="450.2" y="247.4" class="st10" width="15.3" height="9.6"/>
<rect id="XMLID_29_" x="468" y="247.2" class="st10" width="15.3" height="9.6"/>
<rect id="XMLID_28_" x="485.9" y="247.2" class="st10" width="17.5" height="10.2"/>
<rect id="XMLID_33_" x="159.1" y="260.6" class="st10" width="15.3" height="12.4"/>
<rect id="XMLID_32_" x="176.8" y="260.5" class="st10" width="15.3" height="12.4"/>
<rect id="XMLID_31_" x="194.8" y="260.5" class="st10" width="15.3" height="12.1"/>
<rect id="XMLID_27_" x="212.5" y="260.5" class="st10" width="15.3" height="12.1"/>
<rect id="XMLID_37_" x="230.4" y="261" class="st10" width="15.3" height="12.4"/>
<rect id="XMLID_36_" x="248.2" y="260.8" class="st10" width="15.3" height="12.4"/>
<rect id="XMLID_35_" x="266.1" y="260.8" class="st10" width="15.3" height="12.1"/>
<rect id="XMLID_34_" x="283.8" y="260.8" class="st10" width="15.3" height="12.1"/>
<rect id="XMLID_41_" x="301.8" y="261" class="st10" width="15.3" height="12.4"/>
<rect id="XMLID_40_" x="319.5" y="260.8" class="st10" width="15.3" height="12.4"/>
<rect id="XMLID_39_" x="337.5" y="260.8" class="st10" width="15.3" height="12.1"/>
<rect id="XMLID_38_" x="355.2" y="260.8" class="st10" width="15.3" height="12.1"/>
<rect id="XMLID_45_" x="372.7" y="261" class="st10" width="33.2" height="12.4"/>
<rect id="XMLID_44_" x="390.4" y="260.8" class="st10" width="15.3" height="12.4"/>
<rect id="XMLID_43_" x="408.4" y="260.8" class="st10" width="15.3" height="12.1"/>
<rect id="XMLID_42_" x="432.5" y="260.8" class="st10" width="14.2" height="12.1"/>
<rect id="XMLID_49_" x="450.7" y="260.4" class="st10" width="15.3" height="12.4"/>
<rect id="XMLID_48_" x="468.4" y="260.2" class="st10" width="15.3" height="12.4"/>
<rect id="XMLID_47_" x="486.4" y="260.2" class="st10" width="17.1" height="12.6"/>
<rect id="XMLID_52_" x="159.1" y="275.5" class="st10" width="33.2" height="12.4"/>
<rect id="XMLID_51_" x="176.8" y="275.4" class="st10" width="15.3" height="12.4"/>
<rect id="XMLID_50_" x="194.8" y="275.4" class="st10" width="15.3" height="12.1"/>
<rect id="XMLID_46_" x="212.5" y="275.4" class="st10" width="15.3" height="12.1"/>
<rect id="XMLID_53_" x="159" y="290.3" class="st10" width="44" height="12.4"/>
<rect id="XMLID_54_" x="158.8" y="305" class="st10" width="26.4" height="12.4"/>
<rect id="XMLID_56_" x="159" y="335.7" class="st10" width="15.3" height="12.4"/>
<rect id="XMLID_61_" x="205.9" y="290" class="st10" width="15.3" height="12.4"/>
<rect id="XMLID_60_" x="223.6" y="289.9" class="st10" width="15.3" height="12.4"/>
<rect id="XMLID_59_" x="241.5" y="289.9" class="st10" width="15.3" height="12.1"/>
<rect id="XMLID_58_" x="259.3" y="289.9" class="st10" width="15.3" height="12.1"/>
<rect id="XMLID_138_" x="230.7" y="275.3" class="st10" width="15.3" height="12.4"/>
<rect id="XMLID_65_" x="248.4" y="275.1" class="st10" width="15.3" height="12.4"/>
<rect id="XMLID_64_" x="266.3" y="275.1" class="st10" width="15.3" height="12.1"/>
<rect id="XMLID_63_" x="284.1" y="275.1" class="st10" width="15.3" height="12.1"/>
<rect id="XMLID_62_" x="302" y="275.7" class="st10" width="15.3" height="11.6"/>
<rect id="XMLID_184_" x="187.9" y="305.3" class="st10" width="15.3" height="12.4"/>
<rect id="XMLID_174_" x="205.6" y="305.1" class="st10" width="15.3" height="12.4"/>
<rect id="XMLID_172_" x="223.6" y="305.1" class="st10" width="15.3" height="12.1"/>
<rect id="XMLID_161_" x="241.3" y="305.1" class="st10" width="15.3" height="12.1"/>
<rect id="XMLID_203_" x="177.3" y="336.1" class="st10" width="15.3" height="12.4"/>
<rect id="XMLID_202_" x="195" y="335.9" class="st10" width="15.3" height="12.4"/>
<rect id="XMLID_201_" x="212.9" y="335.9" class="st10" width="15.3" height="12.1"/>
<rect id="XMLID_198_" x="230.7" y="335.9" class="st10" width="15.3" height="12.1"/>
<rect id="XMLID_241_" x="320" y="275.5" class="st10" width="15.3" height="12.4"/>
<rect id="XMLID_240_" x="337.7" y="275.4" class="st10" width="15.3" height="12.4"/>
<rect id="XMLID_239_" x="355.6" y="275.4" class="st10" width="15.3" height="12.1"/>
<rect id="XMLID_57_" x="249.1" y="335.5" class="st10" width="106.4" height="12.4"/>
<rect id="XMLID_197_" x="340.3" y="335.9" class="st10" width="15.3" height="12.4"/>
<rect id="XMLID_185_" x="358.3" y="335.9" class="st10" width="15.3" height="12.1"/>
<rect id="XMLID_140_" x="376" y="335.9" class="st10" width="15.3" height="12.1"/>
<rect id="XMLID_227_" x="277.4" y="290" class="st10" width="15.3" height="12.4"/>
<rect id="XMLID_119_" x="295.1" y="289.9" class="st10" width="15.3" height="12.4"/>
<rect id="XMLID_18_" x="313.1" y="289.9" class="st10" width="15.3" height="12.1"/>
<rect id="XMLID_16_" x="330.8" y="289.9" class="st10" width="15.3" height="12.1"/>
<rect id="XMLID_231_" x="349.2" y="290" class="st10" width="15.3" height="12.4"/>
<rect id="XMLID_230_" x="366.9" y="289.9" class="st10" width="15.3" height="12.4"/>
<rect id="XMLID_237_" x="385.5" y="275.5" class="st10" width="39.2" height="40.8"/>
<rect id="XMLID_228_" x="373.5" y="275.3" class="st10" width="15.3" height="12.1"/>
<rect id="XMLID_236_" x="409.5" y="275.7" class="st10" width="15.3" height="11.6"/>
<rect id="XMLID_235_" x="432.7" y="275.5" class="st10" width="15.3" height="12.4"/>
<rect id="XMLID_233_" x="450.5" y="275.4" class="st10" width="15.3" height="12.4"/>
<rect id="XMLID_229_" x="468.4" y="275.4" class="st10" width="15.3" height="12.1"/>
<rect id="XMLID_243_" x="432.7" y="289.4" class="st10" width="15.3" height="12.4"/>
<rect id="XMLID_242_" x="450.5" y="289.2" class="st10" width="15.3" height="12.4"/>
<rect id="XMLID_238_" x="468.4" y="289.2" class="st10" width="15.3" height="12.1"/>
<rect id="XMLID_301_" x="486.9" y="276.1" class="st10" width="15.3" height="40.3"/>
<rect id="XMLID_245_" x="486.9" y="289" class="st10" width="15.3" height="12.1"/>
<rect id="XMLID_305_" x="258.8" y="305" class="st10" width="15.3" height="12.4"/>
<rect id="XMLID_304_" x="276.5" y="304.8" class="st10" width="15.3" height="12.4"/>
<rect id="XMLID_303_" x="294.5" y="304.8" class="st10" width="15.3" height="12.1"/>
<rect id="XMLID_302_" x="312.2" y="304.8" class="st10" width="15.3" height="12.1"/>
<rect id="XMLID_309_" x="330.2" y="304.5" class="st10" width="15.3" height="12.4"/>
<rect id="XMLID_308_" x="347.9" y="304.4" class="st10" width="15.3" height="12.4"/>
<rect id="XMLID_310_" x="451.1" y="304.3" class="st10" width="24.4" height="12.1"/>
<rect id="XMLID_55_" x="477.7" y="304.4" class="st10" width="15.3" height="12.1"/>
<rect id="XMLID_374_" x="158.2" y="320.1" class="st10" width="15.3" height="12.4"/>
<rect id="XMLID_373_" x="175.9" y="319.9" class="st10" width="15.3" height="12.4"/>
<rect id="XMLID_372_" x="193.9" y="319.9" class="st10" width="15.3" height="12.1"/>
<rect id="XMLID_371_" x="211.6" y="319.9" class="st10" width="15.3" height="12.1"/>
<rect id="XMLID_370_" x="229.6" y="320.5" class="st10" width="15.3" height="12.4"/>
<rect id="XMLID_369_" x="247.3" y="320.3" class="st10" width="15.3" height="12.4"/>
<rect id="XMLID_368_" x="265.2" y="320.3" class="st10" width="15.3" height="12.1"/>
<rect id="XMLID_367_" x="282.9" y="320.3" class="st10" width="15.3" height="12.1"/>
<rect id="XMLID_366_" x="300.9" y="320.5" class="st10" width="15.3" height="12.4"/>
<rect id="XMLID_365_" x="318.6" y="320.3" class="st10" width="15.3" height="12.4"/>
<rect id="XMLID_364_" x="336.6" y="320.3" class="st10" width="15.3" height="12.1"/>
<rect id="XMLID_363_" x="354.3" y="320.3" class="st10" width="15.3" height="12.1"/>
<rect id="XMLID_315_" x="371.8" y="320.5" class="st10" width="33.2" height="12.4"/>
<rect id="XMLID_314_" x="407.5" y="320.3" class="st10" width="15.3" height="12.1"/>
<rect id="XMLID_194_" x="432.5" y="320.3" class="st10" width="14.4" height="12.1"/>
<rect id="XMLID_193_" x="449.8" y="319.9" class="st10" width="15.3" height="12.4"/>
<rect id="XMLID_191_" x="467.5" y="319.7" class="st10" width="15.3" height="12.4"/>
<rect id="XMLID_186_" x="485.5" y="319.7" class="st10" width="17.1" height="12.6"/>
<rect id="XMLID_306_" x="366" y="304.4" class="st10" width="15.3" height="12.4"/>
<rect id="XMLID_307_" x="432.9" y="304.1" class="st10" width="15.3" height="12.4"/>
<rect id="XMLID_204_" x="393.3" y="335.9" class="st10" width="15.3" height="12.1"/>
<rect id="XMLID_311_" x="411.2" y="335.8" class="st10" width="15.3" height="12.1"/>
<rect id="XMLID_226_" x="432.5" y="335.8" class="st10" width="14.4" height="12.1"/>
<rect id="XMLID_225_" x="449.8" y="335.4" class="st10" width="15.3" height="12.4"/>
<rect id="XMLID_206_" x="467.5" y="335.2" class="st10" width="15.3" height="12.4"/>
<rect id="XMLID_205_" x="485.5" y="335.2" class="st10" width="17.1" height="12.6"/>
<g id="XMLID_176_" class="st34">
	<g id="XMLID_298_">
		<g id="XMLID_450_">
			<g id="XMLID_566_">
				<g id="XMLID_567_">
					<g id="XMLID_571_">
						<rect id="XMLID_572_" x="413.5" y="400.7" class="st30" width="15" height="13.8"/>
					</g>
					<rect id="XMLID_570_" x="420" y="410.9" class="st35" width="1.5" height="2.6"/>
					<rect id="XMLID_569_" x="420" y="406.3" class="st35" width="1.5" height="2.6"/>
					<rect id="XMLID_568_" x="420" y="401.8" class="st35" width="1.5" height="2.6"/>
				</g>
			</g>
			<g id="XMLID_465_">
				<g id="XMLID_560_">
					<g id="XMLID_564_">
						<rect id="XMLID_565_" x="413.5" y="414.5" class="st30" width="15" height="13.8"/>
					</g>
					<rect id="XMLID_563_" x="420" y="424.7" class="st35" width="1.5" height="2.6"/>
					<rect id="XMLID_562_" x="420" y="420.1" class="st35" width="1.5" height="2.6"/>
					<rect id="XMLID_561_" x="420" y="415.6" class="st35" width="1.5" height="2.6"/>
				</g>
			</g>
			<g id="XMLID_458_">
				<g id="XMLID_459_">
					<g id="XMLID_463_">
						<rect id="XMLID_464_" x="413.5" y="428.3" class="st30" width="15" height="13.8"/>
					</g>
					<rect id="XMLID_462_" x="420" y="438.5" class="st35" width="1.5" height="2.6"/>
					<rect id="XMLID_461_" x="420" y="433.9" class="st35" width="1.5" height="2.6"/>
					<rect id="XMLID_460_" x="420" y="429.3" class="st35" width="1.5" height="2.6"/>
				</g>
			</g>
			<g id="XMLID_451_">
				<g id="XMLID_452_">
					<g id="XMLID_456_">
						<rect id="XMLID_457_" x="413.5" y="442.1" class="st30" width="15" height="13.8"/>
					</g>
					<rect id="XMLID_455_" x="420" y="452.3" class="st35" width="1.5" height="2.6"/>
					<rect id="XMLID_454_" x="420" y="447.7" class="st35" width="1.5" height="2.6"/>
					<rect id="XMLID_453_" x="420" y="443.1" class="st35" width="1.5" height="2.6"/>
				</g>
			</g>
		</g>
	</g>
</g>
<polygon id="XMLID_170_" class="st8" points="695.5,326 654.1,318.8 662.3,282.6 703.8,289.7 "/>
<polygon id="XMLID_163_" class="st10" points="694.2,323.9 652.7,316.8 661,280.5 702.5,287.6 "/>
<polygon id="XMLID_162_" class="st10" points="697.5,298.7 660.7,292.3 661.3,289.9 698.1,296.2 "/>
<polygon id="XMLID_159_" class="st24" points="678.6,290.5 662.5,287.8 662.8,286.5 678.9,289.1 "/>
<polygon id="XMLID_157_" class="st24" points="696.4,299.9 662.1,294 662.4,292.8 696.6,298.7 "/>
<polygon id="XMLID_156_" class="st16" points="694.3,305.6 660,299.7 660.3,298.5 694.6,304.4 "/>
<polygon id="XMLID_147_" class="st16" points="695.3,303.2 661,297.3 661.3,296 695.5,301.9 "/>
<polygon id="XMLID_146_" class="st16" points="693.8,308.4 659.6,302.5 659.9,301.2 694.1,307.1 "/>
<polygon id="XMLID_142_" class="st16" points="679.7,315.3 657.2,311.5 657.5,310.3 679.9,314.1 "/>
<polygon id="XMLID_141_" class="st24" points="692.4,311.9 658.2,306 658.5,304.8 692.7,310.7 "/>
<polygon id="XMLID_188_" class="st2" points="656.8,308.1 609.7,314.1 605.7,260.9 652.8,254.9 "/>
<polygon id="XMLID_154_" class="st18" points="654.6,305.8 607.5,311.8 603.5,258.6 650.6,252.6 "/>
<polygon id="XMLID_200_" class="st10" points="631,261.2 608.4,263.8 608.3,262.5 631,259.9 "/>
<polygon id="XMLID_199_" class="st10" points="641.8,264.8 609.4,268.3 609.3,267 641.8,263.6 "/>
<polygon id="XMLID_207_" class="st10" points="646.1,298.2 612.5,301.7 612.5,300.5 646.1,296.9 "/>
<polygon id="XMLID_208_" class="st10" points="646.5,302.5 623.9,305.1 623.8,303.8 646.5,301.2 "/>
<polygon id="XMLID_209_" class="st10" points="637,274.2 614.4,276.8 614.3,275.5 636.9,272.9 "/>
<polygon id="XMLID_189_" class="st10" points="647.8,277.8 615.3,281.3 615.3,280 647.7,276.6 "/>
<polygon id="XMLID_290_" class="st10" points="633.7,286.9 611,289.5 611,288.3 633.6,285.7 "/>
<polygon id="XMLID_289_" class="st10" points="644.5,290.6 612,294.1 612,292.8 644.4,289.3 "/>
</svg>
