<?xml version="1.0" encoding="utf-8"?>
<!-- Generator: Adobe Illustrator 19.0.0, SVG Export Plug-In . SVG Version: 6.00 Build 0)  -->
<svg version="1.1" id="Layer_1" xmlns="http://www.w3.org/2000/svg" xmlns:xlink="http://www.w3.org/1999/xlink" x="0px" y="0px"
	 viewBox="0 0 800 800" style="enable-background:new 0 0 800 800;" xml:space="preserve">
<style type="text/css">
	.st0{fill:#FFFFFF;}
	.st1{opacity:1.000000e-002;fill:none;stroke:#FFFFFF;stroke-width:3;stroke-miterlimit:10;}
</style>
<g id="XMLID_1_">
	<path id="XMLID_5_" class="st0" d="M200.4,615.5l36.7,0.4l-0.6,47.1c-0.2,15.1,14.9,27.5,33.8,27.7c5.9,0.1,11.4-1.2,16.3-3.2
		l-0.2,13.2c-0.2,15.1,14.9,27.5,33.8,27.7c18.8,0.2,34.3-11.9,34.5-26.9l1-84.3l217.3,2.5l-1,84.3c-0.2,15.1,14.9,27.5,33.8,27.7
		c18.9,0.2,34.3-11.9,34.5-26.9l0.2-13.3c4.8,2.2,10.3,3.6,16.2,3.7c18.8,0.2,34.3-11.9,34.4-26.9l0.6-47.2l45.3,0.5
		c16.2,0.2,29.4-10.1,29.6-23c0.2-12.9-12.8-23.6-29-23.8l-45.3-0.5l0.6-47.1c0.2-15.1-14.9-27.5-33.8-27.7
		c-5.9-0.1-11.5,1.2-16.3,3.2l0.2-13.2c0.2-15.1-14.9-27.5-33.8-27.7c-18.8-0.2-34.3,11.9-34.5,26.9l-1,84.3l-217.3-2.5l1-84.3
		c0.2-15.1-14.9-27.5-33.8-27.7c-18.8-0.2-34.3,11.9-34.4,26.9l-0.2,13.2c-4.9-2.2-10.3-3.5-16.2-3.6c-18.8-0.2-34.3,11.8-34.5,26.9
		l-0.6,47.1l-36.7-0.4c-16.2-0.2-29.4,10.1-29.6,23.1C171.3,604.7,184.3,615.3,200.4,615.5L200.4,615.5z M200.4,615.5"/>
</g>
<line id="XMLID_2_" class="st1" x1="265.7" y1="563.6" x2="268.6" y2="790.3"/>
<line id="XMLID_6_" class="st1" x1="522.6" y1="0" x2="519.4" y2="285.3"/>
<g id="XMLID_7_">
	<path id="XMLID_8_" class="st0" d="M57.7,274.7l47,0.6l-0.7,59.8c-0.2,19.1,19.1,34.9,43.3,35.2c7.6,0.1,14.6-1.5,20.9-4.1
		l-0.2,16.8c-0.2,19.1,19.1,34.9,43.3,35.2c24.1,0.3,44-15,44.2-34.2l1.3-106.9l278.4,3.3l-1.3,106.9c-0.2,19.1,19.1,34.9,43.3,35.2
		c24.2,0.3,44-15,44.2-34.2l0.2-16.8c6.2,2.8,13.2,4.6,20.8,4.6c24.1,0.3,43.9-15,44.1-34.1l0.7-59.8l58,0.7
		c20.7,0.2,37.7-12.8,37.9-29.2c0.2-16.4-16.4-29.9-37.2-30.2l-58-0.7l0.7-59.8c0.2-19.2-19.1-34.9-43.3-35.2
		c-7.6-0.1-14.7,1.5-20.9,4.1l0.2-16.8c0.2-19.2-19.1-34.9-43.3-35.2c-24.1-0.3-43.9,15-44.1,34.1l-1.3,106.9l-278.4-3.3l1.3-106.9
		c0.2-19.1-19.1-34.9-43.3-35.2c-24.1-0.3-43.9,15-44.1,34.1l-0.2,16.8c-6.2-2.7-13.2-4.5-20.8-4.6c-24.1-0.3-43.9,15-44.1,34.2
		l-0.7,59.8l-47-0.6c-20.7-0.2-37.7,12.9-37.9,29.3S36.9,274.5,57.7,274.7L57.7,274.7z M57.7,274.7"/>
</g>
</svg>
