<?xml version="1.0" encoding="iso-8859-1"?>
<!-- Generator: Adobe Illustrator 19.0.0, SVG Export Plug-In . SVG Version: 6.00 Build 0)  -->
<svg version="1.1" id="Layer_1" xmlns="http://www.w3.org/2000/svg" xmlns:xlink="http://www.w3.org/1999/xlink" x="0px" y="0px"
	 viewBox="0 0 200 200" style="enable-background:new 0 0 200 200;" xml:space="preserve">
<g id="airplane_1_">
	<path id="XMLID_209_" style="fill:#FFFFFF;" d="M179.432,183.089l-21.561-45.548c-0.071-0.218-0.162-0.427-0.295-0.62
		l-24.534-51.825l7.393-7.07c2.059-1.789,4.141-3.723,6.212-5.795c13.563-13.563,21.412-27.582,17.604-31.387
		c-3.726-3.731-17.127,3.602-30.671,16.903l-0.006-0.006l-0.08,0.086c-0.225,0.229-0.426,0.422-0.659,0.649
		c-2.278,2.282-4.38,4.561-6.315,6.819l-6.563,7.03L68.704,48.056c-0.195-0.13-0.397-0.227-0.618-0.295L22.541,26.199
		c0,0-1.627-0.217-4.396,2.551c-2.768,2.771-2.841,3.521,0.926,7.52c1.594,1.695,15.526,13.971,31.056,27.563l-4.339,4.339
		c-0.976,0.976-1.002,2.533-0.055,3.476l0.073,0.073c0.942,0.945,2.502,0.919,3.478-0.054l4.568-4.57
		c3.74,3.264,7.516,6.564,11.194,9.769l-5.281,5.285c-0.978,0.972-0.999,2.529-0.057,3.476l0.073,0.069
		c0.943,0.948,2.5,0.922,3.48-0.054l5.515-5.517c3.989,3.476,7.788,6.787,11.206,9.759l-6.241,6.241
		c-0.977,0.977-1.002,2.534-0.055,3.476l0.071,0.076c0.944,0.945,2.503,0.917,3.478-0.057l6.481-6.483
		c4.014,3.489,7.242,6.298,9.271,8.06l-40.739,43.621l-0.061-0.058l-0.228,0.262L23.854,131.26c0,0-1.462-0.287-3.219,1.373
		c-1.757,1.659-3.327,3.618-0.065,7.832c2.497,3.216,12.305,15.805,16.78,21.552l-0.025,0.027c0,0-6.21,9.219-6.763,14.429
		c0,0,5.065-0.805,13.307-7.587c4.548,3.54,19.58,15.246,23.139,18.009c4.205,3.265,6.169,1.695,7.826-0.062
		c1.66-1.757,1.375-3.22,1.375-3.22l-14.684-29.987c0.204-0.18,0.317-0.28,0.317-0.28l-0.083-0.07l42.582-40.726
		c1.754,2.023,4.518,5.209,7.913,9.118l-6.483,6.483c-0.978,0.974-0.758,2.775,0.185,3.72l0.073,0.073
		c0.944,0.949,2.258,0.676,3.234-0.296l6.242-6.246c3.272,3.716,6.523,7.456,9.761,11.203l-5.52,5.521
		c-0.976,0.976-0.76,2.778,0.187,3.72l0.073,0.073c0.942,0.947,2.258,0.675,3.23-0.298l5.285-5.283
		c3.257,3.733,6.515,7.464,9.773,11.195l-4.573,4.571c-0.974,0.976-0.757,2.773,0.189,3.719l0.071,0.074
		c0.943,0.943,2.256,0.676,3.234-0.298l4.339-4.339c13.586,15.525,25.987,29.584,27.683,31.178c4,3.767,4.876,3.814,7.642,1.043
		C179.647,184.718,179.432,183.089,179.432,183.089z"/>
</g>
<g id="airplane">
	<path id="XMLID_85_" style="fill:#FFFFFF;" d="M180.375,173.305l-21.561-45.548c-0.071-0.218-0.162-0.427-0.295-0.62
		l-24.534-51.825l7.393-7.07c2.059-1.789,4.141-3.723,6.212-5.795c13.563-13.563,21.412-27.582,17.604-31.387
		c-3.726-3.731-17.127,3.602-30.671,16.903l-0.006-0.006l-0.08,0.086c-0.225,0.229-0.426,0.422-0.659,0.649
		c-2.278,2.282-4.38,4.561-6.315,6.819l-6.563,7.03L69.647,38.272c-0.195-0.13-0.397-0.227-0.618-0.295L23.484,16.415
		c0,0-1.627-0.217-4.396,2.551c-2.768,2.771-2.841,3.521,0.926,7.52c1.594,1.695,15.526,13.971,31.056,27.563l-4.339,4.339
		c-0.976,0.976-1.002,2.533-0.055,3.476l0.073,0.073c0.942,0.945,2.502,0.919,3.478-0.054l4.568-4.57
		c3.74,3.264,7.516,6.564,11.194,9.769l-5.281,5.285c-0.978,0.972-0.999,2.529-0.057,3.476l0.073,0.069
		c0.943,0.948,2.5,0.922,3.48-0.054l5.515-5.517c3.989,3.476,7.788,6.787,11.206,9.759l-6.241,6.241
		c-0.977,0.977-1.002,2.534-0.055,3.476l0.071,0.076c0.944,0.945,2.503,0.917,3.478-0.057l6.481-6.483
		c4.014,3.489,7.242,6.298,9.271,8.06l-40.739,43.621l-0.061-0.058l-0.228,0.262l-28.106-13.759c0,0-1.462-0.287-3.219,1.373
		c-1.757,1.659-3.327,3.618-0.065,7.832c2.497,3.216,12.305,15.805,16.78,21.552l-0.025,0.027c0,0-6.21,9.219-6.763,14.429
		c0,0,5.065-0.805,13.307-7.587c4.548,3.54,19.58,15.246,23.139,18.009c4.205,3.265,6.169,1.695,7.826-0.062
		c1.66-1.757,1.375-3.22,1.375-3.22l-14.684-29.987c0.204-0.18,0.317-0.28,0.317-0.28l-0.083-0.07l42.582-40.726
		c1.754,2.023,4.518,5.209,7.913,9.118l-6.483,6.483c-0.978,0.974-0.758,2.775,0.185,3.72l0.073,0.073
		c0.944,0.949,2.258,0.676,3.234-0.296l6.242-6.246c3.272,3.716,6.523,7.456,9.761,11.203l-5.52,5.521
		c-0.976,0.976-0.76,2.778,0.187,3.72l0.073,0.073c0.942,0.947,2.258,0.675,3.23-0.298l5.285-5.283
		c3.257,3.733,6.515,7.464,9.773,11.195l-4.573,4.571c-0.974,0.976-0.757,2.773,0.189,3.719l0.071,0.074
		c0.943,0.943,2.256,0.676,3.234-0.298l4.339-4.339c13.586,15.525,25.987,29.584,27.683,31.178c4,3.767,4.876,3.814,7.642,1.043
		C180.591,174.934,180.375,173.305,180.375,173.305z"/>
</g>
<g id="XMLID_1_">
</g>
<g id="XMLID_2_">
</g>
<g id="XMLID_3_">
</g>
<g id="XMLID_4_">
</g>
<g id="XMLID_5_">
</g>
<g id="XMLID_6_">
</g>
</svg>
