<?xml version="1.0" encoding="utf-8"?>
<!-- Generator: Adobe Illustrator 19.0.0, SVG Export Plug-In . SVG Version: 6.00 Build 0)  -->
<svg version="1.1" id="Layer_1" xmlns="http://www.w3.org/2000/svg" xmlns:xlink="http://www.w3.org/1999/xlink" x="0px" y="0px"
	 viewBox="0 0 800 800" style="enable-background:new 0 0 800 800;" xml:space="preserve">
<style type="text/css">
	.st0{fill:#FFFFFF;}
	.st1{fill:#FFFFFF;stroke:#FFFFFF;stroke-width:6;stroke-miterlimit:10;}
</style>
<path id="XMLID_18_" class="st0" d="M701.5,97h-36.9H295.5c-15.3,0-27.7,15.6-27.7,34.8v116c0,78,26.8,148.3,69.4,197.2H277
	c-15.3,0-27.7,15.6-27.7,34.8c0,19.2,12.4,34.8,27.7,34.8h203h203c15.3,0,27.7-15.6,27.7-34.8c0-19.2-12.4-34.8-27.7-34.8h-60.2
	c22.4-25.7,40.4-57.3,52.5-92.8h26.2c0,0,0,0,0.1,0c55.9,0,101.4-57.3,101.4-127.6C803,154.2,757.4,97,701.5,97z M701.5,282.6
	C701.5,282.6,701.4,282.6,701.5,282.6h-11c1.2-11.4,1.8-23,1.8-34.8v-81.2h9.2c25.4,0,46.1,26,46.1,58S726.9,282.6,701.5,282.6z"/>
<g id="XMLID_1_">
	<g id="XMLID_3_">
		<path id="XMLID_4_" class="st1" d="M159.3,178.5l36.2,23.4c13.8,8.9,19,27.5,12.4,44.1l-19.4,48.9c7.9,10.2,10.8,23.6,6.7,35.9
			l-7,21.1c8,7.5,13.2,17.9,14.1,29.8l3.8,47.8c8.7,4.7,16,12.3,20.9,22.2l35.5,72.9c4.8,9.9,6.4,20.6,4.9,30.8l34.6,31.1
			c7.7,6.9,12.5,16.1,14.2,26l18.9,5.8c13,4,22.2,15.8,24.6,30.2l50.1,12.1c10.5,2.5,18.9,9.6,23.4,18.7c2.6,5.3,3.8,11.3,3.4,17.6
			l-3,44.7c-1.1,17-14.2,29.1-31.1,28.6l-55.8-1.5c-1.8,7.1-6,13.2-12,17.4c-7.8,5.5-17.9,7-27.1,4.2l-64.2-19.8
			c-2.6-0.8-5.1-1.9-7.5-3.4c-4.5,3.6-10,5.9-16.1,6.7c-11.3,1.6-23.4-2.4-32.5-10.5l-67.5-60.7c-6-5.4-10.5-12.3-13.2-20
			c-5.8,0.9-11.8,0.4-17.9-1.6c-12.9-4.1-24.5-14.4-30.9-27.5L8.5,552.3c-6.4-13.1-7.6-29-3.2-42.5c2.1-6.3,5.2-11.8,9.2-16.3
			c-4.4-6.8-7.1-14.8-7.8-23l-7.5-93.2c-1-12.5,3-25.2,10.8-34c3.6-4.1,7.9-7.2,12.5-9.1c-0.1-4.5,0.6-8.9,1.9-13.1l22.1-66.7
			c3.2-9.6,10.3-17.4,19-20.9c7.9-3.2,16.3-2.7,23.8,1.4l29.8-46.5C128.6,173.8,145.5,169.6,159.3,178.5L159.3,178.5z M359.2,669.2
			l-9.7,79.3l52.6,1.4c6.1,0.2,12.5-3.4,12.9-10.6l3-44.7c0.5-7.2-5.3-12.4-11.3-13.9L359.2,669.2z M315.6,633.3
			c-1.2,4.9-3.1,9.6-5.8,14.2l-61.7,103.6l63.8,19.7c4.1,1.3,8.7,0.6,12.2-1.9c1.9-1.4,4.4-3.8,4.9-7.9l0.5-4.3c0-0.1,0-0.2,0-0.3
			l12-97.9l0,0c0-0.2,0-0.4,0.1-0.7c0.8-8-2.6-17.3-10.6-19.7L315.6,633.3z M260.6,575.1c-3.9,6.5-9.2,12.3-15.8,16.8l-121.1,83.4
			c0.5,4.3,5.1,9.7,7.5,11.9l67.5,60.7c5,4.5,11.6,6.6,17.8,5.7c5-0.7,9.1-3.4,11.6-7.5l65.7-110.4c5.9-9.9,6.7-24.7-3.3-33.7
			L260.6,575.1z M172.2,446.9L35.1,503.3c-0.8,0.3-9.2,4.2-12.2,14.2c-2.5,8.3-1.9,17.9,2,25.9l49.4,101.4
			c3.9,8,10.9,14.3,18.8,16.8c5.6,1.8,10.6,2.8,18-2.2l123.2-84.9c11.8-8.1,19.7-24.8,11.8-40.9l-35.5-72.9
			C202.8,444.5,185.4,441.5,172.2,446.9L172.2,446.9z M36.3,352.3c-4.6-0.3-9.1,1.7-12.5,5.6c-4.3,4.8-6.5,11.8-5.9,18.6l7.5,93.2
			c0.4,4.8,2.1,9.5,4.8,13.4l134.7-55.4c7.4-3,14.9-4.2,22.1-3.8l-3.3-41.5c-1.1-13.8-12.9-21.7-24-22.4L36.3,352.3z M168,302.2
			l-79.3-44.9c-0.1,0-0.1-0.1-0.2-0.1l-6.8-3.9c-3.4-2-6.8-1.3-8.9-0.4c-3.9,1.6-7.1,5.1-8.6,9.4L42,329c-0.3,1-0.6,2.1-0.7,3.2
			l118.5,7.5c4,0.2,7.8,1,11.5,2.2l6.2-18.8C180.4,314.5,174.9,306.1,168,302.2L168,302.2z M134.6,200.9l-28.2,43.9l66.3,37.5
			l17.9-45.1c2.4-6,1.7-14-4.1-17.8L150.3,196C144.5,192.2,138,195.6,134.6,200.9L134.6,200.9z M81.5,576.8"/>
	</g>
</g>
</svg>
