<?xml version="1.0" encoding="iso-8859-1"?>
<!-- Generator: Adobe Illustrator 19.0.0, SVG Export Plug-In . SVG Version: 6.00 Build 0)  -->
<svg version="1.1" id="Layer_1" xmlns="http://www.w3.org/2000/svg" xmlns:xlink="http://www.w3.org/1999/xlink" x="0px" y="0px"
	 viewBox="0 0 200 200" style="enable-background:new 0 0 200 200;" xml:space="preserve">
<g id="XMLID_1_">
	<g id="XMLID_14_">
		<g id="XMLID_19_">
			<path id="XMLID_5_" style="fill:#FFFFFF;" d="M130.254,44.818l-3.753,3.167c-0.824,0.693-1.901,1.079-3.022,1.079H109.52
				l-3.527-8.759l7.692-7.591l2.564-2.92l3.684,1.46v-5.547l3.686-8.175c0,0,0.319-15.765-14.742-16.349
				C93.817,0.6,94.136,14.029,94.136,14.029l-3.316-0.476c-1.777-0.256-3.591,0.138-5.051,1.095l-3.786,2.483
				c-1.261,0.827-2.792,1.237-4.345,1.162l-11.934-0.572c-6.193-0.297-12.018,2.68-14.941,7.665
				C44.492,36.09,34.43,54.466,34.209,62.493c-0.321,11.678,7.69,20.437,21.792,15.765c0,0-5.768,14.013-1.282,24.817l1.854,29.268
				c0.043,0.697-0.238,1.379-0.773,1.878l-30.352,28.199c-0.773,0.718-1.702,1.282-2.73,1.656l-3.782,1.378
				c-1.727,0.63-3.159,1.791-4.045,3.281l0,0c-1.661,2.795-1.133,6.25,1.305,8.524l8.659,8.075c0.408,0.383,0.781,0.802,1.085,1.26
				c1.785,2.665,9.67,13.046,21.728,8.444l-6.089-24.523l34.768-29.39c0.518-0.437,0.826-1.039,0.866-1.679l0.302-4.974
				c0.157-2.57,3.979-3.249,5.18-0.918l0,0c0.346,0.665,0.346,1.436,0.004,2.105l-3.691,7.207c-0.166,0.327-0.253,0.687-0.253,1.048
				v35.507c0,3.628,3.227,6.568,7.21,6.568h20.027c0,0,9.614-0.291,9.935-7.298L95.48,170.81v-26.102
				c0-0.309,0.064-0.614,0.186-0.901l7.149-16.689c0.19-0.448,0.236-0.936,0.13-1.405l-3.363-14.754l-0.321-17.226l0.963-11.094
				l13.185-0.241c1.729-0.032,3.285-0.977,3.983-2.422l3.513-7.291c0.681-1.414,0.418-3.058-0.671-4.239l0,0
				c-1.758-1.901-4.965-1.926-6.756-0.052l-5.242,5.485l-10.254-1.46l4.807-9.343l14.823-0.81c0.787-0.043,1.545-0.276,2.199-0.673
				l9.192-5.58c0.87-0.529,1.916-0.762,2.958-0.657l3.881,0.393c1.889,0.191,3.705-0.734,4.513-2.301l0.072-0.137
				c0.7-1.357,0.52-2.957-0.466-4.156l-3.129-3.797C135.251,43.438,132.19,43.186,130.254,44.818z"/>
		</g>
		<g id="XMLID_15_">
			<path id="XMLID_16_" style="fill:#FFFFFF;" d="M41.656,197.369c-9.291,0-15.214-7.78-16.809-10.168
				c-0.238-0.356-0.536-0.697-0.911-1.049l-8.655-8.073c-2.85-2.659-3.459-6.636-1.516-9.901c1.025-1.727,2.692-3.078,4.695-3.805
				l3.784-1.378c0.855-0.312,1.644-0.794,2.286-1.392l30.352-28.197c0.286-0.263,0.433-0.626,0.41-0.993l-1.843-29.093
				c-3.473-8.585-0.884-18.838,0.559-23.27c-6.362,1.519-11.979,0.34-15.84-3.261c-3.542-3.31-5.403-8.395-5.242-14.324
				c0.217-7.898,9.202-24.82,16.703-37.626c3.146-5.366,9.388-8.614,16.142-8.281l12.217,0.579c1.174,0,2.297-0.33,3.245-0.954
				l3.784-2.481c1.729-1.133,3.858-1.606,6.004-1.302l1.906,0.276c0.219-2.067,1.056-6.025,4.246-8.997
				c2.817-2.618,6.721-3.834,11.758-3.662c16.128,0.626,15.972,17.368,15.968,17.538c-0.002,0.145-0.035,0.289-0.095,0.424
				l-3.589,7.96v5.317c0,0.394-0.218,0.761-0.578,0.976c-0.362,0.218-0.822,0.251-1.214,0.095l-2.788-1.105l-1.951,2.223
				l-7.22,7.127l2.949,7.324h13.064c0.8,0,1.562-0.274,2.152-0.768l3.751-3.169c2.407-2.018,6.522-1.681,8.477,0.7l3.127,3.798
				c1.276,1.551,1.506,3.602,0.601,5.353c-1.11,2.144-3.438,3.342-5.886,3.102l-3.883-0.394c-0.748-0.076-1.489,0.091-2.102,0.468
				l-9.189,5.581c-0.847,0.51-1.827,0.811-2.836,0.867l-14.065,0.768l-3.759,7.304l7.868,1.12l4.778-4.995
				c2.206-2.302,6.547-2.267,8.703,0.064c1.396,1.512,1.733,3.654,0.864,5.461l-3.515,7.293c-0.895,1.854-2.91,3.077-5.132,3.119
				l-12.02,0.22l-0.87,10.038l0.325,17.113l3.332,14.536c0.155,0.688,0.095,1.405-0.189,2.064l-7.151,16.691
				c-0.064,0.152-0.097,0.312-0.097,0.48v25.327l19.665,7.579c0.493,0.191,0.804,0.639,0.781,1.124
				c-0.29,6.401-7.437,8.306-11.171,8.42H85.965c-4.683,0-8.496-3.473-8.496-7.737v-35.507c0-0.529,0.133-1.061,0.377-1.543
				l3.693-7.208c0.182-0.354,0.182-0.758-0.002-1.11c-0.34-0.659-0.946-0.757-1.276-0.757c-0.671,0-1.415,0.388-1.466,1.243
				l-0.306,4.97c-0.052,0.946-0.508,1.825-1.272,2.472l-34.225,28.935l5.925,23.866c0.139,0.553-0.178,1.116-0.754,1.333
				C45.989,196.946,43.798,197.369,41.656,197.369z M56.001,77.092c0.336,0,0.667,0.121,0.911,0.346
				c0.35,0.324,0.464,0.803,0.288,1.232c-0.054,0.134-5.54,13.737-1.282,23.992c0.043,0.109,0.073,0.228,0.081,0.347l1.854,29.267
				c0.066,1.023-0.348,2.03-1.141,2.765l-30.35,28.195c-0.889,0.828-1.982,1.494-3.163,1.924l-3.788,1.379
				c-1.446,0.529-2.649,1.505-3.392,2.753c-1.404,2.359-0.963,5.233,1.096,7.153l8.655,8.073c0.516,0.482,0.93,0.96,1.27,1.47
				c1.417,2.12,6.665,9.048,14.618,9.048c1.479,0,2.993-0.245,4.517-0.726l-5.845-23.534c-0.103-0.407,0.043-0.83,0.379-1.114
				l34.768-29.388c0.275-0.233,0.437-0.549,0.458-0.887l0.302-4.976c0.12-1.967,1.849-3.448,4.026-3.448
				c1.57,0,2.916,0.782,3.595,2.095c0.507,0.979,0.51,2.108,0.006,3.095l-3.693,7.208c-0.087,0.172-0.134,0.365-0.134,0.555v35.507
				c0,2.978,2.657,5.4,5.93,5.4h20.027c0.286-0.011,7.642-0.318,8.566-5.39l-19.58-7.547c-0.472-0.184-0.781-0.606-0.781-1.075
				v-26.101c0-0.457,0.093-0.905,0.273-1.327l7.149-16.691c0.101-0.237,0.126-0.493,0.068-0.741l-3.359-14.756l-0.348-17.441
				l0.965-11.206c0.052-0.6,0.594-1.066,1.253-1.076l13.18-0.241c1.228-0.023,2.342-0.699,2.835-1.724l3.515-7.293
				c0.482-0.996,0.294-2.179-0.478-3.015c-1.187-1.289-3.589-1.311-4.807-0.036l-5.242,5.483c-0.288,0.303-0.737,0.449-1.164,0.387
				l-10.256-1.459c-0.398-0.059-0.744-0.281-0.932-0.608c-0.191-0.323-0.201-0.709-0.031-1.042l4.807-9.342
				c0.201-0.388,0.615-0.646,1.083-0.671l14.825-0.811c0.557-0.031,1.102-0.195,1.568-0.481l9.187-5.578
				c1.112-0.68,2.438-0.983,3.809-0.847l3.885,0.395c1.344,0.127,2.641-0.536,3.212-1.638c0.567-1.104,0.443-2.238-0.263-3.095
				l-3.127-3.797c-1.081-1.311-3.357-1.505-4.681-0.385l-3.753,3.167c-1.067,0.897-2.448,1.389-3.894,1.389H109.52
				c-0.541,0-1.019-0.305-1.205-0.765l-3.525-8.76c-0.168-0.409-0.064-0.87,0.261-1.193l7.692-7.591l2.504-2.858
				c0.362-0.411,0.984-0.547,1.512-0.343l1.893,0.75v-3.765c0-0.153,0.033-0.304,0.095-0.445l3.591-7.96
				c-0.021-1.868-0.638-14.454-13.516-14.952c-4.269-0.19-7.531,0.833-9.813,2.961c-3.674,3.422-3.595,8.64-3.591,8.692
				c0.008,0.345-0.153,0.677-0.439,0.906c-0.284,0.228-0.667,0.327-1.044,0.274l-3.314-0.476c-1.456-0.205-2.92,0.117-4.103,0.888
				l-3.786,2.483c-1.388,0.913-3.028,1.394-4.743,1.394l-0.418-0.011l-11.936-0.573c-5.76-0.249-11.066,2.484-13.742,7.05
				c-6.033,10.3-16.188,28.751-16.401,36.586c-0.147,5.291,1.454,9.777,4.511,12.634c3.664,3.421,9.123,4.132,15.558,2.004
				C55.705,77.115,55.854,77.092,56.001,77.092z"/>
		</g>
	</g>
	<g id="XMLID_11_">
		<g id="XMLID_12_">
			<path id="XMLID_4_" style="fill:#FFFFFF;" d="M177.137,160.59c-0.524,0-1.017-0.293-1.205-0.77L133.308,52.673
				c-0.24-0.605,0.106-1.275,0.77-1.494c0.654-0.219,1.4,0.092,1.64,0.7l42.621,107.147c0.244,0.605-0.102,1.274-0.766,1.495
				C177.429,160.568,177.282,160.59,177.137,160.59z"/>
		</g>
	</g>
	<g id="XMLID_2_">
		<g id="XMLID_9_">
			<path id="XMLID_8_" style="fill:#FFFFFF;" d="M87.728,141.321c-0.155,0-0.306-0.025-0.456-0.077
				c-0.663-0.229-0.996-0.905-0.744-1.506l25.957-62.187c0.253-0.603,0.996-0.896,1.655-0.677c0.661,0.23,0.992,0.906,0.744,1.508
				l-25.957,62.186C88.73,141.034,88.244,141.321,87.728,141.321z"/>
		</g>
	</g>
</g>
<g id="XMLID_3_">
</g>
<g id="XMLID_10_">
</g>
<g id="XMLID_13_">
</g>
<g id="XMLID_17_">
</g>
<g id="XMLID_18_">
</g>
<g id="XMLID_20_">
</g>
</svg>
