<?xml version="1.0" encoding="utf-8"?>
<!-- Generator: Adobe Illustrator 19.0.0, SVG Export Plug-In . SVG Version: 6.00 Build 0)  -->
<svg version="1.1" id="Layer_1" xmlns="http://www.w3.org/2000/svg" xmlns:xlink="http://www.w3.org/1999/xlink" x="0px" y="0px"
	 viewBox="0 0 800 800" style="enable-background:new 0 0 800 800;" xml:space="preserve">
<style type="text/css">
	.st0{fill:none;stroke:#FFFFFF;stroke-width:6;stroke-miterlimit:10;}
	.st1{fill:none;stroke:#FFFFFF;stroke-width:2;stroke-miterlimit:10;}
	.st2{fill:#FFFFFF;}
	.st3{fill:none;stroke:#FFFFFF;stroke-width:4;stroke-miterlimit:10;}
	.st4{fill:#C3DCCA;}
	.st5{fill:none;}
</style>
<path id="XMLID_6_" class="st0" d="M630.1-100"/>
<path id="XMLID_1_" class="st0" d="M306.7,504.7"/>
<path id="XMLID_7_" class="st0" d="M516.4,639.4"/>
<path id="XMLID_2_" class="st0" d="M363.5,535.5"/>
<path id="XMLID_9_" class="st1" d="M283,651.7"/>
<path id="XMLID_8_" class="st1" d="M269,640"/>
<path id="XMLID_13_" class="st2" d="M782.3,285.3c-16.1-8.9-34.8,8.1-49.3,23.9c-14.3,15.6-31.9,38.8-52.3,69
	c-39.8,58.9-79,127.4-100.4,168.1l-0.4,0.7l-0.3,0.8c-3.1,7.9-16.9,43.4-21.1,66.5c-14.6,5.8-27.2,17.1-35,31.9
	c-11.3,21.4-11.6,37.3-11.8,54c-0.3,16.2-0.5,32.9-10.5,60.5l-9.7,27.1l25.7-9.7c0.9-0.3,22.8-8.6,47.2-21.3
	c35-18.1,56.4-35.2,65.4-52.2c7.8-14.8,10.1-31.8,6.8-47.5c16.6-16.3,38-47.6,42.7-54.6l0.5-0.7l0.4-0.7
	c21.5-40.7,55.9-111.8,82.1-178.2c13.4-34,22.7-61.8,27.6-82.6C794.8,319.5,798.4,294.2,782.3,285.3z M598,572.4l57.8,25.9
	c-9.5,23.9-22.2,37.1-30,45.1l-47.1-28.6C581,603.7,590.2,583.9,598,572.4z M606.9,692.3c-8.6,16.3-43.3,36-73.3,49.6
	c3.9-17.8,4.1-31.3,4.3-42.9c0.3-15.3,0.4-25.3,8.3-40.2c4.7-8.9,12.5-15.7,21.4-18.8c0.5-0.2,1-0.3,1.5-0.5l41,22.6
	C613,671.9,611.9,682.9,606.9,692.3z M748.3,411.1c-22.7,55.9-54.8,132.6-74.3,170.5l-73-36c20.3-37.5,56-99.1,89.2-149.2
	c43.9-66.3,69.7-78.2,77.5-83.4C767.7,322.6,778.3,337.1,748.3,411.1z"/>
<path id="XMLID_16_" class="st3" d="M612.5,22.6"/>
<path id="XMLID_15_" class="st3" d="M417.7,234.2"/>
<g id="XMLID_24_">
	<path id="XMLID_25_" class="st2" d="M314.6,22.1C143.1,22.1,6,166.5,6,347.1C6,527.6,143.1,672,314.6,672
		c27.5,0,51.4-25.2,51.4-54.1c0-14.4-3.3-25.2-13.7-36.2c-6.7-10.7-13.5-21.5-13.5-35.9c0-28.9,23.9-54.3,51.4-54.3h61.6
		c96.2,0,171.5-79.3,171.5-180.5C623.2,152.1,486.1,22.1,314.6,22.1L314.6,22.1z M110.7,314.4c-19.3,0-36-17.6-36-37.8
		c0-20.2,16.8-37.8,36-37.8c19.2,0,36,17.6,36,37.8C146.7,296.8,129.9,314.4,110.7,314.4L110.7,314.4z M503.4,347.1"/>
</g>
<ellipse id="XMLID_4_" class="st4" cx="184" cy="167.9" rx="37.3" ry="38.2"/>
<ellipse id="XMLID_18_" class="st4" cx="314.6" cy="120.7" rx="37.3" ry="38.2"/>
<ellipse id="XMLID_19_" class="st4" cx="451.7" cy="167.9" rx="37.3" ry="38.2"/>
<ellipse id="XMLID_21_" class="st5" cx="110.7" cy="421.2" rx="37.3" ry="38.2"/>
<ellipse id="XMLID_23_" class="st4" cx="526.3" cy="276.6" rx="37.3" ry="38.2"/>
</svg>
