<?xml version="1.0" encoding="utf-8"?>
<!-- Generator: Adobe Illustrator 19.0.0, SVG Export Plug-In . SVG Version: 6.00 Build 0)  -->
<svg version="1.1" id="Layer_1" xmlns="http://www.w3.org/2000/svg" xmlns:xlink="http://www.w3.org/1999/xlink" x="0px" y="0px"
	 viewBox="0 0 200 200" style="enable-background:new 0 0 200 200;" xml:space="preserve">
<style type="text/css">
	.st0{fill-rule:evenodd;clip-rule:evenodd;fill:#FFFFFF;}
</style>
<g id="XMLID_1_">
	<path id="XMLID_2_" class="st0" d="M60.2,66.1h-5c-5,0-9.3-3.5-9.3-8.5c0-4.3,4.3-7.9,9.3-7.9h5c5,0,9.3,3.6,9.3,7.9
		C69.5,62.6,65.2,66.1,60.2,66.1L60.2,66.1z M144.6,102.6c-3.6-3.6-7.9-6.4-12.2-7.9c-5-2.2-9.3-2.8-15-2.8c-5,0-10,0.7-14.4,2.8
		c-4.2,1.4-8.5,4.3-12.1,7.9c-3.6,3.5-6.4,7.8-7.9,12.1c-2.2,4.3-2.8,9.3-2.8,14.3c0,5.7,0.7,10,2.8,14.2c1.5,5,4.2,9.3,7.9,12.9
		c3.5,2.9,7.9,5.8,12.1,7.8c4.3,2.2,9.3,2.8,14.4,2.8c5.7,0,10-0.7,15-2.8c4.3-2,8.5-5,12.2-7.8c3.5-3.6,6.4-7.9,7.9-12.9
		c2-4.3,2.8-8.5,2.8-14.2c0-5-0.8-10-2.8-14.3C151,110.4,148.1,106.1,144.6,102.6L144.6,102.6z M117.4,73.3c7.9,0,15,1.4,21.4,4.3
		l0,0c7.2,2.8,13,7.1,18.6,12.1l0,0c5,5,9.3,11.4,12.2,17.8l0,0c2.9,7.2,4.3,14.3,4.3,21.5c0,7.9-1.5,15-4.3,21.4l0,0
		c-2.8,7.1-7.2,12.8-12.2,18.5l0,0l0,0c-5.6,5-11.4,9.3-18.6,12.2l0,0c-6.4,2.1-13.6,4.2-21.4,4.2c-7.2,0-14.4-2.2-21.4-4.2l0,0
		c-6.5-2.8-12.9-7.2-17.9-12.2c-5-5.7-9.3-11.4-12.2-18.5l0,0c-2.8-6.4-4.2-13.6-4.2-21.4c0-7.2,1.4-14.3,4.2-21.5l0,0
		c2.8-6.4,7.2-12.8,12.2-17.8l0,0c5-5,11.4-9.3,17.9-12.1l0,0C103,74.7,110.2,73.3,117.4,73.3L117.4,73.3z M140.3,106.9
		c-2.8-2.8-6.5-5.8-10-7.2c-4.3-1.4-7.9-2.1-12.9-2.1c-4.2,0-7.9,0.7-11.4,2.1c-4.3,1.4-7.9,4.3-10.8,7.2c-2.7,2.8-4.9,6.4-7.1,10
		c-1.5,4.3-2.2,7.9-2.2,12.1c0,4.3,0.7,8.5,2.2,12.1c2.2,4.3,4.3,7.1,7.1,10.7c3,2.8,6.5,5,10.8,6.4c3.5,1.4,7.2,2.8,11.4,2.8
		c5,0,8.5-1.4,12.9-2.8c3.5-1.5,7.2-3.6,10-6.4c2.8-3.6,5-6.4,6.4-10.7c2.2-3.6,2.8-7.9,2.8-12.1c0-4.3-0.7-7.9-2.8-12.1
		C145.3,113.3,143.1,109.7,140.3,106.9L140.3,106.9z M21.6,41.2c-5.7,0.7-10,5-10,11.4v90.7c0,5.8,5,10.8,11.5,10.8h40.7
		c0-0.7,0-1.5-0.7-2.2c-2.9-7.2-4.2-15-4.2-22.8c0-7.9,1.4-15,4.2-22.2c2.8-7.2,7.2-14.3,12.9-19.3l0,0c5.7-5.7,12.2-10,19.2-12.8
		c7.2-2.9,15-4.3,22.2-4.3c7.9,0,15.7,1.4,22.9,4.3c7.2,2.8,13.6,7.1,19.4,12.8l0,0c5.7,5,9.9,12.1,12.8,19.3
		c3,7.1,4.3,14.3,4.3,22.2c0,7.9-1.4,15.7-4.3,22.8c-0.7,0.7-0.7,1.4-1.4,2.2h10.7c6.4,0,11.4-5,11.4-10.8V52.6
		c0-6.4-5-10.7-10.7-11.4h-42.1l-2.8-15c-0.7-4.3-4.3-7.1-8.5-7.1h-27.2H75.2c-4.3,0-7.9,2.8-8.5,7.1l-3,15H21.6z"/>
</g>
</svg>
