<svg id="Layer_1" data-name="Layer 1" xmlns="http://www.w3.org/2000/svg" viewBox="0 0 1877 1877"><defs><style>.cls-1,.cls-2{fill:#f2b965;}.cls-2{fill-rule:evenodd;}</style></defs><title>linkedin</title><path class="cls-1" d="M1011.5,61C493.16,61,73,481.16,73,999.5S493.16,1938,1011.5,1938,1950,1517.84,1950,999.5,1529.84,61,1011.5,61Zm0,1730.36c-437.34,0-791.86-354.52-791.86-791.86S574.16,207.64,1011.5,207.64s791.86,354.52,791.86,791.86-354.52,791.86-791.86,791.86Zm0,0" transform="translate(-73 -61)"/><path class="cls-2" d="M542.6,1468.34h176V764.47h-176Zm703.86-703.87C1095.81,767,1021.7,876.81,1011.84,881.78V764.47h-176v703.87h176V1057.75c0-15.06,37.13-135.63,176-117.3,74.59,4.87,114.79,103.5,117.32,117.3v410.59l175.28.81V981.85c-6.2-70.33-41.35-214.86-233.94-217.38ZM630.58,529.84a88,88,0,1,0,88,88,88,88,0,0,0-88-88Zm0,0" transform="translate(-73 -61)"/></svg>