<svg xmlns="http://www.w3.org/2000/svg" viewBox="0 0 301.35 894.71"><defs><style>.cls-1{isolation:isolate;}.cls-10,.cls-13,.cls-16,.cls-19,.cls-2,.cls-6,.cls-8{fill:#d1d5c3;}.cls-3,.cls-41{opacity:0.5;}.cls-4{fill:#e0f0e6;}.cls-5{fill:#d1d7c5;}.cls-6{mix-blend-mode:multiply;}.cls-7{fill:#795030;}.cls-31,.cls-8{stroke:#5a4a42;stroke-width:0.25px;}.cls-13,.cls-16,.cls-19,.cls-22,.cls-25,.cls-28,.cls-31,.cls-38,.cls-39,.cls-40,.cls-47,.cls-8{stroke-miterlimit:10;}.cls-38,.cls-9{fill:#404041;}.cls-10,.cls-33{opacity:0.4;}.cls-11{fill:#585859;}.cls-11,.cls-43{fill-rule:evenodd;}.cls-12{fill:#f7bdd6;}.cls-13,.cls-28,.cls-38{stroke:#404041;}.cls-14{fill:#f7f8f5;}.cls-15{fill:#58595b;}.cls-16,.cls-22{stroke:#58595b;}.cls-16,.cls-39{stroke-width:3px;}.cls-17{fill:#434345;}.cls-18{fill:#f7aaa3;}.cls-19,.cls-40{stroke:#f7aaa3;}.cls-19,.cls-22{stroke-width:5px;}.cls-20,.cls-28{fill:#e5a57c;}.cls-21,.cls-22{fill:#383638;}.cls-23,.cls-25,.cls-39,.cls-40{fill:#fac4b9;}.cls-24{fill:#fcdad2;}.cls-25,.cls-39{stroke:#fac4b9;}.cls-26{fill:#f6e972;}.cls-27{fill:#ebeadf;}.cls-28{stroke-width:4px;}.cls-29{fill:#d19574;}.cls-30,.cls-48{fill:#fff;}.cls-31{fill:#231f20;}.cls-32{fill:#f0ad75;}.cls-33{fill:#e48887;}.cls-34{fill:#a6ddf0;}.cls-35{fill:#b7e3f2;}.cls-36{fill:#e28388;opacity:0.8;}.cls-37{fill:#f7f6f6;}.cls-40{stroke-width:6px;}.cls-41{fill:#f8b6b6;}.cls-42,.cls-45{fill:#ffeead;}.cls-42{opacity:0.7;}.cls-43{fill:#5b5b5d;}.cls-44{fill:#e5eddd;}.cls-46{fill:#b2ded7;}.cls-47{fill:none;stroke:#757576;stroke-width:0.1px;}.cls-48{font-size:18.07px;font-family:MyriadPro-Regular, Myriad Pro;}</style></defs><title>mewithbangs</title><g class="cls-1"><g id="Layer_1" data-name="Layer 1"><path class="cls-2" d="M373,598.76c2.33-10.19-1.5-21.35-1.77-21.9-1-2.15-3-3.26-4.39-2.49s-1.62,3.14-.58,5.28a11.45,11.45,0,0,1,.36,1.43c.19.86.42,2,.6,3.46.35,2.8-1.31,6.72-2.08,10.08-.45,1.92,2.36,4.17,4,5.4S372.53,600.68,373,598.76Z" transform="translate(-317 -83.93)"/><path class="cls-2" d="M378.84,585.19l-3.14-53.81-25.13-20.11-12.41,72.22c.62,10.64,4.71,12.65,15.38,12.42S379.46,595.83,378.84,585.19Z" transform="translate(-317 -83.93)"/><g class="cls-3"><path class="cls-4" d="M464.58,736.34" transform="translate(-317 -83.93)"/><path class="cls-4" d="M452.78,583.72s9.69,21.12,28.54,25.08c0,0,5.09-1,6.42,1.17s24.92-11.25,27.44-17.13c0,0-23.26,11.52-27.85,10.15C475.2,599.39,458.89,592.36,452.78,583.72Z" transform="translate(-317 -83.93)"/></g><path class="cls-2" d="M461.05,106.78c-21.16,36.65-31.57,80.67-29.33,124,.55,10.47,10.79,17.6,17.14,25.44,4.54,5.61,6.12,8.35,10.55,14.07,6.73,8.69,3.58,25.63,3.84,37,.06,2.49.05,5.22-1.38,7.16-2,2.77-5.8,2.64-9,2.54-15.62-.46-31.32,6.06-42.76,17.76,13.32-23.13,13.36-52.62,9.28-79.62s-11.8-53.47-12.56-80.83,7.06-57.1,27.54-72.67c4.46-3.39,9.7-6.08,15.11-5.65s10.82,4.83,11.3,10.77" transform="translate(-317 -83.93)"/><path class="cls-2" d="M518.18,572.52,454.89,595.7v-241h55c4.58,0,8.29,4.08,8.29,9.11Z" transform="translate(-317 -83.93)"/><path class="cls-5" d="M409.09,312.7s-19.93,4.17-26.33,42.88c-9.25,56-54.46,149.87-54.46,149.87s42.19,77.56,52.26,71.3S409.09,312.7,409.09,312.7Z" transform="translate(-317 -83.93)"/><path class="cls-2" d="M533.66,187.55" transform="translate(-317 -83.93)"/><path class="cls-2" d="M479,197c-2.39-3.56.67.74-3.63-4.46-2-2.38-8.87-4.65-12.6-4.67a45.55,45.55,0,0,1-10.85-1.14c3.5,5.12,9.85,8.6,15,9.66A30.93,30.93,0,0,0,479,197" transform="translate(-317 -83.93)"/><path class="cls-2" d="M473.87,190.83c2,1.68-.69,6.2-4.4,6.2s-9.32-1.87-9.32-5.48c0-2.8,1.33-4.61,4.92-3.82C469.9,188.81,472.24,189.43,473.87,190.83Z" transform="translate(-317 -83.93)"/><path class="cls-2" d="M515.79,197.8c2.51-3.56-.7.74,3.8-4.46,2.06-2.38,9.28-4.65,13.18-4.67a49.77,49.77,0,0,0,11.35-1.14c-3.66,5.12-10.3,8.6-15.71,9.66a33.83,33.83,0,0,1-12.62.61" transform="translate(-317 -83.93)"/><path class="cls-2" d="M521.12,191.6c-2,1.67.72,6.2,4.6,6.2s9.75-1.87,9.75-5.49c0-2.79-1.39-4.6-5.14-3.81C525.27,189.58,522.83,190.2,521.12,191.6Z" transform="translate(-317 -83.93)"/><ellipse class="cls-2" cx="209.12" cy="108.75" rx="1.28" ry="3.22"/><ellipse class="cls-2" cx="147.2" cy="106.77" rx="1.22" ry="3.34"/><path class="cls-2" d="M479.73,184.66a37.72,37.72,0,0,0-16.67-9.53c-3.62-.91-7.31-1.16-10.92-2.14a18,18,0,0,1-9.94-6.31l27,3c2.93.33,6,.72,8.46,2.95a10.83,10.83,0,0,1,2.8,10.67" transform="translate(-317 -83.93)"/><path class="cls-2" d="M514.22,183.92a41,41,0,0,1,17.62-9.14c3.83-.87,7.73-1.11,11.55-2.05a19.39,19.39,0,0,0,10.5-6l-28.5,2.9c-3.09.32-6.32.69-8.94,2.83s-4.34,6.67-3,10.24" transform="translate(-317 -83.93)"/><path class="cls-2" d="M501.21,225.3a9.13,9.13,0,0,1-7.22,3.77c-3,.12-5.86-1.18-7.13-3.2" transform="translate(-317 -83.93)"/><path class="cls-2" d="M467.79,242.74c2.9,1.06,45.7,4.55,48.54,4-.11,4.75-1,9.62-4.62,13.31s-10.53,5.91-17.08,4.22c-6-1.54-12.68-6.4-16-10.35s-5.15-8.94-10.81-11.15" transform="translate(-317 -83.93)"/><ellipse class="cls-2" cx="137.63" cy="110.96" rx="0.71" ry="0.53"/><path class="cls-2" d="M479,197a18.74,18.74,0,0,0-14.7-9.67c-2.48-.17-5,.19-7.45.15a11.07,11.07,0,0,1-7-2.16" transform="translate(-317 -83.93)"/><path class="cls-2" d="M514.69,198.67A19.66,19.66,0,0,1,530.07,189c2.59-.18,5.19.18,7.79.14a11.86,11.86,0,0,0,7.36-2.16" transform="translate(-317 -83.93)"/><polyline class="cls-2" points="119.39 80.37 112.08 97.98 111.36 79.76 111.47 62.76"/><path class="cls-2" d="M428.47,146.7l.61,35.21Z" transform="translate(-317 -83.93)"/><polygon class="cls-2" points="122.01 66.61 112.03 97.98 111.47 62.76 122.01 66.61"/><polyline class="cls-2" points="193.77 221.56 193.19 188.56 142.71 189.79 142.71 221.49"/><polyline class="cls-6" points="194.07 219.48 142.71 204.29 142.71 189.79 193.94 186.9 194.07 219.48"/><path class="cls-2" d="M550.53,186,550,152.52c-8.48-33.38-27.61-62.45-62.51-63.74s-68.14,26.94-69.36,63.74v28.57a12,12,0,0,0-5.28,2.58,13.55,13.55,0,0,0-4.79,10l-.46,13.85c-.24,7.33,6.85,9.2,13.82,9.5,19.49,36.44,34.1,62.38,60.93,67.07,24.23,4.24,47-33.48,63.4-65.41,6.94.2,13.32,1.76,13.56-5.57l.46-13.86A13.24,13.24,0,0,0,550.53,186Z" transform="translate(-317 -83.93)"/><path class="cls-2" d="M519.19,186.72" transform="translate(-317 -83.93)"/><g class="cls-3"><path class="cls-2" d="M490.21,224.47a9.13,9.13,0,0,1-7.21,3.77c-3,.12-5.86-1.18-7.13-3.2" transform="translate(-317 -83.93)"/><path class="cls-7" d="M490.21,224.47a6.17,6.17,0,0,1-2.74,3.39,8.91,8.91,0,0,1-4.27,1.37,8.6,8.6,0,0,1-4.41-.95,5.6,5.6,0,0,1-2.92-3.24,9.18,9.18,0,0,0,3.51,1.8,11.67,11.67,0,0,0,3.71.39,12.84,12.84,0,0,0,3.68-.76A11.3,11.3,0,0,0,490.21,224.47Z" transform="translate(-317 -83.93)"/></g><ellipse class="cls-8" cx="126.64" cy="110.13" rx="0.71" ry="0.53"/><path class="cls-2" d="M417.48,145.87l.61,35.22Z" transform="translate(-317 -83.93)"/><path class="cls-2" d="M502.42,198.48c5.17,7.91,17.38,9.37,23.64,6.29s8.62-8.14,11.5-16.35h0c-6-4.49-13.51-7.43-19.47-5.68s-12.66,8.62-15.67,15.74Z" transform="translate(-317 -83.93)"/><path class="cls-9" d="M502.42,198.48a17.78,17.78,0,0,0,9.66,5.75,21.56,21.56,0,0,0,5.52.67,19.19,19.19,0,0,0,5.38-.71,13.18,13.18,0,0,0,2.38-1,18.9,18.9,0,0,0,2.24-1.42,14.7,14.7,0,0,0,3.54-3.83c2-2.94,3.27-6.57,4.54-10.22l.68,2.26a32.7,32.7,0,0,0-9-4.95,15.21,15.21,0,0,0-9.62-.57,24.06,24.06,0,0,0-8.63,5.55A36.66,36.66,0,0,0,502.42,198.48Zm0,0a29.12,29.12,0,0,1,5.28-9.75,23.92,23.92,0,0,1,9-7.13,14.72,14.72,0,0,1,6-1.08,22.47,22.47,0,0,1,5.86,1,34.89,34.89,0,0,1,10.24,5.31l1.19.86-.51,1.4c-1.36,3.69-2.71,7.54-5.18,11.07a18.42,18.42,0,0,1-4.62,4.53,20.76,20.76,0,0,1-2.78,1.59,14.63,14.63,0,0,1-3.13,1,22.29,22.29,0,0,1-12.27-1.13A16.67,16.67,0,0,1,502.42,198.48Z" transform="translate(-317 -83.93)"/><path class="cls-10" d="M470.83,197.06c-6.51,10.29-20.9,13-28.06,9.55s-9.62-9.62-12.52-19.73h0c7.25-6.06,16.26-10.27,23.14-8.49s14.33,9.93,17.44,18.67Z" transform="translate(-317 -83.93)"/><path class="cls-2" d="M534.87,189.28c5,9.55-4.45,15-10,15.81s-16.84,1-16-10c.74-9.11,8.28-11.18,13.4-11.59C528.44,183,532.51,184.72,534.87,189.28Z" transform="translate(-317 -83.93)"/><path class="cls-2" d="M470,198.49c-5.17,7.9-17.38,9.37-23.64,6.28s-8.62-8.14-11.5-16.35h0c6-4.49,13.52-7.42,19.47-5.67S467,191.36,470,198.49Z" transform="translate(-317 -83.93)"/><path class="cls-9" d="M470,198.49a16.69,16.69,0,0,1-9,7.67,22.21,22.21,0,0,1-12.27,1.12,13.44,13.44,0,0,1-3.13-1,19.82,19.82,0,0,1-2.79-1.59,18.25,18.25,0,0,1-4.62-4.53c-2.46-3.53-3.82-7.37-5.18-11.07l-.51-1.39,1.2-.86a34.79,34.79,0,0,1,10.24-5.32,22.32,22.32,0,0,1,5.85-1,14.53,14.53,0,0,1,6,1.08,23.81,23.81,0,0,1,9,7.12A29,29,0,0,1,470,198.49Zm0,0a36.68,36.68,0,0,0-6.69-8.45,24.14,24.14,0,0,0-8.64-5.55,15.21,15.21,0,0,0-9.62.58,32.84,32.84,0,0,0-9,5l.69-2.26c1.27,3.65,2.55,7.28,4.53,10.22a14.69,14.69,0,0,0,3.55,3.82,16,16,0,0,0,2.24,1.42,12,12,0,0,0,2.38,1,18.71,18.71,0,0,0,5.37.7,21.57,21.57,0,0,0,5.53-.66A17.82,17.82,0,0,0,470,198.49Z" transform="translate(-317 -83.93)"/><path class="cls-2" d="M442.27,189.14c-4.43,9.55,3.76,14.85,8.66,15.6s14.54.79,14.08-10.13c-.43-9.86-7.15-11-11.63-11.37C448,182.82,444.39,184.59,442.27,189.14Z" transform="translate(-317 -83.93)"/><path class="cls-2" d="M446,192.65c-.73,6.22,3.21,12,8.8,12.82s12-3.47,11.44-9.72c-.49-5.85-3.49-11.3-9.53-13.51C452,180.52,446.71,186.42,446,192.65Z" transform="translate(-317 -83.93)"/><ellipse class="cls-2" cx="450.05" cy="189.4" rx="5.42" ry="6.08" transform="translate(-320.6 -75.15) rotate(-1.11)"/><ellipse class="cls-2" cx="446.14" cy="197.97" rx="1.57" ry="1.3" transform="translate(-86.61 551.86) rotate(-87.7)"/><ellipse class="cls-2" cx="519.45" cy="195.07" rx="11.95" ry="10.81" transform="translate(-1.71 627.08) rotate(-89)"/><ellipse class="cls-2" cx="523.74" cy="190.11" rx="5.67" ry="6.08" transform="matrix(1, -0.03, 0.03, 1, -322.76, -67.25)"/><ellipse class="cls-2" cx="529.3" cy="200.45" rx="1.87" ry="1.83" transform="translate(-276.58 401.71) rotate(-51)"/><path class="cls-2" d="M501.49,173.06l19-6.59c3.7-1.28,7.51-2.58,11.41-2.46s8,2,9.17,5.38" transform="translate(-317 -83.93)"/><path class="cls-11" d="M520.49,169a36.92,36.92,0,0,1-6.71,2.23,55.38,55.38,0,0,1-6.18,1c-1.85.21-3.4.34-4.47.49a10.58,10.58,0,0,0-1.64.32,11.69,11.69,0,0,0,1.49-.77c.93-.54,2.23-1.4,3.81-2.38a54.14,54.14,0,0,1,5.48-3,36.92,36.92,0,0,1,6.65-2.41c4.8-1.24,8.56-1.74,12.16-1.34a15.4,15.4,0,0,1,5.37,1.57,11.36,11.36,0,0,1,2.59,1.77,7.57,7.57,0,0,1,2,2.92,6.38,6.38,0,0,0-2.1-2.8,8.61,8.61,0,0,0-2.69-1.38,11,11,0,0,0-5.13-.33C527.83,165.41,525,166.94,520.49,169Z" transform="translate(-317 -83.93)"/><path class="cls-2" d="M471.34,173l-19.14-5.93c-3.73-1.16-7.57-2.33-11.47-2.08s-7.89,2.29-9,5.7" transform="translate(-317 -83.93)"/><path class="cls-11" d="M453.64,165a37,37,0,0,1,6.72,2.18,56.41,56.41,0,0,1,5.58,2.85c1.61.92,2.93,1.74,3.88,2.24a12.69,12.69,0,0,0,1.52.73,10.88,10.88,0,0,0-1.66-.26c-1.07-.12-2.63-.2-4.47-.35a57.09,57.09,0,0,1-6.22-.8,37.21,37.21,0,0,1-6.77-2c-4.58-1.9-7.44-3.33-10.74-3.74a11,11,0,0,0-5.11.51,9,9,0,0,0-2.64,1.48,6.38,6.38,0,0,0-2,2.86,7.57,7.57,0,0,1,1.9-3,11.37,11.37,0,0,1,2.52-1.86,15.7,15.7,0,0,1,5.3-1.76C445,163.54,448.81,163.9,453.64,165Z" transform="translate(-317 -83.93)"/><ellipse class="cls-2" cx="100.71" cy="128" rx="1.88" ry="2.48"/><ellipse class="cls-2" cx="236.15" cy="130.48" rx="1.97" ry="2.48"/><path class="cls-2" d="M459.15,287.77A85.57,85.57,0,0,0,469.34,293,42.81,42.81,0,0,0,511,287" transform="translate(-317 -83.93)"/><path class="cls-12" d="M459.15,287.77c4.43,1.55,8.64,3.45,13,4.51a50.53,50.53,0,0,0,13.1,1.59A54.61,54.61,0,0,0,498.3,292,66,66,0,0,0,511,287a33.24,33.24,0,0,1-11.64,8,38.83,38.83,0,0,1-14.07,2.86,37.46,37.46,0,0,1-14.14-2.61A45.29,45.29,0,0,1,459.15,287.77Z" transform="translate(-317 -83.93)"/><path class="cls-2" d="M483.68,244.52c-2.07,0-4.91-5.25-12.54-.7-3.94,2.36-12.37,2.18-12.37,2.18s10,18.09,24.91,18.09,26.2-18.39,26.2-18.39-8.13.58-14.23-2.35C487.27,239.32,485.74,244.52,483.68,244.52Z" transform="translate(-317 -83.93)"/><path class="cls-2" d="M467.11,248.27s6.7,12.19,16.78,12.19,17.66-12.39,17.66-12.39Z" transform="translate(-317 -83.93)"/><ellipse class="cls-10" cx="131.22" cy="142.49" rx="12.81" ry="4.55"/><ellipse class="cls-10" cx="211.32" cy="141.66" rx="13.4" ry="4.55"/><path class="cls-13" d="M447.47,182.12a11.86,11.86,0,0,1-5.65-4l3.58,4.42a13.87,13.87,0,0,1-9.15-4.89,7.62,7.62,0,0,0,5.5,6.13,8.3,8.3,0,0,1-7.4-2.58l3.94,3.68A18.13,18.13,0,0,1,428,180.62l8.37,6.39a8.89,8.89,0,0,1-9.11-1,5.58,5.58,0,0,0,6.23,3.17" transform="translate(-317 -83.93)"/><path class="cls-14" d="M465.6,92.44c36.58,4.76,69.91,32.66,83.8,70.15s7.8,83-15.34,114.54" transform="translate(-317 -83.93)"/><path class="cls-15" d="M465.6,92.44a91.36,91.36,0,0,1,28.3,7.75,104.1,104.1,0,0,1,24.84,15.93,112.47,112.47,0,0,1,19.69,22.08,114.11,114.11,0,0,1,13.26,26.5,125.66,125.66,0,0,1-2.93,87,108.78,108.78,0,0,1-14.7,25.43,115.9,115.9,0,0,0,13.33-26,129.82,129.82,0,0,0,6.91-28.23,132.51,132.51,0,0,0,.55-29,119.69,119.69,0,0,0-6-28.28,114.52,114.52,0,0,0-31.65-47.81,108.25,108.25,0,0,0-23.93-16.36A96.05,96.05,0,0,0,465.6,92.44Z" transform="translate(-317 -83.93)"/><path class="cls-2" d="M447.73,102.05C412,150.41,398.5,217.71,412.51,278.1c6.94,29.92,20.11,57.83,26.31,87.95s4,65.12-15.79,87" transform="translate(-317 -83.93)"/><path class="cls-15" d="M447.73,102.05a204.42,204.42,0,0,0-22.09,40.22,221.15,221.15,0,0,0-13.12,43.86,232.85,232.85,0,0,0-4.08,45.55A212.19,212.19,0,0,0,413.82,277c3.33,14.89,8.31,29.4,13.21,43.94s9.84,29.2,12.81,44.37a137.76,137.76,0,0,1,1.72,46.13,92.07,92.07,0,0,1-6.13,22.28c-.33.9-.78,1.76-1.2,2.63L433,439c-.88,1.71-1.93,3.34-2.89,5s-2.22,3.14-3.32,4.72-2.49,2.92-3.73,4.38a67.94,67.94,0,0,0,11.67-19.65,91.07,91.07,0,0,0,5.41-22.17,136.52,136.52,0,0,0-2.53-45.46c-3.29-14.91-8.12-29.46-13.13-44s-10.09-29.07-13.55-44.15a215.06,215.06,0,0,1-5.18-46,218.1,218.1,0,0,1,4.55-46,220.71,220.71,0,0,1,14-44A194.9,194.9,0,0,1,447.73,102.05Z" transform="translate(-317 -83.93)"/><path class="cls-2" d="M458.71,95.08c-14.66-1.21-28.85,6.7-40,17.22-29.84,28.15-41.67,74.27-39.17,117.4S397,313.8,413.28,353.15s34.11,78.37,43,120.47a512.24,512.24,0,0,0-20.92-144.76c-8.29-28-19-55.1-26-83.48s-10.29-58.71-3.47-87.16S431,103.51,456.42,94.4" transform="translate(-317 -83.93)"/><path class="cls-15" d="M458.71,95.08a40,40,0,0,0-13.25,1.39,53.32,53.32,0,0,0-12.25,5.25,71,71,0,0,0-10.86,7.76q-1.28,1.08-2.49,2.22c-.83.74-1.6,1.55-2.37,2.35l-2.33,2.4c-.76.81-1.57,1.57-2.26,2.45a110.35,110.35,0,0,0-15,22,144.28,144.28,0,0,0-10.15,24.65,177.1,177.1,0,0,0-5.71,26c-.27,2.21-.62,4.41-.82,6.62l-.58,6.65c-.23,4.45-.47,8.89-.4,13.34A211.48,211.48,0,0,0,382,244.81c1.16,8.83,2.78,17.6,4.77,26.28s4.4,17.26,7.05,25.77,5.54,16.95,8.65,25.31c6.23,16.72,13.17,33.18,20.11,49.66s13.85,33,20,49.86a381,381,0,0,1,15.15,51.63l-2.94.3a515.53,515.53,0,0,0-9.93-100.81q-2.52-12.44-5.6-24.74c-2.1-8.19-4.34-16.35-6.83-24.44-5-16.17-10.56-32.18-15.65-48.39s-9.69-32.61-12.48-49.42-3.88-33.94-2-50.89,7-33.61,16.1-48.07a90.29,90.29,0,0,1,16.3-19.52A68.67,68.67,0,0,1,456.42,94.4a68.63,68.63,0,0,0-21.48,13.26A90.31,90.31,0,0,0,419,127.27a104.19,104.19,0,0,0-10.35,23,124.22,124.22,0,0,0-5,24.76,184.23,184.23,0,0,0,2.41,50.43c2.91,16.65,7.59,32.94,12.8,49.05s11,32.07,16,48.32c2.52,8.11,4.8,16.31,6.93,24.54s4,16.53,5.69,24.86a518.61,518.61,0,0,1,10.26,101.34l0,14.14-3-13.83a389.19,389.19,0,0,0-14.95-51.26c-6.05-16.78-12.9-33.28-19.79-49.78s-13.82-33-20-49.82a398.26,398.26,0,0,1-15.55-51.47c-3.86-17.51-6.3-35.42-6.18-53.4,0-4.5.25-9,.51-13.47l.63-6.7c.23-2.24.6-4.46.89-6.68a178.71,178.71,0,0,1,6-26.25,146.78,146.78,0,0,1,10.56-24.75,112.23,112.23,0,0,1,15.45-22,33.18,33.18,0,0,1,2.31-2.44l2.37-2.38c.79-.8,1.57-1.61,2.42-2.34s1.68-1.49,2.54-2.21a71.34,71.34,0,0,1,11-7.67,53.26,53.26,0,0,1,12.42-5.07A40.38,40.38,0,0,1,458.71,95.08Z" transform="translate(-317 -83.93)"/><path class="cls-2" d="M480.42,584.81s-81.49-30.3-63.55-108.43,28-154.86,28-154.86Z" transform="translate(-317 -83.93)"/><path class="cls-16" d="M456.39,103c-11.24,25-17.34,36.8-24.11,58.79S419.49,205,422,228.07c3.26,29.69,11.81,58.32,18.18,87.4s10.53,59.55,4.9,88.81S422.44,461.57,397,472.07c6.43-2.09,11.28-7.87,15.11-13.9,17.3-27.19,20.1-62.77,15.78-95.6s-15.06-64.17-22.76-96.24-12.44-77.48-4.44-109.47,27.16-55,57.06-59.57" transform="translate(-317 -83.93)"/><path class="cls-2" d="M456.86,97.07c-28.26,32.59-42.34,79.42-37.3,124.09,3.15,28,13.23,54.3,19.85,81.5s9.58,57.16-1.11,82.74" transform="translate(-317 -83.93)"/><path class="cls-15" d="M456.86,97.07a165.12,165.12,0,0,0-19.41,32,167.21,167.21,0,0,0-6.92,17.3c-.54,1.45-.9,3-1.39,4.44l-1.36,4.44c-.74,3-1.57,6-2.23,9a174.78,174.78,0,0,0-4.1,36.78,167.47,167.47,0,0,0,.9,18.47c.64,6.13,1.68,12.23,2.93,18.3,2.41,12.16,5.84,24.18,9.24,36.26,1.67,6.05,3.35,12.11,4.93,18.22s3,12.27,4.18,18.51a165.89,165.89,0,0,1,3.18,37.87c-.59,12.66-3.07,25.37-8.51,36.74a104.26,104.26,0,0,0,5.56-36.78,143.87,143.87,0,0,0-1.46-18.55q-1.29-9.22-3.35-18.33c-2.79-12.11-6.36-24.09-10-36.11S422,251.45,419.4,239a171.31,171.31,0,0,1-3.62-38,167.17,167.17,0,0,1,5.23-37.8,157.67,157.67,0,0,1,13.82-35.42A141.91,141.91,0,0,1,456.86,97.07Z" transform="translate(-317 -83.93)"/><path class="cls-2" d="M433.71,447.31a260.52,260.52,0,0,0,4.32-126c-5.74-26.66-15.63-52-23-78.17s-12.23-54-7.51-80.92,20.63-52.7,44.21-61.6" transform="translate(-317 -83.93)"/><path class="cls-15" d="M433.71,447.31c2-7.45,3.72-14.95,5.12-22.53s2.43-15.2,3.1-22.87a261.59,261.59,0,0,0,.28-46.07q-.93-11.49-2.86-22.86c-.59-3.8-1.41-7.55-2.15-11.32s-1.71-7.49-2.68-11.21c-3.86-14.88-8.75-29.49-13.48-44.17s-9.19-29.5-12.22-44.68-4.8-30.7-3.63-46.19a114.73,114.73,0,0,1,3.88-22.89A95.69,95.69,0,0,1,418,131.11a78.38,78.38,0,0,1,14.21-18.27,58.83,58.83,0,0,1,19.51-12.23,60,60,0,0,0-19.14,12.62,77.23,77.23,0,0,0-13.72,18.36,95.44,95.44,0,0,0-8.58,21.27,113.29,113.29,0,0,0-3.55,22.66c-.92,15.31.78,30.69,3.87,45.72s7.63,29.77,12.34,44.43S432.46,295,436.28,310c1,3.74,1.83,7.51,2.65,11.29s1.55,7.58,2.12,11.4,1.15,7.65,1.65,11.49c.22,1.92.38,3.84.57,5.76l.28,2.89.19,2.89A261.22,261.22,0,0,1,442.9,402c-.82,7.68-2.08,15.3-3.56,22.87S435.9,439.92,433.71,447.31Z" transform="translate(-317 -83.93)"/><path class="cls-2" d="M456.86,97.07c-27.89,4.13-42.12,30.57-48.69,57.3s-8,53.23.63,79.41,20.25,51.47,26.27,78.32c11,48.92,2.62,100.12-11.74,148.19" transform="translate(-317 -83.93)"/><path class="cls-15" d="M456.86,97.07A46.53,46.53,0,0,0,435,107.33a58.5,58.5,0,0,0-8.34,8.75,75.93,75.93,0,0,0-6.52,10.19,108.18,108.18,0,0,0-8.77,22.57,193.24,193.24,0,0,0-4.84,23.84A154.37,154.37,0,0,0,405,196.86c0,4,.37,8,.77,12s1.1,8,2,11.88c.21,1,.4,2,.64,3l.76,2.91c.47,1.95,1.14,3.85,1.71,5.77,1.25,3.86,2.6,7.72,4,11.55,2.77,7.69,5.71,15.32,8.56,23,5.65,15.41,11.19,31,14.48,47.33A216.26,216.26,0,0,1,442,363.71a289.17,289.17,0,0,1-5.83,49,402.63,402.63,0,0,1-12.83,47.54c4.16-15.86,7.87-31.83,10.46-48a313.55,313.55,0,0,0,4.35-48.68,223.33,223.33,0,0,0-4.79-48.36c-3.41-15.84-8.83-31.23-14.56-46.55-2.87-7.67-5.74-15.35-8.5-23.11-1.38-3.88-2.72-7.76-4-11.71-.59-2-1.27-4-1.75-6l-.78-3c-.24-1-.43-2-.66-3.07-.88-4.09-1.42-8.23-1.89-12.38s-.64-8.32-.62-12.49.18-8.32.47-12.47.87-8.26,1.55-12.35l.51-3.06.59-3.05c.37-2,.85-4,1.29-6.07,1-4,1.91-8,3.16-12a110.86,110.86,0,0,1,9.8-22.85,75.46,75.46,0,0,1,7.16-10.21,56.91,56.91,0,0,1,9-8.62,48.38,48.38,0,0,1,10.77-6.15A47.83,47.83,0,0,1,456.86,97.07Z" transform="translate(-317 -83.93)"/><path class="cls-2" d="M459.33,96.39c-10.66,20.34-26.08,39.94-32.74,62.12s-9.08,50.62,1.83,69.67c8.42,14.68,13.64,31.15,19.58,47.14,16.67,44.92,5.89,99.88-26.28,134" transform="translate(-317 -83.93)"/><path class="cls-15" d="M459.33,96.39c-6.24,12.57-14,24.31-20.61,36.63a145,145,0,0,0-8.85,18.91A121.23,121.23,0,0,0,424.42,172a128.64,128.64,0,0,0-2.17,20.68,82.57,82.57,0,0,0,2,20.53,55.56,55.56,0,0,0,3.19,9.72c.67,1.57,1.46,3.07,2.28,4.56s1.74,3.09,2.54,4.66a193.58,193.58,0,0,1,8.6,19.35c2.54,6.57,4.84,13.2,7.23,19.77.6,1.65,1.22,3.26,1.79,4.95s1.17,3.35,1.67,5.05c1.06,3.39,1.92,6.83,2.67,10.29a128.82,128.82,0,0,1,2.68,21.05,130.26,130.26,0,0,1-.68,21.18,138.28,138.28,0,0,1-11,40.71,119.83,119.83,0,0,1-23.5,34.77,125,125,0,0,0,12.59-16.76,122.22,122.22,0,0,0,9.54-18.6,137.25,137.25,0,0,0,7.58-81.74c-.78-3.38-1.61-6.74-2.67-10-.48-1.66-1.06-3.3-1.64-4.92s-1.2-3.29-1.79-4.93c-2.42-6.59-4.76-13.19-7.27-19.7a193.25,193.25,0,0,0-8.4-19.08c-.79-1.55-1.63-3.06-2.47-4.57a52.08,52.08,0,0,1-2.41-4.85,56.3,56.3,0,0,1-3.29-10.24,85.68,85.68,0,0,1-1.85-21.22,120.92,120.92,0,0,1,2.53-21.06,123.13,123.13,0,0,1,5.94-20.32,142.34,142.34,0,0,1,9.33-18.95C444.51,120.15,452.5,108.64,459.33,96.39Z" transform="translate(-317 -83.93)"/><path class="cls-2" d="M458.22,96.78c-9,21.94,4.75,34.66,16.2,44.93s24.63,18.08,35.68,28.86c22,21.5,34.12,54.77,31.59,87,14-27.62,9.62-65.11-10.37-87.88-11.83-13.46-27.71-21.47-42.41-30.9s-24.33-21.57-30.25-39.11" transform="translate(-317 -83.93)"/><path class="cls-17" d="M458.22,96.78a46.69,46.69,0,0,0-1.74,5.77,34,34,0,0,0-.77,5.94,27.46,27.46,0,0,0,2,11.6,37.51,37.51,0,0,0,6.28,10,83,83,0,0,0,8.48,8.4c3,2.67,6.07,5.22,9.24,7.66s6.42,4.8,9.68,7.16a194.14,194.14,0,0,1,19.12,15.11,105.65,105.65,0,0,1,26.76,40.89,115.4,115.4,0,0,1,6.86,48.51l-4.69-1.32c7.12-14.13,9.34-30.64,7.13-46.4A80.8,80.8,0,0,0,540,187.2a69.11,69.11,0,0,0-13.44-19.55,113,113,0,0,0-18.84-15.09c-6.76-4.54-13.81-8.72-20.65-13.37a71.83,71.83,0,0,1-17.82-17.26A70.66,70.66,0,0,1,463,111.24a85.73,85.73,0,0,1-4.37-11.52A78.71,78.71,0,0,0,470.47,121a71.06,71.06,0,0,0,18.07,16c6.87,4.34,14.06,8.3,21.06,12.67a116.78,116.78,0,0,1,19.83,15.13,71,71,0,0,1,14.63,20.5,84.76,84.76,0,0,1,7.3,24.09,88.28,88.28,0,0,1,0,25.2,77.19,77.19,0,0,1-7.5,24.14l-5.71,11.13,1-12.45A113.12,113.12,0,0,0,533,210.87a104.58,104.58,0,0,0-25-39.75c-11.33-11-25.34-19.57-36.95-31a86.06,86.06,0,0,1-8.34-8.93,37.62,37.62,0,0,1-6.09-10.66,28.2,28.2,0,0,1-1.54-12.1,35.43,35.43,0,0,1,1.12-6A47,47,0,0,1,458.22,96.78Z" transform="translate(-317 -83.93)"/><path class="cls-2" d="M497.27,129.14c-2.41-1.58-4.92-3.25-6.45-5.89s-1.75-6.54.27-8.71a4.76,4.76,0,0,1,6.17-.53,8.24,8.24,0,0,1,3.12,6.32,5.22,5.22,0,0,1,4-5.24,5.94,5.94,0,0,1,5.81,2.85,7.15,7.15,0,0,1,.81,6.58c-.91,2.08-3.41,3.24-5.18,2.07a7.24,7.24,0,0,1,4.5,6.31c.13,2.88-1.76,5.79-4.27,6.2s-5.16-2.08-5-4.95c-1.26,4.67-7.16,6.68-10.47,3.56s-2.67-10.06,1.14-12.32" transform="translate(-317 -83.93)"/><path class="cls-2" d="M422,122.46a12.61,12.61,0,0,1-4.13-4.21c-1-1.88-1.12-4.67.17-6.23a2.83,2.83,0,0,1,4-.37,6.14,6.14,0,0,1,2,4.52,3.26,3.26,0,0,1,6.26-1.71,5.64,5.64,0,0,1,.52,4.69c-.59,1.5-2.19,2.32-3.33,1.48a5.18,5.18,0,0,1,2.89,4.52c.09,2-1.13,4.13-2.74,4.43s-3.3-1.49-3.22-3.54c-.8,3.33-4.59,4.77-6.71,2.54s-1.71-7.18.73-8.8" transform="translate(-317 -83.93)"/><path class="cls-2" d="M509.1,140.15a12.7,12.7,0,0,1-4.13-4.21c-1-1.88-1.12-4.67.17-6.23a2.82,2.82,0,0,1,3.95-.37,6.09,6.09,0,0,1,2,4.51,3.26,3.26,0,0,1,6.26-1.7,5.64,5.64,0,0,1,.52,4.69c-.59,1.5-2.19,2.32-3.33,1.48a5.17,5.17,0,0,1,2.89,4.52c.09,2-1.13,4.13-2.74,4.43s-3.3-1.49-3.22-3.54c-.81,3.33-4.59,4.77-6.71,2.54s-1.71-7.19.73-8.8" transform="translate(-317 -83.93)"/><path class="cls-2" d="M390.88,599.64a86.86,86.86,0,0,0,42.2-15.21" transform="translate(-317 -83.93)"/><path class="cls-18" d="M390.88,599.64c3.67-1.55,7.21-2.74,10.71-4s6.94-2.43,10.37-3.68l10.32-3.81c3.49-1.27,7-2.61,10.8-3.74a35.56,35.56,0,0,1-8.63,7.94,48.76,48.76,0,0,1-21.86,7.88A35.28,35.28,0,0,1,390.88,599.64Z" transform="translate(-317 -83.93)"/><path class="cls-19" d="M493.3,582.89s87-33.85,65.08-112.08-35.31-155.36-35.31-155.36Z" transform="translate(-317 -83.93)"/><path class="cls-2" d="M459.33,96.39c-19.17,3.19-35.39,19.06-43.6,38.37s-9.19,41.57-6.24,62.63,9.65,41.24,16.3,61.26q18.45,55.56,36.91,111.12" transform="translate(-317 -83.93)"/><path class="cls-15" d="M459.33,96.39l-2.32.53-1.16.26-1.14.35-2.26.71c-.75.27-1.48.58-2.21.87-1.49.53-2.88,1.31-4.31,2-.71.36-1.38.78-2.07,1.17s-1.38.77-2,1.23a61.94,61.94,0,0,0-14,12.59A73.77,73.77,0,0,0,417.69,132a90,90,0,0,0-6.05,17.87,126,126,0,0,0-2.3,37.62,202.72,202.72,0,0,0,6.93,37.22c3.29,12.23,7.29,24.27,11.27,36.33s8,24.11,11.87,36.2l11.74,36.24c3.85,12.11,7.76,24.19,11.55,36.31-4.22-12-8.32-24-12.48-36L438,297.71c-4.12-12-8.09-24.08-12.14-36.11s-8.11-24.09-11.47-36.38a205.84,205.84,0,0,1-6.82-37.61,123.62,123.62,0,0,1,2.62-38.11,92.63,92.63,0,0,1,6.41-18.06,74.83,74.83,0,0,1,10.51-16A62.15,62.15,0,0,1,441.56,103,48.47,48.47,0,0,1,459.33,96.39Z" transform="translate(-317 -83.93)"/><path class="cls-2" d="M437.08,115.61c-2.73-1.73-5.56-3.56-7.29-6.45s-2-7.16.3-9.54a5.5,5.5,0,0,1,7-.58A9,9,0,0,1,440.6,106a5.76,5.76,0,0,1,4.48-5.74,6.8,6.8,0,0,1,6.57,3.13,7.64,7.64,0,0,1,.91,7.2c-1,2.28-3.85,3.55-5.86,2.26a7.94,7.94,0,0,1,5.08,6.93c.16,3.14-2,6.34-4.82,6.78s-5.83-2.27-5.69-5.42c-1.42,5.11-8.09,7.31-11.84,3.9s-3-11,1.3-13.5" transform="translate(-317 -83.93)"/><path class="cls-14" d="M481.08,909.38l10.07,58.49-50.61,7.44c-7.65,1.13-11.46-8-5.24-12.51L449.45,945" transform="translate(-317 -83.93)"/><path class="cls-14" d="M434.33,918.13" transform="translate(-317 -83.93)"/><path class="cls-20" d="M473.59,951.77,477,912.09l18.31-15.43,7.24,52.82c-.68,7.84-3.63,9.43-11.22,9.53S472.92,959.61,473.59,951.77Z" transform="translate(-317 -83.93)"/><path class="cls-20" d="M470.87,950.55l-3.49-37.46L450,898.38l-6.5,49.78c.68,7.41,3.49,8.92,10.66,9.08S471.56,958,470.87,950.55Z" transform="translate(-317 -83.93)"/><path class="cls-20" d="M361.15,599.14c2.34-10.19-1.49-21.35-1.76-21.89-1.05-2.15-3-3.26-4.39-2.49s-1.62,3.13-.58,5.28a12.61,12.61,0,0,1,.36,1.42c.19.86.42,2.06.6,3.46.35,2.81-1.32,6.73-2.08,10.08-.45,1.93,2.36,4.18,4,5.41S360.71,601.07,361.15,599.14Z" transform="translate(-317 -83.93)"/><path class="cls-20" d="M370.85,585.58l-3-53.82-24-20.1L332,583.87c.59,10.64,4.5,12.65,14.71,12.42S371.44,596.22,370.85,585.58Z" transform="translate(-317 -83.93)"/><path class="cls-20" d="M549.52,342.31c-.11-1.31.55-.59-.45-1.25L498.59,303.8h-3.87L449.31,303c-1.58,0-1.71,2.16-3.49,2.82h0a4.12,4.12,0,0,1-1.66,2.29l-41,26.29c-9.54,6.12-15.31,17.75-15,30.2l.81,30.55a3.91,3.91,0,0,0,3.49,4l51.39,2.24a3.93,3.93,0,0,1,3.48,4.12v5.7C429.33,428.46,472.33,572,474.33,572l38.86-72.61c2,0-12-85.93-12-88.2v-5.87a4,4,0,0,1,3.33-4.11l46.18-4.37a4,4,0,0,0,3.3-4.53Z" transform="translate(-317 -83.93)"/><path class="cls-9" d="M453.23,736.73" transform="translate(-317 -83.93)"/><path class="cls-9" d="M534.85,527.29c-21.18,4.57-35.26,35.18-58,34.85-22.7.33-46.77-28.35-67.95-32.93,0,0-20.35,86.56-10.39,125.93s24.91,70.74,24.2,91.66S435.94,853.49,440.54,884c4.91,32.56,3.56,47.37,3.56,47.37s27.75,5.53,26.33-3.08c0,0-4.59-134.49-3.72-143,.81-7.86,4.2-73.37,2.78-86.9s1.32-85,2-86.27l.33-2.81c2.79-1.12,5.23,1.21,5.23,1.21.71,1.23,4.39,67.61,3,81.14s3.24,82.46,2.83,94.44c-.29,8.53-7.12,140.25-7.12,140.25-1.42,8.61,26.34,3.07,26.34,3.07s.89-8.74,3.55-47.36c2.13-30.78,18.51-116.26,17.8-137.18s14.23-52.28,24.19-91.65S534.85,527.29,534.85,527.29Z" transform="translate(-317 -83.93)"/><path class="cls-9" d="M440.88,584.1s10.14,21.13,29.86,25.09c0,0,5.32-1,6.71,1.16s26.06-11.24,28.7-17.12c0,0-24.33,11.51-29.13,10.15C464.34,599.78,447.27,592.75,440.88,584.1Z" transform="translate(-317 -83.93)"/><path class="cls-21" d="M449.74,107.17c-21.15,36.65-31.56,80.66-29.32,124,.54,10.47,10.79,17.6,17.14,25.43,4.54,5.61,6.12,8.36,10.55,14.08,6.72,8.68.39,24.81.65,36.21.06,2.5-1.64-1.94-3.07,0-2,2.77-.93,10.61-4.15,10.52-15.63-.47-31.33,6-42.76,17.75,13.31-23.13,13.35-52.61,9.28-79.61s-11.8-53.48-12.56-80.84,7.05-57.09,27.54-72.66c4.46-3.4,9.7-6.08,15.11-5.65s10.82,4.82,11.3,10.76" transform="translate(-317 -83.93)"/><path class="cls-22" d="M446.92,97.16c25.48-14.61,58.79-6,79.3,16.1s29.13,55.23,27.63,86.77c-2.23,47-26.33,92.19-62.6,117.28-11.79-41.37-9.81-86.24-21.11-127.77-8.35-30.66-23.95-59.86-23.74-91.86" transform="translate(-317 -83.93)"/><path class="cls-20" d="M398.29,344.86a4.24,4.24,0,0,1,1.78-3.16l53-35.73h0l45.41-.79A3.71,3.71,0,0,1,502,308h0a4.06,4.06,0,0,0,1.66,2.31l41,26.55c9.54,6.18,15.31,17.93,15,30.5l-.82,30.85a3.93,3.93,0,0,1-3.48,4l-51.39,2.26a4,4,0,0,0-3.48,4.16v5.75a3.92,3.92,0,0,1-3.63,4.16H450.2a3.92,3.92,0,0,1-3.62-4.16v-5.92a4,4,0,0,0-3.33-4.15L397.07,400a4.05,4.05,0,0,1-3.31-4.57Z" transform="translate(-317 -83.93)"/><path class="cls-23" d="M543.8,314.82S582.1,640.19,574.55,646s-86.29,23.05-94.68-3.65,24.82-338.64,17.65-340.24C516.82,306.43,544.79,315.5,543.8,314.82Z" transform="translate(-317 -83.93)"/><path class="cls-23" d="M409,318.37s-58.21,352.19-50.65,358,95.59,2.59,110.9-19.87C486.64,631,437.52,305,446.74,304.16,446.74,304.16,416.94,312.94,409,318.37Z" transform="translate(-317 -83.93)"/><path class="cls-24" d="M397.79,313.08s-19.93,4.17-26.33,42.88c-9.25,56-54.46,149.87-54.46,149.87s42.19,77.57,52.26,71.31S397.79,313.08,397.79,313.08Z" transform="translate(-317 -83.93)"/><path class="cls-25" d="M547.35,327.65s48.4,352.85,40.85,358.69-96.49-17.78-104.88-44.48c-7.67-24.42,34.53-284.74,34.82-329.64,0-4.19,1,.2.21.13C518.35,312.35,539.38,322.22,547.35,327.65Z" transform="translate(-317 -83.93)"/><path class="cls-24" d="M542,313.76a6.63,6.63,0,0,1,3.73,5.46C549.29,355,579.85,677.55,572.77,683c-7.55,5.84-88-11.78-96.36-38.48-7.67-24.42,33.43-286.31,33.72-331.21v-.13c0-4.08,3.31-7.13,6.87-6.4C524.37,308.32,535.4,310.87,542,313.76Z" transform="translate(-317 -83.93)"/><path class="cls-23" d="M398.85,329.73s-40,313.75-32.41,319.59,88.05,21.32,96.44-5.37c7.67-24.42-34.53-284.74-34.82-329.65,0-4.18-1,.2-.21.13C427.85,314.43,406.82,324.31,398.85,329.73Z" transform="translate(-317 -83.93)"/><path class="cls-24" d="M405,315.47a8,8,0,0,0-4.6,6.68c-3.95,39.21-40.34,346.34-33.31,351.77,7.55,5.84,94.39-1.53,102.78-28.22,7.67-24.42-35.06-283.67-35.35-328.58V317c0-5.05-4.17-8.8-8.56-7.78C419.48,310.71,410.85,313,405,315.47Z" transform="translate(-317 -83.93)"/><path class="cls-26" d="M521.84,187.93" transform="translate(-317 -83.93)"/><path class="cls-26" d="M467.66,197.42c-2.39-3.56.67.74-3.63-4.46-2-2.39-8.88-4.65-12.6-4.68a45,45,0,0,1-10.85-1.13c3.49,5.11,9.84,8.59,15,9.66a31.11,31.11,0,0,0,12.06.61" transform="translate(-317 -83.93)"/><path class="cls-26" d="M462.57,191.22c2,1.67-.69,6.2-4.4,6.2s-9.32-1.88-9.32-5.49c0-2.79,1.33-4.61,4.91-3.81C458.6,189.2,460.93,189.82,462.57,191.22Z" transform="translate(-317 -83.93)"/><path class="cls-26" d="M501.8,198.18c2.39-3.55-.67.75,3.63-4.46,2-2.38,8.87-4.64,12.6-4.67a45,45,0,0,0,10.85-1.13c-3.5,5.11-9.85,8.59-15,9.65a30.74,30.74,0,0,1-12.06.61" transform="translate(-317 -83.93)"/><path class="cls-26" d="M509.29,192c-2,1.67.73,6.19,4.61,6.19s9.75-1.87,9.75-5.48c0-2.79-1.4-4.61-5.15-3.81C513.45,190,511,190.59,509.29,192Z" transform="translate(-317 -83.93)"/><ellipse class="cls-26" cx="197.29" cy="109.13" rx="1.28" ry="3.22"/><ellipse class="cls-26" cx="135.89" cy="107.15" rx="1.22" ry="3.34"/><g class="cls-3"><path class="cls-27" d="M469.22,533.09" transform="translate(-317 -83.93)"/></g><g class="cls-3"><path class="cls-27" d="M445.69,339.9C451,393.19,461.89,478,467.17,531.33" transform="translate(-317 -83.93)"/></g><path class="cls-26" d="M468.43,185.05a37.53,37.53,0,0,0-16.67-9.53c-3.62-.91-7.32-1.16-10.93-2.14a18.09,18.09,0,0,1-9.93-6.31l27,3c2.92.33,6,.72,8.46,3a10.79,10.79,0,0,1,2.79,10.67" transform="translate(-317 -83.93)"/><path class="cls-26" d="M500.29,184.31a38.49,38.49,0,0,1,16.85-9.14c3.66-.87,7.39-1.11,11-2a18.38,18.38,0,0,0,10-6.05L511,170c-3,.31-6.05.69-8.56,2.83s-4.14,6.66-2.82,10.23" transform="translate(-317 -83.93)"/><path class="cls-26" d="M489.91,225.69a9.12,9.12,0,0,1-7.22,3.76c-3,.12-5.86-1.17-7.13-3.2" transform="translate(-317 -83.93)"/><path class="cls-26" d="M456.49,243.13c2.9,1.06,45.7,4.54,48.53,4-.1,4.76-1,9.62-4.61,13.32s-10.53,5.9-17.08,4.21c-6-1.54-12.68-6.39-16-10.34s-5.15-8.94-10.81-11.15" transform="translate(-317 -83.93)"/><ellipse class="cls-26" cx="126.33" cy="111.35" rx="0.71" ry="0.53"/><path class="cls-26" d="M467.66,197.42a18.71,18.71,0,0,0-14.7-9.67c-2.48-.18-5,.18-7.45.14a11,11,0,0,1-7-2.16" transform="translate(-317 -83.93)"/><path class="cls-26" d="M500.75,199.05a18.73,18.73,0,0,1,14.7-9.66c2.48-.18,5,.18,7.45.14a11.09,11.09,0,0,0,7-2.16" transform="translate(-317 -83.93)"/><polyline class="cls-26" points="108.09 80.76 100.78 98.37 100.06 80.15 100.17 63.15"/><path class="cls-26" d="M417.17,147.08l.61,35.22Z" transform="translate(-317 -83.93)"/><polygon class="cls-26" points="110.7 67 100.73 98.37 100.17 63.15 110.7 67"/><polyline class="cls-28" points="182.46 221.95 181.88 188.94 130.81 190.17 130.81 221.87"/><polyline class="cls-29" points="179.57 219.87 132.85 203.8 132.85 188.46 179.45 185.41 179.57 219.87"/><path class="cls-20" d="M542.12,185.26l-.64-33c-8.85-33-28.74-61.71-64.92-63S406,115.66,404.77,152l.05,28.2a12.81,12.81,0,0,0-5.47,2.54,13.07,13.07,0,0,0-4.94,9.85L394,206.27c-.23,7.23,7.12,9.09,14.34,9.4,20.27,36,35.46,61.64,63.28,66.32,25.13,4.23,48.68-33,65.61-64.47,7.2.21,13.82,1.76,14.06-5.48l.45-13.68A13.2,13.2,0,0,0,542.12,185.26Z" transform="translate(-317 -83.93)"/><path class="cls-30" d="M509.64,185.93" transform="translate(-317 -83.93)"/><g class="cls-3"><path class="cls-7" d="M478.91,224.86a6.16,6.16,0,0,1-2.74,3.38,8.84,8.84,0,0,1-4.28,1.37,8.48,8.48,0,0,1-4.4-.94,5.61,5.61,0,0,1-2.92-3.25,9.15,9.15,0,0,0,3.5,1.8,11.78,11.78,0,0,0,3.72.4,12.53,12.53,0,0,0,3.68-.77A11.07,11.07,0,0,0,478.91,224.86Z" transform="translate(-317 -83.93)"/></g><ellipse class="cls-31" cx="115.34" cy="110.52" rx="0.71" ry="0.53"/><path class="cls-32" d="M406.18,146.26l.61,35.21Z" transform="translate(-317 -83.93)"/><path class="cls-30" d="M491.12,197.74c5.17,7.36,17.38,8.72,23.64,5.85s8.62-7.58,11.5-15.22h0c-6-4.17-13.51-6.9-19.47-5.28s-12.66,8-15.67,14.65Z" transform="translate(-317 -83.93)"/><path class="cls-9" d="M491.12,197.74a17.33,17.33,0,0,0,9.46,5.76,23.67,23.67,0,0,0,11,.28,15.17,15.17,0,0,0,4.94-2.14,15.52,15.52,0,0,0,3.92-3.66c2.18-2.89,3.55-6.43,4.89-10l.36,1.17a33.91,33.91,0,0,0-9.24-4.67,17.1,17.1,0,0,0-10-.5,23.74,23.74,0,0,0-8.78,5.4A31,31,0,0,0,491.12,197.74Zm0,0a28.92,28.92,0,0,1,5.84-9,23.59,23.59,0,0,1,9-6.18,14.64,14.64,0,0,1,5.56-.77,22.88,22.88,0,0,1,5.47.95,35.1,35.1,0,0,1,9.85,4.82l.64.44-.28.74c-1.38,3.55-2.8,7.22-5.26,10.42a17.37,17.37,0,0,1-4.48,4,20.18,20.18,0,0,1-2.66,1.36,15.2,15.2,0,0,1-2.9.84,23.85,23.85,0,0,1-11.6-.88C496.65,203.21,493.15,201,491.12,197.74Z" transform="translate(-317 -83.93)"/><path class="cls-33" d="M458.24,195.63c-6,9.32-19.75,11.39-26.74,8S422,194.46,418.86,185h0c6.81-5.38,15.36-9,22-7.17s14.09,9.6,17.34,17.77Z" transform="translate(-317 -83.93)"/><path class="cls-34" d="M520,189.17c4.74,8.89-4.26,14-9.61,14.72s-16.1.89-15.26-9.32c.7-8.48,7.92-10.41,12.81-10.79C513.89,183.31,517.78,184.93,520,189.17Z" transform="translate(-317 -83.93)"/><path class="cls-30" d="M458.68,197c-5.17,7.2-17.38,8.53-23.64,5.72s-8.62-7.4-11.5-14.87h0c6-4.09,13.51-6.76,19.47-5.17s12.66,7.84,15.67,14.32Z" transform="translate(-317 -83.93)"/><path class="cls-9" d="M458.68,197c-2.05,3.24-5.55,5.36-9.17,6.57a24.23,24.23,0,0,1-11.51.89,15.8,15.8,0,0,1-2.88-.79,21.8,21.8,0,0,1-2.66-1.3,17.35,17.35,0,0,1-4.53-3.88c-2.49-3.13-3.93-6.77-5.32-10.28l-.3-.75L423,187a35.44,35.44,0,0,1,9.82-4.71,18.61,18.61,0,0,1,11-.21,23.56,23.56,0,0,1,9,6A28.27,28.27,0,0,1,458.68,197Zm0,0a30.57,30.57,0,0,0-6.58-8.18,23.84,23.84,0,0,0-8.8-5.23,17.52,17.52,0,0,0-10,.51,34.42,34.42,0,0,0-9.23,4.57l.37-1.18c1.35,3.49,2.74,7,4.94,9.81a15.88,15.88,0,0,0,8.9,5.62,24.3,24.3,0,0,0,10.92-.3A17.34,17.34,0,0,0,458.68,197Z" transform="translate(-317 -83.93)"/><path class="cls-35" d="M431,188.49c-4.43,8.68,3.76,13.51,8.66,14.2s14.54.71,14.07-9.22c-.42-9-7.14-10-11.62-10.35C436.67,182.73,433.09,184.35,431,188.49Z" transform="translate(-317 -83.93)"/><path class="cls-9" d="M434.68,191.68a10.42,10.42,0,0,0,8.79,11.67c5.59.78,12-3.16,11.45-8.85a13.76,13.76,0,0,0-9.53-12.29C440.7,180.65,435.41,186,434.68,191.68Z" transform="translate(-317 -83.93)"/><ellipse class="cls-30" cx="438.75" cy="188.72" rx="5.42" ry="5.54" transform="matrix(0.99, -0.1, 0.1, 0.99, -334, -38.07)"/><ellipse class="cls-30" cx="434.84" cy="198.36" rx="1.57" ry="1.3" transform="translate(-97.84 540.93) rotate(-87.7)"/><ellipse class="cls-9" cx="505.29" cy="194.57" rx="11.12" ry="10.33" transform="translate(-18.35 611.11) rotate(-88.62)"/><ellipse class="cls-30" cx="509.4" cy="189.95" rx="5.42" ry="5.66" transform="translate(-326.02 -57.73) rotate(-2.92)"/><ellipse class="cls-30" cx="517.48" cy="199.57" rx="1.85" ry="1.72" transform="translate(-342.51 2.6) rotate(-9.33)"/><path class="cls-11" d="M441.19,165a42,42,0,0,1,7.14,2.31,61,61,0,0,1,5.95,3c1.71,1,3.13,1.79,4.14,2.32a12.82,12.82,0,0,0,1.61.75,14.3,14.3,0,0,0-1.75-.29c-1.13-.14-2.78-.24-4.73-.42a63.36,63.36,0,0,1-6.58-.92,41.93,41.93,0,0,1-7.19-2.13c-4.82-2-7.88-3.25-11.45-3.27a23,23,0,0,0-5.59.52,13.58,13.58,0,0,0-3.07,1,5,5,0,0,0-2.61,2.57,5.72,5.72,0,0,1,2.53-2.71,19.27,19.27,0,0,1,3-1.43,41.47,41.47,0,0,1,5.57-1.72C431.84,163.63,436,163.82,441.19,165Z" transform="translate(-317 -83.93)"/><ellipse class="cls-30" cx="89.41" cy="128.38" rx="1.88" ry="2.48"/><ellipse class="cls-30" cx="224.33" cy="130.86" rx="1.97" ry="2.48"/><path class="cls-12" d="M450.81,289.29c2.14.55,4.11,1.66,6,2.25s4,1.21,6,1.67a58.69,58.69,0,0,0,12.17,1.7,47.43,47.43,0,0,0,12.15-1.19,50,50,0,0,0,11.76-4.43A28.31,28.31,0,0,1,488,296.63a34.93,34.93,0,0,1-13.15,2.26,40.71,40.71,0,0,1-13.06-2.43c-1-.38-2.07-.8-3.07-1.25-.5-.25-1-.46-1.49-.72s-1-.57-1.45-.87a17.63,17.63,0,0,1-2.63-2.09Z" transform="translate(-317 -83.93)"/><path class="cls-36" d="M472.37,244.86c-2.07,0-4.9-5.16-12.53-.68-3.95,2.31-12.37,2.14-12.37,2.14s9.95,17.79,24.9,17.79S498.58,246,498.58,246s-8.13.56-14.23-2.32C476,239.75,474.44,244.86,472.37,244.86Z" transform="translate(-317 -83.93)"/><path class="cls-37" d="M455.8,248.55s6.71,12,16.79,12,17.65-12.19,17.65-12.19Z" transform="translate(-317 -83.93)"/><path class="cls-38" d="M436.17,182.1a11.8,11.8,0,0,1-5.65-3.67l3.58,4A14.31,14.31,0,0,1,425,178a7.2,7.2,0,0,0,5.5,5.57,8.78,8.78,0,0,1-7.4-2.35l3.94,3.36a19.19,19.19,0,0,1-10.25-3.85l8.37,5.81a9.66,9.66,0,0,1-9.12-1,5.75,5.75,0,0,0,6.23,2.88" transform="translate(-317 -83.93)"/><path class="cls-21" d="M438.31,105.08c4.9,21.59,29.14,27.8,46.34,39.81s36,23.65,45.92,43.06c9.59,18.7,8.95,43.09-1.59,61.17,6.84.56,13.21-4.72,16.46-11.3s4-14.25,4.43-21.71c1.61-27.46,5.54-59.13-5-84.15s-36.69-43-61.61-47.57c-14.35-2.65-45.17,6.55-51.76,20.69" transform="translate(-317 -83.93)"/><path class="cls-15" d="M436.43,102.44a204.11,204.11,0,0,0-22.09,40.21,220.58,220.58,0,0,0-13.12,43.87,231.29,231.29,0,0,0-4.08,45.54,212.2,212.2,0,0,0,5.38,45.35c3.33,14.89,8.3,29.4,13.21,43.94s9.84,29.19,12.81,44.37a137.7,137.7,0,0,1,1.72,46.12,91.82,91.82,0,0,1-6.13,22.28c-.33.91-.79,1.76-1.2,2.63l-1.27,2.6c-.87,1.72-1.92,3.34-2.88,5s-2.22,3.15-3.32,4.72-2.49,2.93-3.74,4.39a67.75,67.75,0,0,0,11.67-19.65,90.24,90.24,0,0,0,5.41-22.18,136.21,136.21,0,0,0-2.52-45.45c-3.29-14.92-8.12-29.46-13.14-44s-10.09-29.07-13.54-44.16a215.71,215.71,0,0,1-5.19-46,218.68,218.68,0,0,1,4.56-46,221.12,221.12,0,0,1,14-44A194.86,194.86,0,0,1,436.43,102.44Z" transform="translate(-317 -83.93)"/><path class="cls-21" d="M447.41,95.46c-14.66-1.2-34.54,1.77-45.69,12.29-29.84,28.15-36,79.21-33.49,122.33S385.72,314.19,402,353.53s34.11,78.37,43,120.48A512.24,512.24,0,0,0,424,329.25c-8.29-28-19-55.1-26-83.49s-10.3-58.71-3.47-87.16,25.12-54.7,50.58-63.81" transform="translate(-317 -83.93)"/><path class="cls-17" d="M447.41,95.46a79.1,79.1,0,0,0-26.89,2.84,51.46,51.46,0,0,0-12.38,5.31,34.36,34.36,0,0,0-5.37,4c-.83.73-1.6,1.58-2.4,2.36s-1.55,1.63-2.3,2.47a91.6,91.6,0,0,0-14.61,22.61,133.29,133.29,0,0,0-8.69,25.54c-4.18,17.55-5.64,35.69-5.45,53.73A254.23,254.23,0,0,0,375.48,268a406.89,406.89,0,0,0,15.66,51.85c6.25,17,13.32,33.68,20.41,50.41s14.09,33.53,20.35,50.67a386.16,386.16,0,0,1,15.47,52.57l-4.92.51a519.77,519.77,0,0,0-9.9-100.62c-1.66-8.28-3.48-16.52-5.53-24.71s-4.3-16.33-6.77-24.41c-4.94-16.16-10.47-32.19-15.53-48.42s-9.62-32.69-12.38-49.54-3.81-34.05-1.86-51.06c.26-2.12.58-4.23.9-6.34s.72-4.22,1.21-6.3a114.75,114.75,0,0,1,3.34-12.38,107.67,107.67,0,0,1,10.89-23.13,88.2,88.2,0,0,1,16.43-19.49,74.18,74.18,0,0,1,10.33-7.48,63.88,63.88,0,0,1,11.54-5.34,64.23,64.23,0,0,0-11.35,5.65,73.06,73.06,0,0,0-10,7.72,87.48,87.48,0,0,0-15.82,19.62,105.63,105.63,0,0,0-10.24,23,111.41,111.41,0,0,0-3,12.23c-.43,2.06-.7,4.15-1,6.22s-.54,4.17-.75,6.26a183.93,183.93,0,0,0,2.55,50.27c2.94,16.61,7.66,32.85,12.9,48.93s11.05,32,16.09,48.29c2.54,8.12,4.83,16.33,7,24.57s4,16.55,5.75,24.89A514.59,514.59,0,0,1,447.42,474l.07,23.72-5-23.21a392.76,392.76,0,0,0-15.21-51.92c-6.17-17-13.14-33.74-20.15-50.5s-14-33.58-20.14-50.74c-3.1-8.57-6-17.22-8.61-26s-4.83-17.62-6.71-26.57a258.42,258.42,0,0,1-5.54-54.47c.05-18.25,1.74-36.59,6.23-54.35a135.1,135.1,0,0,1,9.37-25.77,93.09,93.09,0,0,1,15.35-22.67c.78-.84,1.55-1.69,2.39-2.47s1.61-1.62,2.5-2.37a35.61,35.61,0,0,1,5.62-4,51.82,51.82,0,0,1,12.71-5.14A79.37,79.37,0,0,1,447.41,95.46Z" transform="translate(-317 -83.93)"/><path class="cls-23" d="M469.12,585.19s-81.5-30.29-63.55-108.43,28-154.85,28-154.85Z" transform="translate(-317 -83.93)"/><path class="cls-21" d="M452.56,110.55c-11.24,25-14.24,32.13-31.58,51.66-15.15,17.06-12.8,43.19-10.26,66.24,3.26,29.7,11.81,58.33,18.17,87.41s10.54,59.55,4.91,88.81S411.14,462,385.65,472.45c6.43-2.08,11.27-7.86,15.11-13.89,17.3-27.19,20.1-62.77,15.77-95.6s-15-64.17-22.75-96.25-12.44-77.48-4.45-109.47,27.17-55,57.07-59.56" transform="translate(-317 -83.93)"/><path class="cls-17" d="M452.56,110.55c-3.33,7.53-6.55,15.12-10.27,22.48a106.81,106.81,0,0,1-6.21,10.71c-2.27,3.45-4.75,6.75-7.34,10s-5.31,6.32-7.94,9.47l-1.89,2.4c-.59.83-1.1,1.71-1.66,2.56-.26.43-.56.85-.8,1.3l-.69,1.36-.69,1.36a11.52,11.52,0,0,0-.64,1.38l-1.13,2.84c-.35,1-.61,1.94-.93,2.91-.14.49-.3,1-.44,1.46l-.34,1.49c-.21,1-.49,2-.65,3a88.55,88.55,0,0,0-1.28,12.18A185.1,185.1,0,0,0,410.87,222c.81,8.19,1.9,16.32,3.37,24.41,2.89,16.18,6.91,32.14,10.84,48.14s7.77,32.09,10.13,48.47,3.39,33,1.71,49.59A118.12,118.12,0,0,1,422.31,440a87.4,87.4,0,0,1-15.22,19.87,68.74,68.74,0,0,1-20.87,14l-1-2.79A22.74,22.74,0,0,0,395,464a52.46,52.46,0,0,0,3.8-5.05c1.18-1.77,2.21-3.66,3.32-5.48a103.7,103.7,0,0,0,9.71-23.74c4.59-16.57,5.78-34,4.82-51.2s-4.25-34.3-8.3-51.14-8.94-33.53-13.19-50.41C393,268.51,391,260,389.47,251.42s-2.77-17.21-3.64-25.88-1.38-17.38-1.45-26.1a201.76,201.76,0,0,1,1.36-26.11,123.16,123.16,0,0,1,5.79-25.5c.65-2.08,1.5-4.09,2.32-6.12l.61-1.52c.22-.5.47-1,.7-1.48l1.4-3c.44-1,1-1.93,1.53-2.89l1.58-2.87,1.77-2.76c.6-.91,1.14-1.86,1.82-2.72a67.48,67.48,0,0,1,18.76-18,64,64,0,0,1,24.38-8.81,63.74,63.74,0,0,0-24.13,9.2A66.8,66.8,0,0,0,403.93,125c-.66.85-1.19,1.8-1.77,2.71l-1.71,2.75-1.53,2.86c-.5,1-1.05,1.89-1.48,2.89l-1.34,2.94c-.22.49-.46,1-.67,1.48l-.59,1.51c-.78,2-1.59,4-2.22,6.09a122.1,122.1,0,0,0-5.39,25.3,201.91,201.91,0,0,0-1.14,25.91c.14,8.66.71,17.31,1.66,25.92S390,242.52,391.57,251s3.62,16.92,5.83,25.32c4.4,16.78,9.33,33.45,13.45,50.38s7.48,34.11,8.51,51.59-.13,35.16-4.78,52.14a106.66,106.66,0,0,1-9.92,24.41c-1.14,1.89-2.19,3.83-3.41,5.68a55.47,55.47,0,0,1-4,5.36,32,32,0,0,1-5,4.69,21.4,21.4,0,0,1-6.16,3.26l-1-2.78a65.78,65.78,0,0,0,20-13.31,84.56,84.56,0,0,0,14.78-19.19,115.32,115.32,0,0,0,14.38-46.29c1.69-16.25.75-32.72-1.56-48.94s-6-32.29-9.78-48.31-7.71-32.06-10.48-48.35c-1.41-8.14-2.44-16.36-3.19-24.56a178.13,178.13,0,0,1-1-24.78A90.2,90.2,0,0,1,409.7,185c.18-1,.47-2,.7-3l.37-1.51c.15-.5.32-1,.47-1.49.33-1,.61-2,1-3l1.2-2.89a10.69,10.69,0,0,1,.67-1.41l.72-1.39.73-1.38c.25-.45.56-.88.84-1.32.58-.86,1.11-1.76,1.73-2.6l2-2.42c2.69-3.14,5.46-6.16,8.06-9.36s5.12-6.42,7.43-9.82a111.75,111.75,0,0,0,6.32-10.57C445.74,125.55,449.1,118,452.56,110.55Z" transform="translate(-317 -83.93)"/><path class="cls-17" d="M422.4,447.7c2.05-7.43,3.84-14.93,5.26-22.5s2.51-15.21,3.21-22.88a262.26,262.26,0,0,0,.48-46.13l-.22-2.88-.3-2.87c-.2-1.91-.38-3.83-.61-5.74-.53-3.81-1-7.63-1.69-11.42s-1.41-7.56-2.15-11.34-1.72-7.5-2.69-11.22c-3.86-14.91-8.75-29.53-13.48-44.21S401,237,398,221.89s-4.75-30.62-3.68-46.06A114.79,114.79,0,0,1,398.09,153a96.17,96.17,0,0,1,8.82-21.38A78.13,78.13,0,0,1,421,113.33,59.38,59.38,0,0,1,440.42,101a59.12,59.12,0,0,0-19.24,12.51,77.67,77.67,0,0,0-13.84,18.34,95.82,95.82,0,0,0-8.69,21.3A114,114,0,0,0,395,175.87c-1,15.37.75,30.79,3.83,45.85s7.63,29.82,12.34,44.49,9.52,29.34,13.34,44.3c1,3.74,1.83,7.5,2.65,11.27s1.54,7.56,2.11,11.38,1.14,7.63,1.65,11.46c.23,1.91.4,3.84.61,5.76l.28,2.88.21,2.88a262.45,262.45,0,0,1-.65,46.23c-.79,7.68-2,15.3-3.46,22.87S424.53,440.29,422.4,447.7Z" transform="translate(-317 -83.93)"/><path class="cls-17" d="M445.56,97.45a47.92,47.92,0,0,0-11.64,3.72,47.38,47.38,0,0,0-10.2,6.54,58.57,58.57,0,0,0-8.34,8.76,74.34,74.34,0,0,0-6.52,10.19,108.1,108.1,0,0,0-8.77,22.56,193.77,193.77,0,0,0-4.84,23.85,154.25,154.25,0,0,0-1.52,24.17c0,4,.37,8,.78,12.06s1.09,8,2,11.88c.22,1,.41,2,.65,2.94l.76,2.91c.47,2,1.14,3.85,1.71,5.78,1.25,3.85,2.6,7.71,4,11.55,2.76,7.68,5.71,15.32,8.56,23,5.64,15.4,11.19,31,14.47,47.32a215.7,215.7,0,0,1,4.06,49.39,289.29,289.29,0,0,1-5.83,49.05A402,402,0,0,1,412,460.67c4.16-15.86,7.87-31.83,10.46-48A313.42,313.42,0,0,0,426.84,364a224.12,224.12,0,0,0-4.79-48.37c-3.41-15.84-8.84-31.23-14.57-46.55-2.86-7.66-5.73-15.35-8.49-23.1-1.38-3.88-2.72-7.77-4-11.71-.58-2-1.27-4-1.74-6l-.78-3c-.24-1-.44-2-.66-3.06-.88-4.09-1.42-8.24-1.89-12.38s-.64-8.33-.62-12.49.18-8.33.47-12.47.87-8.26,1.55-12.35l.51-3.07.59-3c.37-2,.85-4.05,1.29-6.07.94-4,1.91-8.05,3.16-12a110.91,110.91,0,0,1,9.79-22.86,77,77,0,0,1,7.17-10.2,57.34,57.34,0,0,1,9-8.63,49,49,0,0,1,10.78-6.14A48.29,48.29,0,0,1,445.56,97.45Z" transform="translate(-317 -83.93)"/><path class="cls-23" d="M382.37,600c3.51-1.55,6.9-2.74,10.24-4s6.62-2.44,9.9-3.68l9.85-3.81c3.33-1.28,6.68-2.61,10.36-3.73a33.33,33.33,0,0,1-8.11,7.88,45.11,45.11,0,0,1-10,5.26,44.44,44.44,0,0,1-11,2.66A32.6,32.6,0,0,1,382.37,600Z" transform="translate(-317 -83.93)"/><path class="cls-23" d="M525.71,584.94c3.61,1.93,6.92,3.83,10.29,5.55s6.7,3.28,10.13,4.66,6.9,2.6,10.51,3.67,7.3,2,11.27,3a28.76,28.76,0,0,1-12.07,1.68,38.08,38.08,0,0,1-12-2.76,39.09,39.09,0,0,1-10.5-6.33A30.41,30.41,0,0,1,525.71,584.94Z" transform="translate(-317 -83.93)"/><path class="cls-39" d="M480.29,583.28s83.22-33.85,62.23-112.09-33.77-155.36-33.77-155.36Z" transform="translate(-317 -83.93)"/><path class="cls-40" d="M524.51,918l-37.89-6a5.5,5.5,0,0,0-6.37,4.6l-6.63,44.44a5.78,5.78,0,0,0,5.06,6.53L524,972.94a5.56,5.56,0,0,0,3.75-10.15L508.9,944.4" transform="translate(-317 -83.93)"/><path class="cls-40" d="M429.19,922.1l44.19-7.84L482.51,969l-47.82,6.59c-7.23,1-10.76-7.54-4.86-11.73l13.46-16.57" transform="translate(-317 -83.93)"/><ellipse class="cls-41" cx="118.47" cy="142.66" rx="14.32" ry="5.58"/><ellipse class="cls-41" cx="192.1" cy="143.43" rx="14.32" ry="5.29"/><path class="cls-42" d="M469.22,553.34,450.81,372.9c-.64-7.42,11.11,19.46,15.34,24.56l-2,.39a5.24,5.24,0,0,0,8.28.29l10.16-11c4.2-4.55,11.52-13.87,11.17-6.81l-8.18,119.09-4.09,55c-.33,4.09-1.41,7.7-4.6,7.7h-4.13C469.58,562.14,469.56,557.41,469.22,553.34Z" transform="translate(-317 -83.93)"/><path class="cls-21" d="M408.79,122.76a333.26,333.26,0,0,1-6.89,55.77,29,29,0,0,0,11.16-20.31,127.69,127.69,0,0,1,7.72,18.62,20.32,20.32,0,0,0,4.73-14.4,22.17,22.17,0,0,1,3.37,13.31,102.71,102.71,0,0,0,3.61-16.52q3.83,13.08,7.15,26.32a25.3,25.3,0,0,0,2.89-18.3L449,178.79l.38-25.66a201.71,201.71,0,0,0,8.36,32.62A66.7,66.7,0,0,0,460.52,167l4.42,4.17a18.5,18.5,0,0,0,4.35-9.3,141.85,141.85,0,0,1,9.25,28.85A98.75,98.75,0,0,0,484,168.3a15.21,15.21,0,0,1,4.16,5l5.34-6.45a28.62,28.62,0,0,0,6.91,14.86,51.69,51.69,0,0,0,1.22-15.34l9,15.61c14.66-15.9,15.64-39.63,15.82-61.21a13.68,13.68,0,0,0-.89-6.14,12.28,12.28,0,0,0-4.21-4.39C505.08,98.68,483.89,97,463.91,97q-14.57,0-29.1,1c-9.69.65-21.46,3.2-24.26,12.46-1.48,4.9-.85,11.89-5.77,13.37" transform="translate(-317 -83.93)"/><path class="cls-17" d="M454.29,92.82a88.62,88.62,0,0,1,28.52,7.31A103.68,103.68,0,0,1,508,115.92a111.53,111.53,0,0,1,20,22.14,114.07,114.07,0,0,1,13.42,26.7,121.08,121.08,0,0,1,6,29.26,127,127,0,0,1-1.23,29.74,122.28,122.28,0,0,1-8.17,28.51,104.65,104.65,0,0,1-15.16,25.24,127.64,127.64,0,0,0,19.46-54.3,132.63,132.63,0,0,0,.38-28.79,119.05,119.05,0,0,0-6-28A112.32,112.32,0,0,0,524,140.69a115.88,115.88,0,0,0-18.61-21.85C491.21,105.9,473.59,96.43,454.29,92.82Z" transform="translate(-317 -83.93)"/><path class="cls-17" d="M450.41,96.84l3.88,2.35,3.92,2.27q3.93,2.25,7.9,4.43c5.31,2.89,10.66,5.68,16,8.51,10.66,5.71,21.3,11.63,31.16,18.86a115.93,115.93,0,0,1,26,25.83,79.47,79.47,0,0,1,14.17,34,83.7,83.7,0,0,1-3.14,36.69,108.83,108.83,0,0,1-16.7,32.66,160.22,160.22,0,0,1-25.23,26.35c-4.64,3.91-9.42,7.64-14.27,11.27q-3.63,2.71-7.3,5.38l-7.4,5.25,7-5.73q3.53-2.85,7-5.73c4.64-3.86,9.21-7.8,13.62-11.91a170.16,170.16,0,0,0,24-26.71,109.44,109.44,0,0,0,15.59-31.92,80.68,80.68,0,0,0,2.82-35,76.11,76.11,0,0,0-13.31-32.41,117.2,117.2,0,0,0-24.8-25.52c-9.49-7.29-19.83-13.53-30.24-19.64-5.2-3.09-10.42-6.14-15.59-9.3-2.58-1.58-5.14-3.18-7.69-4.83l-3.76-2.53Z" transform="translate(-317 -83.93)"/><path class="cls-17" d="M441.19,96.75c-5.84,12.71-13.33,24.6-19.67,36.91a147.49,147.49,0,0,0-8.45,18.81c-.56,1.61-1.13,3.22-1.59,4.85l-.74,2.43c-.19.8-.43,1.58-.58,2.4a66.93,66.93,0,0,0-1.27,10,130.72,130.72,0,0,0,.62,20.44,186,186,0,0,0,3.12,20.32,154.46,154.46,0,0,0,5.46,19.72,82.74,82.74,0,0,0,3.84,9.27c.35.75.74,1.46,1.13,2.17l1.29,2.3c.88,1.57,1.72,3.2,2.5,4.91a34.37,34.37,0,0,1,2,5.44,49.9,49.9,0,0,1,1,5.48,53,53,0,0,0,2.25,9.59l1.69,4.9c.61,1.68,1.14,3.4,1.65,5.11,1,3.43,1.89,6.91,2.62,10.42a135.88,135.88,0,0,1,2.45,21.26c.15,3.56.11,7.13,0,10.68-.11,1.78-.22,3.56-.36,5.33s-.32,3.55-.57,5.31a139.31,139.31,0,0,1-4.23,20.85,134.35,134.35,0,0,1-7.47,19.85,115,115,0,0,1-24.31,34.18,128.19,128.19,0,0,0,21.15-35.55,140,140,0,0,0,9.41-39.91,135.38,135.38,0,0,0-2.56-40.63c-.42-1.64-.77-3.31-1.21-4.94s-.85-3.29-1.39-4.89-1-3.24-1.59-4.83l-1.78-5A60.1,60.1,0,0,1,423,263.22c-.27-1.78-.47-3.34-.84-4.8a26.14,26.14,0,0,0-1.54-4.39q-1-2.21-2.19-4.43l-1.24-2.28c-.45-.81-.88-1.64-1.28-2.46a87.43,87.43,0,0,1-4.09-10.07,163.31,163.31,0,0,1-5.32-20.67c-2.6-13.92-4-28.09-2.85-42.39A72.05,72.05,0,0,1,405.3,161c.19-.89.49-1.77.73-2.66s.58-1.7.87-2.54c.56-1.71,1.27-3.35,1.93-5A147.32,147.32,0,0,1,418.55,132C425.82,120,434,108.73,441.19,96.75Z" transform="translate(-317 -83.93)"/><path class="cls-9" d="M448,96.78l-2.32.52-1.16.26-1.14.35-2.27.71c-.74.28-1.47.58-2.2.87-1.5.54-2.88,1.32-4.32,2-.7.36-1.37.78-2.06,1.17a23.15,23.15,0,0,0-2,1.23,61.26,61.26,0,0,0-14,12.59,74.2,74.2,0,0,0-10.12,15.91,91.44,91.44,0,0,0-6.05,17.86,126.74,126.74,0,0,0-2.3,37.63A202.9,202.9,0,0,0,405,225.08c3.28,12.23,7.29,24.27,11.27,36.33s8,24.11,11.87,36.2l11.74,36.24c3.85,12.1,7.76,24.19,11.55,36.31-4.22-12-8.32-24-12.48-36l-12.27-36.07c-4.12-12-8.09-24.07-12.14-36.11S406.4,237.89,403,225.6a204.73,204.73,0,0,1-6.82-37.6,123.38,123.38,0,0,1,2.62-38.12,92.3,92.3,0,0,1,6.41-18,74.67,74.67,0,0,1,10.5-16,62.4,62.4,0,0,1,14.51-12.41A48.29,48.29,0,0,1,448,96.78Z" transform="translate(-317 -83.93)"/><path class="cls-17" d="M441.53,96.09c-7.65,9.75-13,21-16.79,32.61A159.36,159.36,0,0,0,420,146.45c-1.23,6-2.23,12-2.95,18.13a284.59,284.59,0,0,0-1.88,36.69c.08,6.13.28,12.26.7,18.38.2,3,.45,6.11.75,9.16s.65,6.08,1,9.18c1.31,12.34,2.09,24.69,3.64,36.82.76,6.07,1.8,12.1,3,18.11.61,3,1.31,6,2,9s1.31,6.09,1.88,9.15a165.92,165.92,0,0,1,3.07,37.21c-.55,12.44-3,24.93-8.25,36.15a102.4,102.4,0,0,0,5.83-36.19,177.18,177.18,0,0,0-4.44-36.4q-1-4.5-2.13-8.95c-.76-3-1.5-6-2.18-9.06-1.37-6.07-2.54-12.21-3.43-18.38s-1.51-12.37-2.1-18.52-1.17-12.29-1.85-18.41a318.76,318.76,0,0,1-2.2-37.23,257.88,257.88,0,0,1,2.74-37.24,173.7,173.7,0,0,1,9.21-36.18C426.92,116.28,433,105.12,441.53,96.09Z" transform="translate(-317 -83.93)"/><path class="cls-43" d="M450.28,146.14q.56,2.61,1.09,5.1c.38,1.68.72,3.35,1.11,4.94s.73,3.16,1.08,4.62.73,2.86,1.05,4.14.67,2.45,1,3.49.57,1.94.81,2.67c.47,1.48.78,2.31.78,2.31s-.33-.82-1-2.24c-.32-.71-.71-1.56-1.12-2.56s-.93-2.11-1.4-3.36-1-2.58-1.51-4-1-3-1.47-4.57-.89-3.27-1.29-5-.72-3.45-1-5.2a128.88,128.88,0,0,1-1.49-17.24c-.1-5-.08-10.12.36-17.61a109.84,109.84,0,0,0,.34,17.57A164.19,164.19,0,0,0,450.28,146.14Z" transform="translate(-317 -83.93)"/><path class="cls-43" d="M441.75,149.38c.31,6.24.13,12.51-.11,17.21-.11,2.09-.2,4-.28,5.7-.06,1.37-.06,2.16-.06,2.16s0-.79-.14-2.16l-.51-5.68c-.43-4.69-.87-11-.81-17.19.11-12.88.57-17.6.33-30.91.14,6.66.39,11.16.66,15.6S441.45,143,441.75,149.38Z" transform="translate(-317 -83.93)"/><path class="cls-43" d="M491.12,146.57a35.69,35.69,0,0,0,2.23,4.86c.84,1.59,1.73,3.12,2.58,4.62,1.72,3,3.38,5.81,4.54,8.39a23.2,23.2,0,0,1,1.29,3.63c.16.55.21,1.1.31,1.58s.09.95.12,1.35a13.19,13.19,0,0,1-.09,1.89l-.07.67,0-.67A10.78,10.78,0,0,0,502,171c-.08-.4-.16-.84-.26-1.31s-.26-1-.49-1.48a22.94,22.94,0,0,0-1.66-3.34c-1.41-2.35-3.32-4.95-5.23-7.88-.94-1.46-1.9-3-2.78-4.61a28.15,28.15,0,0,1-2.27-5.18c-1.19-3.7-1.81-6.82-2.68-9.56a34.57,34.57,0,0,0-3.19-7.36c-2.6-4.54-6.05-8.67-11.53-14.29,5.49,5.62,9.17,9.5,12.12,13.92a35.69,35.69,0,0,1,3.84,7.3C489,140,489.82,143.08,491.12,146.57Z" transform="translate(-317 -83.93)"/><path class="cls-43" d="M503.31,147.72a64.79,64.79,0,0,1,4.83,7.29,21.76,21.76,0,0,1,2.49,7.5,14.76,14.76,0,0,1-.3,5.53,13.67,13.67,0,0,1-.44,1.45l-.18.51.14-.52a9,9,0,0,0,.2-1.49,13.3,13.3,0,0,0-.86-5.14,29,29,0,0,0-3.42-6.41c-1.51-2.22-3.29-4.55-4.86-7.13a33.75,33.75,0,0,1-3.43-7.41c-.74-2.25-1.27-4.27-1.9-6.28a33.86,33.86,0,0,0-2.43-6.07,16.57,16.57,0,0,0-2.14-3.1,13.24,13.24,0,0,0-3.43-2.67,15.47,15.47,0,0,1,3.5,2.6,19.64,19.64,0,0,1,2.35,3,46.2,46.2,0,0,1,3.13,5.87c.89,1.92,1.73,3.85,2.75,5.91A40,40,0,0,0,503.31,147.72Z" transform="translate(-317 -83.93)"/><path class="cls-43" d="M471.91,137.54c.6,1.59,1.15,3.21,1.66,4.81s1,3.2,1.38,4.75c.8,3.11,1.41,6.05,1.83,8.59.21,1.26.39,2.43.53,3.47s.27,1.93.35,2.67c.18,1.49.32,2.33.32,2.33s-.16-.84-.51-2.29-.91-3.51-1.66-6-1.65-5.27-2.63-8.29l-3.09-9.45c-2.13-6.64-3.66-11.18-5.28-15.74-.81-2.28-1.64-4.57-2.61-7.13-.49-1.28-1-2.63-1.63-4a16.41,16.41,0,0,0-2.64-4.25,18.14,18.14,0,0,1,2.7,4.22c.68,1.41,1.22,2.74,1.77,4,1.09,2.47,2.08,4.71,3.06,7C467.42,126.61,469.42,131,471.91,137.54Z" transform="translate(-317 -83.93)"/><path class="cls-43" d="M414.09,112.31c-.53.65-1.07,1.29-1.61,1.91l-1.59,1.84c-.54.59-1,1.17-1.53,1.72s-.92,1.1-1.36,1.6-.79,1-1.12,1.4a11.52,11.52,0,0,0-.81,1.14,9.08,9.08,0,0,0-.62,1,8,8,0,0,0,.35-1.16c.1-.38.2-.85.37-1.37s.29-1.14.53-1.77.47-1.35.81-2a17.53,17.53,0,0,1,1.14-2.18,18.49,18.49,0,0,1,3.37-4.12,32.41,32.41,0,0,1,7.3-4.87A71.1,71.1,0,0,1,427.4,102a24.42,24.42,0,0,0-7.5,4.31A46.87,46.87,0,0,0,414.09,112.31Z" transform="translate(-317 -83.93)"/><path class="cls-43" d="M414.11,125.62c-1.2,1.77-2.49,3.46-3.75,5s-2.49,3-3.56,4.25-1.95,2.29-2.53,3.05a13.64,13.64,0,0,0-.87,1.23,14.93,14.93,0,0,0,.62-1.37l.65-1.61c.26-.62.53-1.33.88-2.08a43.31,43.31,0,0,1,2.54-5,35.67,35.67,0,0,1,3.74-5.23,86.39,86.39,0,0,1,7.57-7.57l8-7.27a59.68,59.68,0,0,0-7.27,8C418.3,119.45,416.6,122,414.11,125.62Z" transform="translate(-317 -83.93)"/><path class="cls-43" d="M533.14,143.12c-.68-.82-1.43-1.59-2.14-2.39s-1.4-1.61-2.18-2.35c-1.53-1.5-3-3-4.57-4.48l-2.31-2.18-2.35-2.12L515,125.46c-3.06-2.72-6-5.39-8.74-8-1.36-1.31-2.65-2.63-3.91-3.88s-2.38-2.57-3.5-3.78a78.16,78.16,0,0,1-5.57-7.09,62.52,62.52,0,0,1-3.68-5.88,21.29,21.29,0,0,1-1.15-2.29l-.82-1.71-.69-1.41.73,1.39.9,1.67a18.54,18.54,0,0,0,1.28,2.2,59.18,59.18,0,0,0,4.06,5.55,79.85,79.85,0,0,0,6,6.54c1.19,1.12,2.4,2.3,3.7,3.48s2.68,2.36,4.11,3.57l9.06,7.53c1.58,1.31,3.18,2.64,4.77,4l2.41,2.1,2.38,2.19c1.61,1.45,3.11,3.05,4.66,4.61.79.77,1.48,1.64,2.22,2.47s1.47,1.65,2.15,2.52l2,2.7,1,1.31.85,1.37,1.65,2.66a9.59,9.59,0,0,1,.72,1.34c.23.45.45.9.66,1.34a46.18,46.18,0,0,1,3.9,10.41,85.1,85.1,0,0,1,2.29,19.24c.14,6.23-.08,12.48-.19,19.49S548,216,548,225.23c0-9.28,0-17.06-.07-24.08s-.11-13.27-.53-19.44A82.87,82.87,0,0,0,544.24,163a44.92,44.92,0,0,0-4.17-9.8c-.22-.42-.45-.84-.68-1.26a9.33,9.33,0,0,0-.74-1.25L537,148.16l-.85-1.28-1-1.23C534.49,144.83,533.82,144,533.14,143.12Z" transform="translate(-317 -83.93)"/><path class="cls-43" d="M525,169.62c-.74-1.6-1.54-3.17-2.32-4.74s-1.56-3.13-2.35-4.68-1.58-3.08-2.37-4.58-1.57-3-2.37-4.45c-1.56-2.92-3.14-5.7-4.64-8.35L508.7,139l-2.14-3.55c-1.37-2.28-2.7-4.34-3.86-6.17s-2.23-3.39-3.12-4.67c-1.79-2.55-2.86-4-2.86-4s1.1,1.4,3.1,3.8l3.53,4.38c1.34,1.71,2.86,3.64,4.44,5.8l2.46,3.37,2.54,3.69c1.7,2.55,3.47,5.26,5.17,8.15.88,1.43,1.72,2.9,2.55,4.41s1.69,3,2.48,4.6,1.62,3.13,2.37,4.74,1.53,3.21,2.23,4.85c2.94,6.73,5.12,12.51,6.89,17.83s3.23,10.13,4.52,15a70.89,70.89,0,0,1,2.55,15.67c.09,2.87-.17,5.87-.35,9.1a35.4,35.4,0,0,0,.59,10.43A37.77,37.77,0,0,1,541.1,226a87.21,87.21,0,0,0,.11-9.08A63.1,63.1,0,0,0,538,201.57,256.7,256.7,0,0,0,525,169.62Z" transform="translate(-317 -83.93)"/><path class="cls-43" d="M384.72,259.16c-.38-2.28-.67-4.58-1-6.88s-.68-4.58-.9-6.88c-.48-4.59-1.05-9.17-1.33-13.73l-.51-6.81q-.15-3.39-.29-6.75c-.26-4.48-.22-8.91-.29-13.26s.13-8.64.2-12.83.39-8.29.66-12.27.61-7.86,1-11.6.91-7.36,1.54-10.8A85.66,85.66,0,0,1,389,139a50.27,50.27,0,0,1,7.49-12.62,44.73,44.73,0,0,1,3.72-4c1.21-1,2.24-1.88,3.11-2.53l2.77-1.86-2.74,1.89c-.86.67-1.87,1.56-3.05,2.6a44,44,0,0,0-3.58,4,49.17,49.17,0,0,0-7,12.72,86.34,86.34,0,0,0-4.52,18.28c-.49,3.43-.89,7-1.16,10.73s-.42,7.59-.65,11.55-.23,8-.34,12.21-.05,8.42.06,12.74.16,8.72.45,13.16c.12,2.22.23,4.45.35,6.7s.35,4.49.53,6.75c.3,4.53.85,9.06,1.31,13.63.2,2.28.56,4.55.84,6.83s.57,4.57.91,6.84a404.06,404.06,0,0,0,10.16,48.35A388.2,388.2,0,0,0,410.6,345.7c4.8,12.23,10.3,24.34,14.88,38.52,1.11,3.55,2.16,7.23,3.08,11.07.42,1.93.89,3.88,1.23,5.9s.72,4.05.93,6.15c.42,4.18.41,8.7-1.23,13a17.13,17.13,0,0,1-3.73,5.82,12.66,12.66,0,0,1-6.18,3.56,12.6,12.6,0,0,0,6.17-3.57,16.69,16.69,0,0,0,3.71-5.82c1.63-4.28,1.61-8.79,1.16-13-.23-2.09-.58-4.14-1-6.14s-.84-3.95-1.27-5.87c-1-3.83-2.05-7.49-3.21-11-4.75-14.1-10.46-26.07-15.54-38.23a396.25,396.25,0,0,1-13.79-38.46A376.42,376.42,0,0,1,384.72,259.16Z" transform="translate(-317 -83.93)"/><path class="cls-43" d="M483.42,142.33c.32,1.72.56,3.46.72,5.17s.25,3.42.22,5.06-.08,3.24-.2,4.74-.33,2.91-.49,4.21-.44,2.48-.62,3.52-.38,1.95-.55,2.7c-.33,1.48-.46,2.34-.46,2.34s.1-.86.17-2.38c0-.76.08-1.67.05-2.73s0-2.24-.07-3.53-.09-2.68-.23-4.15-.2-3-.36-4.6-.32-3.22-.47-4.88-.37-3.31-.56-5a103.88,103.88,0,0,0-3.16-16.36,69.12,69.12,0,0,0-6.7-15.78,132.4,132.4,0,0,1,7.69,15.43A82.88,82.88,0,0,1,483.42,142.33Z" transform="translate(-317 -83.93)"/><path class="cls-43" d="M455.45,141.86c-.87-7.9-1.68-15.32-2.35-21.39-.15-1.47-.34-2.81-.48-4s-.29-2.23-.42-3.08c-.25-1.7-.43-2.67-.43-2.67s.2,1,.62,2.64l.75,3c.28,1.17.62,2.49.93,3.93s.69,3,1,4.67.66,3.42.95,5.24c.6,3.64,1.05,7.56,1.34,11.47.56,8.08.55,13.62.52,19.21s-.17,11.24-.52,19.57a190,190,0,0,0-.17-19.56C456.85,155.34,456.35,149.85,455.45,141.86Z" transform="translate(-317 -83.93)"/><path class="cls-43" d="M423.52,129.71l.35-1.65c.15-.55.3-1.09.46-1.63.28-1.09.66-2.16,1-3.2a40.2,40.2,0,0,1,2.84-5.9,41.11,41.11,0,0,1,7.15-9,42.27,42.27,0,0,1,3.48-3c.53-.43,1.06-.8,1.53-1.14s.93-.65,1.34-.92c.8-.54,1.46-.94,1.91-1.21l.67-.43-.66.45c-.43.3-1.05.74-1.81,1.35s-1.65,1.37-2.63,2.3-2,2-3.11,3.28a49.2,49.2,0,0,0-6.26,9.25,52.23,52.23,0,0,0-2.57,5.72c-.35,1-.72,2-1,3l-.47,1.56-.38,1.58a69.15,69.15,0,0,0-1.71,11.59c-.25,3.46-.32,6.59-.33,9.74s0,6.33.07,9.9,0,7.52-.31,12.23a109.73,109.73,0,0,0,.08-12.23c-.15-3.56-.36-6.73-.54-9.88s-.32-6.3-.29-9.81A63.52,63.52,0,0,1,423.52,129.71Z" transform="translate(-317 -83.93)"/><path class="cls-43" d="M443.63,137.89c-.12-4.39-.11-8.8.14-12.95.13-2.07.3-4.07.54-6s.52-3.68.83-5.31.65-3.12,1-4.43.66-2.44.94-3.37.53-1.64.68-2.14L448,103l-.2.76c-.13.51-.34,1.23-.52,2.18s-.4,2.1-.61,3.42-.37,2.83-.52,4.47-.27,3.41-.35,5.29-.13,3.86-.16,5.91c0,4.08,0,8.41-.06,12.86a73.63,73.63,0,0,0,.42,11.64,22.39,22.39,0,0,0,3.17,8.88c1.59,2.66,3.62,5.14,5.12,8.38a20.92,20.92,0,0,1,1.63,11.87,19.65,19.65,0,0,0-1.83-11.78c-1.59-3.15-3.73-5.48-5.51-8.09a23.57,23.57,0,0,1-3.87-9A65.5,65.5,0,0,1,443.63,137.89Z" transform="translate(-317 -83.93)"/><path class="cls-43" d="M461,132.32q-2.18-4.29-4.13-8.14a71.21,71.21,0,0,1-3.41-7.32,17.14,17.14,0,0,1-1.15-5.65,11.32,11.32,0,0,1,.07-1.6l.05-.56,0,.56a8.1,8.1,0,0,0,.09,1.59,16.13,16.13,0,0,0,1.86,5.26c1.08,2.05,2.63,4.28,4.13,6.84a85.07,85.07,0,0,1,4.25,8.19,143.62,143.62,0,0,1,5.44,14.35c1.37,4.25,2.69,8.56,4.45,15a115.52,115.52,0,0,0-5.11-14.73C465.73,142,463.87,138,461,132.32Z" transform="translate(-317 -83.93)"/><path class="cls-43" d="M476.5,132.66c-1.59-2.6-3.19-5.2-4.64-7.7s-2.73-4.89-3.75-7-1.78-3.88-2.3-5.13l-.6-1.45-.22-.51s.33.7,1,1.88,1.69,2.8,3,4.71c2.56,3.83,6.25,8.76,9.19,14.22A55.53,55.53,0,0,1,483.41,145a39.38,39.38,0,0,1,1,6.28,31.34,31.34,0,0,1-.25,7.51h0c0-.6.05-1.46.07-2.38l-.05,2.38h0a26.58,26.58,0,0,0,0-7.48,34.23,34.23,0,0,0-1.49-6.1A63.36,63.36,0,0,0,476.5,132.66Z" transform="translate(-317 -83.93)"/><path class="cls-43" d="M498.62,138.66c-.55-1-1.18-1.94-1.77-2.91s-1.23-1.89-1.91-2.79-1.3-1.82-2-2.67-1.37-1.72-2.06-2.54c-1.38-1.64-2.79-3.17-4.16-4.59s-2.73-2.72-4-3.9-2.48-2.22-3.57-3.12-2.07-1.66-2.86-2.29c-1.63-1.22-2.59-1.87-2.59-1.87s1,.63,2.7,1.71c.85.56,1.9,1.21,3.07,2s2.48,1.73,3.88,2.78,2.87,2.26,4.38,3.6,3,2.81,4.53,4.43c.75.81,1.5,1.64,2.21,2.53s1.42,1.79,2.1,2.72,1.31,1.93,2,2.9,1.22,2,1.76,3.06a51.91,51.91,0,0,1,4.48,11.75c.89,3.57,1.44,6.81,2,10.07,1.09,6.5,2.21,13.08,4.09,22.76-1.9-9.67-3.33-16.19-4.78-22.63S503.25,146.82,498.62,138.66Z" transform="translate(-317 -83.93)"/><path class="cls-43" d="M505.77,145.6c-.74-1.48-1.5-2.94-2.26-4.38s-1.52-2.85-2.32-4.18-1.54-2.64-2.29-3.85-1.5-2.34-2.17-3.4-1.38-2-2-2.81-1.13-1.54-1.59-2.11c-.91-1.16-1.47-1.79-1.47-1.79s.57.62,1.62,1.66c.52.51,1.16,1.14,1.85,1.9s1.53,1.57,2.33,2.55,1.74,2,2.59,3.16,1.8,2.39,2.66,3.73,1.7,2.73,2.52,4.18,1.54,3,2.23,4.52a81,81,0,0,1,5,15.68A108.06,108.06,0,0,1,514.65,177a70.57,70.57,0,0,0-2.86-16.38A94.65,94.65,0,0,0,505.77,145.6Z" transform="translate(-317 -83.93)"/><path class="cls-43" d="M428.19,147.2c.23-2,.64-3.9,1-5.78s.85-3.71,1.34-5.48c1-3.53,2-6.78,3-9.54s1.91-5,2.54-6.6,1-2.5,1-2.5-.33.92-.8,2.56-1.09,4-1.77,6.83-1.43,6.14-2.19,9.69c-.38,1.77-.76,3.59-1.16,5.46s-.8,3.76-1.09,5.6a15.36,15.36,0,0,0-.05,5.23,19.17,19.17,0,0,0,1.5,4.4c1.29,2.71,2.7,5.14,3.71,7.74a54,54,0,0,1,2.63,8.28,54.85,54.85,0,0,1,1.39,10.62,44.56,44.56,0,0,0-1.61-10.56,46.44,46.44,0,0,0-3.05-8.06c-1.17-2.49-2.71-4.71-4.24-7.42a19.5,19.5,0,0,1-1.92-4.65A16.25,16.25,0,0,1,428.19,147.2Z" transform="translate(-317 -83.93)"/><path class="cls-43" d="M420.19,136.52c.41-1,.84-1.89,1.31-2.81s.89-1.86,1.4-2.74l1.48-2.64c.51-.86,1-1.69,1.55-2.52,1-1.64,2.13-3.17,3.16-4.61s2.07-2.77,3.08-4,1.89-2.28,2.74-3.22,1.55-1.77,2.18-2.42c1.23-1.32,1.91-2.1,1.91-2.1s-.66.8-1.76,2.23c-.56.7-1.19,1.6-1.91,2.62s-1.52,2.19-2.36,3.48-1.72,2.7-2.66,4.18-1.87,3.09-2.8,4.76l-1.43,2.53-1.4,2.62c-.49.87-.92,1.79-1.39,2.68s-.92,1.8-1.35,2.72a104.64,104.64,0,0,0-7.16,18.56,79.61,79.61,0,0,0-1.94,8.93,14.61,14.61,0,0,0-.28,2.51,5.2,5.2,0,0,0,.57,2.6,2.46,2.46,0,0,0,1,1,2.58,2.58,0,0,0,1.43.28,2.66,2.66,0,0,0,1.42-.53,1.45,1.45,0,0,0,.55-1.42,1.43,1.43,0,0,1-.55,1.42,2.69,2.69,0,0,1-1.42.55,2.58,2.58,0,0,1-1.45-.26,2.62,2.62,0,0,1-1-1,5.3,5.3,0,0,1-.64-2.63,15,15,0,0,1,.19-2.55c.42-3.28.86-6.2,1.48-9.06.15-.72.31-1.43.46-2.15s.35-1.44.53-2.17c.34-1.46.8-2.93,1.25-4.5A90.32,90.32,0,0,1,420.19,136.52Z" transform="translate(-317 -83.93)"/><path class="cls-43" d="M436.66,146.83c.63-3.72,1.41-7.42,2.28-10.86s1.79-6.63,2.62-9.35c.41-1.36.83-2.6,1.17-3.7l.93-2.85c.51-1.58.76-2.49.76-2.49s-.23.92-.58,2.54-.79,3.95-1.32,6.74l-1.78,9.5c-.68,3.47-1.4,7.16-2.2,10.83-1.6,7.58-2.67,12.77-3.61,18.05s-1.76,10.66-2.53,18.65c.75-8,1.28-13.4,1.84-18.74S435.39,154.51,436.66,146.83Z" transform="translate(-317 -83.93)"/><path class="cls-43" d="M528.23,114.36a62.73,62.73,0,0,0-8.06-6.74,75.07,75.07,0,0,0-8.81-5.21c-5.95-3-11.82-5.34-16.76-7.52-2.48-1.09-4.74-2.12-6.72-3.09s-3.67-1.86-5.05-2.63l-1.84-1-1.33-.81-1.11-.67,1.13.64,1.36.76,1.88.94c1.41.7,3.16,1.49,5.18,2.32S492.44,93,495,94c5,1.88,11,3.88,17.2,6.79a65.61,65.61,0,0,1,9.15,5.2A56.55,56.55,0,0,1,529.6,113a73.62,73.62,0,0,1,11.45,15.67,103,103,0,0,1,6.54,14.5c3.53,9.64,6,19.72,9.31,34.63-3.33-14.91-6.12-24.92-10-34.37a102.15,102.15,0,0,0-7-14.1A76.8,76.8,0,0,0,528.23,114.36Z" transform="translate(-317 -83.93)"/><path class="cls-43" d="M522.14,112.31c-2.78-1.63-5.79-3-8.74-4.35s-5.85-2.78-8.64-4.14c-5.59-2.72-10.78-5.33-15.22-7.59l-10.73-5.46c-2.6-1.31-4.1-2-4.1-2s1.51.7,4.18,1.85L490,95.33c4.58,2,9.91,4.28,15.58,6.82,2.84,1.28,5.76,2.61,8.71,4a84.57,84.57,0,0,1,8.88,4.54,27.38,27.38,0,0,1,7.3,6.43,36.52,36.52,0,0,1,4.41,7.18,100.26,100.26,0,0,1,5,13.79,311.62,311.62,0,0,1,7.92,32.1,223.34,223.34,0,0,0-8.59-31.88,97.73,97.73,0,0,0-5.51-13.42C531.27,120.35,527.92,115.61,522.14,112.31Z" transform="translate(-317 -83.93)"/><path class="cls-43" d="M386.46,255.68c-1.32-7-2.33-14.14-3.09-21.15s-1.2-14-1.4-20.68c-.13-3.36-.11-6.67-.13-9.9s.08-6.41.24-9.49c.22-6.16.72-12,1.24-17.33s1.25-10.25,2.09-14.55a97.64,97.64,0,0,1,2.78-11c1-3,1.88-5.28,2.53-6.83l1-2.36-1,2.37a70.39,70.39,0,0,0-2.37,6.88,94.26,94.26,0,0,0-2.45,11c-.7,4.3-1.24,9.19-1.63,14.54s-.68,11.15-.75,17.28c-.09,3.07,0,6.22,0,9.44s.12,6.51.31,9.84c.28,6.68.78,13.57,1.56,20.53s1.74,14,3,21c1.27,7.21,2.7,13.81,4.18,20,.79,3.06,1.51,6,2.34,8.87.4,1.42.79,2.83,1.18,4.22l1.22,4.08c3.23,10.75,6.47,20.33,9.56,30s6.1,19.49,8.69,30.69c1.36,5.59,2.4,11.57,3.34,18A151,151,0,0,1,420,392.26a144.67,144.67,0,0,0-1.24-21.06c-1-6.44-2.07-12.41-3.48-18-2.72-11.16-5.89-20.89-9.15-30.52s-6.7-19.13-10.14-29.85c-.43-1.34-.87-2.7-1.3-4.07l-1.27-4.22c-.88-2.84-1.66-5.81-2.5-8.87C389.36,269.54,387.82,262.92,386.46,255.68Z" transform="translate(-317 -83.93)"/><path class="cls-43" d="M399.65,267.85l-2-8.14q-1-4-2-8.07L391.53,236c-1.31-5.11-2.47-10.1-3.25-14.9a80.71,80.71,0,0,1-1.08-13.65,94,94,0,0,1,.89-11.52c.46-3.4,1-6.35,1.47-8.77s.88-4.31,1.15-5.6c.18-.88.31-1.44.42-2,0,0-.59,2.76-1.38,7.62a111.06,111.06,0,0,0-1.56,20.24,82.62,82.62,0,0,0,1.54,13.41c.91,4.71,2.18,9.61,3.58,14.67s2.88,10.31,4.28,15.65l2,8.09c.63,2.72,1.27,5.45,1.9,8.19,2.52,11.27,4.37,20.82,5.88,29.52s2.73,16.54,3.82,24.45,2.1,15.88,3.06,24.85c.46,4.48,1,9.21,1.4,14.32.25,2.54.45,5.19.68,7.93l.17,2.08,0,.53c0,.17.09.4-.16.4a3.11,3.11,0,0,1-1.05.15,3.66,3.66,0,0,1-3.34-2.42,3.64,3.64,0,0,0,3.34,2.41,2.87,2.87,0,0,0,1.05-.14c.24,0,.16-.23.15-.4l-.05-.52c-.05-.7-.11-1.4-.17-2.08-.24-2.75-.46-5.39-.72-7.94-.49-5.1-1-9.82-1.56-14.3-1.09-8.95-2.27-16.89-3.53-24.77C407.91,305.76,405,290.26,399.65,267.85Z" transform="translate(-317 -83.93)"/><path class="cls-43" d="M370.65,227.83c-.22-4.38-.33-8.76-.4-13.08s-.06-8.56,0-12.68c.06-8.22.3-15.93,1-22.51.34-3.28.78-6.28,1.25-8.93s1-4.92,1.46-6.79.89-3.32,1.21-4.3c.19-.62.32-1.07.46-1.51-.13.44-.26.89-.43,1.52-.29,1-.65,2.46-1.05,4.34s-.8,4.17-1.13,6.82-.61,5.65-.78,8.93c-.37,6.56-.28,14.22-.15,22.43.06,4.11.12,8.34.19,12.65s.16,8.67.29,13c.27,9,.72,16.54,1.31,23.39.36,3.42.63,6.67,1.08,9.82.22,1.58.38,3.14.63,4.68s.51,3.08.76,4.61a165,165,0,0,0,4.38,19,137.36,137.36,0,0,0,8.73,22.5,152.67,152.67,0,0,1-8.94-22.44,183.87,183.87,0,0,1-4.86-18.95l-.9-4.6c-.3-1.54-.52-3.1-.79-4.67-.55-3.15-.93-6.41-1.4-9.83C371.76,244.42,371.08,236.84,370.65,227.83Z" transform="translate(-317 -83.93)"/><path class="cls-43" d="M465,142.05c-.33-1-.71-1.88-1.07-2.82s-.72-1.86-1.11-2.77c-.73-1.84-1.53-3.62-2.29-5.35s-1.55-3.38-2.32-5-1.45-3.1-2-4.54a29.17,29.17,0,0,1-2-7.17,19,19,0,0,1-.18-2.07l0-.73,0,.73a13.48,13.48,0,0,0,.34,2,27.51,27.51,0,0,0,2.71,6.79c.71,1.34,1.54,2.76,2.42,4.27s1.79,3.13,2.69,4.84,1.73,3.51,2.5,5.38c.4.92.77,1.87,1.12,2.83s.71,1.92,1,2.9a80.4,80.4,0,0,1,2.7,10.65,89.47,89.47,0,0,1,.58,29.21,67.74,67.74,0,0,0,.69-11.18,72.84,72.84,0,0,0-.76-9,86.69,86.69,0,0,0-1.8-8.74A97.48,97.48,0,0,0,465,142.05Z" transform="translate(-317 -83.93)"/><path class="cls-43" d="M480.14,139.45c-3-7.09-5.65-14.31-7.65-19.76-1-2.72-1.83-5-2.45-6.57s-1-2.47-1-2.47.4.88,1.17,2.39l3.18,6.25a190.41,190.41,0,0,1,8.53,19.45c2.73,7.46,4.37,12.64,6.05,17.86s3.42,10.62,5.89,18.32c-2.55-7.79-4.53-13-6.54-18.08S483.19,146.75,480.14,139.45Z" transform="translate(-317 -83.93)"/><path class="cls-43" d="M525.26,172.56c-6-11.09-13.37-21.47-20.25-31.21-3.44-4.87-6.77-9.57-10.08-13.91a149,149,0,0,0-9.87-11.78,91.63,91.63,0,0,0-9.51-8.84c-1.55-1.17-3-2.29-4.4-3.18s-2.72-1.72-3.93-2.42-2.34-1.21-3.3-1.71a25.3,25.3,0,0,0-2.52-1.1l-2.14-.85,2.15.82A26,26,0,0,1,464,99.43c1,.48,2.15.92,3.36,1.62s2.61,1.37,4,2.3,2.93,1.92,4.53,3a91.53,91.53,0,0,1,9.9,8.58,142.33,142.33,0,0,1,10.31,11.57c3.46,4.27,6.91,8.92,10.43,13.73,7,9.64,14.46,20.07,20.44,31.38a127.38,127.38,0,0,1,7.45,16.73,97.91,97.91,0,0,1,4.08,15.47,73,73,0,0,1-.21,28.07c-1.87,8.93-6,17.29-11.67,25.77-2.84,4.26-6.07,8.58-9.54,13.24s-7.18,9.65-10.76,15.4c3.58-5.75,7.27-10.77,10.7-15.44s6.63-9,9.42-13.32c5.58-8.54,9.51-16.93,11.17-25.79a71.9,71.9,0,0,0-.4-27.69,97.64,97.64,0,0,0-4.32-15.15A130.72,130.72,0,0,0,525.26,172.56Z" transform="translate(-317 -83.93)"/><path class="cls-43" d="M504.07,107.63c-3.62-2.64-7.45-5-11.07-7.26s-7.07-4.18-10.08-5.79-5.57-2.88-7.38-3.71-2.88-1.25-2.88-1.25l2.95,1.07c1.88.68,4.57,1.67,7.74,3a110.26,110.26,0,0,1,10.58,5.09,82.8,82.8,0,0,1,11.3,7.32,54.62,54.62,0,0,1,8.82,8.64c2.29,2.79,4.16,5.42,6.07,8,3.82,5.23,7.71,10.51,13.63,18.17-5.93-7.65-10.07-12.73-14.18-17.74-2.06-2.5-4.09-5-6.51-7.6A59.53,59.53,0,0,0,504.07,107.63Z" transform="translate(-317 -83.93)"/><path class="cls-43" d="M532.54,202.45c-.36-4.51-.69-9.07-1.11-13.5-.22-2.21-.48-4.4-.85-6.53s-.84-4.22-1.4-6.26a97.75,97.75,0,0,0-9-21.33c-3.32-6-6.42-10.77-8.61-14.12s-3.51-5.22-3.51-5.22l3.67,5.11c2.33,3.26,5.68,7.89,9.31,13.73A90.34,90.34,0,0,1,531,175.66c.63,2.08,1.13,4.23,1.56,6.42s.7,4.42.93,6.67c.44,4.5.74,9,1,13.58s.37,9,.23,13.11a108.31,108.31,0,0,1-1,11.41,161.42,161.42,0,0,1-4.23,19.69c-1.71,6.27-3.67,12.5-5.85,19.49-1.1,3.49-2.24,7.19-3.84,11a50.25,50.25,0,0,1-2.88,5.79c-.3.47-.59,1-.91,1.43l-.48.72s-.06.1-.06.05V285l0-.22,0-.43c-.09-1.16-.18-2.35-.27-3.56.09,1.21.19,2.4.28,3.56l0,.43,0,.21v.1s0,0,.05,0l.47-.71c.32-.48.61-1,.9-1.44a47,47,0,0,0,2.84-5.81A114.75,114.75,0,0,0,523.34,266c2.07-7,3.87-13.3,5.39-19.59a158.93,158.93,0,0,0,3.61-19.69c.4-3.54.65-7.27.71-11.28S532.88,207.11,532.54,202.45Z" transform="translate(-317 -83.93)"/><path class="cls-43" d="M516.48,163.48l-1.85-3.78L512.8,156c-.58-1.19-1.17-2.33-1.73-3.42s-1.1-2.1-1.59-3.05-1-1.8-1.41-2.56-.81-1.42-1.15-1.95c-.65-1.07-1.06-1.66-1.06-1.66s.43.57,1.22,1.54c.4.49.89,1.07,1.43,1.77s1.17,1.45,1.8,2.33,1.35,1.8,2,2.84,1.41,2.11,2.09,3.28a59.58,59.58,0,0,1,3.81,7.53A97.83,97.83,0,0,1,522.62,176c1,3.95,1.93,8,3,13.93A81.43,81.43,0,0,0,522,176.21,129,129,0,0,0,516.48,163.48Z" transform="translate(-317 -83.93)"/><path class="cls-43" d="M419.42,154.41a34.06,34.06,0,0,1,1.17-6.33c.28-1,.62-1.93,1-2.82s.73-1.7,1.12-2.43.77-1.39,1.1-2l.94-1.45c.56-.78.84-1.24.84-1.24s-.27.48-.67,1.34c-.2.43-.39,1-.63,1.58s-.46,1.32-.66,2.1-.43,1.62-.64,2.51-.39,1.83-.57,2.81c-.37,2-.7,4.05-1.06,6.15-.71,4.34-1.12,7.36-1.53,10.41a46.12,46.12,0,0,0-.4,4.79,23,23,0,0,0,.55,5.91,32.64,32.64,0,0,1-.77-5.91c-.08-1.74-.08-3.29-.08-4.84C419.14,161.94,419,158.9,419.42,154.41Z" transform="translate(-317 -83.93)"/><path class="cls-43" d="M455.45,138.51c-1.46-6.76-2.67-13.59-3.57-18.75-.46-2.57-.84-4.72-1.15-6.21s-.5-2.35-.5-2.35.23.85.69,2.3l.85,2.62c.32,1,.7,2.16,1.07,3.41a140.61,140.61,0,0,1,4.5,18.62c1.16,7.07,1.67,11.94,2.22,16.86l1.79,17.25c-.77-7.35-1.59-12.29-2.48-17.15S457,145.48,455.45,138.51Z" transform="translate(-317 -83.93)"/><path class="cls-43" d="M449.29,137a124.6,124.6,0,0,1-.7-15.94c0-1.9.07-3.66.1-5.28,0-1.27,0-2,0-2s.05.73.2,2,.41,3.07.7,5.23c.6,4.32,1.31,10.07,1.62,15.84s.53,10,.74,14.12.56,8.28,1.32,14.39c-.78-6.11-1.4-10.24-2-14.32S450,142.94,449.29,137Z" transform="translate(-317 -83.93)"/><path class="cls-44" d="M389.6,118.26a226.34,226.34,0,0,1,43.22-3.1c3.62.14,7.24.22,10.86.45s7.23.56,10.84.91,7.19.9,10.79,1.39L476,119.74l10.63,2.35,10.52,2.81,10.36,3.34c3.41,1.23,6.8,2.55,10.18,3.85a170,170,0,0,1,37.85,21.11,237.37,237.37,0,0,0-39-18.19l-10.17-3.44-10.29-3-10.39-2.65-10.49-2.22-10.56-1.9-10.63-1.5c-3.55-.43-7.11-.78-10.67-1.18l-10.72-.82A366.53,366.53,0,0,0,389.6,118.26Z" transform="translate(-317 -83.93)"/><path class="cls-23" d="M485.1,123.53c-2.41-1.58-4.91-3.25-6.45-5.89s-1.75-6.54.27-8.71a4.76,4.76,0,0,1,6.17-.53,8.22,8.22,0,0,1,3.12,6.32,5.24,5.24,0,0,1,4-5.24,6,6,0,0,1,5.82,2.85,7.18,7.18,0,0,1,.8,6.58c-.91,2.08-3.41,3.24-5.18,2.07a7.24,7.24,0,0,1,4.5,6.32c.14,2.87-1.76,5.79-4.27,6.2s-5.16-2.08-5-5c-1.26,4.67-7.16,6.68-10.47,3.57s-2.67-10.07,1.14-12.33" transform="translate(-317 -83.93)"/><path class="cls-45" d="M538.78,145.94a13.15,13.15,0,0,1-4.54-4.21c-1.08-1.88-1.24-4.67.18-6.22a3.31,3.31,0,0,1,4.35-.38,5.94,5.94,0,0,1,2.2,4.52,3.73,3.73,0,0,1,2.79-3.75,4.17,4.17,0,0,1,4.09,2,5.21,5.21,0,0,1,.57,4.7c-.64,1.49-2.4,2.31-3.65,1.48a5.16,5.16,0,0,1,3.17,4.51c.09,2.05-1.24,4.14-3,4.43a3.37,3.37,0,0,1-3.54-3.54c-.89,3.34-5,4.77-7.38,2.55s-1.88-7.19.81-8.81" transform="translate(-317 -83.93)"/><path class="cls-46" d="M409.81,116.85a12.7,12.7,0,0,1-4.13-4.21c-1-1.88-1.12-4.67.18-6.22a2.81,2.81,0,0,1,3.95-.38,6.16,6.16,0,0,1,2,4.52,3.26,3.26,0,0,1,6.26-1.71,5.63,5.63,0,0,1,.52,4.7c-.59,1.49-2.19,2.31-3.32,1.48a5.16,5.16,0,0,1,2.88,4.51c.09,2-1.12,4.14-2.73,4.43s-3.31-1.49-3.23-3.54c-.8,3.34-4.58,4.77-6.71,2.55s-1.71-7.19.73-8.81" transform="translate(-317 -83.93)"/><path class="cls-46" d="M496.93,134.54a12.61,12.61,0,0,1-4.13-4.21c-1-1.88-1.12-4.67.17-6.22a2.82,2.82,0,0,1,4-.38,6.16,6.16,0,0,1,2,4.52,3.26,3.26,0,0,1,6.26-1.71,5.66,5.66,0,0,1,.52,4.7c-.59,1.49-2.19,2.31-3.32,1.47a5.19,5.19,0,0,1,2.88,4.52c.09,2.05-1.13,4.14-2.74,4.43s-3.3-1.49-3.22-3.54c-.8,3.34-4.59,4.77-6.71,2.55s-1.71-7.19.73-8.81" transform="translate(-317 -83.93)"/><path class="cls-23" d="M549.4,152.08a12.32,12.32,0,0,1-4.32-3.65c-1-1.63-1.18-4.05.18-5.4a3.38,3.38,0,0,1,4.13-.32,5,5,0,0,1,2.1,3.91,3.27,3.27,0,0,1,2.65-3.24,4.08,4.08,0,0,1,3.89,1.76,4.16,4.16,0,0,1,.55,4.07,2.59,2.59,0,0,1-3.48,1.29,4.53,4.53,0,0,1,3,3.91,3.72,3.72,0,0,1-2.86,3.84,3.09,3.09,0,0,1-3.38-3.07c-.84,2.89-4.79,4.13-7,2.21s-1.79-6.23.76-7.64" transform="translate(-317 -83.93)"/><path class="cls-45" d="M424.91,110c-2.73-1.73-5.56-3.56-7.29-6.45s-2-7.16.31-9.54a5.51,5.51,0,0,1,7-.58,9,9,0,0,1,3.53,6.93,5.75,5.75,0,0,1,4.48-5.74,6.79,6.79,0,0,1,6.57,3.12,7.62,7.62,0,0,1,.91,7.2c-1,2.29-3.85,3.55-5.86,2.27a7.94,7.94,0,0,1,5.09,6.92c.15,3.14-2,6.34-4.83,6.79s-5.83-2.28-5.69-5.43c-1.41,5.12-8.09,7.32-11.84,3.9s-3-11,1.3-13.49" transform="translate(-317 -83.93)"/><path class="cls-43" d="M553.83,232.53c.42-1.09.9-2.16,1.29-3.25s.8-2.19,1.07-3.32l.87-3.36c.2-1.14.4-2.27.59-3.4a63.81,63.81,0,0,0,.44-13.49,95,95,0,0,0-2-12.59c-1-4-2-7.68-3.09-11.06-2.2-6.78-4.45-12.32-6-16.18s-2.59-6-2.59-6c.61,1.3,1.38,3,2.77,6,.88,1.9,1.93,4.21,3.1,6.87s2.44,5.7,3.69,9.07,2.47,7.06,3.58,11a87.57,87.57,0,0,1,2.37,12.78,61.6,61.6,0,0,1-.28,13.94c-.2,1.18-.41,2.35-.62,3.54s-.61,2.32-.92,3.49-.76,2.29-1.14,3.44-.93,2.23-1.39,3.35a76.35,76.35,0,0,1-6.94,11.88c-2.43,3.48-4.88,6.58-7.22,9.5-4.68,5.84-9,11-12.71,16.63a95.67,95.67,0,0,0-15.63,44.27,101.93,101.93,0,0,1,15-44.65c3.63-5.75,7.76-11.09,12.27-17.05,2.24-3,4.59-6.13,6.9-9.62A78.63,78.63,0,0,0,553.83,232.53Z" transform="translate(-317 -83.93)"/><path class="cls-43" d="M362.12,197.25l.27-1.79.36-1.78.72-3.54c.25-1.18.49-2.36.73-3.53l.37-1.76.45-1.73c1.22-4.61,2.35-9.16,3.84-13.45.72-2.16,1.36-4.3,2.12-6.35s1.55-4,2.3-6l1.12-2.87c.37-.94.81-1.84,1.2-2.74l2.33-5.16c.37-.83.74-1.64,1.1-2.43l1.16-2.26,2.16-4.18c.68-1.31,1.27-2.55,1.91-3.66s1.22-2.11,1.76-3l3.3-5.78-3.13,5.88-1.62,3.1c-.59,1.13-1.12,2.4-1.75,3.73s-1.26,2.77-1.95,4.27l-1.05,2.3-1,2.47c-.68,1.68-1.38,3.43-2.1,5.23-.35.91-.75,1.81-1.08,2.76s-.67,1.92-1,2.89c-.69,2-1.38,4-2.1,6s-1.27,4.19-1.94,6.34c-1.39,4.29-2.45,8.82-3.64,13.39l-.44,1.71-.37,1.74c-.24,1.17-.49,2.33-.73,3.5l-.75,3.51-.38,1.75-.3,1.77-1.18,7c-.1.56-.19,1.12-.29,1.67s-.14,1.11-.2,1.66l-.4,3.22q-.37,3.17-.74,6.14t-.43,5.8c-.13,1.89-.33,3.72-.38,5.53s-.1,3.58-.15,5.33-.12,3.48-.11,5.19.08,3.43.11,5.14.09,3.43.13,5.16.26,3.47.39,5.23.26,3.57.4,5.41.47,3.69.71,5.61.46,3.91.81,5.93.75,4.11,1.15,6.27c.19,1.08.4,2.18.6,3.31l.8,3.39c.56,2.3,1.13,4.69,1.73,7.19-.61-2.49-1.19-4.88-1.74-7.19l-.83-3.39q-.31-1.68-.63-3.3c-.42-2.16-.82-4.24-1.21-6.26s-.6-4-.89-5.92-.55-3.78-.82-5.61-.35-3.63-.52-5.4-.34-3.51-.51-5.24-.18-3.45-.26-5.16-.18-3.43-.26-5.15,0-3.46,0-5.22,0-3.54,0-5.36.14-3.66.21-5.56.19-3.85.28-5.86.39-4.06.59-6.19c.11-1.07.21-2.15.32-3.26.06-.55.11-1.11.17-1.67l.25-1.69Q361.57,200.94,362.12,197.25Z" transform="translate(-317 -83.93)"/><path class="cls-43" d="M383.47,277.44c-2.58-5.76-5-11.6-7-17.53a132,132,0,0,1-4.61-17.76,124.92,124.92,0,0,1-2-17.05,130.23,130.23,0,0,1,.1-15.37c.05-1.18.17-2.34.28-3.48s.19-2.24.32-3.32c.31-2.14.5-4.19.86-6.09s.61-3.69,1-5.32.63-3.14,1-4.48.62-2.53.88-3.6l.74-2.63c.28-1,.45-1.63.61-2.19-.15.57-.31,1.19-.58,2.2l-.69,2.65c-.23,1.07-.49,2.27-.77,3.61s-.55,2.86-.84,4.5-.52,3.43-.78,5.34-.41,4-.64,6.09c-.09,1.07-.13,2.18-.21,3.31s-.14,2.28-.15,3.46a137.23,137.23,0,0,0,.37,15.23,135,135,0,0,0,2.34,16.79,143.33,143.33,0,0,0,4.71,17.46c2,5.84,4.37,11.64,6.87,17.4,5.19,11.86,9.84,21.79,13.14,31.2A106.92,106.92,0,0,1,404.55,335a69.53,69.53,0,0,1-.29,13.66,52.82,52.82,0,0,1-7.32,21,47.52,47.52,0,0,1-5,6.67,37.61,37.61,0,0,1-15.27,10.35,37.12,37.12,0,0,0,15.22-10.4,46.41,46.41,0,0,0,5-6.69,51.1,51.1,0,0,0,3.48-7,50.43,50.43,0,0,0,3.51-14,66,66,0,0,0,0-13.55,105.4,105.4,0,0,0-6.72-26.78C393.66,299.06,388.84,289.28,383.47,277.44Z" transform="translate(-317 -83.93)"/><path class="cls-43" d="M408.71,361.72c-.3-2.83-.58-5.68-1-8.49-.2-1.41-.41-2.82-.61-4.22s-.47-2.79-.71-4.18-.48-2.78-.71-4.15l-.79-4.1c-.5-2.73-1-5.41-1.57-8.05-1.05-5.29-2.07-10.4-3-15.26-.48-2.43-.91-4.8-1.32-7.1s-.81-4.51-1.13-6.66-.68-4.18-.93-6.14-.48-3.81-.7-5.56c-.4-3.49-.6-6.56-.85-9.07-.2-4.18-.31-6.39-.39-7.93.12,1.53.28,3.74.58,7.91.34,2.51.65,5.55,1.19,9q.44,2.61.92,5.52c.32,1.94.76,4,1.16,6.08s.87,4.32,1.36,6.59,1,4.63,1.55,7l3.4,15.18c.58,2.64,1.17,5.32,1.7,8.05.27,1.36.54,2.73.82,4.11s.49,2.78.74,4.18.48,2.8.72,4.21.39,2.83.59,4.26c.44,2.84.7,5.71,1,8.59a117.5,117.5,0,0,1-1,30.91A89,89,0,0,1,402,416.68a100.8,100.8,0,0,1-6,10.9c-.59.88-1.19,1.77-1.8,2.66l-.91,1.35-1,1.32-2,2.67-2.2,2.63-1.12,1.34-1.2,1.3c-.82.87-1.61,1.78-2.48,2.65l-2.68,2.61c-.89.9-1.9,1.71-2.87,2.59a96.49,96.49,0,0,1-13.73,10,91.65,91.65,0,0,0,13.68-10c1-.89,2-1.7,2.86-2.61l2.65-2.64c.85-.87,1.64-1.79,2.44-2.66l1.18-1.32,1.1-1.35c.73-.9,1.45-1.78,2.15-2.66s1.32-1.8,2-2.69l1-1.33.89-1.36,1.74-2.68a97.41,97.41,0,0,0,5.75-11,87.75,87.75,0,0,0,7-24.14A120.56,120.56,0,0,0,408.71,361.72Z" transform="translate(-317 -83.93)"/><path class="cls-43" d="M427.6,389.83c0-3.49,0-7-.07-10.41s-.28-6.81-.5-10.08-.57-6.41-1-9.39c-.2-1.49-.4-2.94-.65-4.33s-.46-2.74-.73-4c-.13-.64-.26-1.27-.38-1.89l-.42-1.8c-.27-1.17-.53-2.28-.83-3.3s-.53-2-.81-2.89l-.78-2.43c-.46-1.47-.93-2.59-1.21-3.37-.18-.45-.32-.81-.46-1.18l.49,1.17c.3.77.82,1.87,1.36,3.31s1.25,3.19,1.92,5.23c.37,1,.7,2.11,1,3.27.18.58.36,1.17.54,1.78l.5,1.88c.35,1.28.68,2.62,1,4s.61,2.85.89,4.34c.56,3,1,6.17,1.37,9.46s.59,6.71.67,10.18.11,7,0,10.52c-.25,7.24-.79,13.31-1.36,18.81s-1.18,10.43-1.78,15.39-1.22,9.95-1.82,15.56S423.39,451.49,423,459c.75-14.91,1.85-25,2.65-34.94.42-5,.82-9.92,1.17-15.43S427.52,397,427.6,389.83Z" transform="translate(-317 -83.93)"/><path class="cls-38" d="M510.8,181.67a11.94,11.94,0,0,0,5.65-3.68l-3.58,4a14.32,14.32,0,0,0,9.15-4.45,7.23,7.23,0,0,1-5.5,5.58,8.81,8.81,0,0,0,7.4-2.35L520,184.15a19.22,19.22,0,0,0,10.25-3.85l-8.37,5.82a9.64,9.64,0,0,0,9.11-1,5.74,5.74,0,0,1-6.23,2.89" transform="translate(-317 -83.93)"/><path class="cls-43" d="M476.85,166.86a87.55,87.55,0,0,1-2.78-10.08c-.32-1.4-.58-2.57-.79-3.39s-.36-1.26-.36-1.26.17.44.54,1.2l1.54,3.13a51.78,51.78,0,0,1,3.68,9.85c1,3.82,1.41,6.48,1.91,9.15s1,5.38,1.84,9.34a86.13,86.13,0,0,0-2.52-9.17C479.06,173.06,478.12,170.55,476.85,166.86Z" transform="translate(-317 -83.93)"/><path class="cls-43" d="M476.93,169.59c-.35-1.75-.65-3.51-.95-5.17s-.54-3.21-.78-4.56c-.11-.67-.24-1.28-.35-1.83s-.22-1-.32-1.41c-.19-.77-.35-1.21-.35-1.21s.17.43.53,1.15c.18.36.41.79.64,1.3s.53,1.07.8,1.71.58,1.33.84,2.07.56,1.54.79,2.37a28.92,28.92,0,0,1,1,5.3,54.77,54.77,0,0,1,.1,9c-.17,2.6-.4,5.21-.88,9a42.58,42.58,0,0,0,.18-9A85.35,85.35,0,0,0,476.93,169.59Z" transform="translate(-317 -83.93)"/><path class="cls-43" d="M466.81,162.69a19.22,19.22,0,0,1,.55-6.13c.14-.58.3-1.25.49-2a5.57,5.57,0,0,0,.13-.76,7.05,7.05,0,0,0,.06.77c.06.49.17,1.19.31,2a27.33,27.33,0,0,1,.38,6.08c-.15,2.26-.35,3.82-.45,5.41a33.45,33.45,0,0,0,.05,5.54c-.22-2.35-.48-3.94-.75-5.51S467,165,466.81,162.69Z" transform="translate(-317 -83.93)"/><path class="cls-43" d="M444.2,393.72c-.31-1.4-.71-2.8-1.06-4.19s-.79-2.77-1.24-4.13c-.85-2.73-1.76-5.4-2.67-8-1.83-5.16-3.6-10-5-14.17-.7-2.1-1.33-4-1.84-5.74s-.94-3.22-1.3-4.46c-.44-1.69-.74-2.82-1-3.91l.3,1c.21.66.5,1.63.92,2.84s.94,2.69,1.61,4.35,1.42,3.53,2.26,5.56c1.7,4.06,3.79,8.74,5.8,13.88,1,2.56,2,5.24,2.88,8,.46,1.38.83,2.8,1.24,4.21s.73,2.86,1,4.31a61.59,61.59,0,0,1,1.25,15.81,58.64,58.64,0,0,1-2.22,12.81,61.31,61.31,0,0,1-4.92,12.13,60.15,60.15,0,0,1-9.39,13.1A54.63,54.63,0,0,0,440,434a56.9,56.9,0,0,0,4.44-12.21C446.3,413.71,446.87,405.33,444.2,393.72Z" transform="translate(-317 -83.93)"/><path class="cls-43" d="M374.85,281.87a124.19,124.19,0,0,1-8.35-24,87.7,87.7,0,0,1-1.8-11.61,71.52,71.52,0,0,1-.09-10.52A63,63,0,0,1,365.8,227a61.35,61.35,0,0,1,1.85-6.58c.32-.87.61-1.65.87-2.37s.55-1.25.74-1.71l.62-1.43-.59,1.44c-.18.47-.43,1-.68,1.73s-.49,1.52-.78,2.4a58.69,58.69,0,0,0-1.5,6.62,60.78,60.78,0,0,0-.73,8.73,75,75,0,0,0,.56,10.33,98.73,98.73,0,0,0,2.13,11.33,156.62,156.62,0,0,0,8.31,23.64c3.49,8.1,6.72,14.82,9.51,21s5.26,11.75,7.3,17.55a58.89,58.89,0,0,1,2.41,9,33.92,33.92,0,0,1,.37,9.91,24.68,24.68,0,0,1-3.67,10.33,18,18,0,0,1-9.75,7.75,17.79,17.79,0,0,0,9.69-7.78A24,24,0,0,0,396,338.53a32.67,32.67,0,0,0-.58-9.8,56,56,0,0,0-2.64-8.86c-2.2-5.69-4.86-11.16-7.83-17.23S378.51,290,374.85,281.87Z" transform="translate(-317 -83.93)"/><path class="cls-43" d="M561.72,243.15a110.52,110.52,0,0,0-.14-14.79c-.23-2.44-.48-4.86-.76-7.24s-.66-4.74-1.1-7a240.06,240.06,0,0,0-6-24.93q-.81-2.7-1.55-5.18c-.52-1.63-1-3.19-1.48-4.65-.92-2.93-1.8-5.45-2.49-7.54-1.43-4.17-2.3-6.54-2.3-6.54.53,1.37,1.22,3.18,2.48,6.47.77,2.06,1.76,4.55,2.81,7.43q.81,2.18,1.69,4.59l1.79,5.12a200,200,0,0,1,6.87,24.89c.5,2.32.81,4.71,1.23,7.11s.59,4.87.83,7.35a98.56,98.56,0,0,1,0,15.08,80.92,80.92,0,0,1-6.38,26.27A103.62,103.62,0,0,1,546,288.67c-4.21,5.79-8.82,11.32-14.16,17.37s-11.53,12.53-19.32,19.82a257.43,257.43,0,0,0,19.16-20,209.53,209.53,0,0,0,13.74-17.63A102.27,102.27,0,0,0,556,269,82.14,82.14,0,0,0,561.72,243.15Z" transform="translate(-317 -83.93)"/><path class="cls-47" d="M461.8,82.05" transform="translate(-317 -83.93)"/><path class="cls-43" d="M443.38,90.47a7.66,7.66,0,0,1-.82,1c-.15.15-.3.3-.43.45a5,5,0,0,0-.38.45,2.44,2.44,0,0,0-.49.84,1.17,1.17,0,0,0-.08.36,1.91,1.91,0,0,0-.11-.36,3.88,3.88,0,0,1-.14-.44,2.61,2.61,0,0,1-.14-.61,3.25,3.25,0,0,1,0-.77,4.48,4.48,0,0,1,.19-.83,3.25,3.25,0,0,1,1-1.43,8,8,0,0,1,2.5-1.23A22.85,22.85,0,0,0,447,87a6.62,6.62,0,0,0-2.12,1.52A15,15,0,0,0,443.38,90.47Z" transform="translate(-317 -83.93)"/><path class="cls-43" d="M432.1,89a14.23,14.23,0,0,1,2.81,1.81A17,17,0,0,1,437,92.89c.29.32.52.65.75.91l.56.71a6.17,6.17,0,0,0,.51.58,5.25,5.25,0,0,0-.64-.44c-.41-.26-1-.6-1.79-1s-1.62-.84-2.52-1.33-1.82-1-2.72-1.67c-1.86-1.26-3.16-2.13-4.54-2.9a21.59,21.59,0,0,0-5.14-2.08l5.41,1.43A31.35,31.35,0,0,1,432.1,89Z" transform="translate(-317 -83.93)"/><path class="cls-20" d="M585.5,560.62c1.2-2.6,3.61-4,5.39-3.22s2.26,3.57,1.07,6.16c0,.06-.18.68-.36,1.7a40,40,0,0,0-.53,4.11c-.27,3.32,2.09,7.82,3.28,11.71.68,2.23-2.73,5.07-4.76,6.63s-4.24,1-4.92-1.22" transform="translate(-317 -83.93)"/><path class="cls-20" d="M560.42,516.54l29.23-3.16,15.07,57.24c.88,11.83-2.87,14.44-13.43,15.19s-25.55,2.36-26.43-9.46" transform="translate(-317 -83.93)"/><path class="cls-24" d="M543.63,314.72c30.57,67.79,74.72,159.63,74.72,159.63s-50.46,103-62.55,96.28" transform="translate(-317 -83.93)"/><text class="cls-48" transform="translate(58.72 584.53) rotate(-11.09)">szani lee</text><path class="cls-43" d="M494.71,169.46a37.74,37.74,0,0,1-.29-6.09c0-.85,0-1.56,0-2.06a5.09,5.09,0,0,0-.08-.78,5.3,5.3,0,0,0,.27.74l.35.83c.13.33.3.69.45,1.09a16.47,16.47,0,0,1,1.23,6.15,36.66,36.66,0,0,1-.53,5.55c-.24,1.59-.51,3.19-.84,5.55a24.59,24.59,0,0,0,.15-5.58C495.27,173.27,495,171.71,494.71,169.46Z" transform="translate(-317 -83.93)"/></g></g></svg>