<?xml version="1.0" encoding="utf-8"?>
<!-- Generator: Adobe Illustrator 19.0.0, SVG Export Plug-In . SVG Version: 6.00 Build 0)  -->
<svg version="1.1" id="Layer_1" xmlns="http://www.w3.org/2000/svg" xmlns:xlink="http://www.w3.org/1999/xlink" x="0px" y="0px"
	 viewBox="0 0 800 800" style="enable-background:new 0 0 800 800;" xml:space="preserve">
<style type="text/css">
	.st0{fill:url(#XMLID_27_);}
	.st1{fill:none;stroke:#FFFFFF;stroke-width:6;stroke-miterlimit:10;}
	.st2{fill:none;stroke:#FFFFFF;stroke-width:2;stroke-miterlimit:10;}
	.st3{fill:#FFFFFF;}
	.st4{fill:none;stroke:#FFFFFF;stroke-width:4;stroke-miterlimit:10;}
	.st5{fill:#B1DED4;}
	.st6{fill:none;stroke:#FFFFFF;stroke-width:8;stroke-miterlimit:10;}
</style>
<linearGradient id="XMLID_27_" gradientUnits="userSpaceOnUse" x1="56" y1="395.5" x2="749" y2="395.5">
	<stop  offset="0" style="stop-color:#D2D2D2"/>
	<stop  offset="1" style="stop-color:#C3DCCA"/>
</linearGradient>
<ellipse id="XMLID_3_" class="st0" cx="402.5" cy="395.5" rx="346.5" ry="329.5"/>
<path id="XMLID_6_" class="st1" d="M500.5,176.2"/>
<path id="XMLID_1_" class="st1" d="M322.9,496.2"/>
<path id="XMLID_7_" class="st1" d="M534.4,193.9"/>
<path id="XMLID_2_" class="st1" d="M354.1,512.5"/>
<path id="XMLID_9_" class="st2" d="M309.8,574"/>
<path id="XMLID_8_" class="st2" d="M302.2,567.8"/>
<path id="XMLID_13_" class="st3" d="M557.2,593.5c6.4-14.6,13.2-35.4,20.2-61.9c13.6-51.7,24.3-110.2,29.3-144.6l0.1-0.6l0-0.6
	c0.2-6.4,1-35.3-2.1-52.9c9.2-7.5,15.5-18.7,17.3-31.1c2.1-14.4-3.6-34.9-17.5-62.7c-9.7-19.4-19.7-35-20.1-35.6l-11.8-18.3
	l-6.2,20.7c-6.3,21.1-13.8,31-20.9,40.6c-7.5,10-14.5,19.4-17.1,37.4c-1.8,12.5,1,25.3,7.6,35.9c-7.9,15.6-15.3,43.1-17,49.3
	l-0.2,0.6l-0.1,0.6c-5,34.4-11.4,93.7-13.1,147.7c-0.9,27.7-0.3,49.9,1.6,66.1c1.9,16.4,6,35.5,20.2,38.2
	C541.5,624.9,550.7,608.3,557.2,593.5z M548.8,329.4l42.7,6.4c1.2,8.5,3.3,22.5-1.6,41.1l-48.3-13.2
	C542,353.2,545.2,337.1,548.8,329.4z M590.1,317.1l-36.1-6.9c-0.2-0.3-0.5-0.7-0.7-1c-4.2-6.2-6.1-14-5-21.5
	c1.8-12.6,6.3-18.6,13.1-27.6c5.1-6.9,11.2-14.9,16.8-27.2c12.7,22.7,25.6,51.3,23.7,65C600.7,305.8,596.4,312.8,590.1,317.1z
	 M530.6,598.8c-2.5-6.9-13.4-26.5-10.9-86.9c1.9-45.6,7.4-99.2,11.6-131.1l62.5,14.8c-5,31.8-19.6,92.4-30.7,136.3
	C548.3,589.9,535,593.2,530.6,598.8z"/>
<path id="XMLID_16_" class="st4" d="M490.8,241.1"/>
<path id="XMLID_15_" class="st4" d="M383.8,353.1"/>
<g id="XMLID_24_">
	<path id="XMLID_25_" class="st3" d="M327.2,240.8c-94.2,0-169.5,76.4-169.5,172c0,95.5,75.3,172,169.5,172
		c15.1,0,28.2-13.3,28.2-28.6c0-7.6-1.8-13.3-7.5-19.1c-3.7-5.7-7.4-11.4-7.4-19c0-15.3,13.1-28.8,28.2-28.8h33.8
		c52.8,0,94.2-42,94.2-95.5C496.7,309.6,421.4,240.8,327.2,240.8L327.2,240.8z M215.2,395.5c-10.6,0-19.8-9.3-19.8-20
		s9.2-20,19.8-20c10.6,0,19.8,9.3,19.8,20S225.8,395.5,215.2,395.5L215.2,395.5z M430.9,412.8"/>
</g>
<ellipse id="XMLID_4_" class="st5" cx="255.5" cy="318" rx="20.5" ry="20.2"/>
<ellipse id="XMLID_18_" class="st5" cx="327.2" cy="293" rx="20.5" ry="20.2"/>
<ellipse id="XMLID_19_" class="st5" cx="402.5" cy="318" rx="20.5" ry="20.2"/>
<ellipse id="XMLID_21_" class="st5" cx="215.2" cy="452" rx="20.5" ry="20.2"/>
<ellipse id="XMLID_23_" class="st5" cx="443.5" cy="375.5" rx="20.5" ry="20.2"/>
<ellipse id="XMLID_14_" class="st6" cx="400.5" cy="395" rx="390.5" ry="374"/>
</svg>
