<?xml version="1.0" encoding="utf-8"?>
<!-- Generator: Adobe Illustrator 19.0.0, SVG Export Plug-In . SVG Version: 6.00 Build 0)  -->
<svg version="1.1" id="Layer_1" xmlns="http://www.w3.org/2000/svg" xmlns:xlink="http://www.w3.org/1999/xlink" x="0px" y="0px"
	 viewBox="0 0 800 800" style="enable-background:new 0 0 800 800;" xml:space="preserve">
<style type="text/css">
	.st0{fill:url(#XMLID_18_);stroke:url(#XMLID_19_);stroke-miterlimit:10;}
	.st1{fill:none;stroke:#FFFFFF;stroke-width:10;stroke-miterlimit:10;}
	.st2{fill:none;stroke:#FFFFFF;stroke-width:12;stroke-miterlimit:10;}
	.st3{fill:#FFFFFF;}
	.st4{fill:none;stroke:#FFFFFF;stroke-width:4;stroke-miterlimit:10;}
	.st5{fill:none;stroke:#FFFFFF;stroke-width:8;stroke-miterlimit:10;}
</style>
<linearGradient id="XMLID_18_" gradientUnits="userSpaceOnUse" x1="56" y1="396.5" x2="749" y2="396.5">
	<stop  offset="0" style="stop-color:#D2D2D2"/>
	<stop  offset="1" style="stop-color:#C3DCCA"/>
</linearGradient>
<linearGradient id="XMLID_19_" gradientUnits="userSpaceOnUse" x1="55.5" y1="396.5" x2="749.5" y2="396.5">
	<stop  offset="0" style="stop-color:#D2D2D2"/>
	<stop  offset="1" style="stop-color:#C1E4DB"/>
</linearGradient>
<ellipse id="XMLID_3_" class="st0" cx="402.5" cy="396.5" rx="346.5" ry="329.5"/>
<path id="XMLID_9_" class="st1" d="M191.4,296"/>
<path id="XMLID_5_" class="st2" d="M542.4,268"/>
<path id="XMLID_2_" class="st2" d="M336,268"/>
<path id="XMLID_6_" class="st2" d="M601.9,268"/>
<path id="XMLID_4_" class="st2" d="M555.6,268"/>
<path id="XMLID_10_" class="st3" d="M605,493c0,1.5-1.1,2.7-2.4,2.7L409.7,493v115h107.7c8.3,0,15-7.6,15-16.9s-6.7-16.9-15-16.9
	h-15.9v-44.7h101.1c17.9,0,32.4-16.4,32.4-36.5V262.4c0-20.1-14.5-36.5-32.4-36.5H300.9c-17.9,0-32.4,16.4-32.4,36.5v82.4l29.8,0.4
	l0.3-82.8c0-1.5,1.1-2.7,2.4-2.7h301.7c1.3,0,2.4,1.2,2.4,2.7V493L605,493z M605,493"/>
<path id="XMLID_11_" class="st3" d="M248.9,363.7c-15.4,0-27.9,14.1-27.9,31.5v175.3c0,17.4,12.5,31.5,27.9,31.5h104.1
	c15.4,0,27.9-14.1,27.9-31.5V395.2c0-17.4-12.5-31.5-27.9-31.5H248.9L248.9,363.7z M357.1,558H244.9V395.2c0-2.5,1.8-4.6,4.1-4.6
	h104.1c2.2,0,4.1,2.1,4.1,4.6V558z M301,590c-3.8,0-6.9-2.5-8.5-6c-0.7-1.5-1.2-3.1-1.2-4.9c0-6,4.3-10.9,9.7-10.9
	c5.4,0,9.7,4.9,9.7,10.9c0,1.8-0.5,3.4-1.2,4.9C307.9,587.5,304.8,590,301,590L301,590z M301,590"/>
<path id="XMLID_16_" class="st4" d="M128.9,981.3"/>
<ellipse id="XMLID_1_" class="st5" cx="402.5" cy="396.5" rx="390.5" ry="374"/>
</svg>
