<?xml version="1.0" encoding="utf-8"?>
<!-- Generator: Adobe Illustrator 19.0.0, SVG Export Plug-In . SVG Version: 6.00 Build 0)  -->
<svg version="1.1" id="Layer_1" xmlns="http://www.w3.org/2000/svg" xmlns:xlink="http://www.w3.org/1999/xlink" x="0px" y="0px"
	 viewBox="0 0 800 800" style="enable-background:new 0 0 800 800;" xml:space="preserve">
<style type="text/css">
	.st0{fill:url(#XMLID_12_);}
	.st1{fill:none;stroke:#FFFFFF;stroke-width:10;stroke-miterlimit:10;}
	.st2{fill:#FFFFFF;}
	.st3{fill:url(#XMLID_13_);stroke:#FFFFFF;stroke-width:14;stroke-miterlimit:10;}
	.st4{fill:none;stroke:#FFFFFF;stroke-width:4;stroke-miterlimit:10;}
	.st5{fill:none;stroke:#FFFFFF;stroke-width:8;stroke-miterlimit:10;}
</style>
<linearGradient id="XMLID_12_" gradientUnits="userSpaceOnUse" x1="54" y1="393.5" x2="747" y2="393.5">
	<stop  offset="0" style="stop-color:#D2D2D2"/>
	<stop  offset="1" style="stop-color:#C3DCCA"/>
</linearGradient>
<ellipse id="XMLID_3_" class="st0" cx="400.5" cy="393.5" rx="346.5" ry="329.5"/>
<path id="XMLID_9_" class="st1" d="M648.4,269.5"/>
<path id="XMLID_1_" class="st1" d="M158,269.5"/>
<path id="XMLID_6_" class="st1" d="M555,246"/>
<path id="XMLID_5_" class="st1" d="M262,246"/>
<path id="XMLID_10_" class="st2" d="M219.6,245"/>
<path id="XMLID_2_" class="st2" d="M205.1,245"/>
<path id="XMLID_7_" class="st1" d="M622.3,246"/>
<path id="XMLID_4_" class="st1" d="M570,246"/>
<g id="XMLID_16_">
	<linearGradient id="XMLID_13_" gradientUnits="userSpaceOnUse" x1="177.9232" y1="405.7664" x2="630.0768" y2="405.7664">
		<stop  offset="0" style="stop-color:#D2D2D2"/>
		<stop  offset="1" style="stop-color:#C3DCCA"/>
	</linearGradient>
	<path id="XMLID_17_" class="st3" d="M493.2,199.4c-2.1,39.7-41.3,71.5-89.2,71.5c-47.9,0-87.1-31.8-89.2-71.5l-132.2,20.3l-4.7,114
		l92.8,11.3v267.2h266.5V345l92.8-11.3v-114L493.2,199.4z"/>
</g>
<path id="XMLID_8_" class="st4" d="M606.4,1296.9"/>
<ellipse id="XMLID_14_" class="st5" cx="400.5" cy="393.5" rx="390.5" ry="374"/>
</svg>
